<?xml version="1.0" encoding="iso-8859-1"?>
<!-- Generator: Adobe Illustrator 19.0.0, SVG Export Plug-In . SVG Version: 6.00 Build 0)  -->
<svg version="1.1" id="Layer_1" xmlns="http://www.w3.org/2000/svg" xmlns:xlink="http://www.w3.org/1999/xlink" x="0px" y="0px"
	 viewBox="0 0 505 505" style="enable-background:new 0 0 505 505;" xml:space="preserve">
<circle style="fill:#324A5E;" cx="252.5" cy="252.5" r="252.5"/>
<path style="fill:#FFFFFF;" d="M431,221.2h-16.6C410.8,137.8,344,70.6,260.8,66.3V51h-19.7v15.5c-81.9,5.6-147.2,72.3-150.8,154.7
	H70.8v19.7h19.8c6.5,83.6,76.5,149.6,161.7,149.6s155.2-66,161.7-149.6h17V221.2z M252.3,370.8c-74.3,0-135.5-57.2-141.9-129.9H129
	v-19.7h-19c3.5-71.6,60.1-129.4,131.1-134.9v22.9h19.7V86.1c72.3,4.3,130.3,62.7,133.8,135.1h-21.8v19.7h21.4
	C387.8,313.6,326.6,370.8,252.3,370.8z"/>
<g>
	<rect x="315.1" y="219.3" style="fill:#54C0EB;" width="33.9" height="206"/>
	<rect x="152.9" y="272.1" style="fill:#54C0EB;" width="33.9" height="153.1"/>
	<rect x="207" y="312.6" style="fill:#54C0EB;" width="33.9" height="112.7"/>
	<rect x="261" y="245.2" style="fill:#54C0EB;" width="33.9" height="180.1"/>
</g>
<g>
</g>
<g>
</g>
<g>
</g>
<g>
</g>
<g>
</g>
<g>
</g>
<g>
</g>
<g>
</g>
<g>
</g>
<g>
</g>
<g>
</g>
<g>
</g>
<g>
</g>
<g>
</g>
<g>
</g>
</svg>
