<svg id="Calque_1" data-name="Calque 1" xmlns="http://www.w3.org/2000/svg" viewBox="0 0 60 60"><defs><style>.cls-1,.cls-4{fill:#fff;}.cls-2{fill:none;}.cls-2,.cls-4{stroke:#fff;stroke-miterlimit:10;}.cls-3{fill:#4fb26d;}.cls-4{stroke-width:0.5px;}</style></defs><title>Plan de travail 1 copie 13</title><path class="cls-1" d="M8.34,41.84a.13.13,0,0,1,.1,0l.27.29a1.46,1.46,0,0,1-.54.42,1.86,1.86,0,0,1-.77.15,1.82,1.82,0,0,1-.72-.14,1.58,1.58,0,0,1-.55-.38,1.67,1.67,0,0,1-.35-.58,2.19,2.19,0,0,1-.12-.74,2.07,2.07,0,0,1,.13-.75,1.72,1.72,0,0,1,.37-.58,1.66,1.66,0,0,1,.56-.38A1.87,1.87,0,0,1,7.43,39a1.78,1.78,0,0,1,.7.13,1.67,1.67,0,0,1,.52.34l-.23.31-.05.05-.09,0-.08,0-.09-.05L8,39.75l-.15-.07-.19-.05-.25,0A1.11,1.11,0,0,0,7,39.7a1,1,0,0,0-.35.25,1.15,1.15,0,0,0-.23.4,1.68,1.68,0,0,0-.08.54,1.58,1.58,0,0,0,.09.54,1.18,1.18,0,0,0,.23.4,1,1,0,0,0,.35.25,1.07,1.07,0,0,0,.43.09l.25,0,.21,0L8.07,42l.17-.13.05,0Z"/><path class="cls-1" d="M12.54,40.89a2,2,0,0,1-.13.74,1.73,1.73,0,0,1-.37.59,1.69,1.69,0,0,1-.58.39,2.09,2.09,0,0,1-1.5,0,1.7,1.7,0,0,1-.58-.39A1.73,1.73,0,0,1,9,41.62a2.11,2.11,0,0,1,0-1.47,1.73,1.73,0,0,1,.37-.59,1.69,1.69,0,0,1,.58-.39,1.94,1.94,0,0,1,.75-.14,2,2,0,0,1,.52.06,1.81,1.81,0,0,1,.44.18,1.63,1.63,0,0,1,.36.28,1.73,1.73,0,0,1,.27.37,1.82,1.82,0,0,1,.17.44A2.1,2.1,0,0,1,12.54,40.89Zm-.69,0a1.66,1.66,0,0,0-.08-.53,1.15,1.15,0,0,0-.23-.4,1,1,0,0,0-.36-.25,1.34,1.34,0,0,0-1,0,1,1,0,0,0-.36.25,1.14,1.14,0,0,0-.23.4,1.82,1.82,0,0,0,0,1.07,1.12,1.12,0,0,0,.23.4,1,1,0,0,0,.36.25,1.34,1.34,0,0,0,1,0,1,1,0,0,0,.36-.25,1.13,1.13,0,0,0,.23-.4A1.66,1.66,0,0,0,11.85,40.89Z"/><path class="cls-1" d="M17,39.08v3.62h-.59V40.36q0-.14,0-.3l-1.09,2.05a.25.25,0,0,1-.24.15H15a.25.25,0,0,1-.24-.15L13.7,40v.16c0,.05,0,.1,0,.15v2.33h-.59V39.08h.64l0,0,0,.06,1.08,2,.08.17.07.17.07-.18.08-.17,1.07-2,0-.06,0,0H17Z"/><path class="cls-1" d="M19,39.08a2.06,2.06,0,0,1,.63.09,1.21,1.21,0,0,1,.44.24,1,1,0,0,1,.26.36,1.26,1.26,0,0,1,.08.47,1.29,1.29,0,0,1-.09.48,1,1,0,0,1-.26.38,1.22,1.22,0,0,1-.44.25,2,2,0,0,1-.62.09h-.5v1.27h-.67V39.08Zm0,1.82a1,1,0,0,0,.32,0,.62.62,0,0,0,.23-.13.54.54,0,0,0,.14-.21.81.81,0,0,0,0-.28.74.74,0,0,0,0-.26.52.52,0,0,0-.14-.2.6.6,0,0,0-.23-.13,1.07,1.07,0,0,0-.32,0h-.5v1.3Z"/><path class="cls-1" d="M23.07,42.14v.56H20.95V39.08h.67v3.06Z"/><path class="cls-1" d="M24.22,42.69h-.68V39.08h.68Z"/><path class="cls-1" d="M28.13,42.69h-.52a.22.22,0,0,1-.14,0,.27.27,0,0,1-.08-.11l-.27-.74h-1.5l-.27.74a.24.24,0,0,1-.08.1.22.22,0,0,1-.14,0H24.6L26,39.08h.69Zm-1.19-1.37-.44-1.2-.07-.19-.07-.24-.07.24-.07.19-.44,1.2Z"/><path class="cls-1" d="M31.55,39.08v3.62H31.2a.3.3,0,0,1-.13,0,.31.31,0,0,1-.1-.09l-1.89-2.41q0,.16,0,.3v2.22H28.5V39.08h.43l.06,0,0,0,0,.06L31,41.61c0-.06,0-.12,0-.17s0-.11,0-.16v-2.2Z"/><path class="cls-1" d="M34.84,41.84a.13.13,0,0,1,.1,0l.27.29a1.46,1.46,0,0,1-.54.42,1.86,1.86,0,0,1-.77.15,1.82,1.82,0,0,1-.72-.14,1.58,1.58,0,0,1-.55-.38,1.67,1.67,0,0,1-.35-.58,2.19,2.19,0,0,1-.12-.74,2.07,2.07,0,0,1,.13-.75,1.72,1.72,0,0,1,.37-.58,1.66,1.66,0,0,1,.56-.38,1.87,1.87,0,0,1,.73-.14,1.78,1.78,0,0,1,.7.13,1.67,1.67,0,0,1,.52.34l-.23.31-.05.05-.09,0-.08,0-.09-.05-.11-.07-.15-.07-.19-.05-.25,0a1.11,1.11,0,0,0-.44.09,1,1,0,0,0-.35.25,1.15,1.15,0,0,0-.23.4,1.68,1.68,0,0,0-.08.54,1.58,1.58,0,0,0,.09.54,1.18,1.18,0,0,0,.23.4,1,1,0,0,0,.35.25,1.07,1.07,0,0,0,.43.09l.25,0,.21,0,.18-.08.17-.13.05,0Z"/><path class="cls-1" d="M36.34,39.61v1H37.6v.52H36.34v1h1.6v.54H35.66V39.08h2.28v.54Z"/><path class="cls-1" d="M41.68,39.74a.23.23,0,0,1-.06.08l-.08,0a.21.21,0,0,1-.11,0l-.15-.09-.2-.09a.83.83,0,0,0-.27,0,.8.8,0,0,0-.25,0,.51.51,0,0,0-.18.09.38.38,0,0,0-.11.14.48.48,0,0,0,0,.18.32.32,0,0,0,.07.21.6.6,0,0,0,.19.15l.27.11.31.1.31.13a1.08,1.08,0,0,1,.27.18.81.81,0,0,1,.19.27.93.93,0,0,1,.07.38,1.24,1.24,0,0,1-.08.46,1.06,1.06,0,0,1-.24.37,1.16,1.16,0,0,1-.39.25,1.44,1.44,0,0,1-.53.09,1.72,1.72,0,0,1-.34,0,1.81,1.81,0,0,1-.32-.1,1.72,1.72,0,0,1-.29-.15,1.37,1.37,0,0,1-.24-.19l.2-.32.06-.06.08,0a.24.24,0,0,1,.14.05l.17.11.23.11a.9.9,0,0,0,.32.05.66.66,0,0,0,.44-.14.49.49,0,0,0,.16-.39.36.36,0,0,0-.07-.23.58.58,0,0,0-.19-.15,1.42,1.42,0,0,0-.27-.1l-.3-.09L40.14,41a1,1,0,0,1-.27-.18.83.83,0,0,1-.19-.28,1.07,1.07,0,0,1-.07-.42,1,1,0,0,1,.08-.38,1,1,0,0,1,.23-.33,1.12,1.12,0,0,1,.37-.23,1.35,1.35,0,0,1,.5-.09,1.69,1.69,0,0,1,.59.1,1.34,1.34,0,0,1,.46.28Z"/><path class="cls-1" d="M45.54,39.08v3.62h-.68V41.11h-1.7v1.58h-.68V39.08h.68v1.56h1.7V39.08Z"/><path class="cls-1" d="M47,39.61v1h1.26v.52H47v1h1.6v.54H46.35V39.08h2.28v.54Z"/><path class="cls-1" d="M49.9,39.61v1h1.26v.52H49.9v1h1.6v.54H49.22V39.08H51.5v.54Z"/><path class="cls-1" d="M54.62,39.63H53.53v3.06h-.67V39.63H51.77v-.55h2.85Z"/><path class="cls-1" d="M56.76,39.37h-.44v1.23h-.27V39.37h-.44v-.22h1.14Z"/><path class="cls-1" d="M58.52,39.15v1.45h-.24v-.93s0-.08,0-.12l-.44.82a.1.1,0,0,1-.1.06h0a.1.1,0,0,1-.1-.06l-.44-.82v.06s0,0,0,.06v.93H57V39.15h.28l0,0,.43.8,0,.07,0,.07,0-.07,0-.07.43-.8,0,0h.28Z"/><path class="cls-1" d="M35.59,18.26H29.8a.36.36,0,0,0,0,.72h5.82a.36.36,0,0,0,0-.72Z"/><path class="cls-1" d="M35.59,22.24H29.8a.36.36,0,0,0,0,.72h5.82a.36.36,0,0,0,0-.72Z"/><path class="cls-1" d="M32.79,26.21H29.74c-.11,0-.19.16-.19.36s.09.36.19.36h3.05c.11,0,.19-.16.19-.36S32.89,26.21,32.79,26.21Z"/><path class="cls-2" d="M42.84,30.87H41.28a.37.37,0,0,1-.4-.32V16a.25.25,0,0,1,0-.06l.78-3.15a.43.43,0,0,1,.78,0l.78,3.15a.26.26,0,0,1,0,.06V30.55A.36.36,0,0,1,42.84,30.87Z"/><polygon class="cls-3" points="26.79 18.02 26 18.83 25.6 18.42 25.38 18.64 26.02 19.27 27.04 18.28 26.79 18.02"/><path class="cls-3" d="M26.18,17a1.63,1.63,0,1,0,1.63,1.63A1.63,1.63,0,0,0,26.18,17Zm0,3a1.33,1.33,0,1,1,1.33-1.33A1.33,1.33,0,0,1,26.18,20h0Z"/><polygon class="cls-3" points="26.79 22 26 22.8 25.6 22.4 25.38 22.61 26.02 23.25 27.04 22.26 26.79 22"/><path class="cls-3" d="M26.18,21a1.63,1.63,0,1,0,1.63,1.63A1.63,1.63,0,0,0,26.18,21Zm0,3a1.33,1.33,0,1,1,1.33-1.33,1.33,1.33,0,0,1-1.33,1.33h0Z"/><polygon class="cls-3" points="26.79 25.93 26 26.73 25.6 26.33 25.38 26.55 26.02 27.18 27.04 26.19 26.79 25.93"/><path class="cls-3" d="M26.18,24.9a1.63,1.63,0,1,0,1.63,1.63,1.63,1.63,0,0,0-1.63-1.63Zm0,3a1.33,1.33,0,1,1,1.33-1.33,1.33,1.33,0,0,1-1.33,1.33Z"/><path class="cls-4" d="M33.83,10.79h-11V31.21L37.45,31a1.23,1.23,0,0,0,1.22-1.22l.13-14.06Zm.2,1.16,3.59,3.59H34Zm4.09,18.58H23.48V11.47h9.87v4.77h4.77Z"/></svg>