<?xml version="1.0" encoding="utf-8"?>
<!-- Generator: Adobe Illustrator 21.1.0, SVG Export Plug-In . SVG Version: 6.00 Build 0)  -->
<svg version="1.1" id="Calque_1" xmlns="http://www.w3.org/2000/svg" xmlns:xlink="http://www.w3.org/1999/xlink" x="0px" y="0px"
	 viewBox="0 0 60 60" style="enable-background:new 0 0 60 60;" xml:space="preserve">
<style type="text/css">
	.st0{fill:none;}
	.st1{enable-background:new    ;}
	.st2{fill:#203D59;}
	.st3{fill:#5A9DD6;}
</style>
<rect x="-0.1" y="43.9" class="st0" width="52.9" height="7"/>
<g class="st1">
	<path class="st2" d="M11.2,47c0,0.4-0.1,0.8-0.2,1.2c-0.1,0.4-0.3,0.7-0.6,0.9c-0.3,0.3-0.6,0.5-0.9,0.6c-0.4,0.1-0.8,0.2-1.2,0.2
		H6.1v-5.8h2.2c0.4,0,0.8,0.1,1.2,0.2c0.4,0.1,0.7,0.3,0.9,0.6c0.3,0.3,0.5,0.6,0.6,0.9C11.1,46.2,11.2,46.6,11.2,47z M10.1,47
		c0-0.3,0-0.6-0.1-0.9s-0.2-0.5-0.4-0.6S9.3,45.2,9,45.1C8.8,45,8.6,45,8.3,45H7.1V49h1.1c0.3,0,0.5,0,0.8-0.1
		c0.2-0.1,0.4-0.2,0.6-0.4c0.2-0.2,0.3-0.4,0.4-0.6S10.1,47.3,10.1,47z"/>
	<path class="st2" d="M16.9,49.9h-0.8c-0.1,0-0.2,0-0.2-0.1c-0.1,0-0.1-0.1-0.1-0.2l-0.4-1.2h-2.4l-0.4,1.2c0,0.1-0.1,0.1-0.1,0.2
		s-0.1,0.1-0.2,0.1h-0.8l2.3-5.8h1.1L16.9,49.9z M15,47.7l-0.7-1.9c0-0.1-0.1-0.2-0.1-0.3c0-0.1-0.1-0.2-0.1-0.4
		c0,0.1-0.1,0.3-0.1,0.4c0,0.1-0.1,0.2-0.1,0.3l-0.7,1.9H15z"/>
	<path class="st2" d="M21,45h-1.7v4.9h-1.1V45h-1.7v-0.9H21V45z"/>
	<path class="st2" d="M26.2,49.9h-0.8c-0.1,0-0.2,0-0.2-0.1c-0.1,0-0.1-0.1-0.1-0.2l-0.4-1.2h-2.4l-0.4,1.2c0,0.1-0.1,0.1-0.1,0.2
		s-0.1,0.1-0.2,0.1h-0.8l2.3-5.8h1.1L26.2,49.9z M24.3,47.7l-0.7-1.9c0-0.1-0.1-0.2-0.1-0.3c0-0.1-0.1-0.2-0.1-0.4
		c0,0.1-0.1,0.3-0.1,0.4c0,0.1-0.1,0.2-0.1,0.3l-0.7,1.9H24.3z"/>
	<path class="st2" d="M28.7,44.1c0.4,0,0.7,0,1,0.1c0.3,0.1,0.5,0.2,0.7,0.3c0.2,0.1,0.3,0.3,0.4,0.5s0.1,0.4,0.1,0.6
		c0,0.1,0,0.3-0.1,0.4c0,0.1-0.1,0.2-0.2,0.3c-0.1,0.1-0.2,0.2-0.3,0.3s-0.3,0.2-0.5,0.2c0.8,0.2,1.2,0.6,1.2,1.3
		c0,0.2,0,0.5-0.1,0.7s-0.2,0.4-0.4,0.5c-0.2,0.2-0.4,0.3-0.7,0.4c-0.3,0.1-0.6,0.1-0.9,0.1h-2.2v-5.8H28.7z M27.8,44.9v1.7h0.9
		c0.4,0,0.6-0.1,0.8-0.2c0.2-0.1,0.3-0.3,0.3-0.6c0-0.3-0.1-0.5-0.3-0.6c-0.2-0.1-0.4-0.2-0.8-0.2H27.8z M28.9,49
		c0.2,0,0.4,0,0.5-0.1s0.2-0.1,0.3-0.2c0.1-0.1,0.1-0.2,0.2-0.3s0.1-0.2,0.1-0.3c0-0.1,0-0.2-0.1-0.3c0-0.1-0.1-0.2-0.2-0.3
		c-0.1-0.1-0.2-0.1-0.3-0.2c-0.1,0-0.3-0.1-0.5-0.1h-1.1V49H28.9z"/>
	<path class="st2" d="M36.9,49.9h-0.8c-0.1,0-0.2,0-0.2-0.1c-0.1,0-0.1-0.1-0.1-0.2l-0.4-1.2h-2.4l-0.4,1.2c0,0.1-0.1,0.1-0.1,0.2
		s-0.1,0.1-0.2,0.1h-0.8l2.3-5.8h1.1L36.9,49.9z M35,47.7l-0.7-1.9c0-0.1-0.1-0.2-0.1-0.3c0-0.1-0.1-0.2-0.1-0.4
		c0,0.1-0.1,0.3-0.1,0.4c0,0.1-0.1,0.2-0.1,0.3l-0.7,1.9H35z"/>
	<path class="st2" d="M40.6,45.1c0,0.1-0.1,0.1-0.1,0.1s-0.1,0-0.1,0c-0.1,0-0.1,0-0.2-0.1c-0.1,0-0.1-0.1-0.2-0.1
		c-0.1,0-0.2-0.1-0.3-0.1c-0.1,0-0.3-0.1-0.4-0.1c-0.1,0-0.3,0-0.4,0.1s-0.2,0.1-0.3,0.2c-0.1,0.1-0.1,0.1-0.2,0.2
		c0,0.1-0.1,0.2-0.1,0.3c0,0.1,0,0.2,0.1,0.3c0.1,0.1,0.2,0.2,0.3,0.2c0.1,0.1,0.3,0.1,0.4,0.2s0.3,0.1,0.5,0.2s0.3,0.1,0.5,0.2
		s0.3,0.2,0.4,0.3c0.1,0.1,0.2,0.3,0.3,0.4s0.1,0.4,0.1,0.6c0,0.3,0,0.5-0.1,0.7c-0.1,0.2-0.2,0.4-0.4,0.6c-0.2,0.2-0.4,0.3-0.6,0.4
		s-0.5,0.1-0.9,0.1c-0.2,0-0.4,0-0.5-0.1s-0.4-0.1-0.5-0.2c-0.2-0.1-0.3-0.1-0.5-0.2c-0.1-0.1-0.3-0.2-0.4-0.3l0.3-0.5
		c0,0,0.1-0.1,0.1-0.1c0,0,0.1,0,0.1,0c0.1,0,0.1,0,0.2,0.1c0.1,0.1,0.2,0.1,0.3,0.2c0.1,0.1,0.2,0.1,0.4,0.2
		c0.1,0.1,0.3,0.1,0.5,0.1c0.3,0,0.5-0.1,0.7-0.2s0.3-0.4,0.3-0.6c0-0.2,0-0.3-0.1-0.4c-0.1-0.1-0.2-0.2-0.3-0.2
		c-0.1-0.1-0.3-0.1-0.4-0.2c-0.2,0-0.3-0.1-0.5-0.1c-0.2-0.1-0.3-0.1-0.5-0.2c-0.2-0.1-0.3-0.2-0.4-0.3c-0.1-0.1-0.2-0.3-0.3-0.5
		c-0.1-0.2-0.1-0.4-0.1-0.7c0-0.2,0-0.4,0.1-0.6s0.2-0.4,0.4-0.5c0.2-0.2,0.4-0.3,0.6-0.4s0.5-0.1,0.8-0.1c0.3,0,0.7,0.1,0.9,0.2
		c0.3,0.1,0.5,0.3,0.7,0.4L40.6,45.1z"/>
	<path class="st2" d="M43,45v1.6h2v0.8h-2V49h2.6v0.9h-3.6v-5.8h3.6V45H43z"/>
</g>
<rect x="44.3" y="43.3" class="st0" width="15.6" height="4.2"/>
<g class="st1">
	<path class="st2" d="M51.4,43.9h-0.9v2.5H50v-2.5h-0.9v-0.4h2.3V43.9z"/>
	<path class="st2" d="M54.9,43.4v2.9h-0.5v-1.9c0-0.1,0-0.2,0-0.2l-0.9,1.6c0,0.1-0.1,0.1-0.2,0.1h-0.1c-0.1,0-0.1,0-0.2-0.1
		l-0.9-1.6c0,0,0,0.1,0,0.1c0,0,0,0.1,0,0.1v1.9h-0.5v-2.9h0.4c0,0,0,0,0.1,0c0,0,0,0,0,0c0,0,0,0,0,0c0,0,0,0,0,0l0.9,1.6
		c0,0,0,0.1,0.1,0.1c0,0,0,0.1,0.1,0.1c0,0,0-0.1,0.1-0.1c0,0,0-0.1,0.1-0.1l0.9-1.6c0,0,0,0,0,0c0,0,0,0,0,0c0,0,0,0,0,0
		c0,0,0,0,0.1,0H54.9z"/>
</g>
<g>
	<path class="st3" d="M30,29.9l-1.8-0.6l0,0c0-0.2,0-0.4,0-0.7l0.3-0.1L30,28c0.2-0.1,0.3-0.3,0.3-0.5l-0.2-1.3
		c0-0.2-0.2-0.3-0.4-0.3h-0.4L27.7,26c-0.1-0.2-0.2-0.4-0.3-0.6l1.5-1.2c0.2-0.1,0.2-0.4,0.1-0.5l-0.2-0.3l-0.5-0.9
		c-0.1-0.1-0.2-0.2-0.4-0.2c-0.1,0-0.1,0-0.1,0l-1.9,0.9c-0.1-0.1-0.2-0.3-0.4-0.4l1-1.7c0.1-0.2,0.1-0.4-0.1-0.5l-1-0.8
		c-0.1-0.1-0.3-0.1-0.4,0c0,0-0.1,0-0.1,0.1l-0.9,1l-0.6,0.6l0,0h-0.1l0.2-2.1c0-0.2-0.1-0.4-0.3-0.4l-0.7-0.2L22,18.7h-0.1
		c-0.1,0-0.2,0-0.3,0c-0.1,0.1-0.2,0.1-0.2,0.2L21,20.1L20.6,21c-0.1,0-0.3,0-0.4,0c0,0,0,0,0-0.1l-0.3-1l0,0l-0.4-1.1
		c0-0.1-0.1-0.1-0.1-0.2c-0.1-0.1-0.2-0.1-0.3-0.1l-1.3,0.3c-0.2,0-0.3,0.2-0.3,0.4l0.2,2.1c-0.1,0-0.3,0.1-0.4,0.2l0,0l-1.4-1.6
		c-0.1-0.2-0.4-0.2-0.5-0.1l-1.1,0.7C14,20.6,13.9,20.8,14,21l0.9,1.9c-0.1,0.1-0.3,0.2-0.4,0.3l0,0l-1.9-1
		c-0.2-0.1-0.4-0.1-0.5,0.1l-0.8,1.1c-0.1,0.2-0.1,0.4,0.1,0.5l0.9,0.9l0.7,0.6l0,0c-0.1,0.2-0.2,0.3-0.2,0.5l0,0l-2.2-0.2
		c-0.2,0-0.4,0.1-0.4,0.3l-0.3,1.3c0,0.2,0.1,0.4,0.3,0.5l2,0.7l0,0c0,0.2,0,0.3,0,0.5l0,0l-2.1,0.7c-0.2,0.1-0.3,0.3-0.3,0.5
		l0.2,1.3c0,0.2,0.2,0.3,0.4,0.3l2.1-0.1c0.1,0.2,0.1,0.3,0.2,0.5l-0.2,0.1L11,33.5c-0.2,0.1-0.2,0.4-0.1,0.5l0.7,1.1
		c0.1,0.2,0.3,0.2,0.5,0.1l1.9-0.9c0.1,0.1,0.2,0.2,0.3,0.4l-0.4,0.7l-0.6,1.1c-0.1,0.2-0.1,0.4,0.1,0.5l1.1,0.8
		c0.2,0.1,0.4,0.1,0.5-0.1l1.4-1.5c0.2,0.1,0.3,0.2,0.5,0.2l-0.2,2c0,0.2,0.1,0.4,0.3,0.4l1.1,0.2h0.2c0.2,0,0.4-0.1,0.5-0.3
		l0.5-1.3l0.2-0.7c0.1,0,0.2,0,0.3,0l0.4,1.2l0.1,0.4l0.1,0.3c0.1,0.2,0.3,0.3,0.5,0.3l1.3-0.2c0.1,0,0.1,0,0.2-0.1s0.1-0.2,0.1-0.3
		v-0.8v-0.7v-0.4c0,0,0.1,0,0.2-0.1c0.1,0,0.3-0.1,0.4-0.1v0.1l1.2,1.4c0.1,0.2,0.4,0.2,0.5,0.1l1.1-0.7c0.2-0.1,0.2-0.3,0.1-0.5
		L25.4,35c0.2-0.1,0.3-0.3,0.5-0.4l1.7,0.9c0.2,0.1,0.4,0.1,0.5-0.1l0.8-1.1c0.1-0.2,0.1-0.4-0.1-0.5l-1.4-1.3
		c0.1-0.2,0.2-0.4,0.3-0.6l1.9,0.2c0.2,0,0.4-0.1,0.4-0.3l0.3-1.3C30.3,30.2,30.2,30,30,29.9z M26,27.5c0.5,1.9,0,3.9-1.3,5.4
		l-1.6-1.4L23,31.2c0.1-0.1,0.2-0.2,0.2-0.4c0.5-0.8,0.7-1.7,0.5-2.7L26,27.5z M25.6,26.3L23.5,27l-0.2,0.1
		c-0.2-0.3-0.4-0.5-0.6-0.8c-0.2-0.2-0.5-0.4-0.8-0.6c-0.1-0.1-0.2-0.1-0.3-0.2l0.5-2.1v-0.2C23.6,23.8,24.9,24.9,25.6,26.3z
		 M19.9,30.5c-0.8-0.2-1.4-1-1.2-1.9c0.2-0.8,1-1.4,1.9-1.2c0.3,0.1,0.5,0.2,0.7,0.4c0.2,0.2,0.4,0.4,0.4,0.7
		c0.1,0.3,0.1,0.6,0.1,0.9c-0.1,0.4-0.3,0.7-0.7,1C20.7,30.5,20.3,30.6,19.9,30.5L19.9,30.5z M19,23.1c0.6-0.1,1.2-0.2,1.9-0.1
		l-0.5,2.4c-0.5,0-1.1,0.1-1.5,0.3c-0.2,0.1-0.5,0.2-0.7,0.4l-1.8-1.6C17.2,23.7,18.1,23.3,19,23.1z M14.4,30.5
		c-0.3-0.9-0.3-1.9-0.1-2.9c0.2-0.9,0.6-1.7,1.2-2.4l1.8,1.6c-0.6,0.9-0.8,2-0.6,3l-0.9,0.3L14.4,30.5z M15.3,32.4
		c-0.2-0.2-0.3-0.4-0.4-0.7l1.1-0.3l1.3-0.4c0.3,0.4,0.7,0.8,1.2,1.1c0.2,0.1,0.3,0.2,0.5,0.2l-0.5,2.4c-0.5-0.2-1-0.4-1.4-0.7
		C16.3,33.5,15.7,33,15.3,32.4L15.3,32.4z M23,34.2c-0.7,0.4-1.5,0.6-2.3,0.7h-0.1c-0.3,0-0.6,0-0.9,0c-0.1,0-0.1,0-0.2,0l0.5-2.4
		c0.2,0,0.4,0,0.7,0c0.1,0,0.1,0,0.2,0c0.2,0,0.3-0.1,0.5-0.1c0.2-0.1,0.5-0.2,0.7-0.3l1,0.9l0.8,0.7C23.6,33.9,23.3,34.1,23,34.2
		L23,34.2z"/>
	<path class="st2" d="M32.3,15c-6.9,0-12.5-1.6-12.5-3.6s5.6-3.6,12.5-3.6s12.5,1.6,12.5,3.6S39.2,15,32.3,15z"/>
	<path class="st2" d="M44.8,14.3v4.3c0,2-5.6,3.6-12.5,3.6c-1.1,0-2.1,0-3.1-0.1c-0.3-0.2-0.6-0.3-0.9-0.3c0-0.6-0.3-1.1-0.8-1.5
		l-1-0.8c-0.4-0.3-0.8-0.4-1.3-0.4c-0.2,0-0.3,0-0.5,0.1c-0.3-0.5-0.7-0.9-1.2-1l-1.2-0.4c-0.2-0.1-0.4-0.1-0.6-0.1
		c-0.4,0-0.8,0.1-1.1,0.3l-0.1,0.1c-0.1-0.1-0.2-0.1-0.3-0.2c-0.1-0.1-0.3-0.1-0.4-0.2v-3.3c3.6,2.4,11.3,2.5,12.5,2.5
		C33.4,16.7,41.2,16.6,44.8,14.3z"/>
	<path class="st2" d="M32.3,29.2c-0.2,0-0.4,0-0.5,0c0.1-0.3,0.2-0.7,0.1-1L31.7,27c-0.1-0.6-0.5-1.2-1-1.5c0.2-0.5,0.2-1.1-0.1-1.7
		c0.9,0,1.5,0,1.8,0c1.1,0,8.9-0.1,12.5-2.5v4.3C44.8,27.6,39.2,29.2,32.3,29.2z"/>
	<path class="st2" d="M30.2,34.2c0.6-0.2,1-0.8,1.1-1.4l0.3-1.2c0.1-0.2,0.1-0.5,0.1-0.7c0.3,0,0.5,0,0.6,0c1.1,0,8.9-0.1,12.5-2.5
		v4.3c0,2-5.6,3.6-12.5,3.6c-0.9,0-1.8,0-2.7-0.1l0.2-0.3C30.2,35.4,30.4,34.8,30.2,34.2z"/>
</g>
</svg>
