<svg id="Calque_1" data-name="Calque 1" xmlns="http://www.w3.org/2000/svg" viewBox="0 0 50 50"><defs><style>.cls-1{font-size:6px;}.cls-1,.cls-2,.cls-3,.cls-4{fill:#203d59;}.cls-1,.cls-2{font-family:Lato-Bold, Lato;font-weight:700;}.cls-2{font-size:2px;}.cls-3,.cls-5{stroke:#203d59;stroke-miterlimit:10;}.cls-3{stroke-width:0.5px;}.cls-5{fill:none;}.cls-6{fill:#066a36;}</style></defs><title>Plan de travail 2 copie 18</title><text class="cls-1" transform="translate(5.32 40.8)">COMPLIANCE <tspan x="0" y="7.2">SHEET</tspan></text><text class="cls-2" transform="translate(46.17 37.83)">TM</text><path class="cls-3" d="M29.23,3.19H13.14V33l21.36-.26a1.79,1.79,0,0,0,1.77-1.78l.19-20.5Zm.29,1.69,5.24,5.24H29.52Zm6,27.1H14.13V4.18h14.4v7h7Z"/><path class="cls-4" d="M31,13.61H23.06a.5.5,0,0,0-.05,1h8a.5.5,0,0,0,.05-1Z"/><path class="cls-4" d="M31,19.07H23.06a.5.5,0,0,0-.05,1h8a.5.5,0,0,0,.05-1Z"/><path class="cls-4" d="M27.16,24.53H23c-.14,0-.26.22-.26.5s.12.5.26.5h4.19c.14,0,.26-.22.26-.5S27.3,24.53,27.16,24.53Z"/><path class="cls-5" d="M41,32.3H38.81a.5.5,0,0,1-.55-.44v-20a.35.35,0,0,1,0-.08l1.07-4.33a.59.59,0,0,1,1.07,0l1.07,4.33a.35.35,0,0,1,0,.08v20A.5.5,0,0,1,41,32.3Z"/><polygon class="cls-6" points="18.93 13.29 17.84 14.39 17.29 13.84 16.99 14.13 17.86 15.01 19.27 13.64 18.93 13.29"/><path class="cls-6" d="M18.09,11.87a2.24,2.24,0,1,0,2.24,2.24,2.24,2.24,0,0,0-2.24-2.24Zm0,4.07a1.83,1.83,0,1,1,1.83-1.83,1.83,1.83,0,0,1-1.83,1.83h0Z"/><polygon class="cls-6" points="18.93 18.75 17.84 19.85 17.29 19.3 16.99 19.59 17.86 20.46 19.27 19.1 18.93 18.75"/><path class="cls-6" d="M18.09,17.33a2.24,2.24,0,1,0,2.24,2.24,2.24,2.24,0,0,0-2.24-2.24Zm0,4.07a1.83,1.83,0,1,1,1.83-1.83,1.83,1.83,0,0,1-1.83,1.83h0Z"/><polygon class="cls-6" points="18.93 24.14 17.84 25.25 17.29 24.69 16.99 24.99 17.86 25.86 19.27 24.5 18.93 24.14"/><path class="cls-6" d="M18.09,22.73A2.24,2.24,0,1,0,20.32,25a2.24,2.24,0,0,0-2.24-2.24Zm0,4.07A1.83,1.83,0,1,1,19.92,25a1.83,1.83,0,0,1-1.83,1.83Z"/></svg>