<svg id="Calque_1" data-name="Calque 1" xmlns="http://www.w3.org/2000/svg" viewBox="0 0 60 60"><defs><style>.cls-1,.cls-3{fill:#203d59;}.cls-2{fill:#5a9dd6;}.cls-3{stroke:#203d59;stroke-miterlimit:10;stroke-width:0.5px;}</style></defs><title>Plan de travail 1 copie 4</title><path class="cls-1" d="M38.62,39h-.44v1.23h-.27V39h-.44v-.22h1.14Z"/><path class="cls-1" d="M40.37,38.77v1.45h-.24v-.93s0-.08,0-.12l-.44.82a.1.1,0,0,1-.1.06h0a.1.1,0,0,1-.1-.06L39,39.16v.06s0,0,0,.06v.93h-.24V38.77h.28l0,0,.43.8,0,.07,0,.07,0-.07,0-.07.43-.8,0,0h.28Z"/><path class="cls-1" d="M25.77,38.91a2.88,2.88,0,0,1,.88.12,1.68,1.68,0,0,1,.61.33,1.32,1.32,0,0,1,.36.51,1.76,1.76,0,0,1,.12.65,1.8,1.8,0,0,1-.12.67,1.4,1.4,0,0,1-.37.53,1.72,1.72,0,0,1-.61.34,2.75,2.75,0,0,1-.86.12h-.7V44h-.94V38.91Zm0,2.54a1.43,1.43,0,0,0,.45-.06.86.86,0,0,0,.32-.19.75.75,0,0,0,.19-.29,1.13,1.13,0,0,0,.06-.39,1,1,0,0,0-.06-.37.73.73,0,0,0-.19-.28.85.85,0,0,0-.32-.18,1.52,1.52,0,0,0-.46-.06h-.7v1.82Z"/><path class="cls-1" d="M30.11,38.91A2.88,2.88,0,0,1,31,39a1.68,1.68,0,0,1,.61.33,1.32,1.32,0,0,1,.36.51,1.76,1.76,0,0,1,.12.65,1.8,1.8,0,0,1-.12.67,1.4,1.4,0,0,1-.37.53,1.72,1.72,0,0,1-.61.34,2.75,2.75,0,0,1-.86.12h-.7V44h-.94V38.91Zm0,2.54a1.43,1.43,0,0,0,.45-.06.86.86,0,0,0,.32-.19.75.75,0,0,0,.19-.29,1.13,1.13,0,0,0,.06-.39,1,1,0,0,0-.06-.37.73.73,0,0,0-.19-.28.85.85,0,0,0-.32-.18,1.52,1.52,0,0,0-.46-.06h-.7v1.82Z"/><path class="cls-1" d="M33.74,39.66v1.4h1.77v.72H33.74v1.43H36V44H32.79V38.91H36v.75Z"/><path class="cls-1" d="M28.93,17.41h4.26a.34.34,0,0,0,.34-.34h0a.34.34,0,0,0-.34-.34H28.93a.34.34,0,0,0-.34.34h0A.34.34,0,0,0,28.93,17.41Z"/><path class="cls-1" d="M28.59,18.37a.34.34,0,0,0,.34.34h5.73a.34.34,0,0,0,.34-.34h0a.34.34,0,0,0-.34-.34H28.93a.34.34,0,0,0-.34.34h0Z"/><path class="cls-1" d="M28.59,19.66a.34.34,0,0,0,.34.34h5.73a.34.34,0,0,0,.34-.34h0a.34.34,0,0,0-.34-.34H28.93a.34.34,0,0,0-.34.34h0Z"/><path class="cls-1" d="M28.59,22.78a.34.34,0,0,0,.34.34h4.26a.34.34,0,0,0,.34-.34h0a.34.34,0,0,0-.34-.34H28.93a.34.34,0,0,0-.34.34h0Z"/><path class="cls-1" d="M28.59,24.07a.34.34,0,0,0,.34.34H32a.34.34,0,0,0,.34-.34h0a.34.34,0,0,0-.34-.34H28.93a.34.34,0,0,0-.34.34h0Z"/><path class="cls-1" d="M28.59,25.37a.34.34,0,0,0,.34.34h5.73a.34.34,0,0,0,.34-.34h0a.34.34,0,0,0-.34-.34H28.93a.34.34,0,0,0-.34.34h0Z"/><path class="cls-2" d="M24.82,18.56v1.73h2.74V18.56a.27.27,0,0,0-.28-.26H27a.17.17,0,0,0-.14.07l-.46.6-.11-.22.18-.35a.07.07,0,0,0,0-.1H26a.07.07,0,0,0-.07.1l.18.35L26,19l-.44-.6a.17.17,0,0,0-.14-.07H25.1A.27.27,0,0,0,24.82,18.56Z"/><path class="cls-2" d="M26.19,18.11a.84.84,0,1,0-.84-.84A.84.84,0,0,0,26.19,18.11Z"/><path class="cls-2" d="M24.82,26h2.74V24.27a.27.27,0,0,0-.28-.26H27a.17.17,0,0,0-.14.07l-.46.6-.11-.22.18-.35a.07.07,0,0,0,0-.1H26a.07.07,0,0,0-.07.1l.18.35-.11.22-.44-.6a.17.17,0,0,0-.14-.07h-.33a.27.27,0,0,0-.28.26V26Z"/><path class="cls-2" d="M25.35,23a.84.84,0,1,0,.84-.84A.84.84,0,0,0,25.35,23Z"/><path class="cls-3" d="M33,10.08H22V30.5l14.65-.18a1.23,1.23,0,0,0,1.22-1.22L38,15Zm.2,1.16,3.59,3.59H33.24Zm4.09,18.58H22.69V10.76h9.87v4.77h4.77Z"/></svg>