<svg id="Calque_1" data-name="Calque 1" xmlns="http://www.w3.org/2000/svg" viewBox="0 0 50 50"><defs><style>.cls-1{font-size:6px;}.cls-1,.cls-4,.cls-5{fill:#fff;}.cls-1,.cls-4{font-family:Lato-Bold, Lato;font-weight:700;}.cls-2{letter-spacing:-0.07em;}.cls-3{letter-spacing:-0.03em;}.cls-4{font-size:2px;}.cls-6{fill:#5a9dd6;stroke:#5a9dd6;stroke-miterlimit:10;}</style></defs><title>Plan de travail 2 copie 12</title><text class="cls-1" transform="translate(13.18 40.78)"><tspan class="cls-2">C</tspan><tspan x="3.59" y="0">-</tspan><tspan class="cls-3" x="5.74" y="0">R</tspan><tspan x="9.52" y="0">ULES</tspan></text><text class="cls-4" transform="translate(38.21 37.55)">TM</text><path class="cls-5" d="M22.16,20l-.55-.51,6.26-6.72.55.52ZM31.69,9.77,30.34,8.51l-3,3.19L28.72,13ZM20.88,21.39l1-1-1.36-1.26-1,1-.28,1.56h-1v1H31.77v-1h-12Zm6.74-8.83L27.06,12l-6.25,6.72.55.51Zm8.92-8.3v28a1.27,1.27,0,0,1-1.27,1.27H14.72a1.27,1.27,0,0,1-1.27-1.27v-28A1.27,1.27,0,0,1,14.72,3H35.28a1.27,1.27,0,0,1,1.27,1.26Zm-10.64,28a.91.91,0,1,0-.91.9A.91.91,0,0,0,25.91,32.24ZM34,5.52H20.2V8.68l-1-.83-1,.83V5.52H16V31H34Zm-15.77,21H31.76v-1H18.23Z"/><rect class="cls-6" x="17.94" y="26.43" width="14.13" height="0.98"/><rect class="cls-6" x="18.16" y="22.78" width="13.67" height="1.14"/></svg>