<svg id="Calque_1" data-name="Calque 1" xmlns="http://www.w3.org/2000/svg" viewBox="0 0 60 60"><defs><style>.cls-1,.cls-2{fill:#203d59;}.cls-2{stroke:#203d59;stroke-miterlimit:10;stroke-width:0.5px;}.cls-3{fill:#5b9cd1;}</style></defs><title>Plan de travail 1 copie 10</title><path class="cls-1" d="M11.23,39.91a.23.23,0,0,1-.06.08l-.08,0A.21.21,0,0,1,11,40l-.15-.09-.2-.09a.83.83,0,0,0-.27,0,.8.8,0,0,0-.25,0,.51.51,0,0,0-.18.09.38.38,0,0,0-.11.14.48.48,0,0,0,0,.18.32.32,0,0,0,.07.21.6.6,0,0,0,.19.15l.27.11.31.1.31.13a1.08,1.08,0,0,1,.27.18.81.81,0,0,1,.19.27.93.93,0,0,1,.07.38,1.24,1.24,0,0,1-.08.46,1.06,1.06,0,0,1-.24.37,1.16,1.16,0,0,1-.39.25,1.44,1.44,0,0,1-.53.09,1.72,1.72,0,0,1-.34,0,1.81,1.81,0,0,1-.32-.1,1.72,1.72,0,0,1-.29-.15A1.37,1.37,0,0,1,9,42.43l.2-.32L9.28,42l.08,0a.24.24,0,0,1,.14.05l.17.11.23.11a.9.9,0,0,0,.32.05.66.66,0,0,0,.44-.14.49.49,0,0,0,.16-.39.36.36,0,0,0-.07-.23.58.58,0,0,0-.19-.15,1.42,1.42,0,0,0-.27-.1l-.3-.09-.31-.12a1,1,0,0,1-.27-.18.83.83,0,0,1-.19-.28,1.07,1.07,0,0,1-.07-.42,1,1,0,0,1,.08-.38,1,1,0,0,1,.23-.33,1.12,1.12,0,0,1,.37-.23,1.35,1.35,0,0,1,.5-.09,1.69,1.69,0,0,1,.59.1,1.34,1.34,0,0,1,.46.28Z"/><path class="cls-1" d="M15.07,42.86h-.52a.22.22,0,0,1-.14,0,.27.27,0,0,1-.08-.11L14.06,42h-1.5l-.27.74a.24.24,0,0,1-.08.1.22.22,0,0,1-.14,0h-.52L13,39.25h.69ZM13.89,41.5l-.44-1.2-.07-.19-.07-.24-.07.24-.07.19-.44,1.2Z"/><path class="cls-1" d="M18.5,39.25v3.62h-.35a.3.3,0,0,1-.13,0,.31.31,0,0,1-.1-.09L16,40.34q0,.16,0,.3v2.22h-.59V39.25h.43l.06,0,0,0,0,.06,1.9,2.42c0-.06,0-.12,0-.17s0-.11,0-.16v-2.2Z"/><path class="cls-1" d="M21.78,42a.13.13,0,0,1,.1,0l.27.29a1.46,1.46,0,0,1-.54.42,1.86,1.86,0,0,1-.77.15,1.82,1.82,0,0,1-.72-.14,1.58,1.58,0,0,1-.55-.38,1.67,1.67,0,0,1-.35-.58,2.19,2.19,0,0,1-.12-.74,2.07,2.07,0,0,1,.13-.75,1.72,1.72,0,0,1,.37-.58,1.66,1.66,0,0,1,.56-.38,1.87,1.87,0,0,1,.73-.14,1.78,1.78,0,0,1,.7.13,1.67,1.67,0,0,1,.52.34l-.23.31-.05.05-.09,0-.08,0L21.57,40l-.11-.07-.15-.07-.19-.05-.25,0a1.11,1.11,0,0,0-.44.09,1,1,0,0,0-.35.25,1.15,1.15,0,0,0-.23.4,1.68,1.68,0,0,0-.08.54,1.58,1.58,0,0,0,.09.54,1.18,1.18,0,0,0,.23.4,1,1,0,0,0,.35.25,1.07,1.07,0,0,0,.43.09l.25,0,.21,0,.18-.08.17-.13.05,0Z"/><path class="cls-1" d="M25.13,39.8H24v3.06h-.67V39.8H22.28v-.55h2.85Z"/><path class="cls-1" d="M26.28,42.86h-.68V39.25h.68Z"/><path class="cls-1" d="M30.54,41.06a2,2,0,0,1-.13.74,1.73,1.73,0,0,1-.37.59,1.69,1.69,0,0,1-.58.39,2.09,2.09,0,0,1-1.5,0,1.7,1.7,0,0,1-.58-.39,1.73,1.73,0,0,1-.37-.59,2.11,2.11,0,0,1,0-1.47,1.73,1.73,0,0,1,.37-.59,1.69,1.69,0,0,1,.58-.39,1.94,1.94,0,0,1,.75-.14,2,2,0,0,1,.52.06,1.81,1.81,0,0,1,.44.18,1.63,1.63,0,0,1,.36.28,1.73,1.73,0,0,1,.27.37,1.82,1.82,0,0,1,.17.44A2.1,2.1,0,0,1,30.54,41.06Zm-.69,0a1.66,1.66,0,0,0-.08-.53,1.15,1.15,0,0,0-.23-.4,1,1,0,0,0-.36-.25,1.34,1.34,0,0,0-1,0,1,1,0,0,0-.36.25,1.14,1.14,0,0,0-.23.4,1.82,1.82,0,0,0,0,1.07,1.12,1.12,0,0,0,.23.4,1,1,0,0,0,.36.25,1.34,1.34,0,0,0,1,0,1,1,0,0,0,.36-.25,1.13,1.13,0,0,0,.23-.4A1.66,1.66,0,0,0,29.85,41.06Z"/><path class="cls-1" d="M34.18,39.25v3.62h-.35a.3.3,0,0,1-.13,0,.31.31,0,0,1-.1-.09l-1.89-2.41q0,.16,0,.3v2.22h-.59V39.25h.43l.06,0,0,0,0,.06,1.9,2.42c0-.06,0-.12,0-.17s0-.11,0-.16v-2.2Z"/><path class="cls-1" d="M36.91,39.91a.23.23,0,0,1-.06.08l-.08,0a.21.21,0,0,1-.11,0l-.15-.09-.2-.09a.83.83,0,0,0-.27,0,.8.8,0,0,0-.25,0,.51.51,0,0,0-.18.09.38.38,0,0,0-.11.14.48.48,0,0,0,0,.18.32.32,0,0,0,.07.21.6.6,0,0,0,.19.15l.27.11.31.1.31.13a1.08,1.08,0,0,1,.27.18.81.81,0,0,1,.19.27.93.93,0,0,1,.07.38,1.24,1.24,0,0,1-.08.46,1.06,1.06,0,0,1-.24.37,1.16,1.16,0,0,1-.39.25,1.44,1.44,0,0,1-.53.09,1.72,1.72,0,0,1-.34,0,1.81,1.81,0,0,1-.32-.1,1.72,1.72,0,0,1-.29-.15,1.37,1.37,0,0,1-.24-.19l.2-.32L35,42,35,42a.24.24,0,0,1,.14.05l.17.11.23.11a.9.9,0,0,0,.32.05.66.66,0,0,0,.44-.14.49.49,0,0,0,.16-.39.36.36,0,0,0-.07-.23.58.58,0,0,0-.19-.15,1.42,1.42,0,0,0-.27-.1l-.3-.09-.31-.12a1,1,0,0,1-.27-.18.83.83,0,0,1-.19-.28,1.07,1.07,0,0,1-.07-.42,1,1,0,0,1,.08-.38,1,1,0,0,1,.23-.33,1.12,1.12,0,0,1,.37-.23,1.35,1.35,0,0,1,.5-.09,1.69,1.69,0,0,1,.59.1,1.34,1.34,0,0,1,.46.28Z"/><path class="cls-1" d="M41.06,42.31v.56H38.94V39.25h.67v3.06Z"/><path class="cls-1" d="M42.22,42.86h-.68V39.25h.68Z"/><path class="cls-1" d="M44.95,39.91a.23.23,0,0,1-.06.08l-.08,0a.21.21,0,0,1-.11,0l-.15-.09-.2-.09a.83.83,0,0,0-.27,0,.8.8,0,0,0-.25,0,.51.51,0,0,0-.18.09.38.38,0,0,0-.11.14.48.48,0,0,0,0,.18.32.32,0,0,0,.07.21.6.6,0,0,0,.19.15l.27.11.31.1.31.13a1.08,1.08,0,0,1,.27.18.81.81,0,0,1,.19.27.93.93,0,0,1,.07.38,1.24,1.24,0,0,1-.08.46,1.06,1.06,0,0,1-.24.37,1.16,1.16,0,0,1-.39.25,1.44,1.44,0,0,1-.53.09,1.72,1.72,0,0,1-.34,0,1.81,1.81,0,0,1-.32-.1,1.72,1.72,0,0,1-.29-.15,1.37,1.37,0,0,1-.24-.19l.2-.32L43,42l.08,0a.24.24,0,0,1,.14.05l.17.11.23.11a.9.9,0,0,0,.32.05.66.66,0,0,0,.44-.14.49.49,0,0,0,.16-.39.36.36,0,0,0-.07-.23.58.58,0,0,0-.19-.15,1.42,1.42,0,0,0-.27-.1l-.3-.09-.31-.12a1,1,0,0,1-.27-.18.83.83,0,0,1-.19-.28,1.07,1.07,0,0,1-.07-.42,1,1,0,0,1,.08-.38,1,1,0,0,1,.23-.33,1.12,1.12,0,0,1,.37-.23,1.35,1.35,0,0,1,.5-.09,1.69,1.69,0,0,1,.59.1,1.34,1.34,0,0,1,.46.28Z"/><path class="cls-1" d="M48.29,39.8H47.2v3.06h-.67V39.8H45.44v-.55h2.85Z"/><path class="cls-1" d="M50.68,39.91a.23.23,0,0,1-.06.08l-.08,0a.21.21,0,0,1-.11,0l-.15-.09-.2-.09a.83.83,0,0,0-.27,0,.8.8,0,0,0-.25,0,.51.51,0,0,0-.18.09.38.38,0,0,0-.11.14.48.48,0,0,0,0,.18.32.32,0,0,0,.07.21.6.6,0,0,0,.19.15l.27.11.31.1.31.13a1.08,1.08,0,0,1,.27.18.81.81,0,0,1,.19.27.93.93,0,0,1,.07.38,1.24,1.24,0,0,1-.08.46,1.06,1.06,0,0,1-.24.37,1.16,1.16,0,0,1-.39.25,1.44,1.44,0,0,1-.53.09,1.72,1.72,0,0,1-.34,0,1.81,1.81,0,0,1-.32-.1,1.72,1.72,0,0,1-.29-.15,1.37,1.37,0,0,1-.24-.19l.2-.32.06-.06.08,0a.24.24,0,0,1,.14.05l.17.11.23.11a.9.9,0,0,0,.32.05.66.66,0,0,0,.44-.14.49.49,0,0,0,.16-.39.36.36,0,0,0-.07-.23.58.58,0,0,0-.19-.15,1.42,1.42,0,0,0-.27-.1l-.3-.09-.31-.12a1,1,0,0,1-.27-.18.83.83,0,0,1-.19-.28,1.07,1.07,0,0,1-.07-.42,1,1,0,0,1,.08-.38,1,1,0,0,1,.23-.33,1.12,1.12,0,0,1,.37-.23,1.35,1.35,0,0,1,.5-.09,1.69,1.69,0,0,1,.59.1,1.34,1.34,0,0,1,.46.28Z"/><path class="cls-1" d="M52.76,39.37h-.44v1.23h-.27V39.37h-.44v-.22h1.14Z"/><path class="cls-1" d="M54.52,39.15v1.45h-.24v-.93s0-.08,0-.12l-.44.82a.1.1,0,0,1-.1.06h0a.1.1,0,0,1-.1-.06l-.44-.82v.06s0,0,0,.06v.93H53V39.15h.28l0,0,.43.8,0,.07,0,.07,0-.07,0-.07.43-.8,0,0h.28Z"/><path class="cls-2" d="M32.42,10.05h-11V30.47L36,30.3a1.23,1.23,0,0,0,1.22-1.22L37.38,15Zm.2,1.16,3.59,3.59H32.62Zm4.09,18.58H22.07V10.73h9.87V15.5h4.77Z"/><path class="cls-1" d="M33.64,17.2H28.19a.34.34,0,0,0,0,.68h5.48a.34.34,0,0,0,0-.68Z"/><path class="cls-1" d="M27,16.24,25.5,17.41,25.05,17a.34.34,0,0,0-.48.48l.68.68a.34.34,0,0,0,.45,0l1.7-1.35a.36.36,0,1,0-.42-.58Z"/><path class="cls-1" d="M33.64,20.94H28.19a.34.34,0,0,0,0,.68h5.48a.34.34,0,0,0,0-.68Z"/><path class="cls-1" d="M27,20,25.5,21.17,25,20.73a.34.34,0,1,0-.5.45l.68.68a.34.34,0,0,0,.45,0l1.7-1.35A.34.34,0,0,0,27,20Z"/><path class="cls-1" d="M31,24.68H28.13c-.1,0-.18.15-.18.34s.08.34.18.34H31c.1,0,.18-.15.18-.34S31.1,24.68,31,24.68Z"/><path class="cls-1" d="M27,23.74,25.5,24.91l-.45-.45a.34.34,0,1,0-.52.44l0,0,.68.68a.34.34,0,0,0,.45,0l1.7-1.35a.36.36,0,0,0-.44-.57Z"/><path class="cls-3" d="M38.25,24a4.61,4.61,0,1,0,0,5.12A4.61,4.61,0,0,0,38.25,24Zm-2,4.38a.35.35,0,0,1-.5,0h0l-1.32-1.32L33,28.44a.35.35,0,0,1-.48-.45l1.36-1.36-1.33-1.36a.36.36,0,0,1,.5-.5l1.32,1.32,1.26-1.25a.36.36,0,0,1,.5.5l-1.26,1.25,1.32,1.32a.35.35,0,0,1,0,.5Z"/></svg>