<?xml version="1.0" encoding="utf-8"?>
<!-- Generator: Adobe Illustrator 21.1.0, SVG Export Plug-In . SVG Version: 6.00 Build 0)  -->
<svg version="1.1" id="Layer_1" xmlns="http://www.w3.org/2000/svg" xmlns:xlink="http://www.w3.org/1999/xlink" x="0px" y="0px"
	 viewBox="0 0 504 504" style="enable-background:new 0 0 504 504;" xml:space="preserve">
<style type="text/css">
	.st0{fill:#84DBFF;}
	.st1{fill:#324A5E;}
	.st2{fill:#2B3B4E;}
	.st3{fill:#FFFFFF;}
	.st4{fill:#ACB3BA;}
	.st5{fill:#2C9984;}
	.st6{fill:none;}
	.st7{font-family:'Lato-Regular';}
	.st8{font-size:40px;}
</style>
<circle class="st0" cx="252" cy="127" r="126"/>
<rect x="254.3" y="138.7" transform="matrix(0.7071 -0.7071 0.7071 0.7071 -30.3658 233.0957)" class="st1" width="23.8" height="29.1"/>
<path class="st2" d="M264.1,175.8l36.9,36.8c6.8,6.8,17.9,6.8,24.6,0c6.8-6.8,6.8-17.9,0-24.6l-36.9-36.9L264.1,175.8z"/>
<circle class="st1" cx="225.1" cy="112.1" r="51.8"/>
<g>
	<circle class="st3" cx="225.1" cy="112.1" r="40.8"/>
	<circle class="st3" cx="225.1" cy="112.1" r="40.8"/>
</g>
<path class="st4" d="M186.2,112.1c21.4,29.8,56.2,29.8,77.7,0C242.5,82.3,207.7,82.3,186.2,112.1z"/>
<circle class="st5" cx="225.1" cy="112.1" r="19.2"/>
<circle class="st1" cx="225.1" cy="112.1" r="10.8"/>
<circle class="st3" cx="213.8" cy="102.6" r="3.6"/>
<rect x="126" y="264" class="st6" width="252" height="82"/>
<text transform="matrix(1 0 0 1 183.6411 293.4419)"><tspan x="0" y="0" class="st3 st7 st8">Gel Des </tspan><tspan x="11.5" y="48" class="st3 st7 st8">Avoirs</tspan></text>
</svg>
