<?xml version="1.0" encoding="utf-8"?>
<!-- Generator: Adobe Illustrator 21.1.0, SVG Export Plug-In . SVG Version: 6.00 Build 0)  -->
<svg version="1.1" id="Calque_1" xmlns="http://www.w3.org/2000/svg" xmlns:xlink="http://www.w3.org/1999/xlink" x="0px" y="0px"
	 viewBox="0 0 50 50" style="enable-background:new 0 0 50 50;" xml:space="preserve">
<style type="text/css">
	.st0{fill:none;}
	.st1{enable-background:new    ;}
	.st2{fill:#FFFFFF;}
	.st3{fill:#F4F1F0;}
	.st4{fill:#1B1B1B;}
	.st5{fill:#5A9DD6;}
</style>
<rect x="1.8" y="38.7" class="st0" width="48.7" height="7"/>
<g class="st1">
	<path class="st2" d="M15.1,39.9c0,0.1-0.1,0.1-0.1,0.1s-0.1,0-0.1,0c-0.1,0-0.1,0-0.2-0.1c-0.1,0-0.1-0.1-0.2-0.1
		c-0.1,0-0.2-0.1-0.3-0.1c-0.1,0-0.3-0.1-0.4-0.1c-0.1,0-0.3,0-0.4,0.1c-0.1,0-0.2,0.1-0.3,0.2c-0.1,0.1-0.1,0.1-0.2,0.2
		c0,0.1-0.1,0.2-0.1,0.3c0,0.1,0,0.2,0.1,0.3c0.1,0.1,0.2,0.2,0.3,0.2c0.1,0.1,0.3,0.1,0.4,0.2s0.3,0.1,0.5,0.2
		c0.2,0.1,0.3,0.1,0.5,0.2s0.3,0.2,0.4,0.3c0.1,0.1,0.2,0.3,0.3,0.4s0.1,0.4,0.1,0.6c0,0.3,0,0.5-0.1,0.7c-0.1,0.2-0.2,0.4-0.4,0.6
		c-0.2,0.2-0.4,0.3-0.6,0.4s-0.5,0.1-0.9,0.1c-0.2,0-0.4,0-0.5-0.1s-0.4-0.1-0.5-0.2c-0.2-0.1-0.3-0.1-0.5-0.2
		c-0.1-0.1-0.3-0.2-0.4-0.3l0.3-0.5c0,0,0.1-0.1,0.1-0.1s0.1,0,0.1,0c0.1,0,0.1,0,0.2,0.1c0.1,0.1,0.2,0.1,0.3,0.2
		c0.1,0.1,0.2,0.1,0.4,0.2c0.1,0.1,0.3,0.1,0.5,0.1c0.3,0,0.5-0.1,0.7-0.2s0.3-0.4,0.3-0.6c0-0.2,0-0.3-0.1-0.4
		c-0.1-0.1-0.2-0.2-0.3-0.2c-0.1-0.1-0.3-0.1-0.4-0.2c-0.2,0-0.3-0.1-0.5-0.1s-0.3-0.1-0.5-0.2c-0.2-0.1-0.3-0.2-0.4-0.3
		s-0.2-0.3-0.3-0.5c-0.1-0.2-0.1-0.4-0.1-0.7c0-0.2,0-0.4,0.1-0.6s0.2-0.4,0.4-0.5c0.2-0.2,0.4-0.3,0.6-0.4c0.2-0.1,0.5-0.1,0.8-0.1
		c0.3,0,0.7,0.1,0.9,0.2c0.3,0.1,0.5,0.3,0.7,0.4L15.1,39.9z"/>
	<path class="st2" d="M20.5,39.7h-1.7v4.9h-1.1v-4.9h-1.7v-0.9h4.6V39.7z"/>
	<path class="st2" d="M26.5,41.7c0,0.4-0.1,0.8-0.2,1.2s-0.3,0.7-0.6,0.9c-0.3,0.3-0.6,0.5-0.9,0.6c-0.4,0.1-0.8,0.2-1.2,0.2
		c-0.4,0-0.8-0.1-1.2-0.2c-0.4-0.1-0.7-0.4-0.9-0.6c-0.3-0.3-0.5-0.6-0.6-0.9c-0.1-0.4-0.2-0.8-0.2-1.2c0-0.4,0.1-0.8,0.2-1.2
		c0.1-0.4,0.3-0.7,0.6-0.9c0.3-0.3,0.6-0.5,0.9-0.6c0.4-0.1,0.8-0.2,1.2-0.2c0.3,0,0.6,0,0.8,0.1s0.5,0.2,0.7,0.3s0.4,0.3,0.6,0.5
		c0.2,0.2,0.3,0.4,0.4,0.6s0.2,0.5,0.3,0.7S26.5,41.4,26.5,41.7z M25.4,41.7c0-0.3,0-0.6-0.1-0.9c-0.1-0.3-0.2-0.5-0.4-0.6
		c-0.2-0.2-0.3-0.3-0.6-0.4c-0.2-0.1-0.5-0.1-0.8-0.1s-0.5,0-0.8,0.1c-0.2,0.1-0.4,0.2-0.6,0.4c-0.2,0.2-0.3,0.4-0.4,0.6
		s-0.1,0.5-0.1,0.9s0,0.6,0.1,0.9s0.2,0.5,0.4,0.6c0.2,0.2,0.4,0.3,0.6,0.4c0.2,0.1,0.5,0.1,0.8,0.1s0.5,0,0.8-0.1
		c0.2-0.1,0.4-0.2,0.6-0.4c0.2-0.2,0.3-0.4,0.4-0.6C25.4,42.3,25.4,42,25.4,41.7z"/>
	<path class="st2" d="M32,44.6h-1c-0.2,0-0.3-0.1-0.4-0.2l-1.2-1.9c0-0.1-0.1-0.1-0.2-0.1s-0.1,0-0.2,0h-0.5v2.3h-1.1v-5.8h1.8
		c0.4,0,0.7,0,1,0.1s0.5,0.2,0.7,0.3c0.2,0.1,0.3,0.3,0.4,0.5c0.1,0.2,0.1,0.4,0.1,0.7c0,0.2,0,0.4-0.1,0.6
		c-0.1,0.2-0.1,0.3-0.2,0.5c-0.1,0.1-0.2,0.3-0.4,0.4c-0.2,0.1-0.3,0.2-0.5,0.3c0.1,0,0.1,0.1,0.2,0.1c0.1,0.1,0.1,0.1,0.2,0.2
		L32,44.6z M29.2,41.6c0.2,0,0.4,0,0.5-0.1c0.2,0,0.3-0.1,0.4-0.2c0.1-0.1,0.2-0.2,0.2-0.3c0-0.1,0.1-0.3,0.1-0.4
		c0-0.3-0.1-0.5-0.3-0.7s-0.5-0.2-0.9-0.2h-0.7v1.9H29.2z"/>
	<path class="st2" d="M33.7,39.7v1.6h2v0.8h-2v1.6h2.6v0.9h-3.6v-5.8h3.6v0.9H33.7z"/>
	<path class="st2" d="M40.3,39.9c0,0.1-0.1,0.1-0.1,0.1s-0.1,0-0.1,0C40,40,40,40,39.9,40c-0.1,0-0.1-0.1-0.2-0.1
		c-0.1,0-0.2-0.1-0.3-0.1c-0.1,0-0.3-0.1-0.4-0.1c-0.1,0-0.3,0-0.4,0.1c-0.1,0-0.2,0.1-0.3,0.2c-0.1,0.1-0.1,0.1-0.2,0.2
		c0,0.1-0.1,0.2-0.1,0.3c0,0.1,0,0.2,0.1,0.3c0.1,0.1,0.2,0.2,0.3,0.2c0.1,0.1,0.3,0.1,0.4,0.2s0.3,0.1,0.5,0.2
		c0.2,0.1,0.3,0.1,0.5,0.2s0.3,0.2,0.4,0.3c0.1,0.1,0.2,0.3,0.3,0.4s0.1,0.4,0.1,0.6c0,0.3,0,0.5-0.1,0.7c-0.1,0.2-0.2,0.4-0.4,0.6
		c-0.2,0.2-0.4,0.3-0.6,0.4s-0.5,0.1-0.9,0.1c-0.2,0-0.4,0-0.5-0.1s-0.3-0.1-0.5-0.2c-0.2-0.1-0.3-0.1-0.5-0.2
		c-0.1-0.1-0.3-0.2-0.4-0.3l0.3-0.5c0,0,0.1-0.1,0.1-0.1c0,0,0.1,0,0.1,0c0.1,0,0.1,0,0.2,0.1s0.2,0.1,0.3,0.2s0.2,0.1,0.4,0.2
		c0.1,0.1,0.3,0.1,0.5,0.1c0.3,0,0.5-0.1,0.7-0.2s0.3-0.4,0.3-0.6c0-0.2,0-0.3-0.1-0.4c-0.1-0.1-0.2-0.2-0.3-0.2
		c-0.1-0.1-0.3-0.1-0.4-0.2c-0.2,0-0.3-0.1-0.5-0.1c-0.2-0.1-0.3-0.1-0.5-0.2c-0.2-0.1-0.3-0.2-0.4-0.3c-0.1-0.1-0.2-0.3-0.3-0.5
		C37,40.9,37,40.7,37,40.4c0-0.2,0-0.4,0.1-0.6s0.2-0.4,0.4-0.5s0.4-0.3,0.6-0.4c0.2-0.1,0.5-0.1,0.8-0.1c0.3,0,0.7,0.1,0.9,0.2
		c0.3,0.1,0.5,0.3,0.7,0.4L40.3,39.9z"/>
</g>
<rect x="36.4" y="38.1" class="st0" width="15.6" height="6.5"/>
<g class="st1">
	<path class="st2" d="M43.5,38.6h-0.9v2.5h-0.5v-2.5h-0.9v-0.4h2.3V38.6z"/>
	<path class="st2" d="M47,38.2v2.9h-0.5v-1.9c0-0.1,0-0.2,0-0.2l-0.9,1.6c0,0.1-0.1,0.1-0.2,0.1h-0.1c-0.1,0-0.1,0-0.2-0.1L44.4,39
		c0,0,0,0.1,0,0.1c0,0,0,0.1,0,0.1v1.9h-0.5v-2.9h0.4c0,0,0,0,0.1,0c0,0,0,0,0,0c0,0,0,0,0,0c0,0,0,0,0,0l0.9,1.6c0,0,0,0.1,0.1,0.1
		c0,0,0,0.1,0.1,0.1c0,0,0-0.1,0.1-0.1c0,0,0-0.1,0.1-0.1l0.9-1.6c0,0,0,0,0,0c0,0,0,0,0,0c0,0,0,0,0,0c0,0,0,0,0.1,0H47z"/>
</g>
<g>
	<path class="st3" d="M13.7,23.4v-1.9h6.4v1.9H13.7z M20.1,18.3v-1.9h-6.4v1.9H20.1z M20,26.5h-9.2V3.3h16.6v11.2H20v0.6h-7.6v4.1
		H20v1.1h-7.6v4.1H20V26.5z M22,7.1c0,0.9,0.7,1.6,1.6,1.6s1.6-0.7,1.6-1.6s-0.7-1.6-1.6-1.6S22,6.2,22,7.1L22,7.1z M17.9,7.1
		c0,0.9,0.7,1.6,1.6,1.6s1.6-0.7,1.6-1.6s-0.7-1.6-1.6-1.6C18.7,5.5,17.9,6.2,17.9,7.1L17.9,7.1z M12.7,14.2H26v-4H12.7V14.2z
		 M13.7,11.3H25v1.9H13.7V11.3z M22.7,12.4h1.5v-0.5h-1.5V12.4z"/>
	<path class="st4" d="M33.3,27.9v0.9c2.4,0.1,4.1,0.3,4.1,0.6c0,0.3-2.7,0.6-6,0.6s-6-0.3-6-0.6c0-0.2,1.4-0.4,3.4-0.5V28h-7.1V15.9
		h18.7v11.9L33.3,27.9L33.3,27.9z M39.2,26.8v-10H23v10H39.2z"/>
	<path class="st5" d="M31.8,14.5c0.1,0,0.1,0,0.2,0c0.1,0,0.1-0.1,0-0.2l-0.7-1.9h1.3c0.3,0,1.2,0.1,1.9,0.7c0.4,0.4,0.7,1,0.7,1.9
		H37c0-1.3-0.4-2.4-1.2-3.2c-1.3-1.3-3.2-1.3-3.2-1.3l0,0c-0.1,0-0.2,0-0.2,0h-1L32,8.7c0-0.1,0-0.1,0-0.2h-0.1h-0.1l-3.7,2.9
		L28,11.5c0,0,0,0.1,0.1,0.1L31.8,14.5z M20.5,28.5c-0.1-0.1-0.2,0-0.2,0s0,0.1,0,0.2l0.7,1.9h-1.3c-0.3,0-1.2-0.1-1.8-0.7
		c-0.4-0.4-0.7-1-0.7-1.9h-1.8c0,1.3,0.4,2.4,1.2,3.2c1.3,1.3,3.2,1.3,3.2,1.3l0,0c0.1,0,0.2,0,0.2,0h1l-0.7,1.9c0,0.1,0,0.1,0,0.2
		h0.1h0.1l3.7-2.9c0.1-0.1,0.1-0.1,0-0.2l0,0L20.5,28.5z"/>
</g>
</svg>
