<svg id="Calque_1" data-name="Calque 1" xmlns="http://www.w3.org/2000/svg" viewBox="0 0 60 60"><defs><style>.cls-1{fill:#203d59;}.cls-2{fill:#5a9dd6;}</style></defs><title>Plan de travail 1 copie 8</title><path class="cls-1" d="M17.38,41.82a2.74,2.74,0,0,1-.19,1,2.29,2.29,0,0,1-1.33,1.32,2.85,2.85,0,0,1-1,.19H12.89V39.29h1.93a2.82,2.82,0,0,1,1,.19,2.36,2.36,0,0,1,.81.52,2.32,2.32,0,0,1,.52.8A2.74,2.74,0,0,1,17.38,41.82Zm-1,0a2.37,2.37,0,0,0-.11-.75,1.55,1.55,0,0,0-.32-.56,1.39,1.39,0,0,0-.5-.35,1.73,1.73,0,0,0-.67-.12h-1V43.6h1a1.73,1.73,0,0,0,.67-.12,1.39,1.39,0,0,0,.5-.35,1.55,1.55,0,0,0,.32-.56A2.37,2.37,0,0,0,16.41,41.82Z"/><path class="cls-1" d="M22.39,44.35h-.73a.31.31,0,0,1-.2-.06.39.39,0,0,1-.12-.15l-.38-1h-2.1l-.38,1a.33.33,0,0,1-.11.15.3.3,0,0,1-.2.07h-.73l2-5.06h1Zm-1.66-1.91-.62-1.68c0-.07-.06-.16-.09-.27l-.1-.33c0,.12-.06.23-.09.33s-.06.19-.09.27l-.61,1.68Z"/><path class="cls-1" d="M26,40.06H24.43v4.29h-.94V40.06H22v-.77h4Z"/><path class="cls-1" d="M30.46,44.35h-.73a.31.31,0,0,1-.2-.06.39.39,0,0,1-.12-.15l-.38-1h-2.1l-.38,1a.33.33,0,0,1-.11.15.3.3,0,0,1-.2.07h-.73l2-5.06h1ZM28.8,42.44l-.62-1.68c0-.07-.06-.16-.09-.27l-.1-.33c0,.12-.06.23-.09.33s-.06.19-.09.27l-.61,1.68Z"/><path class="cls-1" d="M32.73,39.29a3.33,3.33,0,0,1,.85.09,1.62,1.62,0,0,1,.58.27,1,1,0,0,1,.33.42,1.42,1.42,0,0,1,.1.56,1.12,1.12,0,0,1-.05.34,1,1,0,0,1-.16.3,1.21,1.21,0,0,1-.28.26,1.69,1.69,0,0,1-.4.2q1,.23,1,1.13a1.44,1.44,0,0,1-.12.59,1.31,1.31,0,0,1-.36.47,1.7,1.7,0,0,1-.58.31,2.52,2.52,0,0,1-.78.11H31V39.29Zm-.8.73v1.46h.75a1.26,1.26,0,0,0,.73-.17.63.63,0,0,0,.25-.56.66.66,0,0,0-.22-.56,1.17,1.17,0,0,0-.7-.17Zm1,3.6a1.34,1.34,0,0,0,.44-.06.76.76,0,0,0,.29-.17.62.62,0,0,0,.15-.25.93.93,0,0,0,0-.3.79.79,0,0,0-.05-.3.56.56,0,0,0-.16-.22.77.77,0,0,0-.29-.14,1.61,1.61,0,0,0-.43,0h-.95v1.48Z"/><path class="cls-1" d="M39.85,44.35h-.73a.31.31,0,0,1-.2-.06.39.39,0,0,1-.12-.15l-.38-1h-2.1l-.38,1a.33.33,0,0,1-.11.15.3.3,0,0,1-.2.07h-.73l2-5.06h1Zm-1.66-1.91-.62-1.68c0-.07-.06-.16-.09-.27l-.1-.33c0,.12-.06.23-.09.33s-.06.19-.09.27l-.61,1.68Z"/><path class="cls-1" d="M43.07,40.21a.32.32,0,0,1-.09.11.2.2,0,0,1-.12,0,.3.3,0,0,1-.16-.05l-.2-.12a1.66,1.66,0,0,0-.28-.12,1.17,1.17,0,0,0-.38-.05,1.12,1.12,0,0,0-.34,0,.71.71,0,0,0-.25.13.52.52,0,0,0-.15.2.66.66,0,0,0,0,.26.45.45,0,0,0,.1.3.83.83,0,0,0,.26.2,2.52,2.52,0,0,0,.37.15l.43.14.43.18a1.49,1.49,0,0,1,.37.25,1.14,1.14,0,0,1,.26.37,1.3,1.3,0,0,1,.1.54,1.74,1.74,0,0,1-.12.64,1.47,1.47,0,0,1-.34.52,1.61,1.61,0,0,1-.55.35,2,2,0,0,1-.75.13,2.42,2.42,0,0,1-.48,0,2.55,2.55,0,0,1-.45-.13,2.4,2.4,0,0,1-.4-.21,1.94,1.94,0,0,1-.34-.27l.28-.45a.29.29,0,0,1,.09-.08.23.23,0,0,1,.12,0,.34.34,0,0,1,.19.07l.24.16a1.91,1.91,0,0,0,.33.16,1.26,1.26,0,0,0,.45.07.92.92,0,0,0,.62-.19.68.68,0,0,0,.22-.55.51.51,0,0,0-.1-.33.8.8,0,0,0-.26-.21,2,2,0,0,0-.37-.15l-.43-.13a3.6,3.6,0,0,1-.43-.17,1.38,1.38,0,0,1-.37-.26,1.16,1.16,0,0,1-.26-.39,1.5,1.5,0,0,1-.1-.58,1.39,1.39,0,0,1,.11-.54,1.4,1.4,0,0,1,.32-.47,1.58,1.58,0,0,1,.52-.33,1.91,1.91,0,0,1,.71-.12,2.36,2.36,0,0,1,.83.14,1.87,1.87,0,0,1,.64.39Z"/><path class="cls-1" d="M45.16,40v1.4h1.77v.72H45.16V43.6h2.25v.75H44.22V39.29h3.19V40Z"/><path class="cls-2" d="M31.24,26.22l-1.32-.46a.11.11,0,0,0,0,0,4.35,4.35,0,0,0,0-.49l.22-.07,1.11-.36a.29.29,0,0,0,.21-.33l-.18-.93a.29.29,0,0,0-.31-.23l-.27,0-1.15.07a4.49,4.49,0,0,0-.18-.43l1.09-.87a.29.29,0,0,0,.07-.38l-.12-.19L30,20.94a.27.27,0,0,0-.27-.13l-.11,0-1.36.62c-.09-.09-.18-.18-.27-.26L28.73,20a.29.29,0,0,0-.07-.38L27.9,19a.27.27,0,0,0-.31,0l-.08.05-.65.66-.45.46h0l-.08,0,.15-1.56a.28.28,0,0,0-.23-.32l-.51-.11-.35-.08h-.06a.25.25,0,0,0-.19,0,.31.31,0,0,0-.15.17l-.32.89-.21.59h-.28v-.05L23.91,19v0l-.27-.76a.32.32,0,0,0-.11-.14.26.26,0,0,0-.23-.05l-.92.2a.29.29,0,0,0-.22.32L22.28,20l-.3.11,0,0-1-1.19a.28.28,0,0,0-.38-.06l-.79.52a.28.28,0,0,0-.09.38l.69,1.38-.27.25h0l-1.38-.75a.28.28,0,0,0-.38.08l-.55.77a.29.29,0,0,0,0,.39l.67.63.48.45h0c-.05.12-.11.23-.16.36h0l-1.56-.16a.29.29,0,0,0-.32.22l-.21.93a.29.29,0,0,0,.19.34l1.48.53h0c0,.11,0,.22,0,.33h0l-1.5.48a.28.28,0,0,0-.2.33l.18.93a.28.28,0,0,0,.31.23l1.56-.1c0,.12.09.23.13.34l-.12.1-1.06.86a.29.29,0,0,0-.07.38l.5.8a.29.29,0,0,0,.38.1l1.39-.64c.08.09.16.18.25.26l-.27.52-.43.79a.28.28,0,0,0,.08.38l.77.55a.29.29,0,0,0,.39,0l1-1.1.37.17-.14,1.49a.29.29,0,0,0,.23.32l.79.17.13,0a.29.29,0,0,0,.34-.2l.33-.93.17-.48h.22l.27.85.09.28.08.24a.29.29,0,0,0,.33.21l.93-.18a.24.24,0,0,0,.14-.07.31.31,0,0,0,.09-.24l0-.59,0-.52,0-.27.11,0,.29-.11,0,0,.88,1a.29.29,0,0,0,.39.06l.79-.52a.29.29,0,0,0,.1-.38l-.6-1.23.34-.32,1.22.67a.29.29,0,0,0,.38-.08l.55-.77a.29.29,0,0,0,0-.38l-1-1c.07-.13.13-.27.18-.41l1.39.12a.29.29,0,0,0,.32-.23l.2-.93A.29.29,0,0,0,31.24,26.22Zm-2.87-1.78a4.36,4.36,0,0,1-.92,3.88l-1.14-1-.14-.13c.06-.08.11-.17.17-.26A2.5,2.5,0,0,0,26.72,25Zm-.3-.83-1.52.48-.15,0a2.56,2.56,0,0,0-.44-.55,2.77,2.77,0,0,0-.59-.42l-.22-.11.34-1.56,0-.15A4.42,4.42,0,0,1,28.07,23.61Zm-4.16,3a1.13,1.13,0,0,1,.49-2.21,1.15,1.15,0,0,1,.5.26,1.17,1.17,0,0,1,.32.47,1.12,1.12,0,0,1,0,.62,1.19,1.19,0,0,1-.49.71,1.13,1.13,0,0,1-.86.15Zm-.62-5.36a4.31,4.31,0,0,1,1.36-.06l-.38,1.71a2.58,2.58,0,0,0-1.12.2,2.67,2.67,0,0,0-.49.26l-1.3-1.19A4.38,4.38,0,0,1,23.29,21.23ZM20,26.65a4.33,4.33,0,0,1-.05-2.1,4.39,4.39,0,0,1,.84-1.77L22,24a2.59,2.59,0,0,0-.42,2.18l-.64.2ZM20.59,28a4.27,4.27,0,0,1-.3-.49l.77-.24.92-.29a2.64,2.64,0,0,0,.84.8,2.69,2.69,0,0,0,.35.17l-.37,1.7a4.24,4.24,0,0,1-1-.5A4.36,4.36,0,0,1,20.59,28Zm5.57,1.37a4.33,4.33,0,0,1-1.64.48h-.07a4.66,4.66,0,0,1-.66,0h-.13L24,28.1a2.4,2.4,0,0,0,.49,0l.13,0,.37-.1a2.5,2.5,0,0,0,.49-.22l.73.67.57.53a4.46,4.46,0,0,1-.65.41Z"/><path class="cls-1" d="M32.91,15.36c-5,0-9-1.16-9-2.58s4-2.58,9-2.58,9,1.16,9,2.58S37.89,15.36,32.91,15.36Z"/><path class="cls-1" d="M41.93,14.85v3.09c0,1.42-4,2.58-9,2.58-.77,0-1.52,0-2.23-.08a1.44,1.44,0,0,0-.64-.24,1.43,1.43,0,0,0-.59-1.06l-.7-.55a1.43,1.43,0,0,0-.91-.32,1.5,1.5,0,0,0-.37,0,1.42,1.42,0,0,0-.9-.73l-.85-.26a1.4,1.4,0,0,0-.43-.07,1.46,1.46,0,0,0-.81.25l-.09.07-.2-.15a1.49,1.49,0,0,0-.3-.14V14.85c2.58,1.73,8.21,1.81,9,1.81S39.35,16.58,41.93,14.85Z"/><path class="cls-1" d="M32.91,25.68h-.39a1.39,1.39,0,0,0,.07-.73l-.14-.89A1.45,1.45,0,0,0,31.7,23a1.44,1.44,0,0,0-.07-1.2c.62,0,1.09,0,1.28,0,.81,0,6.45-.07,9-1.8V23.1C41.93,24.52,37.89,25.68,32.91,25.68Z"/><path class="cls-1" d="M31.4,29.32a1.44,1.44,0,0,0,.82-1l.22-.85a1.41,1.41,0,0,0,0-.53h.41c.81,0,6.45-.07,9-1.8v3.09c0,1.42-4,2.58-9,2.58-.67,0-1.32,0-1.95-.06l.18-.24A1.43,1.43,0,0,0,31.4,29.32Z"/><path class="cls-1" d="M49.76,39.37h-.44v1.23h-.27V39.37h-.44v-.22h1.14Z"/><path class="cls-1" d="M51.52,39.15v1.45h-.24v-.93s0-.08,0-.12l-.44.82a.1.1,0,0,1-.1.06h0a.1.1,0,0,1-.1-.06l-.44-.82v.06s0,0,0,.06v.93H50V39.15h.28l0,0,.43.8,0,.07,0,.07,0-.07,0-.07.43-.8,0,0h.28Z"/></svg>