<?xml version="1.0" encoding="utf-8"?>
<!-- Generator: Adobe Illustrator 21.1.0, SVG Export Plug-In . SVG Version: 6.00 Build 0)  -->
<svg version="1.1" id="Calque_1" xmlns="http://www.w3.org/2000/svg" xmlns:xlink="http://www.w3.org/1999/xlink" x="0px" y="0px"
	 viewBox="0 0 50 50" style="enable-background:new 0 0 50 50;" xml:space="preserve">
<style type="text/css">
	.st0{fill:none;}
	.st1{enable-background:new    ;}
	.st2{fill:#FFFFFF;}
	.st3{fill:#5A9DD6;}
</style>
<rect x="-0.1" y="38.9" class="st0" width="50" height="7"/>
<g class="st1">
	<path class="st2" d="M15.7,43.4c0.1,0,0.1,0,0.2,0.1l0.4,0.5c-0.2,0.3-0.5,0.5-0.9,0.7s-0.8,0.2-1.2,0.2c-0.4,0-0.8-0.1-1.2-0.2
		s-0.6-0.4-0.9-0.6c-0.2-0.3-0.4-0.6-0.6-0.9s-0.2-0.8-0.2-1.2c0-0.4,0.1-0.8,0.2-1.2s0.3-0.7,0.6-0.9c0.3-0.3,0.6-0.5,0.9-0.6
		c0.3-0.1,0.7-0.2,1.2-0.2c0.4,0,0.8,0.1,1.1,0.2s0.6,0.3,0.8,0.5l-0.4,0.5c0,0,0,0.1-0.1,0.1c0,0-0.1,0-0.1,0c0,0-0.1,0-0.1,0
		s-0.1-0.1-0.1-0.1s-0.1-0.1-0.2-0.1c-0.1,0-0.1-0.1-0.2-0.1c-0.1,0-0.2-0.1-0.3-0.1c-0.1,0-0.2,0-0.4,0c-0.3,0-0.5,0-0.7,0.1
		c-0.2,0.1-0.4,0.2-0.6,0.4c-0.2,0.2-0.3,0.4-0.4,0.6c-0.1,0.3-0.1,0.5-0.1,0.9c0,0.3,0,0.6,0.1,0.9c0.1,0.3,0.2,0.5,0.4,0.6
		c0.2,0.2,0.3,0.3,0.6,0.4c0.2,0.1,0.4,0.1,0.7,0.1c0.1,0,0.3,0,0.4,0s0.2,0,0.3-0.1c0.1,0,0.2-0.1,0.3-0.1s0.2-0.1,0.3-0.2
		C15.5,43.5,15.6,43.5,15.7,43.4C15.6,43.5,15.7,43.4,15.7,43.4z"/>
	<path class="st2" d="M20.4,43.9v0.9H17V39h1.1v4.9H20.4z"/>
	<path class="st2" d="M26.5,41.9c0,0.4-0.1,0.8-0.2,1.2s-0.3,0.7-0.6,0.9c-0.3,0.3-0.6,0.5-0.9,0.6c-0.4,0.1-0.8,0.2-1.2,0.2
		c-0.4,0-0.8-0.1-1.2-0.2c-0.4-0.1-0.7-0.4-0.9-0.6c-0.3-0.3-0.5-0.6-0.6-0.9c-0.1-0.4-0.2-0.8-0.2-1.2c0-0.4,0.1-0.8,0.2-1.2
		c0.1-0.4,0.3-0.7,0.6-0.9c0.3-0.3,0.6-0.5,0.9-0.6c0.4-0.1,0.8-0.2,1.2-0.2c0.3,0,0.6,0,0.8,0.1s0.5,0.2,0.7,0.3s0.4,0.3,0.6,0.5
		c0.2,0.2,0.3,0.4,0.4,0.6s0.2,0.5,0.3,0.7S26.5,41.6,26.5,41.9z M25.4,41.9c0-0.3,0-0.6-0.1-0.9c-0.1-0.3-0.2-0.5-0.4-0.6
		c-0.2-0.2-0.3-0.3-0.6-0.4c-0.2-0.1-0.5-0.1-0.8-0.1s-0.5,0-0.8,0.1c-0.2,0.1-0.4,0.2-0.6,0.4c-0.2,0.2-0.3,0.4-0.4,0.6
		s-0.1,0.5-0.1,0.9s0,0.6,0.1,0.9s0.2,0.5,0.4,0.6c0.2,0.2,0.4,0.3,0.6,0.4c0.2,0.1,0.5,0.1,0.8,0.1s0.5,0,0.8-0.1
		c0.2-0.1,0.4-0.2,0.6-0.4c0.2-0.2,0.3-0.4,0.4-0.6C25.3,42.5,25.4,42.2,25.4,41.9z"/>
	<path class="st2" d="M29.7,43.9c0.2,0,0.4,0,0.6-0.1s0.3-0.2,0.4-0.3c0.1-0.1,0.2-0.3,0.3-0.5c0.1-0.2,0.1-0.4,0.1-0.6V39h1.1v3.5
		c0,0.3-0.1,0.7-0.2,1s-0.3,0.5-0.5,0.8c-0.2,0.2-0.5,0.4-0.8,0.5c-0.3,0.1-0.6,0.2-1,0.2c-0.4,0-0.7-0.1-1-0.2
		c-0.3-0.1-0.5-0.3-0.8-0.5c-0.2-0.2-0.4-0.5-0.5-0.8s-0.2-0.6-0.2-1V39h1.1v3.5c0,0.2,0,0.4,0.1,0.6s0.1,0.3,0.3,0.5
		c0.1,0.1,0.3,0.2,0.4,0.3S29.5,43.9,29.7,43.9z"/>
	<path class="st2" d="M38.5,41.9c0,0.4-0.1,0.8-0.2,1.2c-0.1,0.4-0.3,0.7-0.6,0.9c-0.3,0.3-0.6,0.5-0.9,0.6s-0.8,0.2-1.2,0.2h-2.2
		V39h2.2c0.4,0,0.8,0.1,1.2,0.2s0.7,0.3,0.9,0.6c0.3,0.3,0.5,0.6,0.6,0.9C38.4,41.1,38.5,41.5,38.5,41.9z M37.4,41.9
		c0-0.3,0-0.6-0.1-0.9s-0.2-0.5-0.4-0.6c-0.2-0.2-0.4-0.3-0.6-0.4c-0.2-0.1-0.5-0.1-0.8-0.1h-1.1V44h1.1c0.3,0,0.5,0,0.8-0.1
		c0.2-0.1,0.4-0.2,0.6-0.4c0.2-0.2,0.3-0.4,0.4-0.6S37.4,42.2,37.4,41.9z"/>
</g>
<rect x="34.4" y="38.1" class="st0" width="15.6" height="4.2"/>
<g class="st1">
	<path class="st2" d="M41.5,38.7h-0.9v2.5h-0.5v-2.5h-0.9v-0.4h2.3V38.7z"/>
	<path class="st2" d="M45,38.2v2.9h-0.5v-1.9c0-0.1,0-0.2,0-0.2l-0.9,1.6c0,0.1-0.1,0.1-0.2,0.1h-0.1c-0.1,0-0.1,0-0.2-0.1L42.3,39
		c0,0,0,0.1,0,0.1c0,0,0,0.1,0,0.1v1.9h-0.5v-2.9h0.4c0,0,0,0,0.1,0c0,0,0,0,0,0c0,0,0,0,0,0c0,0,0,0,0,0l0.9,1.6c0,0,0,0.1,0.1,0.1
		c0,0,0,0.1,0.1,0.1c0,0,0-0.1,0.1-0.1c0,0,0-0.1,0.1-0.1l0.9-1.6c0,0,0,0,0,0c0,0,0,0,0,0c0,0,0,0,0,0c0,0,0,0,0.1,0H45z"/>
</g>
<g>
	<path class="st2" d="M9.3,29c-4.2,0-7.7-3.4-7.7-6s1.2-3.7,3.1-4.8c-0.1-0.4-0.1-0.8-0.1-1.3c0-4,4.1-7.2,9.1-7.2
		c0.8,0,1.7,0.1,2.5,0.3c0-0.2,0-0.4,0-0.6c0-2.9,2.1-5.3,5.2-6.5v12h-4.9L25,25.5l8.5-10.6h-4.9V2.7c3.3,1.1,5.7,3.6,5.7,6.7
		c0,0.2,0,0.3,0,0.5c0.7-0.1,1.3-0.2,2-0.2c5,0,9.1,3.2,9.1,7.2c0,0.4,0,0.9-0.1,1.3c1.9,1.1,3.1,2.2,3.1,4.8s-3.4,6-7.7,6H9.3z"/>
	<path class="st3" d="M46.7,26.7l-1.4-0.4l0,0c0-0.2,0-0.3,0-0.5l0.2-0.1l1.1-0.5c0.1-0.1,0.2-0.2,0.2-0.4L46.6,24
		c0-0.2-0.2-0.2-0.3-0.2H46L44.8,24c-0.1-0.1-0.1-0.3-0.2-0.4l1.1-1c0.1-0.1,0.1-0.3,0-0.4L45.5,22l-0.4-0.6
		c-0.1-0.1-0.2-0.1-0.3-0.1h-0.1L43.3,22c-0.1-0.1-0.2-0.2-0.3-0.3l0.6-1.3c0.1-0.1,0-0.3-0.1-0.4l-0.8-0.5c-0.1-0.1-0.2-0.1-0.3,0
		c0,0-0.1,0-0.1,0.1l-0.6,0.7l-0.4,0.5l0,0h-0.1v-1.6c0-0.2-0.1-0.3-0.3-0.3l-0.5-0.1L40,18.7h-0.1c-0.1,0-0.1,0-0.2,0
		c-0.1,0-0.1,0.1-0.1,0.2l-0.3,0.9l-0.2,0.6c-0.1,0-0.2,0-0.3,0c0,0,0,0,0-0.1l-0.3-0.7l0,0L38.3,19c0-0.1-0.1-0.1-0.1-0.1
		c-0.1-0.1-0.2-0.1-0.2,0l-1,0.2c-0.1,0-0.2,0.2-0.2,0.3L37,21c-0.1,0-0.2,0.1-0.3,0.1l0,0L35.5,20c-0.1-0.1-0.3-0.1-0.4,0l-0.8,0.6
		c-0.1,0.1-0.2,0.3-0.1,0.4l0.8,1.4c-0.1,0.1-0.2,0.2-0.3,0.3l0,0L33.2,22c-0.1-0.1-0.3,0-0.4,0.1l-0.5,0.8c-0.1,0.1,0,0.3,0.1,0.4
		l0.7,0.6l0.5,0.4l0,0c0,0.1-0.1,0.2-0.1,0.4l0,0h-1.6c-0.2,0-0.3,0.1-0.3,0.3l-0.1,1c0,0.2,0.1,0.3,0.2,0.3l1.6,0.4l0,0
		c0,0.1,0,0.2,0,0.3l0,0l-1.5,0.6c-0.1,0.1-0.2,0.2-0.2,0.4l0.3,0.9c0,0.2,0.2,0.2,0.3,0.2l1.6-0.2c0,0.1,0.1,0.2,0.2,0.3l-0.1,0.1
		l-1,1c-0.1,0.1-0.1,0.3,0,0.4l0.6,0.8c0.1,0.1,0.3,0.2,0.4,0.1l1.4-0.8c0.1,0.1,0.2,0.2,0.3,0.3l-0.2,0.6L35,32.5
		c-0.1,0.1,0,0.3,0.1,0.4l0.8,0.5c0.1,0.1,0.3,0,0.4-0.1l1-1.2c0.1,0.1,0.3,0.1,0.4,0.1v1.5c0,0.2,0.1,0.3,0.3,0.3l0.8,0.1h0.1
		c0.2,0,0.3-0.1,0.3-0.2l0.3-1l0.1-0.5c0.1,0,0.2,0,0.2,0l0.3,0.9l0.1,0.3l0.1,0.2c0.1,0.1,0.2,0.2,0.4,0.2l0.9-0.2
		c0.1,0,0.1,0,0.1-0.1c0.1-0.1,0.1-0.2,0.1-0.3l-0.1-0.6l-0.1-0.5V32h0.1c0.1,0,0.2-0.1,0.3-0.1l0,0l1,1c0.1,0.1,0.3,0.1,0.4,0
		l0.8-0.6c0.1-0.1,0.2-0.3,0.1-0.4l-0.7-1.2c0.1-0.1,0.2-0.2,0.3-0.4l1.3,0.6c0.1,0.1,0.3,0,0.4-0.1l0.5-0.8c0.1-0.1,0-0.3-0.1-0.4
		l-1.1-0.9c0.1-0.1,0.1-0.3,0.2-0.4h1.4c0.2,0,0.3-0.1,0.3-0.3l0.1-1C47,26.9,46.9,26.7,46.7,26.7z M43.6,25.1
		c0.5,1.4,0.2,2.9-0.7,4.1l-1.3-1l-0.2-0.1c0.1-0.1,0.1-0.2,0.2-0.3c0.4-0.6,0.4-1.3,0.2-2L43.6,25.1z M43.2,24.3l-1.5,0.6L41.5,25
		c-0.1-0.2-0.3-0.4-0.5-0.5c-0.2-0.2-0.4-0.3-0.6-0.4c-0.1,0-0.2-0.1-0.2-0.1l0.2-1.6v-0.2C41.6,22.4,42.6,23.2,43.2,24.3L43.2,24.3
		z M39.2,27.6c-0.6-0.1-1.1-0.7-1-1.3c0.1-0.6,0.7-1.1,1.3-1c0.2,0,0.4,0.1,0.5,0.2c0.2,0.1,0.3,0.3,0.4,0.5
		c0.1,0.2,0.1,0.4,0.1,0.6c0,0.3-0.2,0.6-0.5,0.8C39.8,27.6,39.5,27.7,39.2,27.6L39.2,27.6z M38.1,22.2c0.5-0.1,0.9-0.2,1.4-0.2
		l-0.3,1.8c-0.4,0-0.8,0.1-1.1,0.3c-0.2,0.1-0.3,0.2-0.5,0.3l-1.4-1.1C36.8,22.7,37.4,22.4,38.1,22.2L38.1,22.2z M35.1,28
		c-0.2-0.7-0.3-1.4-0.2-2.2c0.1-0.7,0.4-1.3,0.7-1.9L37,25c-0.4,0.7-0.5,1.5-0.3,2.3l-0.6,0.3L35.1,28z M35.9,29.3
		c-0.1-0.2-0.2-0.3-0.3-0.5l0.8-0.3l0.9-0.4c0.2,0.3,0.6,0.6,0.9,0.8c0.1,0.1,0.2,0.1,0.4,0.2l-0.3,1.8c-0.4-0.1-0.7-0.2-1.1-0.4
		C36.7,30.1,36.2,29.8,35.9,29.3L35.9,29.3z M41.7,30.3c-0.5,0.3-1.1,0.5-1.7,0.6h-0.1c-0.2,0-0.5,0-0.7,0h-0.1l0.3-1.8
		c0.2,0,0.3,0,0.5-0.1H40c0.1,0,0.2-0.1,0.4-0.1c0.2-0.1,0.3-0.2,0.5-0.3l0.8,0.6l0.6,0.5C42.2,30,41.9,30.2,41.7,30.3z"/>
</g>
</svg>
