<?xml version="1.0" encoding="utf-8"?>
<!-- Generator: Adobe Illustrator 21.1.0, SVG Export Plug-In . SVG Version: 6.00 Build 0)  -->
<svg version="1.1" id="Calque_1" xmlns="http://www.w3.org/2000/svg" xmlns:xlink="http://www.w3.org/1999/xlink" x="0px" y="0px"
	 viewBox="0 0 70 70" style="enable-background:new 0 0 70 70;" xml:space="preserve">
<style type="text/css">
	.st0{fill:none;}
	.st1{enable-background:new    ;}
	.st2{fill:#203D59;}
	.st3{fill:#5A9DD6;}
</style>
<rect x="0.5" y="48.9" class="st0" width="60" height="7"/>
<g class="st1">
	<path class="st2" d="M8.3,52c0,0.4-0.1,0.8-0.2,1.2c-0.1,0.4-0.3,0.7-0.6,0.9c-0.3,0.3-0.6,0.5-0.9,0.6c-0.4,0.1-0.8,0.2-1.2,0.2
		H3.1v-5.8h2.2c0.4,0,0.8,0.1,1.2,0.2c0.4,0.1,0.7,0.3,0.9,0.6c0.3,0.3,0.5,0.6,0.6,0.9C8.2,51.2,8.3,51.5,8.3,52z M7.2,52
		c0-0.3,0-0.6-0.1-0.9s-0.2-0.5-0.4-0.6s-0.4-0.3-0.6-0.4c-0.2-0.1-0.5-0.1-0.8-0.1H4.2V54h1.1c0.3,0,0.5,0,0.8-0.1
		c0.2-0.1,0.4-0.2,0.6-0.4c0.2-0.2,0.3-0.4,0.4-0.6S7.2,52.3,7.2,52z"/>
	<path class="st2" d="M10.3,54.9H9.2v-5.8h1.1V54.9z"/>
	<path class="st2" d="M14.7,50.1c0,0.1-0.1,0.1-0.1,0.1s-0.1,0-0.1,0c-0.1,0-0.1,0-0.2-0.1c-0.1,0-0.1-0.1-0.2-0.1
		c-0.1,0-0.2-0.1-0.3-0.1c-0.1,0-0.3-0.1-0.4-0.1c-0.1,0-0.3,0-0.4,0.1c-0.1,0-0.2,0.1-0.3,0.2c-0.1,0.1-0.1,0.1-0.2,0.2
		c0,0.1-0.1,0.2-0.1,0.3c0,0.1,0,0.2,0.1,0.3c0.1,0.1,0.2,0.2,0.3,0.2c0.1,0.1,0.3,0.1,0.4,0.2s0.3,0.1,0.5,0.2
		c0.2,0.1,0.3,0.1,0.5,0.2s0.3,0.2,0.4,0.3c0.1,0.1,0.2,0.3,0.3,0.4S15,52.8,15,53c0,0.3,0,0.5-0.1,0.7c-0.1,0.2-0.2,0.4-0.4,0.6
		c-0.2,0.2-0.4,0.3-0.6,0.4s-0.5,0.1-0.9,0.1c-0.2,0-0.4,0-0.5-0.1s-0.4-0.1-0.5-0.2c-0.2-0.1-0.3-0.1-0.5-0.2
		c-0.1-0.1-0.3-0.2-0.4-0.3l0.3-0.5c0,0,0.1-0.1,0.1-0.1s0.1,0,0.1,0c0.1,0,0.1,0,0.2,0.1c0.1,0.1,0.2,0.1,0.3,0.2
		c0.1,0.1,0.2,0.1,0.4,0.2c0.1,0.1,0.3,0.1,0.5,0.1c0.3,0,0.5-0.1,0.7-0.2s0.3-0.4,0.3-0.6c0-0.2,0-0.3-0.1-0.4
		c-0.1-0.1-0.2-0.2-0.3-0.2c-0.1-0.1-0.3-0.1-0.4-0.2c-0.2,0-0.3-0.1-0.5-0.1s-0.3-0.1-0.5-0.2c-0.2-0.1-0.3-0.2-0.4-0.3
		s-0.2-0.3-0.3-0.5c-0.1-0.2-0.1-0.4-0.1-0.7c0-0.2,0-0.4,0.1-0.6s0.2-0.4,0.4-0.5c0.2-0.2,0.4-0.3,0.6-0.4c0.2-0.1,0.5-0.1,0.8-0.1
		c0.3,0,0.7,0.1,0.9,0.2c0.3,0.1,0.5,0.3,0.7,0.4L14.7,50.1z"/>
	<path class="st2" d="M20,50h-1.7v4.9h-1.1V50h-1.7v-0.9H20V50z"/>
	<path class="st2" d="M25.3,54.9h-1c-0.2,0-0.3-0.1-0.4-0.2l-1.2-1.9c0-0.1-0.1-0.1-0.1-0.1s-0.1,0-0.2,0h-0.5v2.3h-1.1v-5.8h1.8
		c0.4,0,0.7,0,1,0.1s0.5,0.2,0.7,0.3c0.2,0.1,0.3,0.3,0.4,0.5c0.1,0.2,0.1,0.4,0.1,0.7c0,0.2,0,0.4-0.1,0.6
		c-0.1,0.2-0.1,0.3-0.2,0.5c-0.1,0.1-0.2,0.3-0.4,0.4c-0.2,0.1-0.3,0.2-0.5,0.3c0.1,0,0.1,0.1,0.2,0.1c0.1,0.1,0.1,0.1,0.2,0.2
		L25.3,54.9z M22.5,51.8c0.2,0,0.4,0,0.5-0.1c0.2,0,0.3-0.1,0.4-0.2c0.1-0.1,0.2-0.2,0.2-0.3c0-0.1,0.1-0.3,0.1-0.4
		c0-0.3-0.1-0.5-0.3-0.7s-0.5-0.2-0.9-0.2h-0.7v1.9H22.5z"/>
	<path class="st2" d="M27,54.9h-1.1v-5.8H27V54.9z"/>
	<path class="st2" d="M30.3,49.1c0.4,0,0.7,0,1,0.1c0.3,0.1,0.5,0.2,0.7,0.3c0.2,0.1,0.3,0.3,0.4,0.5s0.1,0.4,0.1,0.6
		c0,0.1,0,0.3-0.1,0.4c0,0.1-0.1,0.2-0.2,0.3c-0.1,0.1-0.2,0.2-0.3,0.3s-0.3,0.2-0.5,0.2c0.8,0.2,1.2,0.6,1.2,1.3
		c0,0.2,0,0.5-0.1,0.7s-0.2,0.4-0.4,0.5c-0.2,0.2-0.4,0.3-0.7,0.4c-0.3,0.1-0.6,0.1-0.9,0.1h-2.2v-5.8H30.3z M29.4,49.9v1.7h0.9
		c0.4,0,0.6-0.1,0.8-0.2c0.2-0.1,0.3-0.3,0.3-0.6c0-0.3-0.1-0.5-0.3-0.6c-0.2-0.1-0.4-0.2-0.8-0.2H29.4z M30.4,54
		c0.2,0,0.4,0,0.5-0.1s0.2-0.1,0.3-0.2c0.1-0.1,0.1-0.2,0.2-0.3s0.1-0.2,0.1-0.3c0-0.1,0-0.2-0.1-0.3c0-0.1-0.1-0.2-0.2-0.3
		c-0.1-0.1-0.2-0.1-0.3-0.2c-0.1,0-0.3-0.1-0.5-0.1h-1.1V54H30.4z"/>
	<path class="st2" d="M35.9,54c0.2,0,0.4,0,0.6-0.1c0.2-0.1,0.3-0.2,0.4-0.3c0.1-0.1,0.2-0.3,0.3-0.5c0.1-0.2,0.1-0.4,0.1-0.6v-3.5
		h1.1v3.5c0,0.3-0.1,0.7-0.2,1c-0.1,0.3-0.3,0.5-0.5,0.8c-0.2,0.2-0.5,0.4-0.8,0.5c-0.3,0.1-0.6,0.2-1,0.2c-0.4,0-0.7-0.1-1-0.2
		c-0.3-0.1-0.5-0.3-0.8-0.5s-0.4-0.5-0.5-0.8c-0.1-0.3-0.2-0.6-0.2-1v-3.5h1.1v3.5c0,0.2,0,0.4,0.1,0.6c0.1,0.2,0.1,0.3,0.3,0.5
		c0.1,0.1,0.3,0.2,0.4,0.3S35.7,54,35.9,54z"/>
	<path class="st2" d="M43.5,50h-1.7v4.9h-1.1V50H39v-0.9h4.6V50z"/>
	<path class="st2" d="M45.4,54.9h-1.1v-5.8h1.1V54.9z"/>
	<path class="st2" d="M52.2,52c0,0.4-0.1,0.8-0.2,1.2s-0.3,0.7-0.6,0.9c-0.3,0.3-0.6,0.5-0.9,0.6c-0.4,0.1-0.8,0.2-1.2,0.2
		c-0.4,0-0.8-0.1-1.2-0.2c-0.4-0.1-0.7-0.4-0.9-0.6c-0.3-0.3-0.5-0.6-0.6-0.9c-0.1-0.4-0.2-0.8-0.2-1.2c0-0.4,0.1-0.8,0.2-1.2
		c0.1-0.4,0.3-0.7,0.6-0.9c0.3-0.3,0.6-0.5,0.9-0.6s0.8-0.2,1.2-0.2c0.3,0,0.6,0,0.8,0.1s0.5,0.2,0.7,0.3s0.4,0.3,0.6,0.5
		c0.2,0.2,0.3,0.4,0.4,0.6s0.2,0.5,0.3,0.7S52.2,51.7,52.2,52z M51.1,52c0-0.3,0-0.6-0.1-0.9c-0.1-0.3-0.2-0.5-0.4-0.6
		c-0.2-0.2-0.3-0.3-0.6-0.4s-0.5-0.1-0.8-0.1c-0.3,0-0.5,0-0.8,0.1c-0.2,0.1-0.4,0.2-0.6,0.4c-0.2,0.2-0.3,0.4-0.4,0.6
		c-0.1,0.3-0.1,0.5-0.1,0.9s0,0.6,0.1,0.9c0.1,0.3,0.2,0.5,0.4,0.6c0.2,0.2,0.4,0.3,0.6,0.4C48.7,54,49,54,49.2,54
		c0.3,0,0.5,0,0.8-0.1c0.2-0.1,0.4-0.2,0.6-0.4c0.2-0.2,0.3-0.4,0.4-0.6C51,52.6,51.1,52.3,51.1,52z"/>
	<path class="st2" d="M58,49.1v5.8h-0.6c-0.1,0-0.2,0-0.2,0c-0.1,0-0.1-0.1-0.2-0.1l-3-3.9c0,0.2,0,0.3,0,0.5v3.6h-0.9v-5.8h0.6
		c0,0,0.1,0,0.1,0s0.1,0,0.1,0s0,0,0.1,0.1s0.1,0.1,0.1,0.1l3,3.9c0-0.1,0-0.2,0-0.3c0-0.1,0-0.2,0-0.3v-3.5H58z"/>
</g>
<rect x="54.4" y="48.3" class="st0" width="15.6" height="4.2"/>
<g class="st1">
	<path class="st2" d="M61.5,48.8h-0.9v2.5h-0.5v-2.5h-0.9v-0.4h2.3V48.8z"/>
	<path class="st2" d="M65,48.4v2.9h-0.5v-1.9c0-0.1,0-0.2,0-0.2l-0.9,1.6c0,0.1-0.1,0.1-0.2,0.1h-0.1c-0.1,0-0.1,0-0.2-0.1l-0.9-1.6
		c0,0,0,0.1,0,0.1c0,0,0,0.1,0,0.1v1.9h-0.5v-2.9h0.4c0,0,0,0,0.1,0c0,0,0,0,0,0c0,0,0,0,0,0c0,0,0,0,0,0l0.9,1.6c0,0,0,0.1,0.1,0.1
		c0,0,0,0.1,0.1,0.1c0,0,0-0.1,0.1-0.1c0,0,0-0.1,0.1-0.1l0.9-1.6c0,0,0,0,0,0c0,0,0,0,0,0c0,0,0,0,0,0c0,0,0,0,0.1,0H65z"/>
</g>
<g id="_1">
	<path class="st2" d="M34.5,42.8c-2.2-1.7-4-3.9-5.3-6.4c1.3-0.6,2.6-1,4-1.2c0-0.3-0.1-0.6-0.1-0.9c-1.5,0.2-2.9,0.6-4.2,1.2
		c-0.8-1.9-1.2-3.9-1.3-5.9v-0.4h5.9l1.1-0.1l0.6-0.7l0.8-1l0.1-0.6l4.3-0.6l1.7,0.3l2.1,0.9l0.9,0.4c0,0,2.5,0.2,0.6,1.3l-0.8-0.3
		c0-0.1,0.7,0.2,0.2,0.3l4.8,0.1c0.1,0,0.2,0,0.2,0c0,0.8-0.1,1.6-0.3,2.4l0.7-0.1c0.8-3.9,0.2-7.9-1.7-11.1
		c-2.6-4.4-7.4-7.3-12.3-7.6C30,12.4,23.8,16.1,21,22c-2,4-1.9,9.6,0.1,13.6c2.5,5.4,8.3,9.1,14.3,8.9C35,44,34.7,43.4,34.5,42.8
		L34.5,42.8z M50.1,28.3h-5.6c-0.1-2.5-0.6-4.9-1.6-7.2c1.2-0.7,2.4-1.5,3.4-2.5C48.7,21.3,49.9,24.6,50.1,28.3z M45.6,18
		c-0.9,0.9-2,1.8-3.2,2.4c-1.2-2.5-3.4-4.9-5.7-6.5C40.1,14.1,43.2,15.6,45.6,18L45.6,18z M36,14.5c2.3,1.5,4.4,3.9,5.6,6.3
		c-1.8,0.9-3.7,1.4-5.6,1.4V14.5z M36,23.1c2.1-0.1,4.2-0.6,6-1.5c1,2.1,1.7,3.4,1.8,5.7L38.3,26l-2.8,1L36,23.1L36,23.1z M35,28.4
		h-7.6c0-2.3,0.5-4.5,1.4-6.6c1.9,0.8,4,1.4,6.2,1.4V28.4z M35,22.2c-2.2,0-3.9-0.5-5.7-1.3c1.3-2.6,3.4-5,5.8-6.7L35,22.2z
		 M34.2,13.8c-2.4,1.7-4.5,4.2-5.7,6.7C27.2,19.9,26,19,25,18C27.5,15.5,30.7,14.1,34.2,13.8L34.2,13.8z M20.5,27.2
		c0.1,0,0-0.1,0-0.2c0.4-3.1,1.6-6,3.7-8.3c1.1,1.1,2.4,2,3.8,2.7c-0.9,2.2-1.5,4.6-1.5,7h-6l0,0V27.2z M24.3,38.7
		c-2.4-2.6-3.6-5.8-3.8-9.4h5.6h0.5c0,2.3,0.5,4.6,1.4,6.7C26.6,36.7,25.4,37.6,24.3,38.7L24.3,38.7z M24.9,39.4
		c1-1.1,2.2-1.9,3.4-2.5c1.2,2.5,3.2,5,5.6,6.7C30.5,43.2,27.4,41.7,24.9,39.4L24.9,39.4z"/>
</g>
<path class="st2" d="M39.4,28.2c-0.5,0-0.9,0.1-1.4,0.2c-0.3,0.1-0.6,0.2-0.8,0.4c-2.5,1.3-3.5,4.5-2.2,7c1,1.9,3,2.9,5.1,2.8
	c0.4,0,0.8-0.1,1.2-0.2c2.7-0.9,4.2-3.8,3.3-6.6C43.9,29.6,41.8,28.1,39.4,28.2L39.4,28.2z M41.4,34.2c-0.2,0.5-0.6,0.8-1.1,1
	c-0.3,0.1-0.6,0.1-0.9,0.1c-1.1-0.2-1.8-1.2-1.6-2.2C38,32,39,31.3,40,31.5c1.1,0.2,1.8,1.2,1.6,2.2C41.5,33.9,41.5,34.1,41.4,34.2
	L41.4,34.2z"/>
<path class="st3" d="M50,28.3l-2.4,0.5c-0.6-1-1.3-1.9-2.2-2.6l0.9-2.3c0.1-0.2,0-0.4-0.2-0.5l-2.2-1.1c-0.2-0.1-0.4,0-0.5,0.1
	L42,24.5c-1.1-0.3-2.2-0.4-3.4-0.3l-1-2.3c-0.1-0.2-0.3-0.2-0.4-0.2l-2.4,0.8c-0.2,0.1-0.3,0.2-0.2,0.4l0.5,2.5
	c-1,0.6-1.9,1.3-2.6,2.2l-2.3-0.9c-0.2-0.1-0.4,0-0.5,0.2l-1.1,2.2c-0.1,0.2,0,0.4,0.1,0.5l2.1,1.4c-0.3,1.1-0.4,2.2-0.3,3.4l-2.3,1
	C28,35.5,28,35.7,28,35.8l0.8,2.4c0.1,0.2,0.2,0.3,0.4,0.2l2.4-0.5c0.6,1,1.3,1.9,2.2,2.6L33.2,42L33,42.9c-0.1,0.2,0,0.4,0.2,0.4
	l1.6,0.8l0,0l0.6,0.3c0.2,0.1,0.4,0,0.5-0.1l0.5-0.7l0,0l0.9-1.4c0.8,0.2,1.5,0.3,2.3,0.3h0.1c0.3,0,0.6,0,1-0.1l1.1,2.3
	c0.1,0.2,0.3,0.2,0.4,0.2l2.4-0.8c0.2-0.1,0.3-0.2,0.2-0.4l-0.5-2.4c0.3-0.2,0.5-0.3,0.8-0.5c0.7-0.5,1.2-1,1.8-1.7l1.6,0.6l0.8,0.3
	c0.2,0.1,0.4,0,0.5-0.2l0.3-0.6l0.8-1.6c0.1-0.2,0-0.4-0.1-0.5l-2.1-1.4c0.3-1.1,0.4-2.2,0.3-3.4l2.3-1c0.2-0.1,0.2-0.3,0.2-0.4
	l-0.8-2.4C50.4,28.4,50.2,28.3,50,28.3z M42.5,39.4c-3.3,1.6-7.2,0.1-8.8-3.2s-0.1-7.2,3.2-8.8c3.3-1.6,7.2-0.1,8.8,3.2
	c0.1,0.2,0.2,0.5,0.3,0.8C47,34.5,45.5,37.9,42.5,39.4z"/>
</svg>
