<svg id="Calque_1" data-name="Calque 1" xmlns="http://www.w3.org/2000/svg" viewBox="0 0 60 60"><defs><style>.cls-1{fill:#fff;}.cls-2{fill:#5a9dd6;}</style></defs><title>Plan de travail 1 copie 3</title><path class="cls-1" d="M44.73,39.42H44.3v1.23H44V39.42h-.44v-.22h1.14Z"/><path class="cls-1" d="M46.49,39.19v1.45h-.24v-.93s0-.08,0-.12l-.44.82a.1.1,0,0,1-.1.06h0a.1.1,0,0,1-.1-.06l-.44-.82v.06s0,0,0,.06v.93h-.24V39.19h.28l0,0,.43.8,0,.07,0,.07,0-.07,0-.07.43-.8,0,0h.28Z"/><path class="cls-1" d="M22.6,39.25v5.06h-.83V41c0-.13,0-.27,0-.42l-1.53,2.87a.35.35,0,0,1-.33.21h-.13a.35.35,0,0,1-.33-.21l-1.55-2.88c0,.08,0,.15,0,.23s0,.14,0,.21v3.27h-.83V39.25h.82l.08,0,.07,0,.06.08,1.52,2.81.11.23.1.25.1-.25.11-.23,1.49-2.8.06-.08.07,0,.08,0h.82Z"/><path class="cls-1" d="M28.55,41.78a2.83,2.83,0,0,1-.18,1,2.41,2.41,0,0,1-.52.82,2.36,2.36,0,0,1-.81.54,2.92,2.92,0,0,1-2.1,0,2.38,2.38,0,0,1-.81-.54,2.43,2.43,0,0,1-.52-.82,3,3,0,0,1,0-2.06,2.42,2.42,0,0,1,.52-.82,2.38,2.38,0,0,1,.81-.54,2.73,2.73,0,0,1,1-.19,2.84,2.84,0,0,1,.72.09,2.55,2.55,0,0,1,.62.25,2.31,2.31,0,0,1,.51.4,2.39,2.39,0,0,1,.38.52,2.54,2.54,0,0,1,.24.62A3,3,0,0,1,28.55,41.78Zm-1,0a2.32,2.32,0,0,0-.11-.75,1.6,1.6,0,0,0-.32-.56,1.36,1.36,0,0,0-.5-.35,1.87,1.87,0,0,0-1.33,0,1.37,1.37,0,0,0-.5.35,1.59,1.59,0,0,0-.32.56,2.55,2.55,0,0,0,0,1.49,1.57,1.57,0,0,0,.32.56,1.39,1.39,0,0,0,.5.35,1.87,1.87,0,0,0,1.33,0,1.37,1.37,0,0,0,.5-.35,1.59,1.59,0,0,0,.32-.56A2.32,2.32,0,0,0,27.59,41.78Z"/><path class="cls-1" d="M31.12,39.25a3.33,3.33,0,0,1,.85.09,1.62,1.62,0,0,1,.58.27,1,1,0,0,1,.33.42,1.42,1.42,0,0,1,.1.56,1.12,1.12,0,0,1-.05.34,1,1,0,0,1-.16.3,1.21,1.21,0,0,1-.28.26,1.69,1.69,0,0,1-.4.2q1,.23,1,1.13a1.44,1.44,0,0,1-.12.59,1.31,1.31,0,0,1-.36.47,1.7,1.7,0,0,1-.58.31,2.52,2.52,0,0,1-.78.11H29.38V39.25Zm-.8.73v1.46h.75a1.26,1.26,0,0,0,.73-.17.63.63,0,0,0,.25-.56.66.66,0,0,0-.22-.56,1.17,1.17,0,0,0-.7-.17Zm1,3.6a1.34,1.34,0,0,0,.44-.06.76.76,0,0,0,.29-.17.62.62,0,0,0,.15-.25.93.93,0,0,0,0-.3.79.79,0,0,0-.05-.3.56.56,0,0,0-.16-.22.77.77,0,0,0-.29-.14,1.61,1.61,0,0,0-.43,0h-.95v1.48Z"/><path class="cls-1" d="M34.93,44.31H34V39.25h.94Z"/><path class="cls-1" d="M39,43.54v.78h-3V39.25H37v4.28Z"/><path class="cls-1" d="M40.64,40v1.4h1.77v.72H40.64v1.43h2.25v.75H39.7V39.25h3.19V40Z"/><g id="_34" data-name=" 34"><path class="cls-1" d="M41.82,9.56H20.69A2.45,2.45,0,0,0,18.24,12V27.71a2.45,2.45,0,0,0,2.45,2.45H41.82a2.45,2.45,0,0,0,2.45-2.45V12A2.45,2.45,0,0,0,41.82,9.56Zm-.26,1.57a.56.56,0,1,1-.56.56.56.56,0,0,1,.56-.56Zm-4.37,0h2.73a.52.52,0,0,1,0,1H37.19a.52.52,0,0,1,0-1Zm5.74,16.55a1.12,1.12,0,0,1-1.11,1.11H20.69a1.12,1.12,0,0,1-1.11-1.11V13.57H42.93Z"/><rect class="cls-2" x="21.84" y="25.53" width="18.22" height="1.61"/><rect class="cls-2" x="21.84" y="15.37" width="18.22" height="2.41"/><rect class="cls-2" x="21.96" y="18.97" width="4.16" height="4.95"/><rect class="cls-1" x="27.04" y="19.1" width="12.88" height="0.52"/><rect class="cls-1" x="27.04" y="20.61" width="12.88" height="0.52"/><rect class="cls-1" x="27.04" y="22.13" width="12.88" height="0.52"/><rect class="cls-1" x="27.04" y="23.65" width="12.88" height="0.52"/></g></svg>