<svg id="Calque_1" data-name="Calque 1" xmlns="http://www.w3.org/2000/svg" viewBox="0 0 50 50"><defs><style>.cls-1{font-size:6px;}.cls-1,.cls-4,.cls-6{fill:#fff;}.cls-1,.cls-4{font-family:Lato-Bold, Lato;font-weight:700;}.cls-2{letter-spacing:-0.03em;}.cls-3{letter-spacing:-0.07em;}.cls-4{font-size:2px;}.cls-5{fill:#5a9dd6;}</style></defs><title>Plan de travail 2 copie 14</title><text class="cls-1" transform="translate(9.82 40.8)"><tspan class="cls-2">D</tspan><tspan class="cls-3" x="4.33" y="0">AT</tspan><tspan x="11.28" y="0">ABASE</tspan></text><text class="cls-4" transform="translate(43.81 37.61)"><tspan xml:space="preserve">       </tspan></text><path class="cls-5" d="M27.56,24.55l-1.77-.62a.14.14,0,0,0,0,0,5.86,5.86,0,0,0,0-.66l.29-.1,1.49-.48a.39.39,0,0,0,.28-.44L27.61,21a.39.39,0,0,0-.42-.31l-.37,0-1.55.1a6.05,6.05,0,0,0-.25-.57L26.5,19a.39.39,0,0,0,.1-.51l-.16-.26-.52-.83a.36.36,0,0,0-.36-.18l-.14,0-1.84.84c-.12-.12-.24-.25-.37-.35l1-1.67a.39.39,0,0,0-.09-.52l-1-.77a.36.36,0,0,0-.42,0l-.1.07-.87.89-.61.62v0l-.11,0,.2-2.1a.38.38,0,0,0-.3-.43l-.69-.15-.47-.1-.09,0a.33.33,0,0,0-.26,0,.42.42,0,0,0-.2.24L18.7,15l-.28.79H18l0-.07-.33-.93v0l-.37-1a.43.43,0,0,0-.15-.19.35.35,0,0,0-.31-.07l-1.24.27a.39.39,0,0,0-.3.43l.19,2-.4.15,0,0-1.38-1.6a.38.38,0,0,0-.52-.08l-1.06.71a.38.38,0,0,0-.12.51l.93,1.86-.37.34h0l-1.86-1a.38.38,0,0,0-.51.11l-.74,1a.38.38,0,0,0,.06.52l.91.84.65.6h0c-.07.16-.15.31-.21.48h0L8.7,20.4a.4.4,0,0,0-.43.3L8,22a.39.39,0,0,0,.26.46l2,.71h0c0,.15,0,.3,0,.45h0l-2,.65a.38.38,0,0,0-.27.45l.24,1.26a.38.38,0,0,0,.42.31l2.1-.13c.05.16.11.31.18.46l-.17.13L9.26,27.87a.39.39,0,0,0-.09.52l.68,1.08a.39.39,0,0,0,.51.14l1.87-.86c.1.12.22.24.33.35l-.37.7-.57,1.06a.38.38,0,0,0,.11.51l1,.74a.4.4,0,0,0,.52-.06l1.36-1.48.5.22-.18,2a.39.39,0,0,0,.3.43l1.06.23.18,0a.39.39,0,0,0,.45-.26L17.4,32l.23-.64h.29l.37,1.15.12.38.1.33a.39.39,0,0,0,.44.28l1.25-.24a.32.32,0,0,0,.19-.1.42.42,0,0,0,.12-.32l0-.8,0-.7,0-.37.15-.05.4-.14,0,.05,1.18,1.4a.4.4,0,0,0,.52.09l1.07-.7a.39.39,0,0,0,.13-.51l-.8-1.65c.16-.14.31-.28.46-.43l1.65.9a.39.39,0,0,0,.52-.11l.74-1a.38.38,0,0,0-.06-.52L25,27c.09-.18.18-.37.25-.56l1.87.16a.39.39,0,0,0,.43-.3L27.83,25A.39.39,0,0,0,27.56,24.55Zm-3.87-2.4a5.87,5.87,0,0,1-1.24,5.23L20.92,26l-.19-.17c.09-.11.15-.23.22-.35a3.36,3.36,0,0,0,.51-2.6ZM23.29,21l-2,.65-.2.07a3.45,3.45,0,0,0-.6-.74,3.73,3.73,0,0,0-.8-.57l-.3-.15.46-2.1,0-.2A6,6,0,0,1,23.29,21Zm-5.6,4a1.53,1.53,0,1,1,.66-3,1.55,1.55,0,0,1,.68.35,1.58,1.58,0,0,1,.43.64,1.51,1.51,0,0,1,.06.84,1.6,1.6,0,0,1-.66,1,1.53,1.53,0,0,1-1.16.2Zm-.83-7.22a5.8,5.8,0,0,1,1.83-.08l-.51,2.3a3.47,3.47,0,0,0-1.5.27,3.59,3.59,0,0,0-.66.34l-1.75-1.6A5.89,5.89,0,0,1,16.86,17.83Zm-4.48,7.3a5.84,5.84,0,0,1-.07-2.83,5.92,5.92,0,0,1,1.13-2.39l1.73,1.57a3.49,3.49,0,0,0-.56,2.93l-.86.27Zm.84,1.76a5.75,5.75,0,0,1-.4-.65l1-.33,1.24-.39a3.55,3.55,0,0,0,1.13,1.07,3.62,3.62,0,0,0,.47.23l-.5,2.29a5.71,5.71,0,0,1-1.36-.68,5.88,5.88,0,0,1-1.61-1.55Zm7.51,1.85a5.83,5.83,0,0,1-2.21.65h-.09a6.27,6.27,0,0,1-.89,0h-.18l.51-2.29a3.23,3.23,0,0,0,.65,0l.18,0a3.84,3.84,0,0,0,.49-.14,3.37,3.37,0,0,0,.66-.29l1,.9.77.71a6,6,0,0,1-.87.56Z"/><path class="cls-6" d="M29.81,9.93c-6.71,0-12.16-1.56-12.16-3.47S23.09,3,29.81,3,42,4.54,42,6.45,36.52,9.93,29.81,9.93Z"/><path class="cls-6" d="M42,9.23v4.16c0,1.92-5.44,3.47-12.16,3.47-1,0-2,0-3-.11a1.94,1.94,0,0,0-.86-.33,1.93,1.93,0,0,0-.8-1.43l-.94-.74A1.92,1.92,0,0,0,23,13.82a2,2,0,0,0-.49.06,1.91,1.91,0,0,0-1.21-1l-1.15-.34a1.88,1.88,0,0,0-.58-.09,2,2,0,0,0-1.09.33l-.12.09a2,2,0,0,0-.26-.2,2,2,0,0,0-.41-.19V9.23c3.47,2.33,11.06,2.43,12.15,2.43S38.49,11.57,42,9.23Z"/><path class="cls-6" d="M29.81,23.82h-.53a1.87,1.87,0,0,0,.09-1l-.18-1.2a2,2,0,0,0-1-1.45,1.94,1.94,0,0,0-.1-1.62c.84,0,1.46,0,1.73,0,1.09,0,8.68-.09,12.16-2.43v4.16C42,22.26,36.52,23.82,29.81,23.82Z"/><path class="cls-6" d="M27.78,28.73a1.94,1.94,0,0,0,1.11-1.32l.3-1.14a1.89,1.89,0,0,0,.06-.71h.55c1.09,0,8.68-.09,12.16-2.43v4.16c0,1.92-5.44,3.47-12.16,3.47-.9,0-1.78,0-2.62-.08l.24-.33A1.93,1.93,0,0,0,27.78,28.73Z"/></svg>