<svg id="Calque_1" data-name="Calque 1" xmlns="http://www.w3.org/2000/svg" viewBox="0 0 60 60"><defs><style>.cls-1,.cls-2{fill:#fff;}.cls-2{stroke:#fff;stroke-miterlimit:10;stroke-width:0.5px;}.cls-3{fill:#203d59;}.cls-4{fill:#5b9cd1;}</style></defs><title>Plan de travail 1 copie 3</title><path class="cls-1" d="M48.76,39.37h-.44V40.6H48V39.37h-.44v-.22h1.14Z"/><path class="cls-1" d="M50.52,39.15V40.6h-.24v-1l-.44.82a.1.1,0,0,1-.1.06h0a.1.1,0,0,1-.1-.06l-.44-.82V40.6H49V39.15h.28l.43.8v0l.43-.8h.38Z"/><path class="cls-1" d="M10.33,40.21a.32.32,0,0,1-.09.11.2.2,0,0,1-.12,0A.3.3,0,0,1,10,40.3l-.2-.12-.28-.12A1.17,1.17,0,0,0,9.11,40a1.13,1.13,0,0,0-.34,0,.74.74,0,0,0-.25.13.52.52,0,0,0-.15.2.66.66,0,0,0,0,.26.45.45,0,0,0,.1.3.83.83,0,0,0,.26.2,2.47,2.47,0,0,0,.37.15l.43.14.43.17a1.49,1.49,0,0,1,.37.25,1.15,1.15,0,0,1,.26.37,1.3,1.3,0,0,1,.1.54,1.74,1.74,0,0,1-.12.64,1.48,1.48,0,0,1-.34.52,1.62,1.62,0,0,1-.55.35,2,2,0,0,1-.75.13,2.42,2.42,0,0,1-.48,0A2.47,2.47,0,0,1,8,44.23a2.4,2.4,0,0,1-.4-.21,1.94,1.94,0,0,1-.34-.27l.28-.45a.31.31,0,0,1,.09-.08.23.23,0,0,1,.12,0,.33.33,0,0,1,.19.07l.24.16a1.87,1.87,0,0,0,.33.16,1.26,1.26,0,0,0,.45.07.92.92,0,0,0,.62-.19.69.69,0,0,0,.22-.55.51.51,0,0,0-.1-.33.81.81,0,0,0-.26-.21A2,2,0,0,0,9,42.22l-.43-.13a3.69,3.69,0,0,1-.43-.17,1.38,1.38,0,0,1-.37-.26,1.15,1.15,0,0,1-.26-.39,1.5,1.5,0,0,1-.1-.58,1.38,1.38,0,0,1,.11-.54,1.4,1.4,0,0,1,.32-.47,1.56,1.56,0,0,1,.52-.33,1.9,1.9,0,0,1,.71-.12,2.35,2.35,0,0,1,.83.14,1.86,1.86,0,0,1,.64.39Z"/><path class="cls-1" d="M15.71,44.35H15a.31.31,0,0,1-.2-.06.37.37,0,0,1-.12-.15l-.38-1h-2.1l-.38,1a.33.33,0,0,1-.11.15.31.31,0,0,1-.2.07h-.73l2-5.06h1ZM14,42.44l-.62-1.68c0-.07-.06-.16-.09-.27l-.1-.33c0,.12-.06.23-.09.33s-.06.19-.09.27l-.61,1.68Z"/><path class="cls-1" d="M20.5,39.29v5.06H20a.38.38,0,0,1-.33-.16L17,40.82c0,.15,0,.3,0,.43v3.11h-.83V39.29h.6l.08,0,.06,0,.07.08,2.65,3.39c0-.08,0-.16,0-.24s0-.15,0-.22V39.29Z"/><path class="cls-1" d="M25.11,43.16a.19.19,0,0,1,.14.06l.37.4a2,2,0,0,1-.76.58,2.6,2.6,0,0,1-1.08.2,2.54,2.54,0,0,1-1-.19,2.22,2.22,0,0,1-.77-.54,2.34,2.34,0,0,1-.49-.82,3.07,3.07,0,0,1-.17-1,2.89,2.89,0,0,1,.18-1A2.39,2.39,0,0,1,22,40a2.31,2.31,0,0,1,.79-.53,2.6,2.6,0,0,1,1-.19,2.48,2.48,0,0,1,1,.18,2.33,2.33,0,0,1,.73.48l-.31.44-.07.07a.2.2,0,0,1-.12,0l-.11,0-.12-.07-.15-.1-.2-.1-.27-.07a1.88,1.88,0,0,0-.35,0,1.55,1.55,0,0,0-.62.12,1.35,1.35,0,0,0-.48.35,1.6,1.6,0,0,0-.31.56,2.35,2.35,0,0,0-.11.75,2.22,2.22,0,0,0,.12.76,1.66,1.66,0,0,0,.33.56,1.41,1.41,0,0,0,.49.35,1.51,1.51,0,0,0,.6.12l.35,0a1.53,1.53,0,0,0,.29-.07,1.27,1.27,0,0,0,.25-.12,1.58,1.58,0,0,0,.23-.18l.07-.05Z"/><path class="cls-1" d="M29.8,40.06H28.27v4.29h-.94V40.06H25.8v-.77h4Z"/><path class="cls-1" d="M31.41,44.35h-.94V39.29h.94Z"/><path class="cls-1" d="M37.36,41.82a2.81,2.81,0,0,1-.18,1,2.41,2.41,0,0,1-.52.82,2.37,2.37,0,0,1-.81.54,2.92,2.92,0,0,1-2.1,0,2.37,2.37,0,0,1-.81-.54,2.43,2.43,0,0,1-.52-.82,3,3,0,0,1,0-2.06,2.43,2.43,0,0,1,.52-.82,2.38,2.38,0,0,1,.81-.54,2.72,2.72,0,0,1,1-.19,2.84,2.84,0,0,1,.72.09,2.55,2.55,0,0,1,.62.25,2.3,2.3,0,0,1,.51.4,2.43,2.43,0,0,1,.38.52,2.55,2.55,0,0,1,.24.62A3,3,0,0,1,37.36,41.82Zm-1,0a2.33,2.33,0,0,0-.11-.75,1.61,1.61,0,0,0-.32-.56,1.38,1.38,0,0,0-.5-.35,1.88,1.88,0,0,0-1.33,0,1.39,1.39,0,0,0-.5.35,1.59,1.59,0,0,0-.32.56,2.55,2.55,0,0,0,0,1.49,1.56,1.56,0,0,0,.32.56,1.39,1.39,0,0,0,.5.35,1.88,1.88,0,0,0,1.33,0,1.37,1.37,0,0,0,.5-.35,1.58,1.58,0,0,0,.32-.56A2.34,2.34,0,0,0,36.4,41.82Z"/><path class="cls-1" d="M42.46,39.29v5.06H42a.42.42,0,0,1-.19,0,.43.43,0,0,1-.15-.12L39,40.82c0,.15,0,.3,0,.43v3.11h-.83V39.29h.6l.08,0,.06,0,.07.08,2.65,3.39c0-.08,0-.16,0-.24s0-.15,0-.22V39.29Z"/><path class="cls-1" d="M46.28,40.21a.31.31,0,0,1-.09.11.2.2,0,0,1-.12,0,.3.3,0,0,1-.16-.05l-.2-.12-.28-.12a1.18,1.18,0,0,0-.38-.05,1.13,1.13,0,0,0-.34,0,.74.74,0,0,0-.25.13.53.53,0,0,0-.15.2.67.67,0,0,0,0,.26.45.45,0,0,0,.1.3.82.82,0,0,0,.26.2,2.44,2.44,0,0,0,.37.15l.43.14.43.17a1.48,1.48,0,0,1,.37.25,1.14,1.14,0,0,1,.26.37,1.3,1.3,0,0,1,.1.54,1.74,1.74,0,0,1-.12.64,1.49,1.49,0,0,1-.34.52,1.63,1.63,0,0,1-.55.35,2,2,0,0,1-.75.13,2.43,2.43,0,0,1-.48,0,2.46,2.46,0,0,1-.45-.13,2.4,2.4,0,0,1-.4-.21,1.94,1.94,0,0,1-.34-.27l.28-.45a.31.31,0,0,1,.09-.08.23.23,0,0,1,.12,0,.34.34,0,0,1,.19.07l.24.16a1.86,1.86,0,0,0,.33.16,1.26,1.26,0,0,0,.45.07.92.92,0,0,0,.62-.19.69.69,0,0,0,.22-.55.51.51,0,0,0-.1-.33.81.81,0,0,0-.26-.21,2,2,0,0,0-.37-.14l-.43-.13a3.68,3.68,0,0,1-.43-.17,1.36,1.36,0,0,1-.37-.26,1.17,1.17,0,0,1-.26-.39,1.5,1.5,0,0,1-.1-.58,1.4,1.4,0,0,1,.43-1,1.55,1.55,0,0,1,.52-.33,1.89,1.89,0,0,1,.71-.12,2.35,2.35,0,0,1,.83.14,1.86,1.86,0,0,1,.64.39Z"/><path class="cls-1" d="M10.6,52v.78h-3V47.69h.94V52Z"/><path class="cls-1" d="M12.22,52.75h-.94V47.69h.94Z"/><path class="cls-1" d="M16,48.61a.32.32,0,0,1-.09.11.2.2,0,0,1-.12,0,.3.3,0,0,1-.16-.05l-.2-.12-.28-.12a1.17,1.17,0,0,0-.38-.05,1.13,1.13,0,0,0-.34,0,.74.74,0,0,0-.25.13.52.52,0,0,0-.15.2A.66.66,0,0,0,14,49a.45.45,0,0,0,.1.3.83.83,0,0,0,.26.2,2.47,2.47,0,0,0,.37.15l.43.14.43.17a1.49,1.49,0,0,1,.37.25,1.15,1.15,0,0,1,.26.37,1.3,1.3,0,0,1,.1.54,1.74,1.74,0,0,1-.12.64,1.48,1.48,0,0,1-.34.52,1.62,1.62,0,0,1-.55.35,2,2,0,0,1-.75.13,2.42,2.42,0,0,1-.48,0,2.47,2.47,0,0,1-.45-.13,2.4,2.4,0,0,1-.4-.21,1.94,1.94,0,0,1-.34-.27l.28-.45a.31.31,0,0,1,.09-.08.23.23,0,0,1,.12,0,.33.33,0,0,1,.19.07l.24.16a1.87,1.87,0,0,0,.33.16,1.26,1.26,0,0,0,.45.07.92.92,0,0,0,.62-.19.69.69,0,0,0,.22-.55.51.51,0,0,0-.1-.33.81.81,0,0,0-.26-.21,2,2,0,0,0-.37-.14l-.43-.13a3.69,3.69,0,0,1-.43-.17,1.38,1.38,0,0,1-.37-.26,1.15,1.15,0,0,1-.26-.39,1.5,1.5,0,0,1-.1-.58,1.38,1.38,0,0,1,.11-.54,1.4,1.4,0,0,1,.32-.47,1.56,1.56,0,0,1,.52-.33,1.9,1.9,0,0,1,.71-.12,2.35,2.35,0,0,1,.83.14,1.86,1.86,0,0,1,.64.39Z"/><path class="cls-1" d="M20.72,48.46H19.2v4.29h-.94V48.46H16.73v-.77h4Z"/><path class="cls-1" d="M24.07,48.61a.32.32,0,0,1-.09.11.2.2,0,0,1-.12,0,.3.3,0,0,1-.16-.05l-.2-.12-.28-.12a1.17,1.17,0,0,0-.38-.05,1.13,1.13,0,0,0-.34,0,.74.74,0,0,0-.25.13.52.52,0,0,0-.15.2.66.66,0,0,0,0,.26.45.45,0,0,0,.1.3.83.83,0,0,0,.26.2,2.47,2.47,0,0,0,.37.15l.43.14.43.17a1.49,1.49,0,0,1,.37.25,1.15,1.15,0,0,1,.26.37,1.3,1.3,0,0,1,.1.54,1.74,1.74,0,0,1-.12.64,1.48,1.48,0,0,1-.34.52,1.62,1.62,0,0,1-.55.35,2,2,0,0,1-.75.13,2.42,2.42,0,0,1-.48,0,2.47,2.47,0,0,1-.45-.13,2.4,2.4,0,0,1-.4-.21,1.94,1.94,0,0,1-.34-.27l.28-.45a.31.31,0,0,1,.09-.08.23.23,0,0,1,.12,0,.33.33,0,0,1,.19.07l.24.16a1.87,1.87,0,0,0,.33.16,1.26,1.26,0,0,0,.45.07.92.92,0,0,0,.62-.19.69.69,0,0,0,.22-.55.51.51,0,0,0-.1-.33.81.81,0,0,0-.26-.21,2,2,0,0,0-.37-.14l-.43-.13a3.69,3.69,0,0,1-.43-.17,1.38,1.38,0,0,1-.37-.26,1.15,1.15,0,0,1-.26-.39,1.5,1.5,0,0,1-.1-.58,1.38,1.38,0,0,1,.11-.54,1.4,1.4,0,0,1,.32-.47,1.56,1.56,0,0,1,.52-.33,1.9,1.9,0,0,1,.71-.12,2.35,2.35,0,0,1,.83.14,1.86,1.86,0,0,1,.64.39Z"/><path class="cls-2" d="M32.45,9.47H20.17v22.8l16.28-.19a1.37,1.37,0,0,0,1.36-1.36L38,15Zm.22,1.3,4,4h-4Zm4.57,20.74H20.9V10.23h11v5.33h5.33Z"/><path class="cls-3" d="M33.81,17.45H27.73a.38.38,0,0,0,0,.76h6.12a.38.38,0,0,0,0-.76Z"/><path class="cls-3" d="M26.4,16.38l-1.67,1.31-.5-.46a.38.38,0,0,0-.54.54l.76.76a.38.38,0,0,0,.5,0L26.85,17a.4.4,0,1,0-.4-.7l-.07,0Z"/><path class="cls-3" d="M33.81,21.63H27.73a.38.38,0,1,0,0,.76h6.12a.38.38,0,1,0,0-.76Z"/><path class="cls-3" d="M26.4,20.58l-1.67,1.31-.56-.49a.38.38,0,1,0-.63.42l.07.08.76.76a.38.38,0,0,0,.5,0l1.9-1.51a.38.38,0,0,0-.37-.57Z"/><path class="cls-3" d="M30.87,27.8h-3.2c-.11,0-.2.17-.2.38s.09.38.2.38h3.2c.11,0,.2-.17.2-.38S31,27.8,30.87,27.8Z"/><path class="cls-3" d="M26.4,24.75l-1.67,1.31-.5-.5a.38.38,0,0,0-.58.49h0l.76.76a.38.38,0,0,0,.5,0l1.9-1.51a.4.4,0,1,0-.49-.64Z"/><path class="cls-4" d="M39,25a5.15,5.15,0,1,0,0,5.72A5.15,5.15,0,0,0,39,25Zm-2.23,4.89a.39.39,0,0,1-.55,0h0L34.7,28.46,33.1,30a.39.39,0,0,1-.54-.5L34.08,28,32.6,26.46a.4.4,0,0,1,.56-.56l1.47,1.47L36,26a.4.4,0,0,1,.56.56l-1.41,1.4,1.47,1.47a.39.39,0,0,1,0,.55h0Z"/></svg>