<?xml version="1.0" encoding="utf-8"?>
<!-- Generator: Adobe Illustrator 21.1.0, SVG Export Plug-In . SVG Version: 6.00 Build 0)  -->
<svg version="1.1" id="Calque_1" xmlns="http://www.w3.org/2000/svg" xmlns:xlink="http://www.w3.org/1999/xlink" x="0px" y="0px"
	 viewBox="0 0 60 60" style="enable-background:new 0 0 60 60;" xml:space="preserve">
<style type="text/css">
	.st0{fill:none;}
	.st1{enable-background:new    ;}
	.st2{fill:#203D59;}
	.st3{opacity:0.81;fill:#E7E6E6;enable-background:new    ;}
	.st4{fill:#5A9DD6;}
	.st5{fill:#1B1B1B;}
</style>
<rect y="43.9" class="st0" width="52.9" height="7"/>
<g class="st1">
	<path class="st2" d="M10.5,48.4c0.1,0,0.1,0,0.2,0.1l0.4,0.5c-0.2,0.3-0.5,0.5-0.9,0.7S9.4,49.9,9,49.9c-0.4,0-0.8-0.1-1.2-0.2
		S7.2,49.3,6.9,49c-0.2-0.3-0.4-0.6-0.6-0.9s-0.2-0.8-0.2-1.2c0-0.4,0.1-0.8,0.2-1.2s0.3-0.7,0.6-0.9c0.3-0.3,0.6-0.5,0.9-0.6
		C8.2,44,8.6,44,9,44c0.4,0,0.8,0.1,1.1,0.2s0.6,0.3,0.8,0.5l-0.4,0.5c0,0,0,0.1-0.1,0.1c0,0-0.1,0-0.1,0c0,0-0.1,0-0.1,0
		s-0.1-0.1-0.1-0.1S10,45.1,10,45.1c-0.1,0-0.1-0.1-0.2-0.1c-0.1,0-0.2-0.1-0.3-0.1c-0.1,0-0.2,0-0.4,0c-0.3,0-0.5,0-0.7,0.1
		c-0.2,0.1-0.4,0.2-0.6,0.4c-0.2,0.2-0.3,0.4-0.4,0.6c-0.1,0.3-0.1,0.5-0.1,0.9c0,0.3,0,0.6,0.1,0.9c0.1,0.3,0.2,0.5,0.4,0.6
		c0.2,0.2,0.3,0.3,0.6,0.4C8.5,48.9,8.8,49,9,49c0.1,0,0.3,0,0.4,0s0.2,0,0.3-0.1c0.1,0,0.2-0.1,0.3-0.1s0.2-0.1,0.3-0.2
		C10.3,48.5,10.4,48.5,10.5,48.4C10.4,48.5,10.4,48.4,10.5,48.4z"/>
	<path class="st2" d="M17.2,46.9c0,0.4-0.1,0.8-0.2,1.2c-0.1,0.4-0.3,0.7-0.6,0.9c-0.3,0.3-0.6,0.5-0.9,0.6
		c-0.4,0.1-0.8,0.2-1.2,0.2c-0.4,0-0.8-0.1-1.2-0.2c-0.4-0.1-0.7-0.4-0.9-0.6c-0.3-0.3-0.5-0.6-0.6-0.9c-0.1-0.4-0.2-0.8-0.2-1.2
		c0-0.4,0.1-0.8,0.2-1.2c0.1-0.4,0.3-0.7,0.6-0.9c0.3-0.3,0.6-0.5,0.9-0.6c0.4-0.1,0.8-0.2,1.2-0.2c0.3,0,0.6,0,0.8,0.1
		s0.5,0.2,0.7,0.3s0.4,0.3,0.6,0.5c0.2,0.2,0.3,0.4,0.4,0.6s0.2,0.5,0.3,0.7S17.2,46.6,17.2,46.9z M16.1,46.9c0-0.3,0-0.6-0.1-0.9
		c-0.1-0.3-0.2-0.5-0.4-0.6c-0.2-0.2-0.3-0.3-0.6-0.4c-0.2-0.1-0.5-0.1-0.8-0.1s-0.5,0-0.8,0.1c-0.2,0.1-0.4,0.2-0.6,0.4
		c-0.2,0.2-0.3,0.4-0.4,0.6s-0.1,0.5-0.1,0.9s0,0.6,0.1,0.9s0.2,0.5,0.4,0.6c0.2,0.2,0.4,0.3,0.6,0.4c0.2,0.1,0.5,0.1,0.8,0.1
		s0.5,0,0.8-0.1c0.2-0.1,0.4-0.2,0.6-0.4c0.2-0.2,0.3-0.4,0.4-0.6C16,47.5,16.1,47.2,16.1,46.9z"/>
	<path class="st2" d="M24.4,44v5.8h-0.9v-3.7c0-0.1,0-0.3,0-0.5l-1.7,3.3c-0.1,0.2-0.2,0.2-0.4,0.2h-0.2c-0.2,0-0.3-0.1-0.4-0.2
		l-1.8-3.3c0,0.1,0,0.2,0,0.3c0,0.1,0,0.2,0,0.2v3.7h-0.9V44h0.8c0,0,0.1,0,0.1,0c0,0,0.1,0,0.1,0c0,0,0.1,0,0.1,0.1s0,0.1,0.1,0.1
		l1.7,3.2c0,0.1,0.1,0.2,0.1,0.3s0.1,0.2,0.1,0.3c0-0.1,0.1-0.2,0.1-0.3c0-0.1,0.1-0.2,0.1-0.3l1.7-3.2c0,0,0-0.1,0.1-0.1
		s0,0,0.1-0.1c0,0,0.1,0,0.1,0c0,0,0.1,0,0.1,0H24.4z"/>
	<path class="st2" d="M27.6,44c0.4,0,0.7,0,1,0.1c0.3,0.1,0.5,0.2,0.7,0.4c0.2,0.2,0.3,0.4,0.4,0.6s0.1,0.5,0.1,0.7
		c0,0.3,0,0.5-0.1,0.8s-0.2,0.4-0.4,0.6s-0.4,0.3-0.7,0.4c-0.3,0.1-0.6,0.1-1,0.1h-0.8v2h-1.1V44H27.6z M27.6,46.9
		c0.2,0,0.4,0,0.5-0.1c0.1,0,0.3-0.1,0.4-0.2c0.1-0.1,0.2-0.2,0.2-0.3s0.1-0.3,0.1-0.4c0-0.2,0-0.3-0.1-0.4c0-0.1-0.1-0.2-0.2-0.3
		c-0.1-0.1-0.2-0.2-0.4-0.2s-0.3-0.1-0.5-0.1h-0.8v2.1H27.6z"/>
	<path class="st2" d="M35.2,49.8h-0.8c-0.1,0-0.2,0-0.2-0.1c-0.1,0-0.1-0.1-0.1-0.2l-0.4-1.2h-2.4l-0.4,1.2c0,0.1-0.1,0.1-0.1,0.2
		s-0.1,0.1-0.2,0.1h-0.8l2.3-5.8h1.1L35.2,49.8z M33.3,47.6l-0.7-1.9c0-0.1-0.1-0.2-0.1-0.3c0-0.1-0.1-0.2-0.1-0.4
		c0,0.1-0.1,0.3-0.1,0.4c0,0.1-0.1,0.2-0.1,0.3l-0.7,1.9H33.3z"/>
	<path class="st2" d="M40.7,44v5.8h-0.6c-0.1,0-0.2,0-0.2,0c-0.1,0-0.1-0.1-0.2-0.1l-3-3.9c0,0.2,0,0.3,0,0.5v3.6h-0.9V44h0.6
		c0,0,0.1,0,0.1,0s0.1,0,0.1,0s0,0,0.1,0.1s0.1,0.1,0.1,0.1l3,3.9c0-0.1,0-0.2,0-0.3c0-0.1,0-0.2,0-0.3V44H40.7z"/>
	<path class="st2" d="M44.4,47.6v2.2h-1.1v-2.2L41.3,44h0.9c0.1,0,0.2,0,0.2,0.1c0.1,0,0.1,0.1,0.1,0.2l1.1,1.9
		c0.1,0.1,0.1,0.2,0.2,0.3c0,0.1,0.1,0.2,0.1,0.3c0-0.1,0.1-0.2,0.1-0.3c0-0.1,0.1-0.2,0.2-0.3l1.1-1.9c0-0.1,0.1-0.1,0.1-0.2
		s0.1-0.1,0.2-0.1h1L44.4,47.6z"/>
</g>
<rect x="44.4" y="43.3" class="st0" width="15.6" height="4.2"/>
<g class="st1">
	<path class="st2" d="M51.5,43.8h-0.9v2.5h-0.5v-2.5h-0.9v-0.4h2.3V43.8z"/>
	<path class="st2" d="M55,43.4v2.9h-0.5v-1.9c0-0.1,0-0.2,0-0.2l-0.9,1.6c0,0.1-0.1,0.1-0.2,0.1h-0.1c-0.1,0-0.1,0-0.2-0.1l-0.9-1.6
		c0,0,0,0.1,0,0.1c0,0,0,0.1,0,0.1v1.9h-0.5v-2.9h0.4c0,0,0,0,0.1,0c0,0,0,0,0,0c0,0,0,0,0,0c0,0,0,0,0,0l0.9,1.6c0,0,0,0.1,0.1,0.1
		c0,0,0,0.1,0.1,0.1c0,0,0-0.1,0.1-0.1c0,0,0-0.1,0.1-0.1l0.9-1.6c0,0,0,0,0,0c0,0,0,0,0,0c0,0,0,0,0,0c0,0,0,0,0.1,0H55z"/>
</g>
<g>
	<path class="st3" d="M7.3,10.6h30.4c0.9,0,1.7,0.8,1.7,1.7v17.8c0,1-0.8,1.7-1.7,1.7H7.3c-0.9,0-1.7-0.8-1.7-1.7V12.3
		C5.6,11.4,6.4,10.6,7.3,10.6z"/>
	<g id="_16">
		<path class="st4" d="M12.6,28.6l1.3,2.5h3.4l-2.1-4c1.4-1.7,1.2-4.3-0.5-5.7c-0.8-0.7-1.9-1-3-0.9l1.7,3.3l-0.9,1.4l-1.7-0.1
			l-1.7-3.3c-1.4,1.7-1.2,4.3,0.4,5.7C10.4,28.4,11.5,28.7,12.6,28.6L12.6,28.6z"/>
		<path class="st4" d="M26.4,27.2c-0.8-1.7-2.9-2.5-4.6-1.6c-1.7,0.8-2.4,3-1.6,4.7c0.2,0.3,0.3,0.6,0.6,0.9h1.6
			c-1.3-0.5-2-2-1.5-3.3s1.9-2,3.2-1.5s2,2,1.5,3.3c-0.2,0.6-0.7,1.1-1.3,1.4c-0.1,0-0.1,0.1-0.2,0.1h1.6
			C26.8,30.1,27,28.5,26.4,27.2z"/>
		<path class="st4" d="M15.8,27.5l1.8,0.9c0,0.4,0,0.8,0.1,1.1L17.1,30l0.6,1.1h2.7c-1.3-1.6-1.1-4.1,0.6-5.4c1.6-1.3,4-1.1,5.3,0.6
			c1.1,1.4,1.1,3.4,0,4.8h4.6l0.2-0.7c0.1-0.2,0-0.4-0.2-0.6L29,29c0-0.4,0-0.8-0.1-1.1l1.8-1.2c0.2-0.1,0.2-0.4,0.2-0.6L30,24.4
			c-0.1-0.2-0.3-0.3-0.5-0.2l-2,0.7c-0.3-0.3-0.5-0.5-0.8-0.8l0.4-2.1c0-0.2-0.1-0.4-0.3-0.5L25,20.8c-0.2-0.1-0.4,0-0.5,0.2l-0.9,2
			c-0.4,0-0.8,0-1.1,0.1l-1.1-1.8c-0.1-0.2-0.4-0.2-0.6-0.2L19,21.9c-0.2,0.1-0.3,0.3-0.2,0.5l0.7,2c-0.3,0.3-0.5,0.5-0.8,0.9
			l-2-0.4C16.7,25.8,16.4,26.8,15.8,27.5L15.8,27.5z"/>
		<path class="st4" d="M31.1,29.8c0.2,0.1,0.3,0.4,0.2,0.6l-0.2,0.7h1.4l1.2-2c0.2-0.4,0.1-1-0.3-1.2l0,0l2.8-4.9l0.1,0.1
			c0.1,0.1,0.2,0,0.3-0.1l0,0l0.8-1.8c0.1-0.1,0-0.2-0.1-0.3l-0.5-0.3c-0.1-0.1-0.2,0-0.3,0.1l-1.2,1.6c-0.1,0.1,0,0.2,0.1,0.3l0,0
			l0.1,0.1l-2.8,4.9l0,0c-0.4-0.2-0.9-0.1-1.2,0.3l-1,1.7L31.1,29.8z"/>
	</g>
	<path class="st5" d="M50.6,8.4h-4.7c-1.9,0-3.5,1.6-3.5,3.6v23.6c0,2,1.6,3.6,3.5,3.6h4.7c1.9,0,3.5-1.6,3.5-3.6V12
		C54.1,10,52.6,8.4,50.6,8.4z M48.3,26.1c-0.5,0-1-0.4-1-1s0.4-1,1-1c0.5,0,1,0.4,1,1l0,0C49.3,25.7,48.8,26.1,48.3,26.1z
		 M47.9,22.6c0-0.2,0.2-0.4,0.4-0.4s0.4,0.2,0.4,0.4c0,0.2-0.2,0.4-0.4,0.4C48,23,47.9,22.9,47.9,22.6L47.9,22.6L47.9,22.6z
		 M51.7,15.9h-6.9c-0.2,0-0.4-0.1-0.4-0.3s0.1-0.4,0.3-0.4l0,0h6.9c0.2,0,0.3,0.2,0.3,0.4C52,15.7,51.9,15.9,51.7,15.9z M51.7,14.1
		h-6.9c-0.2,0-0.4-0.1-0.4-0.3s0.1-0.4,0.3-0.4l0,0h6.9c0.2,0,0.3,0.2,0.3,0.4C52,14,51.9,14.1,51.7,14.1z M51.7,12.3h-6.9
		c-0.2,0-0.3-0.2-0.3-0.4s0.2-0.4,0.3-0.4h6.9c0.2,0,0.3,0.2,0.3,0.4C52.1,12.2,51.9,12.3,51.7,12.3z M37.1,7.7H9.8
		c-2.5,0-4.4,2-4.5,4.5v16.6c0,2.5,2,4.5,4.5,4.5H20v2.4c0,0.3-0.1,0.6-0.2,0.9l-3.3,1.3c-0.4,0.2-0.8,0.2-1.2,0.3h-0.7
		c-0.4,0-0.7,0.2-0.7,0.5l0,0c0,0.3,0.3,0.5,0.7,0.5h17.8c0.4,0,0.7-0.2,0.7-0.5l0,0c0-0.3-0.1-0.5-0.3-0.5s-0.6,0-1-0.1l-4.3-1.6
		c-0.3-0.1-0.6-0.5-0.6-0.7v-2.4h10.2c2.5,0,4.4-2,4.5-4.5V12.2C41.6,9.7,39.6,7.7,37.1,7.7L37.1,7.7z M32.8,32.4h-3.6
		c-0.3,0-0.5-0.2-0.5-0.5c0-0.3,0.2-0.5,0.5-0.5h3.6c0.3,0,0.5,0.2,0.5,0.5C33.3,32.2,33,32.4,32.8,32.4z M34.3,32.5
		c-0.3,0-0.5-0.2-0.5-0.5c0-0.3,0.2-0.5,0.5-0.5s0.5,0.2,0.5,0.5C34.8,32.2,34.6,32.5,34.3,32.5L34.3,32.5L34.3,32.5z M39,28.8
		c0,1.1-0.8,1.9-1.9,1.9H9.8c-1,0-1.9-0.9-1.9-1.9V12.2c0-1.1,0.8-1.9,1.9-1.9h27.3c1,0,1.9,0.9,1.9,1.9V28.8z"/>
</g>
</svg>
