<?xml version="1.0" encoding="utf-8"?>
<!-- Generator: Adobe Illustrator 21.1.0, SVG Export Plug-In . SVG Version: 6.00 Build 0)  -->
<svg version="1.1" id="Calque_1" xmlns="http://www.w3.org/2000/svg" xmlns:xlink="http://www.w3.org/1999/xlink" x="0px" y="0px"
	 viewBox="0 0 60 60" style="enable-background:new 0 0 60 60;" xml:space="preserve">
<style type="text/css">
	.st0{fill:none;}
	.st1{enable-background:new    ;}
	.st2{fill:#203D59;}
	.st3{fill:#1B1B1B;}
	.st4{fill:#F4F1F0;}
	.st5{fill:#5A9DD6;}
</style>
<rect x="2.1" y="43.9" class="st0" width="51" height="7"/>
<g class="st1">
	<path class="st2" d="M10.3,48.5c0.1,0,0.1,0,0.2,0.1l0.4,0.5c-0.2,0.3-0.5,0.5-0.9,0.7s-0.8,0.2-1.2,0.2c-0.4,0-0.8-0.1-1.2-0.2
		S7,49.3,6.8,49.1c-0.2-0.3-0.4-0.6-0.6-0.9S6,47.4,6,46.9c0-0.4,0.1-0.8,0.2-1.2s0.3-0.7,0.6-0.9c0.3-0.3,0.6-0.5,0.9-0.6
		C8,44.1,8.4,44,8.9,44c0.4,0,0.8,0.1,1.1,0.2s0.6,0.3,0.8,0.5l-0.4,0.5c0,0,0,0.1-0.1,0.1c0,0-0.1,0-0.1,0c0,0-0.1,0-0.1,0
		S10,45.3,10,45.2s-0.1-0.1-0.2-0.1c-0.1,0-0.1-0.1-0.2-0.1c-0.1,0-0.2-0.1-0.3-0.1c-0.1,0-0.2,0-0.4,0c-0.3,0-0.5,0-0.7,0.1
		c-0.2,0.1-0.4,0.2-0.6,0.4c-0.2,0.2-0.3,0.4-0.4,0.6c-0.1,0.3-0.1,0.5-0.1,0.9c0,0.3,0,0.6,0.1,0.9c0.1,0.3,0.2,0.5,0.4,0.6
		c0.2,0.2,0.3,0.3,0.6,0.4C8.4,48.9,8.6,49,8.9,49c0.1,0,0.3,0,0.4,0s0.2,0,0.3-0.1c0.1,0,0.2-0.1,0.3-0.1s0.2-0.1,0.3-0.2
		C10.2,48.5,10.2,48.5,10.3,48.5C10.2,48.5,10.3,48.5,10.3,48.5z"/>
	<path class="st2" d="M14,49c0.2,0,0.4,0,0.6-0.1c0.2-0.1,0.3-0.2,0.4-0.3c0.1-0.1,0.2-0.3,0.3-0.5s0.1-0.4,0.1-0.6v-3.5h1.1v3.5
		c0,0.3-0.1,0.7-0.2,1c-0.1,0.3-0.3,0.5-0.5,0.8s-0.5,0.4-0.8,0.5c-0.3,0.1-0.6,0.2-1,0.2c-0.4,0-0.7-0.1-1-0.2
		c-0.3-0.1-0.5-0.3-0.8-0.5s-0.4-0.5-0.5-0.8c-0.1-0.3-0.2-0.6-0.2-1v-3.5h1.1v3.5c0,0.2,0,0.4,0.1,0.6c0.1,0.2,0.1,0.3,0.3,0.5
		c0.1,0.1,0.3,0.2,0.4,0.3S13.7,49,14,49z"/>
	<path class="st2" d="M20.6,45.1c0,0.1-0.1,0.1-0.1,0.1s-0.1,0-0.1,0c-0.1,0-0.1,0-0.2-0.1c-0.1,0-0.1-0.1-0.2-0.1
		c-0.1,0-0.2-0.1-0.3-0.1c-0.1,0-0.3-0.1-0.4-0.1c-0.1,0-0.3,0-0.4,0.1c-0.1,0-0.2,0.1-0.3,0.2c-0.1,0.1-0.1,0.1-0.2,0.2
		c0,0.1-0.1,0.2-0.1,0.3c0,0.1,0,0.2,0.1,0.3c0.1,0.1,0.2,0.2,0.3,0.2c0.1,0.1,0.3,0.1,0.4,0.2s0.3,0.1,0.5,0.2
		c0.2,0.1,0.3,0.1,0.5,0.2s0.3,0.2,0.4,0.3c0.1,0.1,0.2,0.3,0.3,0.4S21,47.8,21,48c0,0.3,0,0.5-0.1,0.7c-0.1,0.2-0.2,0.4-0.4,0.6
		c-0.2,0.2-0.4,0.3-0.6,0.4s-0.5,0.1-0.9,0.1c-0.2,0-0.4,0-0.5-0.1s-0.4-0.1-0.5-0.2c-0.2-0.1-0.3-0.1-0.5-0.2
		c-0.1-0.1-0.3-0.2-0.4-0.3l0.3-0.5c0,0,0.1-0.1,0.1-0.1s0.1,0,0.1,0c0.1,0,0.1,0,0.2,0.1c0.1,0.1,0.2,0.1,0.3,0.2
		c0.1,0.1,0.2,0.1,0.4,0.2C18.7,49,18.8,49,19,49c0.3,0,0.5-0.1,0.7-0.2s0.3-0.4,0.3-0.6c0-0.2,0-0.3-0.1-0.4
		c-0.1-0.1-0.2-0.2-0.3-0.2c-0.1-0.1-0.3-0.1-0.4-0.2c-0.2,0-0.3-0.1-0.5-0.1s-0.3-0.1-0.5-0.2c-0.2-0.1-0.3-0.2-0.4-0.3
		s-0.2-0.3-0.3-0.5c-0.1-0.2-0.1-0.4-0.1-0.7c0-0.2,0-0.4,0.1-0.6s0.2-0.4,0.4-0.5c0.2-0.2,0.4-0.3,0.6-0.4c0.2-0.1,0.5-0.1,0.8-0.1
		c0.3,0,0.7,0.1,0.9,0.2c0.3,0.1,0.5,0.3,0.7,0.4L20.6,45.1z"/>
	<path class="st2" d="M26,44.9h-1.7v4.9h-1.1v-4.9h-1.7v-0.9H26V44.9z"/>
	<path class="st2" d="M32.1,46.9c0,0.4-0.1,0.8-0.2,1.2c-0.1,0.4-0.3,0.7-0.6,0.9c-0.3,0.3-0.6,0.5-0.9,0.6
		c-0.4,0.1-0.8,0.2-1.2,0.2c-0.4,0-0.8-0.1-1.2-0.2c-0.4-0.1-0.7-0.4-0.9-0.6c-0.3-0.3-0.5-0.6-0.6-0.9c-0.1-0.4-0.2-0.8-0.2-1.2
		c0-0.4,0.1-0.8,0.2-1.2c0.1-0.4,0.3-0.7,0.6-0.9c0.3-0.3,0.6-0.5,0.9-0.6c0.4-0.1,0.8-0.2,1.2-0.2c0.3,0,0.6,0,0.8,0.1
		s0.5,0.2,0.7,0.3s0.4,0.3,0.6,0.5c0.2,0.2,0.3,0.4,0.4,0.6s0.2,0.5,0.3,0.7S32.1,46.7,32.1,46.9z M31,46.9c0-0.3,0-0.6-0.1-0.9
		c-0.1-0.3-0.2-0.5-0.4-0.6c-0.2-0.2-0.3-0.3-0.6-0.4c-0.2-0.1-0.5-0.1-0.8-0.1s-0.5,0-0.8,0.1c-0.2,0.1-0.4,0.2-0.6,0.4
		c-0.2,0.2-0.3,0.4-0.4,0.6s-0.1,0.5-0.1,0.9s0,0.6,0.1,0.9s0.2,0.5,0.4,0.6c0.2,0.2,0.4,0.3,0.6,0.4c0.2,0.1,0.5,0.1,0.8,0.1
		s0.5,0,0.8-0.1c0.2-0.1,0.4-0.2,0.6-0.4c0.2-0.2,0.3-0.4,0.4-0.6C30.9,47.5,31,47.3,31,46.9z"/>
	<path class="st2" d="M39.3,44.1v5.8h-0.9v-3.7c0-0.1,0-0.3,0-0.5l-1.7,3.3c-0.1,0.2-0.2,0.2-0.4,0.2h-0.2c-0.2,0-0.3-0.1-0.4-0.2
		l-1.8-3.3c0,0.1,0,0.2,0,0.3c0,0.1,0,0.2,0,0.2v3.7H33v-5.8h0.8c0,0,0.1,0,0.1,0c0,0,0.1,0,0.1,0s0.1,0,0.1,0.1s0,0.1,0.1,0.1
		l1.7,3.2c0,0.1,0.1,0.2,0.1,0.3c0,0.1,0.1,0.2,0.1,0.3c0-0.1,0.1-0.2,0.1-0.3c0-0.1,0.1-0.2,0.1-0.3l1.7-3.2c0,0,0-0.1,0.1-0.1
		c0,0,0,0,0.1-0.1s0.1,0,0.1,0c0,0,0.1,0,0.1,0H39.3z"/>
	<path class="st2" d="M41.7,44.9v1.6h2v0.8h-2V49h2.6v0.9h-3.6v-5.8h3.6v0.9H41.7z"/>
	<path class="st2" d="M49.7,49.8h-1c-0.2,0-0.3-0.1-0.4-0.2l-1.2-1.9c0-0.1-0.1-0.1-0.2-0.1s-0.1,0-0.2,0h-0.5v2.3h-1.1v-5.8H47
		c0.4,0,0.7,0,1,0.1s0.5,0.2,0.7,0.3c0.2,0.1,0.3,0.3,0.4,0.5c0.1,0.2,0.1,0.4,0.1,0.7c0,0.2,0,0.4-0.1,0.6
		c-0.1,0.2-0.1,0.3-0.2,0.5c-0.1,0.1-0.2,0.3-0.4,0.4c-0.2,0.1-0.3,0.2-0.5,0.3c0.1,0,0.1,0.1,0.2,0.1c0.1,0.1,0.1,0.1,0.2,0.2
		L49.7,49.8z M46.9,46.8c0.2,0,0.4,0,0.5-0.1c0.2,0,0.3-0.1,0.4-0.2c0.1-0.1,0.2-0.2,0.2-0.3c0-0.1,0.1-0.3,0.1-0.4
		c0-0.3-0.1-0.5-0.3-0.7s-0.5-0.2-0.9-0.2h-0.7v1.9H46.9z"/>
</g>
<rect x="44.6" y="43.4" class="st0" width="15.6" height="6.5"/>
<g class="st1">
	<path class="st2" d="M51.7,43.9h-0.9v2.5h-0.5v-2.5h-0.9v-0.4h2.3V43.9z"/>
	<path class="st2" d="M55.2,43.4v2.9h-0.5v-1.9c0-0.1,0-0.2,0-0.2l-0.9,1.6c0,0.1-0.1,0.1-0.2,0.1h-0.1c-0.1,0-0.1,0-0.2-0.1
		l-0.9-1.6c0,0,0,0.1,0,0.1c0,0,0,0.1,0,0.1v1.9h-0.5v-2.9h0.4c0,0,0,0,0.1,0c0,0,0,0,0,0c0,0,0,0,0,0c0,0,0,0,0,0l0.9,1.6
		c0,0,0,0.1,0.1,0.1c0,0,0,0.1,0.1,0.1c0,0,0-0.1,0.1-0.1c0,0,0-0.1,0.1-0.1l0.9-1.6c0,0,0,0,0,0c0,0,0,0,0,0c0,0,0,0,0,0
		c0,0,0,0,0.1,0H55.2z"/>
</g>
<g>
	<g id="_3_1_">
		<path class="st3" d="M46.2,7.7H15.4c-0.5,0-0.9,0.4-0.9,0.9v20.7c0,0.6,0.4,1,0.9,1h7l0.7-0.3c0.5-0.2,1-0.4,1.5-0.6
			c1.1-0.5,1.8-0.8,2.2-1v-1.2c-0.2-0.3-0.4-0.6-0.6-1h-10V10h28.9v16.3h-9.9c-0.2,0.3-0.3,0.7-0.6,1v1.2c0.4,0.2,1.1,0.5,2.2,1
			c0.5,0.2,1,0.4,1.5,0.6l0.7,0.3h7c0.5,0,0.9-0.5,0.9-1V8.6C47.1,8.1,46.7,7.7,46.2,7.7z"/>
		<path class="st4" d="M42,33.1c-0.7-1.1-3-1.8-5.3-2.7l-0.1-0.1c-2.2-0.9-2.7-1.2-2.7-1.2v-2.2c0.2-0.2,0.3-0.4,0.5-0.6
			c0.3-0.4,0.5-1.1,0.7-2.2c0.5,0.2,1.1-0.8,1.1-1.3s-0.1-1.9-0.7-1.7c0.1-1,0.2-1.9,0.2-2.4c-0.2-1.8-1.9-3.7-4.6-3.7
			s-4.5,1.9-4.6,3.7c0,0.5,0.1,1.4,0.2,2.4C26,21,25.9,22.3,26,22.8c0,0.5,0.6,1.5,1.1,1.3c0.1,1.1,0.4,1.8,0.7,2.2
			c0.1,0.2,0.3,0.4,0.5,0.6v2.2c0,0-0.5,0.3-2.7,1.2L25,30.4c-2.3,1-4.7,1.6-5.3,2.7c-0.6,1-0.4,4.3-0.4,4.3h23.1
			C42.4,37.4,42.6,34.1,42,33.1z"/>
		<polygon class="st5" points="18.7,13.7 20,15 18.7,16.3 19.3,16.8 21.1,15 19.3,13.1 		"/>
		<rect x="22.2" y="14.2" class="st5" width="2.4" height="0.8"/>
		<path class="st3" d="M44.5,39.2H17.1c0,0-0.9-5,0-5.9c4.3-4.1,22.6-3.8,27.4,0C45.5,34.1,44.5,39.2,44.5,39.2z"/>
	</g>
</g>
</svg>
