<svg id="Calque_1" data-name="Calque 1" xmlns="http://www.w3.org/2000/svg" viewBox="0 0 50 50"><defs><style>.cls-1{font-size:6px;}.cls-1,.cls-2,.cls-3{fill:#203d59;}.cls-1,.cls-2{font-family:Lato-Bold, Lato;font-weight:700;}.cls-2{font-size:2px;}.cls-4{fill:#5a9dd6;}</style></defs><title>Plan de travail 2 copie 15</title><text class="cls-1" transform="translate(2.86 40.8)">DISTRIBUTION</text><text class="cls-2" transform="translate(45.99 37.34)">TM</text><g id="_1" data-name=" 1"><path class="cls-3" d="M26.35,31.23a16.4,16.4,0,0,1-4.93-6,12.79,12.79,0,0,1,3.73-1.08c0-.31-.12-.6-.12-.87a14.71,14.71,0,0,0-4,1.15A17,17,0,0,1,19.8,18.9v-.33h5.54l1-.05.54-.64.76-1,.07-.57,4-.55,1.58.25,2,.8.86.41s2.32.15.53,1.2l-.72-.3c0-.12.62.15.23.29l4.5.09c.06,0,.14,0,.21,0a13.82,13.82,0,0,1-.28,2.26l.67-.05a14.33,14.33,0,0,0-1.64-10.45,14.66,14.66,0,0,0-25.94,1.46,15.22,15.22,0,0,0,.09,12.7,14.65,14.65,0,0,0,13.36,8.35,13.91,13.91,0,0,1-.87-1.59A0,0,0,0,0,26.35,31.23ZM41,17.7H35.71A18.32,18.32,0,0,0,34.2,11a14.06,14.06,0,0,0,3.19-2.35A13.81,13.81,0,0,1,41,17.7ZM36.79,8a12.57,12.57,0,0,1-3,2.24,17.43,17.43,0,0,0-5.33-6.12A13.78,13.78,0,0,1,36.79,8Zm-9-3.29A16.39,16.39,0,0,1,33,10.6a12.62,12.62,0,0,1-5.28,1.34Zm0,8.13a14.24,14.24,0,0,0,5.66-1.42c.91,2,1.6,3.2,1.64,5.38l-5.13-1.31-2.56,1,.39-3.6Zm-.87,4.9H19.81a16.35,16.35,0,0,1,1.33-6.16,15.17,15.17,0,0,0,5.77,1.28Zm0-5.75a13.9,13.9,0,0,1-5.39-1.2,16.88,16.88,0,0,1,5.42-6.24Zm-.82-7.89a18.08,18.08,0,0,0-5.34,6.3A11.89,11.89,0,0,1,17.45,8a13.75,13.75,0,0,1,8.61-3.92ZM13.3,16.64c.06,0,0-.13,0-.19a13.9,13.9,0,0,1,3.51-7.82,14.55,14.55,0,0,0,3.52,2.54,17.82,17.82,0,0,0-1.42,6.54H13.28l0,0ZM16.8,27.37a13.75,13.75,0,0,1-3.55-8.8H19a16.92,16.92,0,0,0,1.34,6.27,16.33,16.33,0,0,0-3.48,2.53Zm.61.65a12.86,12.86,0,0,1,3.21-2.38,18,18,0,0,0,5.22,6.3A13.72,13.72,0,0,1,17.42,28Z"/></g><path class="cls-3" d="M31,17.55a4.85,4.85,0,0,0-1.31.23,5,5,0,0,0-.77.33,4.88,4.88,0,0,0,2.7,9.17,4.82,4.82,0,0,0,1.11-.21A4.88,4.88,0,0,0,31,17.56Zm1.85,5.66a1.82,1.82,0,0,1-1.07.95,1.78,1.78,0,0,1-.86.06,1.82,1.82,0,1,1,1.94-1Z"/><path class="cls-4" d="M41,17.66l-2.29.46a8.51,8.51,0,0,0-2.06-2.4l.81-2.2a.35.35,0,0,0-.16-.42L35.16,12a.35.35,0,0,0-.44.12l-1.3,1.95a8.54,8.54,0,0,0-3.15-.24l-1-2.12a.35.35,0,0,0-.41-.17l-2.21.72a.35.35,0,0,0-.23.38l.46,2.3A8.53,8.53,0,0,0,24.49,17l-2.2-.81a.35.35,0,0,0-.42.17l-1.05,2.08a.34.34,0,0,0,.12.44l2,1.3a8.57,8.57,0,0,0-.25,3.15l-2.12,1a.35.35,0,0,0-.17.41L21.06,27a.35.35,0,0,0,.39.23l2.29-.46a8.58,8.58,0,0,0,2.06,2.4l-.53,1.43-.28.76a.34.34,0,0,0,.17.42l1.49.75,0,0,.56.28a.35.35,0,0,0,.44-.12L28.1,32l0,0L29,30.73a8.57,8.57,0,0,0,2.17.29h.08a8.79,8.79,0,0,0,.9,0l1,2.14a.35.35,0,0,0,.41.18l2.21-.72a.35.35,0,0,0,.23-.39l-.46-2.29a8.81,8.81,0,0,0,.75-.49,8.61,8.61,0,0,0,1.65-1.57l1.48.54.72.27a.35.35,0,0,0,.42-.17l.29-.57.76-1.51a.34.34,0,0,0-.12-.44l-2-1.3a8.53,8.53,0,0,0,.25-3.16l2.12-1a.35.35,0,0,0,.18-.42l-.73-2.23A.35.35,0,0,0,41,17.66ZM33.85,28a6.19,6.19,0,1,1,3.24-7.52A6.19,6.19,0,0,1,33.85,28Z"/></svg>