<svg id="Calque_1" data-name="Calque 1" xmlns="http://www.w3.org/2000/svg" viewBox="0 0 60 60"><defs><style>.cls-1,.cls-2{fill:#fff;}.cls-2,.cls-3{stroke:#fff;stroke-miterlimit:10;}.cls-2{stroke-width:0.5px;}.cls-3{fill:none;}.cls-4{fill:#4fb26d;}</style></defs><title>Plan de travail 1 copie</title><path class="cls-1" d="M54.76,39.37h-.44V40.6H54V39.37h-.44v-.22h1.14Z"/><path class="cls-1" d="M56.52,39.15V40.6h-.24v-1l-.44.82a.1.1,0,0,1-.1.06h0a.1.1,0,0,1-.1-.06l-.44-.82V40.6H55V39.15h.28l.43.8v0l.43-.8h.38Z"/><path class="cls-2" d="M30,9.67H18.23v21.7l15.56-.19a1.31,1.31,0,0,0,1.29-1.3l.14-14.94Zm.21,1.23L34,14.71H30.16ZM34.5,30.64H19V10.39H29.44v5.06H34.5Z"/><path class="cls-1" d="M31.61,17.26H25.82a.36.36,0,0,0,0,.72h5.82a.36.36,0,0,0,0-.72Z"/><path class="cls-1" d="M31.61,21.24H25.82a.36.36,0,0,0,0,.72h5.82a.36.36,0,0,0,0-.72Z"/><path class="cls-1" d="M29.25,25.21H26.2c-.11,0-.19.16-.19.36s.09.36.19.36h3.05c.11,0,.19-.16.19-.36S29.35,25.21,29.25,25.21Z"/><path class="cls-3" d="M39.52,30.87H38a.37.37,0,0,1-.4-.32V16a.25.25,0,0,1,0-.06l.78-3.15a.43.43,0,0,1,.78,0l.78,3.15a.26.26,0,0,1,0,.06V30.55A.36.36,0,0,1,39.52,30.87Z"/><polygon class="cls-4" points="23.3 17.02 22.52 17.83 22.11 17.42 21.89 17.64 22.54 18.27 23.55 17.28 23.3 17.02"/><path class="cls-4" d="M22.73,16a1.63,1.63,0,1,0,1.63,1.63h0A1.63,1.63,0,0,0,22.73,16Zm0,3a1.33,1.33,0,1,1,1.33-1.33h0A1.33,1.33,0,0,1,22.73,19Z"/><polygon class="cls-4" points="23.3 21 22.52 21.8 22.11 21.4 21.89 21.61 22.54 22.25 23.55 21.26 23.3 21"/><path class="cls-4" d="M22.73,20a1.63,1.63,0,1,0,1.63,1.63h0A1.63,1.63,0,0,0,22.73,20Zm0,3a1.33,1.33,0,1,1,1.33-1.33h0A1.33,1.33,0,0,1,22.73,23Z"/><polygon class="cls-4" points="23.3 24.93 22.52 25.73 22.11 25.33 21.89 25.55 22.54 26.18 23.55 25.19 23.3 24.93"/><path class="cls-4" d="M22.73,23.9a1.63,1.63,0,1,0,1.63,1.63h0A1.63,1.63,0,0,0,22.73,23.9Zm0,3a1.33,1.33,0,1,1,1.33-1.33h0A1.33,1.33,0,0,1,22.73,26.9Z"/><path class="cls-1" d="M11.11,43.16a.18.18,0,0,1,.14.06l.37.4a2,2,0,0,1-.76.58,2.6,2.6,0,0,1-1.08.2,2.54,2.54,0,0,1-1-.19A2.22,2.22,0,0,1,8,43.68a2.32,2.32,0,0,1-.49-.82,3.07,3.07,0,0,1-.17-1,2.9,2.9,0,0,1,.18-1A2.39,2.39,0,0,1,8,40a2.32,2.32,0,0,1,.79-.53,2.61,2.61,0,0,1,1-.19,2.48,2.48,0,0,1,1,.18,2.32,2.32,0,0,1,.73.48l-.31.44-.07.07a.2.2,0,0,1-.12,0l-.11,0-.12-.07-.15-.1-.2-.1-.27-.07a1.88,1.88,0,0,0-.35,0,1.55,1.55,0,0,0-.62.12,1.35,1.35,0,0,0-.48.35,1.6,1.6,0,0,0-.32.56,2.36,2.36,0,0,0-.11.75,2.22,2.22,0,0,0,.12.76,1.65,1.65,0,0,0,.33.56,1.41,1.41,0,0,0,.49.35,1.51,1.51,0,0,0,.6.12l.35,0a1.51,1.51,0,0,0,.29-.07,1.26,1.26,0,0,0,.25-.12,1.61,1.61,0,0,0,.23-.18l.07-.05Z"/><path class="cls-1" d="M17,41.82a2.81,2.81,0,0,1-.18,1,2.41,2.41,0,0,1-.52.82,2.35,2.35,0,0,1-.81.54,2.92,2.92,0,0,1-2.1,0,2.37,2.37,0,0,1-.81-.54,2.43,2.43,0,0,1-.52-.82,3,3,0,0,1,0-2.06,2.43,2.43,0,0,1,.52-.82,2.37,2.37,0,0,1,.81-.54,2.71,2.71,0,0,1,1-.19,2.84,2.84,0,0,1,.72.09,2.55,2.55,0,0,1,.62.25,2.3,2.3,0,0,1,.51.4,2.39,2.39,0,0,1,.38.52,2.55,2.55,0,0,1,.24.62A3,3,0,0,1,17,41.82Zm-1,0a2.3,2.3,0,0,0-.11-.75,1.6,1.6,0,0,0-.32-.56,1.37,1.37,0,0,0-.5-.35,1.88,1.88,0,0,0-1.33,0,1.39,1.39,0,0,0-.5.35,1.6,1.6,0,0,0-.32.56,2.56,2.56,0,0,0,0,1.49,1.57,1.57,0,0,0,.32.56,1.39,1.39,0,0,0,.5.35,1.88,1.88,0,0,0,1.33,0,1.37,1.37,0,0,0,.5-.35,1.57,1.57,0,0,0,.32-.56A2.31,2.31,0,0,0,16,41.82Z"/><path class="cls-1" d="M23.3,39.29v5.06h-.83V41.08c0-.13,0-.27,0-.42L21,43.53a.35.35,0,0,1-.33.21H20.5a.35.35,0,0,1-.33-.21l-1.55-2.88c0,.08,0,.15,0,.23s0,.14,0,.21v3.27h-.83V39.29h.82l.08,0,.07,0,.06.08,1.52,2.81.11.23.1.25.1-.25.11-.23,1.5-2.8.06-.08.07,0,.08,0h.82Z"/><path class="cls-1" d="M26.08,39.29a2.89,2.89,0,0,1,.88.12,1.7,1.7,0,0,1,.61.33,1.33,1.33,0,0,1,.36.51,1.76,1.76,0,0,1,.12.65,1.81,1.81,0,0,1-.12.67,1.4,1.4,0,0,1-.37.53,1.69,1.69,0,0,1-.61.34,2.73,2.73,0,0,1-.86.12h-.7v1.78h-.94V39.29Zm0,2.54a1.42,1.42,0,0,0,.45-.06.86.86,0,0,0,.32-.19.76.76,0,0,0,.19-.29,1.12,1.12,0,0,0,.06-.39,1,1,0,0,0-.06-.37.73.73,0,0,0-.19-.28.84.84,0,0,0-.32-.18,1.5,1.5,0,0,0-.46-.06h-.7v1.82Z"/><path class="cls-1" d="M31.73,43.57v.78h-3V39.29h.94v4.28Z"/><path class="cls-1" d="M33.34,44.35H32.4V39.29h.94Z"/><path class="cls-1" d="M38.81,44.35h-.73a.31.31,0,0,1-.2-.06.37.37,0,0,1-.12-.15l-.38-1h-2.1l-.38,1a.33.33,0,0,1-.11.15.31.31,0,0,1-.2.07h-.73l2-5.06h1Zm-1.66-1.91-.62-1.68c0-.07-.06-.16-.09-.27s-.07-.21-.1-.33l-.09.33c0,.1-.06.19-.09.27l-.61,1.68Z"/><path class="cls-1" d="M43.6,39.29v5.06h-.48a.42.42,0,0,1-.19,0,.43.43,0,0,1-.15-.12l-2.64-3.37c0,.15,0,.3,0,.43v3.11h-.83V39.29h.6l.08,0,.06,0,.07.08,2.65,3.39c0-.08,0-.16,0-.24s0-.15,0-.22V39.29Z"/><path class="cls-1" d="M48.21,43.16a.19.19,0,0,1,.14.06l.37.4a2,2,0,0,1-.76.58,2.61,2.61,0,0,1-1.08.2,2.54,2.54,0,0,1-1-.19,2.22,2.22,0,0,1-.77-.54,2.34,2.34,0,0,1-.49-.82,3.07,3.07,0,0,1-.17-1,2.9,2.9,0,0,1,.18-1,2.42,2.42,0,0,1,.51-.82,2.32,2.32,0,0,1,.79-.53,2.6,2.6,0,0,1,1-.19,2.48,2.48,0,0,1,1,.18,2.33,2.33,0,0,1,.73.48l-.32.44-.07.07a.2.2,0,0,1-.12,0l-.11,0-.12-.07-.15-.1-.2-.1-.27-.07a1.88,1.88,0,0,0-.35,0,1.56,1.56,0,0,0-.62.12,1.35,1.35,0,0,0-.48.35,1.62,1.62,0,0,0-.32.56,2.37,2.37,0,0,0-.11.75,2.22,2.22,0,0,0,.12.76,1.67,1.67,0,0,0,.33.56,1.41,1.41,0,0,0,.49.35,1.52,1.52,0,0,0,.6.12l.35,0a1.52,1.52,0,0,0,.29-.07,1.26,1.26,0,0,0,.25-.12,1.61,1.61,0,0,0,.23-.18l.07-.05Z"/><path class="cls-1" d="M50.31,40v1.4h1.77v.72H50.31V43.6h2.25v.75H49.36V39.29h3.19V40Z"/><path class="cls-1" d="M10.33,48.61a.31.31,0,0,1-.09.11.2.2,0,0,1-.12,0A.3.3,0,0,1,10,48.7l-.21-.12-.28-.12a1.17,1.17,0,0,0-.38-.05,1.13,1.13,0,0,0-.34,0,.73.73,0,0,0-.25.13.52.52,0,0,0-.15.2.65.65,0,0,0,0,.26.45.45,0,0,0,.1.3.83.83,0,0,0,.26.2,2.5,2.5,0,0,0,.38.15l.43.14.43.17a1.48,1.48,0,0,1,.37.25,1.15,1.15,0,0,1,.26.37,1.3,1.3,0,0,1,.1.54,1.74,1.74,0,0,1-.12.64,1.48,1.48,0,0,1-.34.52,1.62,1.62,0,0,1-.55.35,2,2,0,0,1-.75.13,2.43,2.43,0,0,1-.48,0A2.46,2.46,0,0,1,8,52.62a2.4,2.4,0,0,1-.4-.21,1.94,1.94,0,0,1-.34-.27l.28-.45a.31.31,0,0,1,.09-.08.23.23,0,0,1,.12,0,.33.33,0,0,1,.19.07l.24.16a1.86,1.86,0,0,0,.33.16,1.26,1.26,0,0,0,.45.07.92.92,0,0,0,.62-.19.69.69,0,0,0,.22-.55.51.51,0,0,0-.1-.33.81.81,0,0,0-.26-.21A2,2,0,0,0,9,50.62l-.43-.13a3.7,3.7,0,0,1-.43-.17,1.37,1.37,0,0,1-.37-.26,1.14,1.14,0,0,1-.26-.39,1.5,1.5,0,0,1-.1-.58,1.4,1.4,0,0,1,.43-1,1.55,1.55,0,0,1,.52-.33,1.9,1.9,0,0,1,.71-.12,2.35,2.35,0,0,1,.83.14,1.86,1.86,0,0,1,.64.39Z"/><path class="cls-1" d="M15.74,47.69v5.06H14.8V50.54H12.42v2.21h-.95V47.69h.95v2.18H14.8V47.69Z"/><path class="cls-1" d="M17.82,48.44v1.4h1.77v.72H17.82V52h2.25v.75H16.87V47.69h3.19v.75Z"/><path class="cls-1" d="M21.84,48.44v1.4h1.77v.72H21.84V52h2.25v.75H20.9V47.69h3.19v.75Z"/><path class="cls-1" d="M28.46,48.46H26.93v4.29H26V48.46H24.46v-.77h4Z"/></svg>