<?xml version="1.0" encoding="utf-8"?>
<!-- Generator: Adobe Illustrator 21.1.0, SVG Export Plug-In . SVG Version: 6.00 Build 0)  -->
<svg version="1.1" id="Calque_1" xmlns="http://www.w3.org/2000/svg" xmlns:xlink="http://www.w3.org/1999/xlink" x="0px" y="0px"
	 viewBox="0 0 50 50" style="enable-background:new 0 0 50 50;" xml:space="preserve">
<style type="text/css">
	.st0{fill:none;}
	.st1{enable-background:new    ;}
	.st2{fill:#203D59;}
	.st3{fill:#203D59;stroke:#203D59;stroke-width:0.5;stroke-miterlimit:10;}
	.st4{fill:#5A9DD6;}
</style>
<rect x="1.2" y="38.7" class="st0" width="48.7" height="7"/>
<g class="st1">
	<path class="st2" d="M20.8,38.8c0.4,0,0.7,0,1,0.1c0.3,0.1,0.5,0.2,0.7,0.4c0.2,0.2,0.3,0.4,0.4,0.6s0.1,0.5,0.1,0.7
		c0,0.3,0,0.5-0.1,0.8s-0.2,0.4-0.4,0.6s-0.4,0.3-0.7,0.4c-0.3,0.1-0.6,0.1-1,0.1H20v2H19v-5.8H20.8z M20.8,41.7
		c0.2,0,0.4,0,0.5-0.1c0.1,0,0.3-0.1,0.4-0.2c0.1-0.1,0.2-0.2,0.2-0.3s0.1-0.3,0.1-0.4c0-0.2,0-0.3-0.1-0.4c0-0.1-0.1-0.2-0.2-0.3
		c-0.1-0.1-0.2-0.2-0.4-0.2s-0.3-0.1-0.5-0.1H20v2.1H20.8z"/>
	<path class="st2" d="M25.8,38.8c0.4,0,0.7,0,1,0.1c0.3,0.1,0.5,0.2,0.7,0.4c0.2,0.2,0.3,0.4,0.4,0.6s0.1,0.5,0.1,0.7
		c0,0.3,0,0.5-0.1,0.8c-0.1,0.2-0.2,0.4-0.4,0.6c-0.2,0.2-0.4,0.3-0.7,0.4c-0.3,0.1-0.6,0.1-1,0.1H25v2h-1.1v-5.8H25.8z M25.8,41.7
		c0.2,0,0.4,0,0.5-0.1c0.1,0,0.3-0.1,0.4-0.2s0.2-0.2,0.2-0.3c0-0.1,0.1-0.3,0.1-0.4c0-0.2,0-0.3-0.1-0.4c0-0.1-0.1-0.2-0.2-0.3
		s-0.2-0.2-0.4-0.2s-0.3-0.1-0.5-0.1H25v2.1H25.8z"/>
	<path class="st2" d="M29.9,39.7v1.6h2v0.8h-2v1.6h2.6v0.9h-3.6v-5.8h3.6v0.9H29.9z"/>
</g>
<rect x="29.4" y="38.1" class="st0" width="15.6" height="6.5"/>
<g class="st1">
	<path class="st2" d="M36.5,38.6h-0.9v2.5h-0.5v-2.5h-0.9v-0.4h2.3V38.6z"/>
	<path class="st2" d="M40,38.2v2.9h-0.5v-1.9c0-0.1,0-0.2,0-0.2l-0.9,1.6c0,0.1-0.1,0.1-0.2,0.1h-0.1c-0.1,0-0.1,0-0.2-0.1L37.4,39
		c0,0,0,0.1,0,0.1c0,0,0,0.1,0,0.1v1.9h-0.5v-2.9h0.4c0,0,0,0,0.1,0c0,0,0,0,0,0c0,0,0,0,0,0c0,0,0,0,0,0l0.9,1.6c0,0,0,0.1,0.1,0.1
		c0,0,0,0.1,0.1,0.1c0,0,0-0.1,0.1-0.1c0,0,0-0.1,0.1-0.1l0.9-1.6c0,0,0,0,0,0c0,0,0,0,0,0c0,0,0,0,0,0c0,0,0,0,0.1,0H40z"/>
</g>
<g>
	<path class="st3" d="M31.5,3.2h-17v31.4L37,34.3c1,0,1.9-0.8,1.9-1.9l0.2-21.6L31.5,3.2z M31.9,5l5.5,5.5h-5.5L31.9,5z M38.2,33.6
		H15.6V4.2h15.2v7.3h7.3L38.2,33.6z"/>
	<path class="st2" d="M24.6,14.8h6.8c0.3,0,0.5-0.2,0.5-0.5l0,0c0-0.3-0.2-0.5-0.5-0.5h-6.8c-0.3,0-0.5,0.2-0.5,0.5l0,0
		C24.1,14.5,24.3,14.8,24.6,14.8z"/>
	<path class="st2" d="M24.1,16.3c0,0.3,0.2,0.5,0.5,0.5h9.2c0.3,0,0.5-0.2,0.5-0.5l0,0c0-0.3-0.2-0.5-0.5-0.5h-9.2
		C24.3,15.8,24.1,16,24.1,16.3L24.1,16.3L24.1,16.3z"/>
	<path class="st2" d="M24.1,18.4c0,0.3,0.2,0.5,0.5,0.5h9.2c0.3,0,0.5-0.2,0.5-0.5l0,0c0-0.3-0.2-0.5-0.5-0.5h-9.2
		C24.3,17.8,24.1,18.1,24.1,18.4L24.1,18.4L24.1,18.4z"/>
	<path class="st2" d="M24.1,23.4c0,0.3,0.2,0.5,0.5,0.5h6.8c0.3,0,0.5-0.2,0.5-0.5l0,0c0-0.3-0.2-0.5-0.5-0.5h-6.8
		C24.3,22.9,24.1,23.1,24.1,23.4L24.1,23.4L24.1,23.4z"/>
	<path class="st2" d="M24.1,25.5c0,0.3,0.2,0.5,0.5,0.5h5c0.3,0,0.5-0.2,0.5-0.5l0,0c0-0.3-0.2-0.5-0.5-0.5h-4.9
		C24.3,24.9,24.1,25.2,24.1,25.5L24.1,25.5L24.1,25.5z"/>
	<path class="st2" d="M24.1,27.6c0,0.3,0.2,0.5,0.5,0.5h9.2c0.3,0,0.5-0.2,0.5-0.5l0,0c0-0.3-0.2-0.5-0.5-0.5h-9.2
		C24.3,27,24.1,27.3,24.1,27.6L24.1,27.6L24.1,27.6z"/>
	<path class="st4" d="M18,16.6v2.8h4.4v-2.8c0-0.2-0.2-0.4-0.5-0.4h-0.5c-0.1,0-0.2,0-0.2,0.1l-0.7,1l-0.2-0.4l0.3-0.6
		c0-0.1,0-0.1-0.1-0.2c0,0,0,0-0.1,0h-0.6c-0.1,0-0.1,0-0.1,0.1c0,0,0,0,0,0.1l0.3,0.6l-0.2,0.4l-0.7-1c-0.1-0.1-0.1-0.1-0.2-0.1
		h-0.5C18.2,16.2,18,16.4,18,16.6z"/>
	<path class="st4" d="M20.2,15.9c0.7,0,1.4-0.6,1.4-1.4c0-0.7-0.6-1.4-1.4-1.4c-0.7,0-1.4,0.6-1.4,1.4
		C18.9,15.3,19.5,15.9,20.2,15.9z"/>
	<path class="st4" d="M18,28.6h4.4v-2.8c0-0.2-0.2-0.4-0.5-0.4h-0.5c-0.1,0-0.2,0-0.2,0.1l-0.7,1l-0.2-0.4l0.3-0.6
		c0-0.1,0-0.1-0.1-0.2c0,0,0,0-0.1,0h-0.6c-0.1,0-0.1,0-0.1,0.1c0,0,0,0,0,0.1l0.3,0.6l-0.2,0.3l-0.7-1c-0.1-0.1-0.1-0.1-0.2-0.1
		h-0.5c-0.2,0-0.4,0.2-0.5,0.4L18,28.6L18,28.6z"/>
	<path class="st4" d="M18.9,23.7c0,0.7,0.6,1.4,1.4,1.4s1.4-0.6,1.4-1.4c0-0.7-0.6-1.4-1.4-1.4S18.9,23,18.9,23.7z"/>
</g>
</svg>
