<?xml version="1.0" encoding="utf-8"?>
<!-- Generator: Adobe Illustrator 21.1.0, SVG Export Plug-In . SVG Version: 6.00 Build 0)  -->
<svg version="1.1" id="Calque_1" xmlns="http://www.w3.org/2000/svg" xmlns:xlink="http://www.w3.org/1999/xlink" x="0px" y="0px"
	 viewBox="0 0 70 50" style="enable-background:new 0 0 70 50;" xml:space="preserve">
<style type="text/css">
	.st0{fill:none;}
	.st1{enable-background:new    ;}
	.st2{fill:#FFFFFF;}
	.st3{fill:#F4F1F0;}
	.st4{fill:#5A9DD6;}
</style>
<rect x="0.5" y="38.8" class="st0" width="60" height="7"/>
<g class="st1">
	<path class="st2" d="M8.3,41.8c0,0.4-0.1,0.8-0.2,1.2c-0.1,0.4-0.3,0.7-0.6,0.9c-0.3,0.3-0.6,0.5-0.9,0.6c-0.4,0.1-0.8,0.2-1.2,0.2
		H3.1V39h2.2c0.4,0,0.8,0.1,1.2,0.2c0.4,0.1,0.7,0.3,0.9,0.6C7.7,40,7.9,40.3,8,40.7C8.2,41,8.3,41.4,8.3,41.8z M7.2,41.8
		c0-0.3,0-0.6-0.1-0.9s-0.2-0.5-0.4-0.6S6.3,40,6.1,39.9c-0.2-0.1-0.5-0.1-0.8-0.1H4.2v4.1h1.1c0.3,0,0.5,0,0.8-0.1
		c0.2-0.1,0.4-0.2,0.6-0.4c0.2-0.2,0.3-0.4,0.4-0.6S7.2,42.2,7.2,41.8z"/>
	<path class="st2" d="M10.3,44.7H9.2V39h1.1V44.7z"/>
	<path class="st2" d="M14.7,40c0,0.1-0.1,0.1-0.1,0.1s-0.1,0-0.1,0c-0.1,0-0.1,0-0.2-0.1c-0.1,0-0.1-0.1-0.2-0.1
		c-0.1,0-0.2-0.1-0.3-0.1c-0.1,0-0.3-0.1-0.4-0.1c-0.1,0-0.3,0-0.4,0.1c-0.1,0-0.2,0.1-0.3,0.2c-0.1,0.1-0.1,0.1-0.2,0.2
		c0,0.1-0.1,0.2-0.1,0.3c0,0.1,0,0.2,0.1,0.3c0.1,0.1,0.2,0.2,0.3,0.2c0.1,0.1,0.3,0.1,0.4,0.2s0.3,0.1,0.5,0.2
		c0.2,0.1,0.3,0.1,0.5,0.2s0.3,0.2,0.4,0.3c0.1,0.1,0.2,0.3,0.3,0.4s0.1,0.4,0.1,0.6c0,0.3,0,0.5-0.1,0.7c-0.1,0.2-0.2,0.4-0.4,0.6
		c-0.2,0.2-0.4,0.3-0.6,0.4s-0.5,0.1-0.9,0.1c-0.2,0-0.4,0-0.5-0.1s-0.4-0.1-0.5-0.2c-0.2-0.1-0.3-0.1-0.5-0.2
		c-0.1-0.1-0.3-0.2-0.4-0.3l0.3-0.5c0,0,0.1-0.1,0.1-0.1s0.1,0,0.1,0c0.1,0,0.1,0,0.2,0.1c0.1,0.1,0.2,0.1,0.3,0.2
		c0.1,0.1,0.2,0.1,0.4,0.2c0.1,0.1,0.3,0.1,0.5,0.1c0.3,0,0.5-0.1,0.7-0.2s0.3-0.4,0.3-0.6c0-0.2,0-0.3-0.1-0.4
		c-0.1-0.1-0.2-0.2-0.3-0.2c-0.1-0.1-0.3-0.1-0.4-0.2c-0.2,0-0.3-0.1-0.5-0.1S12.4,42,12.2,42c-0.2-0.1-0.3-0.2-0.4-0.3
		s-0.2-0.3-0.3-0.5c-0.1-0.2-0.1-0.4-0.1-0.7c0-0.2,0-0.4,0.1-0.6s0.2-0.4,0.4-0.5c0.2-0.2,0.4-0.3,0.6-0.4c0.2-0.1,0.5-0.1,0.8-0.1
		c0.3,0,0.7,0.1,0.9,0.2c0.3,0.1,0.5,0.3,0.7,0.4L14.7,40z"/>
	<path class="st2" d="M20,39.8h-1.7v4.9h-1.1v-4.9h-1.7V39H20V39.8z"/>
	<path class="st2" d="M25.3,44.7h-1c-0.2,0-0.3-0.1-0.4-0.2l-1.2-1.9c0-0.1-0.1-0.1-0.1-0.1s-0.1,0-0.2,0h-0.5v2.3h-1.1V39h1.8
		c0.4,0,0.7,0,1,0.1s0.5,0.2,0.7,0.3c0.2,0.1,0.3,0.3,0.4,0.5c0.1,0.2,0.1,0.4,0.1,0.7c0,0.2,0,0.4-0.1,0.6
		c-0.1,0.2-0.1,0.3-0.2,0.5c-0.1,0.1-0.2,0.3-0.4,0.4c-0.2,0.1-0.3,0.2-0.5,0.3c0.1,0,0.1,0.1,0.2,0.1c0.1,0.1,0.1,0.1,0.2,0.2
		L25.3,44.7z M22.5,41.7c0.2,0,0.4,0,0.5-0.1c0.2,0,0.3-0.1,0.4-0.2c0.1-0.1,0.2-0.2,0.2-0.3c0-0.1,0.1-0.3,0.1-0.4
		c0-0.3-0.1-0.5-0.3-0.7s-0.5-0.2-0.9-0.2h-0.7v1.9H22.5z"/>
	<path class="st2" d="M27,44.7h-1.1V39H27V44.7z"/>
	<path class="st2" d="M30.3,39c0.4,0,0.7,0,1,0.1c0.3,0.1,0.5,0.2,0.7,0.3c0.2,0.1,0.3,0.3,0.4,0.5s0.1,0.4,0.1,0.6
		c0,0.1,0,0.3-0.1,0.4c0,0.1-0.1,0.2-0.2,0.3c-0.1,0.1-0.2,0.2-0.3,0.3s-0.3,0.2-0.5,0.2c0.8,0.2,1.2,0.6,1.2,1.3
		c0,0.2,0,0.5-0.1,0.7s-0.2,0.4-0.4,0.5c-0.2,0.2-0.4,0.3-0.7,0.4c-0.3,0.1-0.6,0.1-0.9,0.1h-2.2V39H30.3z M29.4,39.8v1.7h0.9
		c0.4,0,0.6-0.1,0.8-0.2c0.2-0.1,0.3-0.3,0.3-0.6c0-0.3-0.1-0.5-0.3-0.6c-0.2-0.1-0.4-0.2-0.8-0.2H29.4z M30.4,43.9
		c0.2,0,0.4,0,0.5-0.1s0.2-0.1,0.3-0.2c0.1-0.1,0.1-0.2,0.2-0.3s0.1-0.2,0.1-0.3c0-0.1,0-0.2-0.1-0.3c0-0.1-0.1-0.2-0.2-0.3
		c-0.1-0.1-0.2-0.1-0.3-0.2c-0.1,0-0.3-0.1-0.5-0.1h-1.1v1.7H30.4z"/>
	<path class="st2" d="M35.9,43.9c0.2,0,0.4,0,0.6-0.1c0.2-0.1,0.3-0.2,0.4-0.3c0.1-0.1,0.2-0.3,0.3-0.5c0.1-0.2,0.1-0.4,0.1-0.6V39
		h1.1v3.5c0,0.3-0.1,0.7-0.2,1c-0.1,0.3-0.3,0.5-0.5,0.8c-0.2,0.2-0.5,0.4-0.8,0.5c-0.3,0.1-0.6,0.2-1,0.2c-0.4,0-0.7-0.1-1-0.2
		c-0.3-0.1-0.5-0.3-0.8-0.5s-0.4-0.5-0.5-0.8c-0.1-0.3-0.2-0.6-0.2-1V39h1.1v3.5c0,0.2,0,0.4,0.1,0.6c0.1,0.2,0.1,0.3,0.3,0.5
		c0.1,0.1,0.3,0.2,0.4,0.3S35.7,43.9,35.9,43.9z"/>
	<path class="st2" d="M43.5,39.8h-1.7v4.9h-1.1v-4.9H39V39h4.6V39.8z"/>
	<path class="st2" d="M45.4,44.7h-1.1V39h1.1V44.7z"/>
	<path class="st2" d="M52.2,41.8c0,0.4-0.1,0.8-0.2,1.2s-0.3,0.7-0.6,0.9c-0.3,0.3-0.6,0.5-0.9,0.6c-0.4,0.1-0.8,0.2-1.2,0.2
		c-0.4,0-0.8-0.1-1.2-0.2c-0.4-0.1-0.7-0.4-0.9-0.6c-0.3-0.3-0.5-0.6-0.6-0.9c-0.1-0.4-0.2-0.8-0.2-1.2c0-0.4,0.1-0.8,0.2-1.2
		c0.1-0.4,0.3-0.7,0.6-0.9c0.3-0.3,0.6-0.5,0.9-0.6s0.8-0.2,1.2-0.2c0.3,0,0.6,0,0.8,0.1s0.5,0.2,0.7,0.3s0.4,0.3,0.6,0.5
		c0.2,0.2,0.3,0.4,0.4,0.6s0.2,0.5,0.3,0.7S52.2,41.6,52.2,41.8z M51.1,41.8c0-0.3,0-0.6-0.1-0.9c-0.1-0.3-0.2-0.5-0.4-0.6
		c-0.2-0.2-0.3-0.3-0.6-0.4s-0.5-0.1-0.8-0.1c-0.3,0-0.5,0-0.8,0.1c-0.2,0.1-0.4,0.2-0.6,0.4c-0.2,0.2-0.3,0.4-0.4,0.6
		c-0.1,0.3-0.1,0.5-0.1,0.9s0,0.6,0.1,0.9c0.1,0.3,0.2,0.5,0.4,0.6c0.2,0.2,0.4,0.3,0.6,0.4c0.2,0.1,0.5,0.1,0.8,0.1
		c0.3,0,0.5,0,0.8-0.1c0.2-0.1,0.4-0.2,0.6-0.4c0.2-0.2,0.3-0.4,0.4-0.6C51,42.4,51.1,42.2,51.1,41.8z"/>
	<path class="st2" d="M58,39v5.8h-0.6c-0.1,0-0.2,0-0.2,0c-0.1,0-0.1-0.1-0.2-0.1l-3-3.9c0,0.2,0,0.3,0,0.5v3.6h-0.9V39h0.6
		c0,0,0.1,0,0.1,0s0.1,0,0.1,0s0,0,0.1,0.1s0.1,0.1,0.1,0.1l3,3.9c0-0.1,0-0.2,0-0.3c0-0.1,0-0.2,0-0.3V39H58z"/>
</g>
<rect x="54.4" y="38.2" class="st0" width="15.6" height="4.2"/>
<g class="st1">
	<path class="st2" d="M61.5,38.7h-0.9v2.5h-0.5v-2.5h-0.9v-0.4h2.3V38.7z"/>
	<path class="st2" d="M65,38.3v2.9h-0.5v-1.9c0-0.1,0-0.2,0-0.2l-0.9,1.6c0,0.1-0.1,0.1-0.2,0.1h-0.1c-0.1,0-0.1,0-0.2-0.1l-0.9-1.6
		c0,0,0,0.1,0,0.1c0,0,0,0.1,0,0.1v1.9h-0.5v-2.9h0.4c0,0,0,0,0.1,0c0,0,0,0,0,0c0,0,0,0,0,0c0,0,0,0,0,0l0.9,1.6c0,0,0,0.1,0.1,0.1
		c0,0,0,0.1,0.1,0.1c0,0,0-0.1,0.1-0.1c0,0,0-0.1,0.1-0.1l0.9-1.6c0,0,0,0,0,0c0,0,0,0,0,0c0,0,0,0,0,0c0,0,0,0,0.1,0H65z"/>
</g>
<g id="_1_1_">
	<path class="st3" d="M34.5,32.7c-2.2-1.7-4-3.9-5.3-6.4c1.3-0.6,2.6-1,4-1.2c0-0.3-0.1-0.6-0.1-0.9c-1.5,0.2-2.9,0.6-4.2,1.2
		c-0.8-1.9-1.2-3.9-1.3-5.9v-0.4h5.9l1.1-0.1l0.6-0.7l0.8-1l0.1-0.6l4.3-0.6l1.7,0.3l2.1,0.9l0.9,0.4c0,0,2.5,0.2,0.6,1.3l-0.8-0.3
		c0-0.1,0.7,0.2,0.2,0.3l4.8,0.1c0.1,0,0.2,0,0.2,0c0,0.8-0.1,1.6-0.3,2.4l0.7-0.1c0.8-3.9,0.2-7.9-1.7-11.1C46.1,6,41.3,3,36.4,2.8
		C30,2.3,23.8,6,21,11.9c-2,4-1.9,9.6,0.1,13.6c2.5,5.4,8.3,9.1,14.3,8.9C35,33.8,34.7,33.3,34.5,32.7L34.5,32.7z M50.1,18.2h-5.6
		c-0.1-2.5-0.6-4.9-1.6-7.2c1.2-0.7,2.4-1.5,3.4-2.5C48.7,11.2,49.9,14.5,50.1,18.2z M45.6,7.8c-0.9,0.9-2,1.8-3.2,2.4
		c-1.2-2.5-3.4-4.9-5.7-6.5C40.1,4,43.2,5.5,45.6,7.8L45.6,7.8z M36,4.3c2.3,1.5,4.4,3.9,5.6,6.3C39.8,11.5,37.9,12,36,12V4.3z
		 M36,13c2.1-0.1,4.2-0.6,6-1.5c1,2.1,1.7,3.4,1.8,5.7l-5.5-1.4l-2.7,1.1L36,13L36,13z M35,18.2h-7.6c0-2.3,0.5-4.5,1.4-6.6
		c1.9,0.8,4,1.4,6.2,1.4V18.2z M35,12.1c-2.2,0-3.9-0.5-5.7-1.3c1.3-2.6,3.4-5,5.8-6.7L35,12.1z M34.2,3.7c-2.4,1.7-4.5,4.2-5.7,6.7
		C27.2,9.8,26,8.9,25,7.9C27.5,5.4,30.7,3.9,34.2,3.7L34.2,3.7z M20.5,17.1c0.1,0,0-0.1,0-0.2c0.4-3.1,1.6-6,3.7-8.3
		c1.1,1.1,2.4,2,3.8,2.7c-0.9,2.2-1.5,4.6-1.5,7h-6l0,0V17.1z M24.3,28.5c-2.4-2.6-3.6-5.8-3.8-9.4h5.6h0.5c0,2.3,0.5,4.6,1.4,6.7
		C26.6,26.5,25.4,27.5,24.3,28.5L24.3,28.5z M24.9,29.2c1-1.1,2.2-1.9,3.4-2.5c1.2,2.5,3.2,5,5.6,6.7C30.5,33.1,27.4,31.6,24.9,29.2
		L24.9,29.2z"/>
</g>
<path class="st3" d="M39.4,18.1c-0.5,0-0.9,0.1-1.4,0.2c-0.3,0.1-0.6,0.2-0.8,0.4c-2.5,1.3-3.5,4.5-2.2,7c1,1.9,3,2.9,5.1,2.8
	c0.4,0,0.8-0.1,1.2-0.2c2.7-0.9,4.2-3.8,3.3-6.6C43.9,19.4,41.8,18,39.4,18.1L39.4,18.1z M41.4,24.1c-0.2,0.5-0.6,0.8-1.1,1
	c-0.3,0.1-0.6,0.1-0.9,0.1C38.3,25,37.6,24,37.8,23c0.2-1.1,1.2-1.8,2.2-1.6c1.1,0.2,1.8,1.2,1.6,2.2C41.5,23.8,41.5,23.9,41.4,24.1
	L41.4,24.1z"/>
<path class="st4" d="M50,18.2l-2.4,0.5c-0.6-1-1.3-1.9-2.2-2.6l0.9-2.3c0.1-0.2,0-0.4-0.2-0.5l-2.2-1.1c-0.2-0.1-0.4,0-0.5,0.1
	L42,14.4c-1.1-0.3-2.2-0.4-3.4-0.3l-1-2.3c-0.1-0.2-0.3-0.2-0.4-0.2l-2.4,0.8c-0.2,0.1-0.3,0.2-0.2,0.4l0.5,2.5
	c-1,0.6-1.9,1.3-2.6,2.2l-2.3-0.9c-0.2-0.1-0.4,0-0.5,0.2L28.6,19c-0.1,0.2,0,0.4,0.1,0.5l2.1,1.4c-0.3,1.1-0.4,2.2-0.3,3.4l-2.3,1
	C28,25.4,28,25.6,28,25.7l0.8,2.4c0.1,0.2,0.2,0.3,0.4,0.2l2.4-0.5c0.6,1,1.3,1.9,2.2,2.6l-0.6,1.5L33,32.8c-0.1,0.2,0,0.4,0.2,0.4
	l1.6,0.8l0,0l0.6,0.3c0.2,0.1,0.4,0,0.5-0.1l0.5-0.7l0,0l0.9-1.4c0.8,0.2,1.5,0.3,2.3,0.3h0.1c0.3,0,0.6,0,1-0.1l1.1,2.3
	c0.1,0.2,0.3,0.2,0.4,0.2l2.4-0.8c0.2-0.1,0.3-0.2,0.2-0.4l-0.5-2.4c0.3-0.2,0.5-0.3,0.8-0.5c0.7-0.5,1.2-1,1.8-1.7l1.6,0.6l0.8,0.3
	c0.2,0.1,0.4,0,0.5-0.2l0.3-0.6l0.8-1.6c0.1-0.2,0-0.4-0.1-0.5l-2.1-1.4c0.3-1.1,0.4-2.2,0.3-3.4l2.3-1c0.2-0.1,0.2-0.3,0.2-0.4
	l-0.8-2.4C50.4,18.2,50.2,18.1,50,18.2z M42.5,29.2c-3.3,1.6-7.2,0.1-8.8-3.2s-0.1-7.2,3.2-8.8c3.3-1.6,7.2-0.1,8.8,3.2
	c0.1,0.2,0.2,0.5,0.3,0.8C47,24.4,45.5,27.8,42.5,29.2z"/>
</svg>
