<?xml version="1.0" encoding="utf-8"?>
<!-- Generator: Adobe Illustrator 21.1.0, SVG Export Plug-In . SVG Version: 6.00 Build 0)  -->
<svg version="1.1" id="Calque_1" xmlns="http://www.w3.org/2000/svg" xmlns:xlink="http://www.w3.org/1999/xlink" x="0px" y="0px"
	 viewBox="0 0 50 50" style="enable-background:new 0 0 50 50;" xml:space="preserve">
<style type="text/css">
	.st0{fill:none;}
	.st1{enable-background:new    ;}
	.st2{fill:#FFFFFF;}
	.st3{fill:#FFFFFF;stroke:#FFFFFF;stroke-width:0.5;stroke-miterlimit:10;}
	.st4{fill:#5A9DD6;}
</style>
<rect x="1.3" y="38.8" class="st0" width="48.7" height="7"/>
<g class="st1">
	<path class="st2" d="M20.9,38.9c0.4,0,0.7,0,1,0.1c0.3,0.1,0.5,0.2,0.7,0.4c0.2,0.2,0.3,0.4,0.4,0.6s0.1,0.5,0.1,0.7
		c0,0.3,0,0.5-0.1,0.8s-0.2,0.4-0.4,0.6s-0.4,0.3-0.7,0.4c-0.3,0.1-0.6,0.1-1,0.1h-0.8v2H19v-5.8H20.9z M20.9,41.8
		c0.2,0,0.4,0,0.5-0.1c0.1,0,0.3-0.1,0.4-0.2c0.1-0.1,0.2-0.2,0.2-0.3s0.1-0.3,0.1-0.4c0-0.2,0-0.3-0.1-0.4c0-0.1-0.1-0.2-0.2-0.3
		c-0.1-0.1-0.2-0.2-0.4-0.2s-0.3-0.1-0.5-0.1h-0.8v2.1H20.9z"/>
	<path class="st2" d="M25.8,38.9c0.4,0,0.7,0,1,0.1c0.3,0.1,0.5,0.2,0.7,0.4c0.2,0.2,0.3,0.4,0.4,0.6c0.1,0.2,0.1,0.5,0.1,0.7
		c0,0.3,0,0.5-0.1,0.8s-0.2,0.4-0.4,0.6s-0.4,0.3-0.7,0.4c-0.3,0.1-0.6,0.1-1,0.1H25v2H24v-5.8H25.8z M25.8,41.8
		c0.2,0,0.4,0,0.5-0.1c0.1,0,0.3-0.1,0.4-0.2s0.2-0.2,0.2-0.3s0.1-0.3,0.1-0.4c0-0.2,0-0.3-0.1-0.4c0-0.1-0.1-0.2-0.2-0.3
		s-0.2-0.2-0.4-0.2s-0.3-0.1-0.5-0.1H25v2.1H25.8z"/>
	<path class="st2" d="M30,39.8v1.6h2v0.8h-2v1.6h2.6v0.9h-3.6v-5.8h3.6v0.9H30z"/>
</g>
<rect x="29.5" y="38.2" class="st0" width="15.6" height="6.5"/>
<g class="st1">
	<path class="st2" d="M36.6,38.8h-0.9v2.5h-0.5v-2.5h-0.9v-0.4h2.3V38.8z"/>
	<path class="st2" d="M40.1,38.3v2.9h-0.5v-1.9c0-0.1,0-0.2,0-0.2l-0.9,1.6c0,0.1-0.1,0.1-0.2,0.1h-0.1c-0.1,0-0.1,0-0.2-0.1
		l-0.9-1.6c0,0,0,0.1,0,0.1c0,0,0,0.1,0,0.1v1.9H37v-2.9h0.4c0,0,0,0,0.1,0c0,0,0,0,0,0c0,0,0,0,0,0c0,0,0,0,0,0l0.9,1.6
		c0,0,0,0.1,0.1,0.1c0,0,0,0.1,0.1,0.1c0,0,0-0.1,0.1-0.1c0,0,0-0.1,0.1-0.1l0.9-1.6c0,0,0,0,0,0c0,0,0,0,0,0c0,0,0,0,0,0
		c0,0,0,0,0.1,0H40.1z"/>
</g>
<g>
	<path class="st3" d="M31.6,3.3h-17v31.4l22.5-0.3c1,0,1.9-0.8,1.9-1.9l0.2-21.6L31.6,3.3z M31.9,5.1l5.5,5.5h-5.5L31.9,5.1z
		 M38.2,33.7H15.7V4.3h15.2v7.3h7.3V33.7z"/>
	<path class="st2" d="M24.7,14.9h6.8c0.3,0,0.5-0.2,0.5-0.5l0,0c0-0.3-0.2-0.5-0.5-0.5h-6.8c-0.3,0-0.5,0.2-0.5,0.5l0,0
		C24.1,14.6,24.4,14.9,24.7,14.9z"/>
	<path class="st2" d="M24.1,16.4c0,0.3,0.2,0.5,0.5,0.5h9.2c0.3,0,0.5-0.2,0.5-0.5l0,0c0-0.3-0.2-0.5-0.5-0.5h-9.2
		C24.4,15.9,24.1,16.1,24.1,16.4L24.1,16.4L24.1,16.4z"/>
	<path class="st2" d="M24.1,18.5c0,0.3,0.2,0.5,0.5,0.5h9.2c0.3,0,0.5-0.2,0.5-0.5l0,0c0-0.3-0.2-0.5-0.5-0.5h-9.2
		C24.4,17.9,24.1,18.2,24.1,18.5L24.1,18.5L24.1,18.5z"/>
	<path class="st2" d="M24.1,23.5c0,0.3,0.2,0.5,0.5,0.5h6.8c0.3,0,0.5-0.2,0.5-0.5l0,0c0-0.3-0.2-0.5-0.5-0.5h-6.8
		C24.4,23,24.1,23.2,24.1,23.5L24.1,23.5L24.1,23.5z"/>
	<path class="st2" d="M24.1,25.6c0,0.3,0.2,0.5,0.5,0.5h5c0.3,0,0.5-0.2,0.5-0.5l0,0c0-0.3-0.2-0.5-0.5-0.5h-4.9
		C24.4,25,24.1,25.3,24.1,25.6L24.1,25.6L24.1,25.6z"/>
	<path class="st2" d="M24.1,27.7c0,0.3,0.2,0.5,0.5,0.5h9.2c0.3,0,0.5-0.2,0.5-0.5l0,0c0-0.3-0.2-0.5-0.5-0.5h-9.2
		C24.4,27.1,24.1,27.4,24.1,27.7L24.1,27.7L24.1,27.7z"/>
	<path class="st4" d="M18.1,16.7v2.8h4.4v-2.8c0-0.2-0.2-0.4-0.5-0.4h-0.5c-0.1,0-0.2,0-0.2,0.1l-0.7,1L20.4,17l0.3-0.6
		c0-0.1,0-0.1-0.1-0.2c0,0,0,0-0.1,0H20c-0.1,0-0.1,0-0.1,0.1c0,0,0,0,0,0.1l0.3,0.6L20,17.4l-0.7-1c-0.1-0.1-0.1-0.1-0.2-0.1h-0.5
		C18.3,16.3,18.1,16.5,18.1,16.7z"/>
	<path class="st4" d="M20.3,16c0.7,0,1.4-0.6,1.4-1.4c0-0.7-0.6-1.4-1.4-1.4c-0.7,0-1.4,0.6-1.4,1.4S19.5,16,20.3,16z"/>
	<path class="st4" d="M18.1,28.7h4.4v-2.8c0-0.2-0.2-0.4-0.5-0.4h-0.5c-0.1,0-0.2,0-0.2,0.1l-0.7,1l-0.2-0.4l0.3-0.6
		c0-0.1,0-0.1-0.1-0.2c0,0,0,0-0.1,0H20c-0.1,0-0.1,0-0.1,0.1c0,0,0,0,0,0.1l0.3,0.6L20,26.6l-0.7-1c-0.1-0.1-0.1-0.1-0.2-0.1h-0.5
		c-0.2,0-0.4,0.2-0.5,0.4L18.1,28.7L18.1,28.7z"/>
	<path class="st4" d="M18.9,23.8c0,0.7,0.6,1.4,1.4,1.4s1.4-0.6,1.4-1.4s-0.6-1.4-1.4-1.4S18.9,23.1,18.9,23.8z"/>
</g>
</svg>
