<svg id="Calque_1" data-name="Calque 1" xmlns="http://www.w3.org/2000/svg" viewBox="0 0 50 50"><defs><style>.cls-1{font-size:2px;}.cls-1,.cls-2{fill:#fff;font-family:Lato-Bold, Lato;font-weight:700;}.cls-2{font-size:6px;}.cls-3{fill:#f4f1f0;}.cls-4{fill:#1b1b1b;}.cls-5{fill:#203d59;}.cls-6{fill:#817c75;}</style></defs><title>Plan de travail 2 copie 2</title><text class="cls-1" transform="translate(38.61 37.44)">TM</text><text class="cls-2" transform="translate(13.78 40.85)">MOBILE</text><text class="cls-1" transform="translate(39.41 37.44)"><tspan xml:space="preserve">        </tspan></text><path class="cls-3" d="M7.37,8.49H42.9v22.4s3.8,3.28-35.53.71C7.57,25.43,7.37,8.49,7.37,8.49Z"/><g id="_34" data-name=" 34"><path class="cls-4" d="M40.54,3.53H9.73A3.57,3.57,0,0,0,6.17,7.09V30a3.57,3.57,0,0,0,3.57,3.57h30.8A3.57,3.57,0,0,0,44.1,30V7.09A3.57,3.57,0,0,0,40.54,3.53Zm-.38,2.29a.81.81,0,1,1-.81.81.81.81,0,0,1,.81-.81Zm-6.37,0h4a.76.76,0,0,1,0,1.53h-4a.76.76,0,0,1,0-1.53ZM42.16,30a1.64,1.64,0,0,1-1.62,1.62H9.73A1.64,1.64,0,0,1,8.11,30V9.38h34Z"/><rect class="cls-5" x="11.41" y="26.81" width="26.55" height="2.34"/><rect class="cls-5" x="11.41" y="12" width="26.55" height="3.51"/><rect class="cls-5" x="11.59" y="17.24" width="6.07" height="7.21"/><rect class="cls-6" x="18.99" y="17.43" width="18.78" height="0.76"/><rect class="cls-6" x="18.99" y="19.64" width="18.78" height="0.76"/><rect class="cls-6" x="18.99" y="21.86" width="18.78" height="0.76"/><rect class="cls-6" x="18.99" y="24.07" width="18.78" height="0.76"/></g></svg>