<?xml version="1.0" encoding="utf-8"?>
<!-- Generator: Adobe Illustrator 21.1.0, SVG Export Plug-In . SVG Version: 6.00 Build 0)  -->
<svg version="1.1" id="Calque_1" xmlns="http://www.w3.org/2000/svg" xmlns:xlink="http://www.w3.org/1999/xlink" x="0px" y="0px"
	 viewBox="0 0 100 70" style="enable-background:new 0 0 100 70;" xml:space="preserve">
<style type="text/css">
	.st0{fill:none;}
	.st1{enable-background:new    ;}
	.st2{fill:#FFFFFF;}
	.st3{fill:#FFFFFF;stroke:#FFFFFF;stroke-width:0.5;stroke-miterlimit:10;}
	.st4{fill:none;stroke:#F4F1F0;stroke-miterlimit:10;}
	.st5{fill:#066A36;}
</style>
<rect y="44.3" class="st0" width="100" height="6.4"/>
<g class="st1">
	<path class="st2" d="M15.5,48.8c0.1,0,0.1,0,0.2,0.1l0.4,0.5c-0.2,0.3-0.5,0.5-0.9,0.7s-0.8,0.2-1.2,0.2c-0.4,0-0.8-0.1-1.2-0.2
		s-0.6-0.4-0.9-0.6c-0.2-0.3-0.4-0.6-0.6-0.9s-0.2-0.8-0.2-1.2c0-0.4,0.1-0.8,0.2-1.2s0.3-0.7,0.6-0.9c0.3-0.3,0.6-0.5,0.9-0.6
		c0.3-0.1,0.7-0.2,1.2-0.2c0.4,0,0.8,0.1,1.1,0.2s0.6,0.3,0.8,0.5l-0.4,0.5c0,0,0,0.1-0.1,0.1c0,0-0.1,0-0.1,0c0,0-0.1,0-0.1,0
		s-0.1-0.1-0.1-0.1s-0.1-0.1-0.2-0.1c-0.1,0-0.1-0.1-0.2-0.1c-0.1,0-0.2-0.1-0.3-0.1c-0.1,0-0.2,0-0.4,0c-0.3,0-0.5,0-0.7,0.1
		c-0.2,0.1-0.4,0.2-0.6,0.4c-0.2,0.2-0.3,0.4-0.4,0.6c-0.1,0.3-0.1,0.5-0.1,0.9c0,0.3,0,0.6,0.1,0.9c0.1,0.3,0.2,0.5,0.4,0.6
		c0.2,0.2,0.3,0.3,0.6,0.4c0.2,0.1,0.4,0.1,0.7,0.1c0.1,0,0.3,0,0.4,0s0.2,0,0.3-0.1c0.1,0,0.2-0.1,0.3-0.1s0.2-0.1,0.3-0.2
		C15.3,48.9,15.3,48.9,15.5,48.8C15.4,48.9,15.4,48.8,15.5,48.8z"/>
	<path class="st2" d="M22.2,47.3c0,0.4-0.1,0.8-0.2,1.2c-0.1,0.4-0.3,0.7-0.6,0.9c-0.3,0.3-0.6,0.5-0.9,0.6
		c-0.4,0.1-0.8,0.2-1.2,0.2c-0.4,0-0.8-0.1-1.2-0.2c-0.4-0.1-0.7-0.4-0.9-0.6c-0.3-0.3-0.5-0.6-0.6-0.9c-0.1-0.4-0.2-0.8-0.2-1.2
		c0-0.4,0.1-0.8,0.2-1.2c0.1-0.4,0.3-0.7,0.6-0.9c0.3-0.3,0.6-0.5,0.9-0.6c0.4-0.1,0.8-0.2,1.2-0.2c0.3,0,0.6,0,0.8,0.1
		s0.5,0.2,0.7,0.3s0.4,0.3,0.6,0.5c0.2,0.2,0.3,0.4,0.4,0.6s0.2,0.5,0.3,0.7S22.2,47,22.2,47.3z M21.1,47.3c0-0.3,0-0.6-0.1-0.9
		c-0.1-0.3-0.2-0.5-0.4-0.6c-0.2-0.2-0.3-0.3-0.6-0.4c-0.2-0.1-0.5-0.1-0.8-0.1s-0.5,0-0.8,0.1c-0.2,0.1-0.4,0.2-0.6,0.4
		c-0.2,0.2-0.3,0.4-0.4,0.6s-0.1,0.5-0.1,0.9s0,0.6,0.1,0.9s0.2,0.5,0.4,0.6c0.2,0.2,0.4,0.3,0.6,0.4c0.2,0.1,0.5,0.1,0.8,0.1
		s0.5,0,0.8-0.1c0.2-0.1,0.4-0.2,0.6-0.4c0.2-0.2,0.3-0.4,0.4-0.6C21,47.9,21.1,47.6,21.1,47.3z"/>
	<path class="st2" d="M29.4,44.4v5.8h-0.9v-3.7c0-0.1,0-0.3,0-0.5l-1.7,3.3c-0.1,0.2-0.2,0.2-0.4,0.2h-0.2c-0.2,0-0.3-0.1-0.4-0.2
		L24,46c0,0.1,0,0.2,0,0.3c0,0.1,0,0.2,0,0.2v3.7h-0.9v-5.8h0.8c0,0,0.1,0,0.1,0c0,0,0.1,0,0.1,0c0,0,0.1,0,0.1,0.1s0,0.1,0.1,0.1
		l1.7,3.2c0,0.1,0.1,0.2,0.1,0.3s0.1,0.2,0.1,0.3c0-0.1,0.1-0.2,0.1-0.3c0-0.1,0.1-0.2,0.1-0.3l1.7-3.2c0,0,0-0.1,0.1-0.1
		s0,0,0.1-0.1c0,0,0.1,0,0.1,0c0,0,0.1,0,0.1,0H29.4z"/>
	<path class="st2" d="M32.6,44.4c0.4,0,0.7,0,1,0.1c0.3,0.1,0.5,0.2,0.7,0.4c0.2,0.2,0.3,0.4,0.4,0.6s0.1,0.5,0.1,0.7
		c0,0.3,0,0.5-0.1,0.8s-0.2,0.4-0.4,0.6s-0.4,0.3-0.7,0.4c-0.3,0.1-0.6,0.1-1,0.1h-0.8v2h-1.1v-5.8H32.6z M32.6,47.3
		c0.2,0,0.4,0,0.5-0.1c0.1,0,0.3-0.1,0.4-0.2c0.1-0.1,0.2-0.2,0.2-0.3s0.1-0.3,0.1-0.4c0-0.2,0-0.3-0.1-0.4c0-0.1-0.1-0.2-0.2-0.3
		c-0.1-0.1-0.2-0.2-0.4-0.2s-0.3-0.1-0.5-0.1h-0.8v2.1H32.6z"/>
	<path class="st2" d="M39,49.3v0.9h-3.4v-5.8h1.1v4.9H39z"/>
	<path class="st2" d="M40.9,50.2h-1.1v-5.8h1.1V50.2z"/>
	<path class="st2" d="M47.1,50.2h-0.8c-0.1,0-0.2,0-0.2-0.1c-0.1,0-0.1-0.1-0.1-0.2l-0.4-1.2h-2.4L42.7,50c0,0.1-0.1,0.1-0.1,0.2
		s-0.1,0.1-0.2,0.1h-0.8l2.3-5.8h1.1L47.1,50.2z M45.2,48l-0.7-1.9c0-0.1-0.1-0.2-0.1-0.3c0-0.1-0.1-0.2-0.1-0.4
		c0,0.1-0.1,0.3-0.1,0.4c0,0.1-0.1,0.2-0.1,0.3L43.4,48H45.2z"/>
	<path class="st2" d="M52.6,44.4v5.8H52c-0.1,0-0.2,0-0.2,0s-0.1-0.1-0.2-0.1l-3-3.9c0,0.2,0,0.3,0,0.5v3.6h-0.9v-5.8h0.6
		c0,0,0.1,0,0.1,0c0,0,0.1,0,0.1,0s0,0,0.1,0.1c0,0,0.1,0.1,0.1,0.1l3,3.9c0-0.1,0-0.2,0-0.3c0-0.1,0-0.2,0-0.3v-3.5H52.6z"/>
	<path class="st2" d="M57.8,48.8c0.1,0,0.1,0,0.2,0.1l0.4,0.5c-0.2,0.3-0.5,0.5-0.9,0.7s-0.8,0.2-1.2,0.2c-0.4,0-0.8-0.1-1.2-0.2
		s-0.6-0.4-0.9-0.6c-0.2-0.3-0.4-0.6-0.6-0.9c-0.1-0.4-0.2-0.8-0.2-1.2c0-0.4,0.1-0.8,0.2-1.2s0.3-0.7,0.6-0.9
		c0.3-0.3,0.6-0.5,0.9-0.6s0.7-0.2,1.2-0.2c0.4,0,0.8,0.1,1.1,0.2c0.3,0.1,0.6,0.3,0.8,0.5L58,45.6c0,0,0,0.1-0.1,0.1
		c0,0-0.1,0-0.1,0c0,0-0.1,0-0.1,0c0,0-0.1-0.1-0.1-0.1s-0.1-0.1-0.2-0.1s-0.1-0.1-0.2-0.1c-0.1,0-0.2-0.1-0.3-0.1
		c-0.1,0-0.2,0-0.4,0c-0.3,0-0.5,0-0.7,0.1c-0.2,0.1-0.4,0.2-0.6,0.4c-0.2,0.2-0.3,0.4-0.4,0.6c-0.1,0.3-0.1,0.5-0.1,0.9
		c0,0.3,0,0.6,0.1,0.9c0.1,0.3,0.2,0.5,0.4,0.6c0.2,0.2,0.3,0.3,0.6,0.4c0.2,0.1,0.4,0.1,0.7,0.1c0.1,0,0.3,0,0.4,0
		c0.1,0,0.2,0,0.3-0.1c0.1,0,0.2-0.1,0.3-0.1c0.1-0.1,0.2-0.1,0.3-0.2C57.7,48.9,57.7,48.9,57.8,48.8C57.8,48.9,57.8,48.8,57.8,48.8
		z"/>
	<path class="st2" d="M60.2,45.3v1.6h2v0.8h-2v1.6h2.6v0.9h-3.6v-5.8h3.6v0.9H60.2z"/>
	<path class="st2" d="M68.8,45.5c0,0.1-0.1,0.1-0.1,0.1s-0.1,0-0.1,0c-0.1,0-0.1,0-0.2-0.1c-0.1,0-0.1-0.1-0.2-0.1
		c-0.1,0-0.2-0.1-0.3-0.1c-0.1,0-0.3-0.1-0.4-0.1c-0.1,0-0.3,0-0.4,0.1s-0.2,0.1-0.3,0.2c-0.1,0.1-0.1,0.1-0.2,0.2
		c0,0.1-0.1,0.2-0.1,0.3c0,0.1,0,0.2,0.1,0.3c0.1,0.1,0.2,0.2,0.3,0.2c0.1,0.1,0.3,0.1,0.4,0.2s0.3,0.1,0.5,0.2s0.3,0.1,0.5,0.2
		s0.3,0.2,0.4,0.3c0.1,0.1,0.2,0.3,0.3,0.4s0.1,0.4,0.1,0.6c0,0.3,0,0.5-0.1,0.7c-0.1,0.2-0.2,0.4-0.4,0.6c-0.2,0.2-0.4,0.3-0.6,0.4
		s-0.5,0.1-0.9,0.1c-0.2,0-0.4,0-0.5-0.1s-0.4-0.1-0.5-0.2c-0.2-0.1-0.3-0.1-0.5-0.2c-0.1-0.1-0.3-0.2-0.4-0.3l0.3-0.5
		c0,0,0.1-0.1,0.1-0.1c0,0,0.1,0,0.1,0c0.1,0,0.1,0,0.2,0.1c0.1,0.1,0.2,0.1,0.3,0.2c0.1,0.1,0.2,0.1,0.4,0.2
		c0.1,0.1,0.3,0.1,0.5,0.1c0.3,0,0.5-0.1,0.7-0.2s0.3-0.4,0.3-0.6c0-0.2,0-0.3-0.1-0.4c-0.1-0.1-0.2-0.2-0.3-0.2
		c-0.1-0.1-0.3-0.1-0.4-0.2c-0.2,0-0.3-0.1-0.5-0.1c-0.2-0.1-0.3-0.1-0.5-0.2c-0.2-0.1-0.3-0.2-0.4-0.3c-0.1-0.1-0.2-0.3-0.3-0.5
		c-0.1-0.2-0.1-0.4-0.1-0.7c0-0.2,0-0.4,0.1-0.6s0.2-0.4,0.4-0.5c0.2-0.2,0.4-0.3,0.6-0.4s0.5-0.1,0.8-0.1c0.3,0,0.7,0.1,0.9,0.2
		c0.3,0.1,0.5,0.3,0.7,0.4L68.8,45.5z"/>
	<path class="st2" d="M75,44.4v5.8h-1.1v-2.5h-2.7v2.5h-1.1v-5.8h1.1v2.5h2.7v-2.5H75z"/>
	<path class="st2" d="M77.3,45.3v1.6h2v0.8h-2v1.6h2.6v0.9h-3.6v-5.8h3.6v0.9H77.3z"/>
	<path class="st2" d="M81.9,45.3v1.6h2v0.8h-2v1.6h2.6v0.9h-3.6v-5.8h3.6v0.9H81.9z"/>
	<path class="st2" d="M89.5,45.3h-1.7v4.9h-1.1v-4.9h-1.7v-0.9h4.6V45.3z"/>
</g>
<rect x="86.6" y="43.6" class="st0" width="15.6" height="4.2"/>
<g class="st1">
	<path class="st2" d="M93.7,44.1h-0.9v2.5h-0.5v-2.5h-0.9v-0.4h2.3V44.1z"/>
	<path class="st2" d="M97.2,43.6v2.9h-0.5v-1.9c0-0.1,0-0.2,0-0.2l-0.9,1.6c0,0.1-0.1,0.1-0.2,0.1h-0.1c-0.1,0-0.1,0-0.2-0.1
		l-0.9-1.6c0,0,0,0.1,0,0.1c0,0,0,0.1,0,0.1v1.9h-0.5v-2.9h0.4c0,0,0,0,0.1,0c0,0,0,0,0,0c0,0,0,0,0,0c0,0,0,0,0,0l0.9,1.6
		c0,0,0,0.1,0.1,0.1c0,0,0,0.1,0.1,0.1c0,0,0-0.1,0.1-0.1c0,0,0-0.1,0.1-0.1l0.9-1.6c0,0,0,0,0,0c0,0,0,0,0,0c0,0,0,0,0,0
		c0,0,0,0,0.1,0H97.2z"/>
</g>
<g>
	<path class="st3" d="M53.4,8.5H36.6v31.1L59,39.4c1,0,1.8-0.8,1.9-1.9L61,16.1L53.4,8.5z M53.7,10.2l5.5,5.5h-5.5V10.2z M60,38.6
		H37.7V9.5h15.1v7.3H60V38.6z"/>
	<path class="st2" d="M55.3,19.4H47c-0.3,0-0.5,0.2-0.5,0.5s0.2,0.5,0.5,0.5c0,0,0,0,0.1,0h8.3c0.3,0,0.5-0.2,0.5-0.5
		S55.6,19.4,55.3,19.4L55.3,19.4z"/>
	<path class="st2" d="M55.3,25.1H47c-0.3,0-0.5,0.2-0.5,0.5s0.2,0.5,0.5,0.5c0,0,0,0,0.1,0h8.3c0.3,0,0.5-0.2,0.5-0.5
		C55.9,25.3,55.6,25.1,55.3,25.1L55.3,25.1z"/>
	<path class="st2" d="M51.3,30.8h-4.4c-0.2,0-0.3,0.2-0.3,0.5s0.1,0.5,0.3,0.5h4.4c0.2,0,0.3-0.2,0.3-0.5
		C51.5,31,51.4,30.8,51.3,30.8z"/>
	<path class="st4" d="M65.7,38.9h-2.2c-0.3,0-0.6-0.2-0.6-0.5V17.5v-0.1l1.1-4.5c0.1-0.3,0.5-0.5,0.8-0.3c0.1,0.1,0.3,0.2,0.3,0.3
		l1.1,4.5v0.1v20.9C66.3,38.7,66,38.9,65.7,38.9z"/>
	<polygon class="st5" points="42.7,19 41.5,20.2 41,19.6 40.6,19.9 41.6,20.8 43,19.4 	"/>
	<path class="st5" d="M41.8,17.6c-1.3,0-2.3,1-2.3,2.3s1,2.3,2.3,2.3s2.3-1,2.3-2.3S43.1,17.6,41.8,17.6L41.8,17.6z M41.8,21.8
		c-1.1,0-1.9-0.9-1.9-1.9c0-1.1,0.9-1.9,1.9-1.9c1.1,0,1.9,0.9,1.9,1.9C43.7,21,42.8,21.8,41.8,21.8L41.8,21.8L41.8,21.8z"/>
	<polygon class="st5" points="42.7,24.7 41.5,25.9 41,25.3 40.6,25.6 41.6,26.5 43,25.1 	"/>
	<path class="st5" d="M41.8,23.3c-1.3,0-2.3,1-2.3,2.3s1,2.3,2.3,2.3s2.3-1,2.3-2.3S43.1,23.3,41.8,23.3L41.8,23.3z M41.8,27.5
		c-1.1,0-1.9-0.9-1.9-1.9c0-1.1,0.9-1.9,1.9-1.9c1.1,0,1.9,0.9,1.9,1.9C43.7,26.7,42.8,27.5,41.8,27.5L41.8,27.5L41.8,27.5z"/>
	<polygon class="st5" points="42.7,30.4 41.5,31.5 41,31 40.6,31.3 41.6,32.2 43,30.8 	"/>
	<path class="st5" d="M41.8,28.9c-1.3,0-2.3,1-2.3,2.3s1,2.3,2.3,2.3s2.3-1,2.3-2.3C44.1,30,43.1,28.9,41.8,28.9L41.8,28.9z
		 M41.8,33.2c-1.1,0-1.9-0.9-1.9-1.9c0-1.1,0.9-1.9,1.9-1.9c1.1,0,1.9,0.9,1.9,1.9C43.7,32.3,42.8,33.2,41.8,33.2L41.8,33.2z"/>
</g>
</svg>
