<?xml version="1.0" encoding="utf-8"?>
<!-- Generator: Adobe Illustrator 21.1.0, SVG Export Plug-In . SVG Version: 6.00 Build 0)  -->
<svg version="1.1" id="Calque_1" xmlns="http://www.w3.org/2000/svg" xmlns:xlink="http://www.w3.org/1999/xlink" x="0px" y="0px"
	 viewBox="0 0 60 60" style="enable-background:new 0 0 60 60;" xml:space="preserve">
<style type="text/css">
	.st0{fill:none;}
	.st1{enable-background:new    ;}
	.st2{fill:#203D59;}
	.st3{fill:#5A9DD6;stroke:#5A9DD6;stroke-miterlimit:10;}
</style>
<rect x="4.1" y="43.9" class="st0" width="51" height="7"/>
<g class="st1">
	<path class="st2" d="M18.1,48.5c0.1,0,0.1,0,0.2,0.1l0.4,0.5c-0.2,0.3-0.5,0.5-0.9,0.7s-0.8,0.2-1.2,0.2c-0.4,0-0.8-0.1-1.2-0.2
		s-0.6-0.4-0.9-0.6c-0.2-0.3-0.4-0.6-0.6-0.9s-0.2-0.8-0.2-1.2c0-0.4,0.1-0.8,0.2-1.2s0.3-0.7,0.6-0.9c0.3-0.3,0.6-0.5,0.9-0.6
		c0.3-0.1,0.7-0.2,1.2-0.2c0.4,0,0.8,0.1,1.1,0.2s0.6,0.3,0.8,0.5l-0.4,0.5c0,0,0,0.1-0.1,0.1c0,0-0.1,0-0.1,0c0,0-0.1,0-0.1,0
		s-0.1-0.1-0.1-0.1s-0.1-0.1-0.2-0.1c-0.1,0-0.1-0.1-0.2-0.1c-0.1,0-0.2-0.1-0.3-0.1c-0.1,0-0.2,0-0.4,0c-0.3,0-0.5,0-0.7,0.1
		c-0.2,0.1-0.4,0.2-0.6,0.4c-0.2,0.2-0.3,0.4-0.4,0.6c-0.1,0.3-0.1,0.5-0.1,0.9c0,0.3,0,0.6,0.1,0.9c0.1,0.3,0.2,0.5,0.4,0.6
		c0.2,0.2,0.3,0.3,0.6,0.4c0.2,0.1,0.4,0.1,0.7,0.1c0.1,0,0.3,0,0.4,0s0.2,0,0.3-0.1c0.1,0,0.2-0.1,0.3-0.1s0.2-0.1,0.3-0.2
		C18,48.5,18,48.5,18.1,48.5C18,48.5,18.1,48.5,18.1,48.5z"/>
	<path class="st2" d="M19.2,47h2.1v0.8h-2.1V47z"/>
	<path class="st2" d="M26.9,49.8h-1c-0.2,0-0.3-0.1-0.4-0.2l-1.2-1.9c0-0.1-0.1-0.1-0.1-0.1s-0.1,0-0.2,0h-0.5v2.3h-1.1v-5.8h1.8
		c0.4,0,0.7,0,1,0.1s0.5,0.2,0.7,0.3c0.2,0.1,0.3,0.3,0.4,0.5c0.1,0.2,0.1,0.4,0.1,0.7c0,0.2,0,0.4-0.1,0.6
		c-0.1,0.2-0.1,0.3-0.2,0.5c-0.1,0.1-0.2,0.3-0.4,0.4c-0.2,0.1-0.3,0.2-0.5,0.3c0.1,0,0.1,0.1,0.2,0.1c0.1,0.1,0.1,0.1,0.2,0.2
		L26.9,49.8z M24.2,46.8c0.2,0,0.4,0,0.5-0.1c0.2,0,0.3-0.1,0.4-0.2c0.1-0.1,0.2-0.2,0.2-0.3c0-0.1,0.1-0.3,0.1-0.4
		c0-0.3-0.1-0.5-0.3-0.7s-0.5-0.2-0.9-0.2h-0.7v1.9H24.2z"/>
	<path class="st2" d="M29.8,49c0.2,0,0.4,0,0.6-0.1c0.2-0.1,0.3-0.2,0.4-0.3c0.1-0.1,0.2-0.3,0.3-0.5c0.1-0.2,0.1-0.4,0.1-0.6v-3.5
		h1.1v3.5c0,0.3-0.1,0.7-0.2,1s-0.3,0.5-0.5,0.8c-0.2,0.2-0.5,0.4-0.8,0.5c-0.3,0.1-0.6,0.2-1,0.2c-0.4,0-0.7-0.1-1-0.2
		c-0.3-0.1-0.5-0.3-0.8-0.5s-0.4-0.5-0.5-0.8c-0.1-0.3-0.2-0.6-0.2-1v-3.5h1.1v3.5c0,0.2,0,0.4,0.1,0.6c0.1,0.2,0.1,0.3,0.3,0.5
		c0.1,0.1,0.3,0.2,0.4,0.3S29.6,49,29.8,49z"/>
	<path class="st2" d="M36.8,48.9v0.9h-3.4v-5.8h1.1v4.9H36.8z"/>
	<path class="st2" d="M38.7,44.9v1.6h2v0.8h-2V49h2.6v0.9h-3.6v-5.8h3.6v0.9H38.7z"/>
	<path class="st2" d="M45.3,45.1c0,0.1-0.1,0.1-0.1,0.1s-0.1,0-0.1,0c-0.1,0-0.1,0-0.2-0.1c-0.1,0-0.1-0.1-0.2-0.1
		c-0.1,0-0.2-0.1-0.3-0.1c-0.1,0-0.3-0.1-0.4-0.1c-0.1,0-0.3,0-0.4,0.1c-0.1,0-0.2,0.1-0.3,0.2c-0.1,0.1-0.1,0.1-0.2,0.2
		c0,0.1-0.1,0.2-0.1,0.3c0,0.1,0,0.2,0.1,0.3c0.1,0.1,0.2,0.2,0.3,0.2c0.1,0.1,0.3,0.1,0.4,0.2s0.3,0.1,0.5,0.2
		c0.2,0.1,0.3,0.1,0.5,0.2s0.3,0.2,0.4,0.3c0.1,0.1,0.2,0.3,0.3,0.4s0.1,0.4,0.1,0.6c0,0.3,0,0.5-0.1,0.7c-0.1,0.2-0.2,0.4-0.4,0.6
		c-0.2,0.2-0.4,0.3-0.6,0.4s-0.5,0.1-0.9,0.1c-0.2,0-0.4,0-0.5-0.1s-0.3-0.1-0.5-0.2c-0.2-0.1-0.3-0.1-0.5-0.2
		c-0.1-0.1-0.3-0.2-0.4-0.3l0.3-0.5c0,0,0.1-0.1,0.1-0.1c0,0,0.1,0,0.1,0c0.1,0,0.1,0,0.2,0.1s0.2,0.1,0.3,0.2s0.2,0.1,0.4,0.2
		c0.1,0.1,0.3,0.1,0.5,0.1c0.3,0,0.5-0.1,0.7-0.2s0.3-0.4,0.3-0.6c0-0.2,0-0.3-0.1-0.4c-0.1-0.1-0.2-0.2-0.3-0.2
		c-0.1-0.1-0.3-0.1-0.4-0.2c-0.2,0-0.3-0.1-0.5-0.1c-0.2-0.1-0.3-0.1-0.5-0.2c-0.2-0.1-0.3-0.2-0.4-0.3c-0.1-0.1-0.2-0.3-0.3-0.5
		C42,46.1,42,45.9,42,45.6c0-0.2,0-0.4,0.1-0.6s0.2-0.4,0.4-0.5s0.4-0.3,0.6-0.4c0.2-0.1,0.5-0.1,0.8-0.1c0.3,0,0.7,0.1,0.9,0.2
		c0.3,0.1,0.5,0.3,0.7,0.4L45.3,45.1z"/>
</g>
<rect x="41.6" y="43.4" class="st0" width="15.6" height="6.5"/>
<g class="st1">
	<path class="st2" d="M48.7,43.9h-0.9v2.5h-0.5v-2.5h-0.9v-0.4h2.3V43.9z"/>
	<path class="st2" d="M52.2,43.4v2.9h-0.5v-1.9c0-0.1,0-0.2,0-0.2l-0.9,1.6c0,0.1-0.1,0.1-0.2,0.1h-0.1c-0.1,0-0.1,0-0.2-0.1
		l-0.9-1.6c0,0,0,0.1,0,0.1c0,0,0,0.1,0,0.1v1.9h-0.5v-2.9h0.4c0,0,0,0,0.1,0c0,0,0,0,0,0c0,0,0,0,0,0c0,0,0,0,0,0l0.9,1.6
		c0,0,0,0.1,0.1,0.1c0,0,0,0.1,0.1,0.1c0,0,0-0.1,0.1-0.1c0,0,0-0.1,0.1-0.1l0.9-1.6c0,0,0,0,0,0c0,0,0,0,0,0c0,0,0,0,0,0
		c0,0,0,0,0.1,0H52.2z"/>
</g>
<path class="st2" d="M27.1,25.3l-0.6-0.5l6.5-6.9l0.6,0.5L27.1,25.3z M36.9,14.7l-1.4-1.3l-3.1,3.3l1.4,1.3L36.9,14.7z M25.7,26.7
	l1-1.1l-1.4-1.3l-1,1.1L24.1,27h-1v1h14v-1H24.6L25.7,26.7z M32.7,17.6l-0.6-0.5L25.7,24l0.6,0.5L32.7,17.6z M41.9,9v28.9
	c0,0.7-0.6,1.3-1.3,1.3H19.4c-0.7,0-1.3-0.6-1.3-1.3V9c0-0.7,0.6-1.3,1.3-1.3h21.2C41.3,7.7,41.9,8.3,41.9,9L41.9,9z M30.9,37.9
	c0-0.5-0.4-0.9-0.9-0.9s-0.9,0.4-0.9,0.9s0.4,0.9,0.9,0.9C30.5,38.9,30.9,38.5,30.9,37.9z M39.3,10.3H25v3.3l-1-0.9l-1,0.9v-3.3
	h-2.3v26.3h18.6L39.3,10.3z M23,32h14v-1H23V32z"/>
<rect x="22.9" y="30.9" class="st3" width="14.1" height="1"/>
<rect x="22.9" y="27" class="st3" width="14.1" height="1.2"/>
</svg>
