<svg id="Calque_1" data-name="Calque 1" xmlns="http://www.w3.org/2000/svg" viewBox="0 0 60 60"><defs><style>.cls-1{fill:#203d59;}.cls-2{fill:#1b1b1b;}.cls-3{fill:#f4f1f0;}.cls-4{fill:#5a9dd6;}</style></defs><title>Plan de travail 1 copie 6</title><path class="cls-1" d="M14.79,42.69a.19.19,0,0,1,.14.06l.37.4a2,2,0,0,1-.76.58,2.61,2.61,0,0,1-1.08.2,2.55,2.55,0,0,1-1-.19,2.22,2.22,0,0,1-.77-.54,2.34,2.34,0,0,1-.49-.82,3.07,3.07,0,0,1-.17-1,2.89,2.89,0,0,1,.18-1,2.4,2.4,0,0,1,.51-.82,2.32,2.32,0,0,1,.79-.53,2.62,2.62,0,0,1,1-.19,2.5,2.5,0,0,1,1,.18,2.35,2.35,0,0,1,.73.48l-.31.44-.07.07a.2.2,0,0,1-.12,0l-.11,0-.12-.07-.15-.1-.2-.1-.27-.07a1.83,1.83,0,0,0-.35,0,1.56,1.56,0,0,0-.62.12,1.35,1.35,0,0,0-.48.35,1.6,1.6,0,0,0-.31.56,2.34,2.34,0,0,0-.11.75,2.23,2.23,0,0,0,.12.76,1.67,1.67,0,0,0,.33.56,1.4,1.4,0,0,0,.49.35,1.5,1.5,0,0,0,.6.12l.35,0a1.46,1.46,0,0,0,.29-.07,1.27,1.27,0,0,0,.25-.12,1.55,1.55,0,0,0,.23-.18l.07-.05Z"/><path class="cls-1" d="M18,43.13a1.25,1.25,0,0,0,.49-.09,1,1,0,0,0,.36-.26,1.14,1.14,0,0,0,.23-.4,1.64,1.64,0,0,0,.08-.52v-3h.94v3a2.34,2.34,0,0,1-.15.83,1.85,1.85,0,0,1-1.08,1.1,2.55,2.55,0,0,1-1.75,0A1.85,1.85,0,0,1,16,42.69a2.34,2.34,0,0,1-.15-.83v-3h.94v3a1.65,1.65,0,0,0,.08.53,1.14,1.14,0,0,0,.23.4,1,1,0,0,0,.36.26A1.25,1.25,0,0,0,18,43.13Z"/><path class="cls-1" d="M23.84,39.75a.32.32,0,0,1-.09.11.2.2,0,0,1-.12,0,.3.3,0,0,1-.16-.05l-.2-.12a1.66,1.66,0,0,0-.28-.12,1.17,1.17,0,0,0-.38-.05,1.12,1.12,0,0,0-.34,0,.71.71,0,0,0-.25.13.52.52,0,0,0-.15.2.66.66,0,0,0,0,.26.45.45,0,0,0,.1.3.83.83,0,0,0,.26.2,2.52,2.52,0,0,0,.37.15L23,41l.43.18a1.49,1.49,0,0,1,.37.25,1.14,1.14,0,0,1,.26.37,1.3,1.3,0,0,1,.1.54,1.74,1.74,0,0,1-.12.64,1.47,1.47,0,0,1-.34.52,1.61,1.61,0,0,1-.55.35,2,2,0,0,1-.75.13,2.42,2.42,0,0,1-.48,0,2.55,2.55,0,0,1-.45-.13,2.4,2.4,0,0,1-.4-.21,1.94,1.94,0,0,1-.34-.27l.28-.45a.29.29,0,0,1,.09-.08.23.23,0,0,1,.12,0,.34.34,0,0,1,.19.07l.24.16a1.91,1.91,0,0,0,.33.16,1.26,1.26,0,0,0,.45.07.92.92,0,0,0,.62-.19.68.68,0,0,0,.22-.55.51.51,0,0,0-.1-.33.8.8,0,0,0-.26-.21,2,2,0,0,0-.37-.15l-.43-.13a3.6,3.6,0,0,1-.43-.17,1.38,1.38,0,0,1-.37-.26,1.16,1.16,0,0,1-.26-.39,1.5,1.5,0,0,1-.1-.58,1.39,1.39,0,0,1,.11-.54,1.4,1.4,0,0,1,.32-.47,1.58,1.58,0,0,1,.52-.33,1.91,1.91,0,0,1,.71-.12,2.36,2.36,0,0,1,.83.14,1.87,1.87,0,0,1,.64.39Z"/><path class="cls-1" d="M28.52,39.6H27v4.29H26V39.6H24.52v-.77h4Z"/><path class="cls-1" d="M33.84,41.36a2.83,2.83,0,0,1-.18,1,2.41,2.41,0,0,1-.52.82,2.36,2.36,0,0,1-.81.54,2.92,2.92,0,0,1-2.1,0,2.38,2.38,0,0,1-.81-.54,2.43,2.43,0,0,1-.52-.82,3,3,0,0,1,0-2.06,2.42,2.42,0,0,1,.52-.82,2.38,2.38,0,0,1,.81-.54,2.73,2.73,0,0,1,1-.19,2.84,2.84,0,0,1,.72.09,2.55,2.55,0,0,1,.62.25,2.31,2.31,0,0,1,.51.4,2.39,2.39,0,0,1,.38.52,2.54,2.54,0,0,1,.24.62A3,3,0,0,1,33.84,41.36Zm-1,0a2.32,2.32,0,0,0-.11-.75,1.6,1.6,0,0,0-.32-.56,1.36,1.36,0,0,0-.5-.35,1.87,1.87,0,0,0-1.33,0,1.37,1.37,0,0,0-.5.35,1.59,1.59,0,0,0-.32.56,2.55,2.55,0,0,0,0,1.49,1.57,1.57,0,0,0,.32.56,1.39,1.39,0,0,0,.5.35,1.87,1.87,0,0,0,1.33,0,1.37,1.37,0,0,0,.5-.35,1.59,1.59,0,0,0,.32-.56A2.32,2.32,0,0,0,32.88,41.36Z"/><path class="cls-1" d="M40.16,38.83v5.06h-.83V40.62c0-.13,0-.27,0-.42l-1.53,2.87a.35.35,0,0,1-.33.21h-.13a.35.35,0,0,1-.33-.21l-1.55-2.88c0,.08,0,.15,0,.23s0,.14,0,.21v3.27h-.83V38.83h.82l.08,0,.07,0,.06.08,1.52,2.81.11.23.1.25.1-.25.11-.23L39.13,39l.06-.08.07,0,.08,0h.82Z"/><path class="cls-1" d="M42.23,39.58V41H44v.72H42.23v1.43h2.25v.75H41.28V38.83h3.19v.75Z"/><path class="cls-1" d="M49.26,43.89h-.85a.37.37,0,0,1-.35-.19L47,42.08a.37.37,0,0,0-.13-.13.46.46,0,0,0-.21,0h-.4v2h-.94V38.83h1.54a3.2,3.2,0,0,1,.88.11,1.69,1.69,0,0,1,.61.3,1.17,1.17,0,0,1,.35.46,1.51,1.51,0,0,1,.11.59,1.54,1.54,0,0,1-.08.48,1.39,1.39,0,0,1-.22.41,1.45,1.45,0,0,1-.35.33,1.76,1.76,0,0,1-.47.22l.17.12A.9.9,0,0,1,48,42Zm-2.42-2.65a1.45,1.45,0,0,0,.46-.07.89.89,0,0,0,.33-.18.75.75,0,0,0,.19-.28,1,1,0,0,0,.06-.35.72.72,0,0,0-.25-.59,1.21,1.21,0,0,0-.78-.21h-.6v1.68Z"/><g id="_3" data-name=" 3"><path class="cls-2" d="M39.85,10.21H20.15a.58.58,0,0,0-.58.58V24a.62.62,0,0,0,.58.65h4.46l.48-.19,1-.38c.73-.31,1.18-.51,1.43-.63V22.7a2.86,2.86,0,0,1-.37-.62H20.74V11.65H39.21V22.08H32.88a2.88,2.88,0,0,1-.37.62v.77c.26.12.7.33,1.43.63l1,.38.48.19h4.46a.62.62,0,0,0,.58-.65V10.79A.58.58,0,0,0,39.85,10.21Z"/><path class="cls-3" d="M37.12,26.44c-.45-.69-1.94-1.13-3.42-1.74l-.08,0a16.79,16.79,0,0,1-1.75-.8V22.45a1.4,1.4,0,0,0,.29-.37,3.59,3.59,0,0,0,.44-1.39c.35.1.71-.52.73-.84s0-1.18-.47-1.1A8.72,8.72,0,0,0,33,17.2a2.84,2.84,0,0,0-3-2.34,2.83,2.83,0,0,0-3,2.34,8.73,8.73,0,0,0,.12,1.55c-.42-.09-.49.78-.47,1.1s.38.94.73.84a3.58,3.58,0,0,0,.43,1.39,1.4,1.4,0,0,0,.29.37v1.42a16.79,16.79,0,0,1-1.75.8l-.08,0c-1.48.62-3,1-3.42,1.74a7.39,7.39,0,0,0-.28,2.74H37.4A7.39,7.39,0,0,0,37.12,26.44Z"/><polygon class="cls-4" points="22.26 14.02 23.09 14.85 22.26 15.68 22.61 16.04 23.8 14.85 22.61 13.66 22.26 14.02"/><rect class="cls-4" x="24.45" y="14.35" width="1.51" height="0.5"/><path class="cls-2" d="M38.75,30.37H21.22s-.55-3.23,0-3.76c2.75-2.65,14.43-2.41,17.52,0C39.37,27.1,38.75,30.37,38.75,30.37Z"/></g><path class="cls-1" d="M50.85,39.05h-.44v1.23h-.27V39.05h-.44v-.22h1.14Z"/><path class="cls-1" d="M52.61,38.83v1.45h-.24v-.93s0-.08,0-.12l-.44.82a.1.1,0,0,1-.1.06h0a.1.1,0,0,1-.1-.06l-.44-.82v.06s0,0,0,.06v.93H51V38.83h.28l0,0,.43.8,0,.07,0,.07,0-.07,0-.07.43-.8,0,0h.28Z"/></svg>