<?xml version="1.0" encoding="utf-8"?>
<!-- Generator: Adobe Illustrator 21.1.0, SVG Export Plug-In . SVG Version: 6.00 Build 0)  -->
<svg version="1.1" id="Calque_1" xmlns="http://www.w3.org/2000/svg" xmlns:xlink="http://www.w3.org/1999/xlink" x="0px" y="0px"
	 viewBox="0 0 60 60" style="enable-background:new 0 0 60 60;" xml:space="preserve">
<style type="text/css">
	.st0{enable-background:new    ;}
	.st1{fill:#FFFFFF;}
	.st2{fill:none;}
	.st3{fill:#5A9DD6;}
</style>
<title>Plan de travail 7 copie</title>
<g class="st0">
	<path class="st1" d="M11.9,47c0,0.4-0.1,0.8-0.2,1.2c-0.1,0.4-0.3,0.7-0.6,0.9c-0.3,0.3-0.6,0.5-0.9,0.6c-0.4,0.1-0.8,0.2-1.2,0.2
		H6.8v-5.8H9c0.4,0,0.8,0.1,1.2,0.2c0.4,0.1,0.7,0.3,0.9,0.6c0.3,0.3,0.5,0.6,0.6,0.9C11.8,46.2,11.9,46.6,11.9,47z M10.8,47
		c0-0.3,0-0.6-0.1-0.9s-0.2-0.5-0.4-0.6s-0.4-0.3-0.6-0.4C9.5,45,9.2,45,9,45H7.8V49H9c0.3,0,0.5,0,0.8-0.1c0.2-0.1,0.4-0.2,0.6-0.4
		c0.2-0.2,0.3-0.4,0.4-0.6S10.8,47.3,10.8,47z"/>
</g>
<g class="st0">
	<path class="st1" d="M17.5,49.9h-0.8c-0.1,0-0.2,0-0.2-0.1c-0.1,0-0.1-0.1-0.1-0.2l-0.4-1.2h-2.4L13,49.6c0,0.1-0.1,0.1-0.1,0.2
		s-0.1,0.1-0.2,0.1h-0.8l2.3-5.8h1.1L17.5,49.9z M15.6,47.7l-0.7-1.9c0-0.1-0.1-0.2-0.1-0.3c0-0.1-0.1-0.2-0.1-0.4
		c0,0.1-0.1,0.3-0.1,0.4c0,0.1-0.1,0.2-0.1,0.3l-0.7,1.9H15.6z"/>
	<path class="st1" d="M21,45h-1.7v4.9h-1.1V45h-1.7v-0.9H21V45z"/>
</g>
<g class="st0">
	<path class="st1" d="M26.8,49.9h-0.8c-0.1,0-0.2,0-0.2-0.1c-0.1,0-0.1-0.1-0.1-0.2l-0.4-1.2h-2.4l-0.4,1.2c0,0.1-0.1,0.1-0.1,0.2
		s-0.1,0.1-0.2,0.1h-0.8l2.3-5.8h1.1L26.8,49.9z M24.9,47.7l-0.7-1.9c0-0.1-0.1-0.2-0.1-0.3c0-0.1-0.1-0.2-0.1-0.4
		c0,0.1-0.1,0.3-0.1,0.4c0,0.1-0.1,0.2-0.1,0.3L23,47.7H24.9z"/>
	<path class="st1" d="M29.3,44.1c0.4,0,0.7,0,1,0.1c0.3,0.1,0.5,0.2,0.7,0.3c0.2,0.1,0.3,0.3,0.4,0.5s0.1,0.4,0.1,0.6
		c0,0.1,0,0.3-0.1,0.4c0,0.1-0.1,0.2-0.2,0.3c-0.1,0.1-0.2,0.2-0.3,0.3s-0.3,0.2-0.5,0.2c0.8,0.2,1.2,0.6,1.2,1.3
		c0,0.2,0,0.5-0.1,0.7c-0.1,0.2-0.2,0.4-0.4,0.5c-0.2,0.2-0.4,0.3-0.7,0.4c-0.3,0.1-0.6,0.1-0.9,0.1h-2.2v-5.8H29.3z M28.4,44.9v1.7
		h0.9c0.4,0,0.6-0.1,0.8-0.2c0.2-0.1,0.3-0.3,0.3-0.6c0-0.3-0.1-0.5-0.3-0.6c-0.2-0.1-0.4-0.2-0.8-0.2H28.4z M29.5,49
		c0.2,0,0.4,0,0.5-0.1s0.2-0.1,0.3-0.2c0.1-0.1,0.1-0.2,0.2-0.3s0.1-0.2,0.1-0.3c0-0.1,0-0.2-0.1-0.3c0-0.1-0.1-0.2-0.2-0.3
		c-0.1-0.1-0.2-0.1-0.3-0.2c-0.1,0-0.3-0.1-0.5-0.1h-1.1V49H29.5z"/>
	<path class="st1" d="M37.5,49.9h-0.8c-0.1,0-0.2,0-0.2-0.1c-0.1,0-0.1-0.1-0.1-0.2l-0.4-1.2h-2.4L33,49.6c0,0.1-0.1,0.1-0.1,0.2
		s-0.1,0.1-0.2,0.1h-0.8l2.3-5.8h1.1L37.5,49.9z M35.6,47.7l-0.7-1.9c0-0.1-0.1-0.2-0.1-0.3c0-0.1-0.1-0.2-0.1-0.4
		c0,0.1-0.1,0.3-0.1,0.4c0,0.1-0.1,0.2-0.1,0.3l-0.7,1.9H35.6z"/>
	<path class="st1" d="M41.2,45.1c0,0.1-0.1,0.1-0.1,0.1s-0.1,0-0.1,0c-0.1,0-0.1,0-0.2-0.1c-0.1,0-0.1-0.1-0.2-0.1
		c-0.1,0-0.2-0.1-0.3-0.1c-0.1,0-0.3-0.1-0.4-0.1c-0.1,0-0.3,0-0.4,0.1s-0.2,0.1-0.3,0.2c-0.1,0.1-0.1,0.1-0.2,0.2
		c0,0.1-0.1,0.2-0.1,0.3c0,0.1,0,0.2,0.1,0.3c0.1,0.1,0.2,0.2,0.3,0.2c0.1,0.1,0.3,0.1,0.4,0.2s0.3,0.1,0.5,0.2s0.3,0.1,0.5,0.2
		s0.3,0.2,0.4,0.3c0.1,0.1,0.2,0.3,0.3,0.4s0.1,0.4,0.1,0.6c0,0.3,0,0.5-0.1,0.7c-0.1,0.2-0.2,0.4-0.4,0.6c-0.2,0.2-0.4,0.3-0.6,0.4
		s-0.5,0.1-0.9,0.1c-0.2,0-0.4,0-0.5-0.1s-0.4-0.1-0.5-0.2c-0.2-0.1-0.3-0.1-0.5-0.2c-0.1-0.1-0.3-0.2-0.4-0.3l0.3-0.5
		c0,0,0.1-0.1,0.1-0.1c0,0,0.1,0,0.1,0c0.1,0,0.1,0,0.2,0.1c0.1,0.1,0.2,0.1,0.3,0.2c0.1,0.1,0.2,0.1,0.4,0.2
		c0.1,0.1,0.3,0.1,0.5,0.1c0.3,0,0.5-0.1,0.7-0.2s0.3-0.4,0.3-0.6c0-0.2,0-0.3-0.1-0.4c-0.1-0.1-0.2-0.2-0.3-0.2
		c-0.1-0.1-0.3-0.1-0.4-0.2c-0.2,0-0.3-0.1-0.5-0.1c-0.2-0.1-0.3-0.1-0.5-0.2c-0.2-0.1-0.3-0.2-0.4-0.3c-0.1-0.1-0.2-0.3-0.3-0.5
		c-0.1-0.2-0.1-0.4-0.1-0.7c0-0.2,0-0.4,0.1-0.6s0.2-0.4,0.4-0.5c0.2-0.2,0.4-0.3,0.6-0.4s0.5-0.1,0.8-0.1c0.3,0,0.7,0.1,0.9,0.2
		c0.3,0.1,0.5,0.3,0.7,0.4L41.2,45.1z"/>
	<path class="st1" d="M43.5,45v1.6h2v0.8h-2V49h2.6v0.9h-3.6v-5.8h3.6V45H43.5z"/>
</g>
<rect x="0.9" y="43.9" class="st2" width="47" height="7"/>
<g class="st0">
	<path class="st1" d="M51.4,43.9h-0.9v2.5H50v-2.5h-0.9v-0.4h2.3V43.9z"/>
	<path class="st1" d="M54.9,43.4v2.9h-0.5v-1.9c0-0.1,0-0.2,0-0.2l-0.9,1.6c0,0.1-0.1,0.1-0.2,0.1h-0.1c-0.1,0-0.1,0-0.2-0.1
		l-0.9-1.6c0,0,0,0.1,0,0.1c0,0,0,0.1,0,0.1v1.9h-0.5v-2.9h0.4c0,0,0,0,0.1,0c0,0,0,0,0,0c0,0,0,0,0,0c0,0,0,0,0,0l0.9,1.6
		c0,0,0,0.1,0.1,0.1c0,0,0,0.1,0.1,0.1c0,0,0-0.1,0.1-0.1c0,0,0-0.1,0.1-0.1l0.9-1.6c0,0,0,0,0,0c0,0,0,0,0,0c0,0,0,0,0,0
		c0,0,0,0,0.1,0H54.9z"/>
</g>
<path class="st3" d="M30,29.9l-1.8-0.6l0,0c0-0.2,0-0.4,0-0.7l0.3-0.1L30,28c0.2-0.1,0.3-0.3,0.3-0.5L30,26.3c0-0.2-0.2-0.3-0.4-0.3
	h-0.4L27.7,26c-0.1-0.2-0.2-0.4-0.2-0.6l1.5-1.2c0.2-0.1,0.2-0.4,0.1-0.5l-0.2-0.3l-0.5-0.9c-0.1-0.1-0.2-0.2-0.4-0.2h-0.1l-1.9,0.9
	c-0.1-0.1-0.2-0.2-0.4-0.4l1-1.7c0.1-0.2,0.1-0.4-0.1-0.5l-1-0.8c-0.2-0.1-0.3,0-0.4,0.1l-0.1,0.1L24,21l-0.6,0.6l0,0h-0.1l0.2-2.1
	c0-0.2-0.1-0.4-0.3-0.5c0,0,0,0-0.1,0l-0.7-0.2l-0.5-0.1h-0.1c-0.1,0-0.2,0-0.3,0c-0.1,0.1-0.2,0.1-0.2,0.2l-0.4,1.2L20.6,21h-0.4
	v-0.1l-0.3-1l0,0l-0.4-1c0-0.1-0.1-0.1-0.1-0.2c-0.1-0.1-0.2-0.1-0.3-0.1l-1.3,0.3c-0.2,0-0.3,0.2-0.3,0.4l0.2,2.1l-0.4,0.1l0,0
	l-1.4-1.6c-0.1-0.2-0.4-0.2-0.5-0.1l-1.1,0.7C14,20.7,14,20.8,14,21l1,1.9l-0.4,0.3l0,0l-1.9-1c-0.2-0.1-0.4-0.1-0.5,0.1l-0.8,1.1
	c-0.1,0.2-0.1,0.4,0.1,0.5l0.9,0.9l0.7,0.6l0,0c-0.1,0.2-0.1,0.3-0.2,0.5l0,0l-2.2-0.2c-0.2,0-0.4,0.1-0.4,0.3L10,27.3
	c0,0.2,0.1,0.4,0.3,0.5l2,0.7l0,0c0,0.2,0,0.3,0,0.5l0,0l-2.1,0.7c-0.2,0.1-0.3,0.3-0.3,0.5l0.2,1.3c0,0.2,0.2,0.3,0.4,0.3l2.2-0.1
	c0.1,0.2,0.1,0.3,0.2,0.5l-0.2,0.1l-1.5,1.2c-0.2,0.1-0.2,0.4-0.1,0.5l0.7,1.1c0.1,0.2,0.3,0.2,0.5,0.1l1.9-0.9
	c0.1,0.1,0.2,0.2,0.3,0.4l-0.4,0.7l-0.6,1.1c-0.1,0.2-0.1,0.4,0.1,0.5l1.1,0.8c0.2,0.1,0.4,0.1,0.5-0.1l1.4-1.5l0.5,0.2l-0.2,2
	c0,0.2,0.1,0.4,0.3,0.4l1.1,0.2h0.2c0.2,0,0.4-0.1,0.5-0.3l0.5-1.3l0.2-0.7h0.3l0.4,1.2l0.1,0.4l0.1,0.3c0.1,0.2,0.3,0.3,0.5,0.3
	l1.3-0.2c0.1,0,0.1,0,0.2-0.1c0.1-0.1,0.1-0.2,0.1-0.3v-0.8v-0.7v-0.4l0.1,0l0.4-0.2v0l1.2,1.4c0.1,0.2,0.4,0.2,0.5,0.1l1.1-0.7
	c0.2-0.1,0.2-0.3,0.1-0.5L25.4,35c0.2-0.1,0.3-0.3,0.5-0.4l1.7,0.9c0.2,0.1,0.4,0.1,0.5-0.1l0.8-1.1c0.1-0.2,0.1-0.4-0.1-0.5
	l-1.4-1.4c0.1-0.2,0.2-0.4,0.2-0.6l1.9,0.2c0.2,0,0.4-0.1,0.4-0.3l0.3-1.3C30.3,30.2,30.2,30,30,29.9z M26,27.5
	c0.5,1.9,0,3.9-1.3,5.3l-1.5-1.4L23,31.2c0.1-0.1,0.1-0.2,0.2-0.4c0.5-0.8,0.7-1.7,0.5-2.7L26,27.5z M25.6,26.3L23.5,27l-0.2,0.1
	c-0.2-0.3-0.4-0.5-0.6-0.8c-0.2-0.2-0.5-0.4-0.8-0.6l-0.3-0.1l0.5-2.1v-0.2C23.6,23.7,24.9,24.9,25.6,26.3L25.6,26.3z M19.9,30.5
	c-0.8-0.2-1.4-1-1.2-1.9s1-1.4,1.9-1.2c0.3,0.1,0.5,0.2,0.7,0.4c0.2,0.2,0.3,0.4,0.4,0.6c0.1,0.3,0.1,0.6,0.1,0.9
	c-0.1,0.4-0.3,0.8-0.7,1C20.7,30.5,20.2,30.6,19.9,30.5L19.9,30.5z M19,23.1c0.6-0.1,1.3-0.1,1.9-0.1l-0.5,2.4
	c-0.5,0-1.1,0.1-1.5,0.3c-0.2,0.1-0.5,0.2-0.7,0.4l-1.8-1.6C17.1,23.7,18,23.3,19,23.1z M14.4,30.5c-0.3-0.9-0.3-1.9-0.1-2.9
	c0.2-0.9,0.6-1.7,1.2-2.5l1.8,1.6c-0.6,0.9-0.8,2-0.6,3l-0.9,0.3L14.4,30.5z M15.3,32.3c-0.2-0.2-0.3-0.4-0.4-0.7l1.1-0.3l1.3-0.4
	c0.3,0.4,0.7,0.8,1.1,1c0.2,0.1,0.3,0.2,0.5,0.2l-0.5,2.3c-0.5-0.2-1-0.4-1.4-0.7C16.3,33.5,15.7,32.9,15.3,32.3L15.3,32.3z
	 M23,34.2c-0.7,0.4-1.5,0.6-2.3,0.7h-0.1c-0.3,0-0.6,0-0.9,0h-0.2l0.5-2.3c0.2,0,0.4,0,0.7,0h0.2c0.2,0,0.3-0.1,0.5-0.1
	c0.2-0.1,0.5-0.2,0.7-0.3l1,0.9l0.8,0.7C23.6,34,23.3,34.2,23,34.2L23,34.2z"/>
<path class="st1" d="M32.3,15c-6.9,0-12.5-1.6-12.5-3.6s5.6-3.6,12.5-3.6s12.5,1.6,12.5,3.6S39.2,15,32.3,15z"/>
<path class="st1" d="M44.8,14.2v4.3c0,2-5.6,3.6-12.5,3.6c-1.1,0-2.1,0-3.1-0.1c-0.3-0.2-0.6-0.3-0.9-0.3c0-0.6-0.3-1.1-0.8-1.5
	l-1-0.8c-0.3-0.3-0.8-0.4-1.2-0.4c-0.2,0-0.3,0-0.5,0.1c-0.3-0.5-0.7-0.9-1.2-1l-1.2-0.4c-0.2-0.1-0.4-0.1-0.6-0.1
	c-0.4,0-0.8,0.1-1.1,0.3L20.5,18c-0.1-0.1-0.2-0.1-0.3-0.2c-0.1-0.1-0.3-0.1-0.4-0.2v-3.4c3.6,2.4,11.3,2.5,12.5,2.5
	C33.4,16.7,41.2,16.6,44.8,14.2z"/>
<path class="st1" d="M32.3,29.2h-0.5c0.1-0.3,0.2-0.7,0.1-1L31.7,27c-0.1-0.6-0.5-1.2-1-1.5c0.2-0.5,0.2-1.1-0.1-1.7
	c0.9,0,1.5,0,1.8,0c1.1,0,8.9-0.1,12.5-2.5v4.3C44.8,27.6,39.2,29.2,32.3,29.2z"/>
<path class="st1" d="M30.2,34.2c0.6-0.3,1-0.8,1.1-1.4l0.3-1.2c0.1-0.2,0.1-0.5,0.1-0.7h0.6c1.1,0,8.9-0.1,12.5-2.5v4.3
	c0,2-5.6,3.6-12.5,3.6c-0.9,0-1.8,0-2.7-0.1l0.2-0.3C30.2,35.4,30.4,34.8,30.2,34.2z"/>
</svg>
