<?xml version="1.0" encoding="utf-8"?>
<!-- Generator: Adobe Illustrator 21.1.0, SVG Export Plug-In . SVG Version: 6.00 Build 0)  -->
<svg version="1.1" id="Calque_1" xmlns="http://www.w3.org/2000/svg" xmlns:xlink="http://www.w3.org/1999/xlink" x="0px" y="0px"
	 viewBox="0 0 90 70" style="enable-background:new 0 0 90 70;" xml:space="preserve">
<style type="text/css">
	.st0{fill:none;}
	.st1{enable-background:new    ;}
	.st2{fill:#FFFFFF;}
	.st3{fill:#FFFFFF;stroke:#FFFFFF;stroke-width:0.5;stroke-miterlimit:10;}
	.st4{fill:#5B9CD1;}
</style>
<rect x="9.7" y="44.3" class="st0" width="67.8" height="7"/>
<g class="st1">
	<path class="st2" d="M13.9,45.5c0,0.1-0.1,0.1-0.1,0.1s-0.1,0-0.1,0c-0.1,0-0.1,0-0.2-0.1c-0.1,0-0.1-0.1-0.2-0.1
		c-0.1,0-0.2-0.1-0.3-0.1c-0.1,0-0.3-0.1-0.4-0.1c-0.1,0-0.3,0-0.4,0.1c-0.1,0-0.2,0.1-0.3,0.2c-0.1,0.1-0.1,0.1-0.2,0.2
		c0,0.1-0.1,0.2-0.1,0.3c0,0.1,0,0.2,0.1,0.3c0.1,0.1,0.2,0.2,0.3,0.2c0.1,0.1,0.3,0.1,0.4,0.2s0.3,0.1,0.5,0.2
		c0.2,0.1,0.3,0.1,0.5,0.2s0.3,0.2,0.4,0.3c0.1,0.1,0.2,0.3,0.3,0.4s0.1,0.4,0.1,0.6c0,0.3,0,0.5-0.1,0.7c-0.1,0.2-0.2,0.4-0.4,0.6
		c-0.2,0.2-0.4,0.3-0.6,0.4s-0.5,0.1-0.9,0.1c-0.2,0-0.4,0-0.5-0.1s-0.4-0.1-0.5-0.2c-0.2-0.1-0.3-0.1-0.5-0.2
		c-0.1-0.1-0.3-0.2-0.4-0.3l0.3-0.5c0,0,0.1-0.1,0.1-0.1s0.1,0,0.1,0c0.1,0,0.1,0,0.2,0.1c0.1,0.1,0.2,0.1,0.3,0.2
		c0.1,0.1,0.2,0.1,0.4,0.2c0.1,0.1,0.3,0.1,0.5,0.1c0.3,0,0.5-0.1,0.7-0.2s0.3-0.4,0.3-0.6c0-0.2,0-0.3-0.1-0.4
		c-0.1-0.1-0.2-0.2-0.3-0.2c-0.1-0.1-0.3-0.1-0.4-0.2c-0.2,0-0.3-0.1-0.5-0.1s-0.3-0.1-0.5-0.2c-0.2-0.1-0.3-0.2-0.4-0.3
		s-0.2-0.3-0.3-0.5c-0.1-0.2-0.1-0.4-0.1-0.7c0-0.2,0-0.4,0.1-0.6s0.2-0.4,0.4-0.5c0.2-0.2,0.4-0.3,0.6-0.4c0.2-0.1,0.5-0.1,0.8-0.1
		c0.3,0,0.7,0.1,0.9,0.2c0.3,0.1,0.5,0.3,0.7,0.4L13.9,45.5z"/>
	<path class="st2" d="M20,50.2h-0.8c-0.1,0-0.2,0-0.2-0.1c-0.1,0-0.1-0.1-0.1-0.2l-0.4-1.2H16L15.6,50c0,0.1-0.1,0.1-0.1,0.2
		s-0.1,0.1-0.2,0.1h-0.8l2.3-5.8h1.1L20,50.2z M18.1,48l-0.7-1.9c0-0.1-0.1-0.2-0.1-0.3c0-0.1-0.1-0.2-0.1-0.4
		c0,0.1-0.1,0.3-0.1,0.4c0,0.1-0.1,0.2-0.1,0.3L16.3,48H18.1z"/>
	<path class="st2" d="M25.5,44.4v5.8h-0.6c-0.1,0-0.2,0-0.2,0c-0.1,0-0.1-0.1-0.2-0.1l-3-3.9c0,0.2,0,0.3,0,0.5v3.6h-0.9v-5.8h0.6
		c0,0,0.1,0,0.1,0c0,0,0.1,0,0.1,0s0,0,0.1,0.1c0,0,0.1,0.1,0.1,0.1l3,3.9c0-0.1,0-0.2,0-0.3c0-0.1,0-0.2,0-0.3v-3.5H25.5z"/>
	<path class="st2" d="M30.8,48.8c0.1,0,0.1,0,0.2,0.1l0.4,0.5c-0.2,0.3-0.5,0.5-0.9,0.7s-0.8,0.2-1.2,0.2c-0.4,0-0.8-0.1-1.2-0.2
		s-0.6-0.4-0.9-0.6c-0.2-0.3-0.4-0.6-0.6-0.9s-0.2-0.8-0.2-1.2c0-0.4,0.1-0.8,0.2-1.2s0.3-0.7,0.6-0.9c0.3-0.3,0.6-0.5,0.9-0.6
		c0.3-0.1,0.7-0.2,1.2-0.2c0.4,0,0.8,0.1,1.1,0.2s0.6,0.3,0.8,0.5l-0.4,0.5c0,0,0,0.1-0.1,0.1c0,0-0.1,0-0.1,0c0,0-0.1,0-0.1,0
		s-0.1-0.1-0.1-0.1s-0.1-0.1-0.2-0.1c-0.1,0-0.1-0.1-0.2-0.1c-0.1,0-0.2-0.1-0.3-0.1c-0.1,0-0.2,0-0.4,0c-0.3,0-0.5,0-0.7,0.1
		c-0.2,0.1-0.4,0.2-0.6,0.4c-0.2,0.2-0.3,0.4-0.4,0.6c-0.1,0.3-0.1,0.5-0.1,0.9c0,0.3,0,0.6,0.1,0.9c0.1,0.3,0.2,0.5,0.4,0.6
		c0.2,0.2,0.3,0.3,0.6,0.4c0.2,0.1,0.4,0.1,0.7,0.1c0.1,0,0.3,0,0.4,0s0.2,0,0.3-0.1c0.1,0,0.2-0.1,0.3-0.1s0.2-0.1,0.3-0.2
		C30.6,48.9,30.6,48.9,30.8,48.8C30.7,48.9,30.7,48.8,30.8,48.8z"/>
	<path class="st2" d="M36.1,45.3h-1.7v4.9h-1.1v-4.9h-1.7v-0.9h4.6V45.3z"/>
	<path class="st2" d="M38,50.2h-1.1v-5.8H38V50.2z"/>
	<path class="st2" d="M44.8,47.3c0,0.4-0.1,0.8-0.2,1.2c-0.1,0.4-0.3,0.7-0.6,0.9c-0.3,0.3-0.6,0.5-0.9,0.6
		c-0.4,0.1-0.8,0.2-1.2,0.2c-0.4,0-0.8-0.1-1.2-0.2c-0.4-0.1-0.7-0.4-0.9-0.6c-0.3-0.3-0.5-0.6-0.6-0.9c-0.1-0.4-0.2-0.8-0.2-1.2
		c0-0.4,0.1-0.8,0.2-1.2c0.1-0.4,0.3-0.7,0.6-0.9c0.3-0.3,0.6-0.5,0.9-0.6c0.4-0.1,0.8-0.2,1.2-0.2c0.3,0,0.6,0,0.8,0.1
		s0.5,0.2,0.7,0.3s0.4,0.3,0.6,0.5c0.2,0.2,0.3,0.4,0.4,0.6s0.2,0.5,0.3,0.7S44.8,47,44.8,47.3z M43.7,47.3c0-0.3,0-0.6-0.1-0.9
		c-0.1-0.3-0.2-0.5-0.4-0.6c-0.2-0.2-0.3-0.3-0.6-0.4c-0.2-0.1-0.5-0.1-0.8-0.1s-0.5,0-0.8,0.1c-0.2,0.1-0.4,0.2-0.6,0.4
		c-0.2,0.2-0.3,0.4-0.4,0.6S40,47,40,47.3s0,0.6,0.1,0.9s0.2,0.5,0.4,0.6c0.2,0.2,0.4,0.3,0.6,0.4c0.2,0.1,0.5,0.1,0.8,0.1
		s0.5,0,0.8-0.1c0.2-0.1,0.4-0.2,0.6-0.4c0.2-0.2,0.3-0.4,0.4-0.6C43.6,47.9,43.7,47.6,43.7,47.3z"/>
	<path class="st2" d="M50.6,44.4v5.8H50c-0.1,0-0.2,0-0.2,0c-0.1,0-0.1-0.1-0.2-0.1l-3-3.9c0,0.2,0,0.3,0,0.5v3.6h-0.9v-5.8h0.6
		c0,0,0.1,0,0.1,0s0.1,0,0.1,0s0,0,0.1,0.1s0.1,0.1,0.1,0.1l3,3.9c0-0.1,0-0.2,0-0.3c0-0.1,0-0.2,0-0.3v-3.5H50.6z"/>
	<path class="st2" d="M55,45.5c0,0.1-0.1,0.1-0.1,0.1s-0.1,0-0.1,0c-0.1,0-0.1,0-0.2-0.1c-0.1,0-0.1-0.1-0.2-0.1
		c-0.1,0-0.2-0.1-0.3-0.1c-0.1,0-0.3-0.1-0.4-0.1c-0.1,0-0.3,0-0.4,0.1s-0.2,0.1-0.3,0.2c-0.1,0.1-0.1,0.1-0.2,0.2
		c0,0.1-0.1,0.2-0.1,0.3c0,0.1,0,0.2,0.1,0.3c0.1,0.1,0.2,0.2,0.3,0.2c0.1,0.1,0.3,0.1,0.4,0.2s0.3,0.1,0.5,0.2s0.3,0.1,0.5,0.2
		s0.3,0.2,0.4,0.3c0.1,0.1,0.2,0.3,0.3,0.4s0.1,0.4,0.1,0.6c0,0.3,0,0.5-0.1,0.7c-0.1,0.2-0.2,0.4-0.4,0.6c-0.2,0.2-0.4,0.3-0.6,0.4
		s-0.5,0.1-0.9,0.1c-0.2,0-0.4,0-0.5-0.1s-0.4-0.1-0.5-0.2c-0.2-0.1-0.3-0.1-0.5-0.2c-0.1-0.1-0.3-0.2-0.4-0.3l0.3-0.5
		c0,0,0.1-0.1,0.1-0.1c0,0,0.1,0,0.1,0c0.1,0,0.1,0,0.2,0.1c0.1,0.1,0.2,0.1,0.3,0.2c0.1,0.1,0.2,0.1,0.4,0.2
		c0.1,0.1,0.3,0.1,0.5,0.1c0.3,0,0.5-0.1,0.7-0.2s0.3-0.4,0.3-0.6c0-0.2,0-0.3-0.1-0.4c-0.1-0.1-0.2-0.2-0.3-0.2
		c-0.1-0.1-0.3-0.1-0.4-0.2c-0.2,0-0.3-0.1-0.5-0.1c-0.2-0.1-0.3-0.1-0.5-0.2c-0.2-0.1-0.3-0.2-0.4-0.3c-0.1-0.1-0.2-0.3-0.3-0.5
		c-0.1-0.2-0.1-0.4-0.1-0.7c0-0.2,0-0.4,0.1-0.6s0.2-0.4,0.4-0.5c0.2-0.2,0.4-0.3,0.6-0.4s0.5-0.1,0.8-0.1c0.3,0,0.7,0.1,0.9,0.2
		c0.3,0.1,0.5,0.3,0.7,0.4L55,45.5z"/>
	<path class="st2" d="M61.6,49.3v0.9h-3.4v-5.8h1.1v4.9H61.6z"/>
	<path class="st2" d="M63.4,50.2h-1.1v-5.8h1.1V50.2z"/>
	<path class="st2" d="M67.8,45.5c0,0.1-0.1,0.1-0.1,0.1s-0.1,0-0.1,0c-0.1,0-0.1,0-0.2-0.1c-0.1,0-0.1-0.1-0.2-0.1
		c-0.1,0-0.2-0.1-0.3-0.1c-0.1,0-0.3-0.1-0.4-0.1c-0.1,0-0.3,0-0.4,0.1c-0.1,0-0.2,0.1-0.3,0.2c-0.1,0.1-0.1,0.1-0.2,0.2
		c0,0.1-0.1,0.2-0.1,0.3c0,0.1,0,0.2,0.1,0.3c0.1,0.1,0.2,0.2,0.3,0.2c0.1,0.1,0.3,0.1,0.4,0.2s0.3,0.1,0.5,0.2
		c0.2,0.1,0.3,0.1,0.5,0.2s0.3,0.2,0.4,0.3c0.1,0.1,0.2,0.3,0.3,0.4s0.1,0.4,0.1,0.6c0,0.3,0,0.5-0.1,0.7c-0.1,0.2-0.2,0.4-0.4,0.6
		c-0.2,0.2-0.4,0.3-0.6,0.4s-0.5,0.1-0.9,0.1c-0.2,0-0.4,0-0.5-0.1s-0.3-0.1-0.5-0.2c-0.2-0.1-0.3-0.1-0.5-0.2
		c-0.1-0.1-0.3-0.2-0.4-0.3l0.3-0.5c0,0,0.1-0.1,0.1-0.1c0,0,0.1,0,0.1,0c0.1,0,0.1,0,0.2,0.1s0.2,0.1,0.3,0.2s0.2,0.1,0.4,0.2
		c0.1,0.1,0.3,0.1,0.5,0.1c0.3,0,0.5-0.1,0.7-0.2s0.3-0.4,0.3-0.6c0-0.2,0-0.3-0.1-0.4c-0.1-0.1-0.2-0.2-0.3-0.2
		c-0.1-0.1-0.3-0.1-0.4-0.2c-0.2,0-0.3-0.1-0.5-0.1c-0.2-0.1-0.3-0.1-0.5-0.2c-0.2-0.1-0.3-0.2-0.4-0.3c-0.1-0.1-0.2-0.3-0.3-0.5
		c-0.1-0.2-0.1-0.4-0.1-0.7c0-0.2,0-0.4,0.1-0.6s0.2-0.4,0.4-0.5s0.4-0.3,0.6-0.4c0.2-0.1,0.5-0.1,0.8-0.1c0.3,0,0.7,0.1,0.9,0.2
		c0.3,0.1,0.5,0.3,0.7,0.4L67.8,45.5z"/>
	<path class="st2" d="M73.2,45.3h-1.7v4.9h-1.1v-4.9h-1.7v-0.9h4.6V45.3z"/>
	<path class="st2" d="M77,45.5c0,0.1-0.1,0.1-0.1,0.1s-0.1,0-0.1,0c-0.1,0-0.1,0-0.2-0.1c-0.1,0-0.1-0.1-0.2-0.1
		c-0.1,0-0.2-0.1-0.3-0.1c-0.1,0-0.3-0.1-0.4-0.1c-0.1,0-0.3,0-0.4,0.1c-0.1,0-0.2,0.1-0.3,0.2c-0.1,0.1-0.1,0.1-0.2,0.2
		c0,0.1-0.1,0.2-0.1,0.3c0,0.1,0,0.2,0.1,0.3c0.1,0.1,0.2,0.2,0.3,0.2c0.1,0.1,0.3,0.1,0.4,0.2s0.3,0.1,0.5,0.2
		c0.2,0.1,0.3,0.1,0.5,0.2s0.3,0.2,0.4,0.3c0.1,0.1,0.2,0.3,0.3,0.4s0.1,0.4,0.1,0.6c0,0.3,0,0.5-0.1,0.7c-0.1,0.2-0.2,0.4-0.4,0.6
		c-0.2,0.2-0.4,0.3-0.6,0.4s-0.5,0.1-0.9,0.1c-0.2,0-0.4,0-0.5-0.1s-0.3-0.1-0.5-0.2c-0.2-0.1-0.3-0.1-0.5-0.2
		c-0.1-0.1-0.3-0.2-0.4-0.3l0.3-0.5c0,0,0.1-0.1,0.1-0.1c0,0,0.1,0,0.1,0c0.1,0,0.1,0,0.2,0.1s0.2,0.1,0.3,0.2s0.2,0.1,0.4,0.2
		c0.1,0.1,0.3,0.1,0.5,0.1c0.3,0,0.5-0.1,0.7-0.2s0.3-0.4,0.3-0.6c0-0.2,0-0.3-0.1-0.4c-0.1-0.1-0.2-0.2-0.3-0.2
		c-0.1-0.1-0.3-0.1-0.4-0.2c-0.2,0-0.3-0.1-0.5-0.1c-0.2-0.1-0.3-0.1-0.5-0.2c-0.2-0.1-0.3-0.2-0.4-0.3c-0.1-0.1-0.2-0.3-0.3-0.5
		c-0.1-0.2-0.1-0.4-0.1-0.7c0-0.2,0-0.4,0.1-0.6s0.2-0.4,0.4-0.5s0.4-0.3,0.6-0.4c0.2-0.1,0.5-0.1,0.8-0.1c0.3,0,0.7,0.1,0.9,0.2
		c0.3,0.1,0.5,0.3,0.7,0.4L77,45.5z"/>
</g>
<rect x="74.5" y="43.6" class="st0" width="15.6" height="4.2"/>
<g class="st1">
	<path class="st2" d="M81.6,44.1h-0.9v2.5h-0.5v-2.5h-0.9v-0.4h2.3V44.1z"/>
	<path class="st2" d="M85.1,43.6v2.9h-0.5v-1.9c0-0.1,0-0.2,0-0.2l-0.9,1.6c0,0.1-0.1,0.1-0.2,0.1h-0.1c-0.1,0-0.1,0-0.2-0.1
		l-0.9-1.6c0,0,0,0.1,0,0.1c0,0,0,0.1,0,0.1v1.9H82v-2.9h0.4c0,0,0,0,0.1,0c0,0,0,0,0,0c0,0,0,0,0,0c0,0,0,0,0,0l0.9,1.6
		c0,0,0,0.1,0.1,0.1c0,0,0,0.1,0.1,0.1c0,0,0-0.1,0.1-0.1s0-0.1,0.1-0.1l0.9-1.6c0,0,0,0,0,0c0,0,0,0,0,0c0,0,0,0,0,0c0,0,0,0,0.1,0
		H85.1z"/>
</g>
<g>
	<path class="st3" d="M48.4,8.4H31.8v30.8l22.1-0.3c1,0,1.8-0.8,1.8-1.8l0.2-21.2L48.4,8.4z M48.8,10.2l5.4,5.4h-5.4V10.2z
		 M54.9,38.2H32.8V9.4h14.9v7.2h7.2C54.9,16.6,54.9,38.2,54.9,38.2z"/>
	<path class="st2" d="M50.3,19.2h-8.2c-0.3,0-0.5,0.2-0.5,0.5s0.2,0.5,0.5,0.5c0,0,0,0,0.1,0h8.2c0.3,0,0.5-0.2,0.5-0.5
		C50.8,19.4,50.6,19.2,50.3,19.2L50.3,19.2z"/>
	<path class="st2" d="M40.2,17.7L38,19.5l-0.7-0.7c-0.2-0.2-0.5-0.2-0.7,0.1c-0.2,0.2-0.2,0.5,0,0.7l1,1c0.2,0.2,0.5,0.2,0.7,0
		l2.6-2c0.2-0.2,0.3-0.5,0.1-0.8C40.8,17.6,40.5,17.5,40.2,17.7L40.2,17.7z"/>
	<path class="st2" d="M50.3,24.8h-8.2c-0.3,0-0.5,0.2-0.5,0.5s0.2,0.5,0.5,0.5c0,0,0,0,0.1,0h8.2c0.3,0,0.5-0.2,0.5-0.5
		C50.8,25.1,50.6,24.9,50.3,24.8L50.3,24.8z"/>
	<path class="st2" d="M40.2,23.4L38,25.2l-0.7-0.7c-0.1-0.2-0.5-0.3-0.7-0.2s-0.3,0.5-0.2,0.7c0,0.1,0.1,0.1,0.1,0.1l1,1
		c0.2,0.2,0.5,0.2,0.7,0l2.6-2c0.2-0.2,0.2-0.5,0.1-0.7C40.7,23.3,40.4,23.3,40.2,23.4L40.2,23.4z"/>
	<path class="st2" d="M46.3,30.5H42c-0.1,0-0.3,0.2-0.3,0.5s0.1,0.5,0.3,0.5h4.3c0.1,0,0.3-0.2,0.3-0.5S46.5,30.5,46.3,30.5z"/>
	<path class="st2" d="M40.2,29.1L38,30.8l-0.7-0.7c-0.2-0.2-0.5-0.2-0.7-0.1c-0.2,0.2-0.2,0.5-0.1,0.7c0,0,0,0,0.1,0.1l1,1
		c0.2,0.2,0.5,0.2,0.7,0l2.6-2c0.2-0.2,0.3-0.5,0.1-0.8C40.8,28.9,40.4,28.9,40.2,29.1L40.2,29.1z"/>
	<path class="st4" d="M57.2,29.5c-2.1-3.2-6.5-4.1-9.7-1.9s-4.1,6.5-1.9,9.7c2.1,3.2,6.5,4.1,9.7,1.9c0.8-0.5,1.4-1.2,1.9-1.9
		C58.8,34.9,58.8,31.8,57.2,29.5z M54.2,36.1c-0.2,0.2-0.5,0.2-0.7,0l0,0l0,0l0,0l-2-2l-2,2c-0.3,0.1-0.6,0-0.7-0.3
		c-0.1-0.1-0.1-0.3,0-0.4l2-2l-2-2.1c-0.2-0.2-0.2-0.5,0-0.8c0.2-0.2,0.5-0.2,0.8,0l2,2l1.9-1.9c0.2-0.2,0.5-0.2,0.8,0
		c0.2,0.2,0.2,0.5,0,0.8l-1.9,1.9l2,2C54.4,35.5,54.4,35.9,54.2,36.1L54.2,36.1z"/>
</g>
</svg>
