<?xml version="1.0" encoding="utf-8"?>
<!-- Generator: Adobe Illustrator 21.1.0, SVG Export Plug-In . SVG Version: 6.00 Build 0)  -->
<svg version="1.1" id="Calque_1" xmlns="http://www.w3.org/2000/svg" xmlns:xlink="http://www.w3.org/1999/xlink" x="0px" y="0px"
	 viewBox="0 0 50 50" style="enable-background:new 0 0 50 50;" xml:space="preserve">
<style type="text/css">
	.st0{fill:none;}
	.st1{enable-background:new    ;}
	.st2{fill:#203D59;}
	.st3{fill:#F4F1F0;}
	.st4{fill:#1B1B1B;}
	.st5{fill:#817C75;}
</style>
<rect x="-2.1" y="38.7" class="st0" width="51" height="7"/>
<g class="st1">
	<path class="st2" d="M15.1,38.8v5.8h-0.9v-3.7c0-0.1,0-0.3,0-0.5l-1.7,3.3c-0.1,0.2-0.2,0.2-0.4,0.2h-0.2c-0.2,0-0.3-0.1-0.4-0.2
		l-1.8-3.3c0,0.1,0,0.2,0,0.3c0,0.1,0,0.2,0,0.2v3.7H8.9v-5.8h0.8c0,0,0.1,0,0.1,0c0,0,0.1,0,0.1,0c0,0,0.1,0,0.1,0.1S10,39,10,39
		l1.7,3.2c0,0.1,0.1,0.2,0.1,0.3s0.1,0.2,0.1,0.3c0-0.1,0.1-0.2,0.1-0.3c0-0.1,0.1-0.2,0.1-0.3L14,39c0,0,0-0.1,0.1-0.1s0,0,0.1-0.1
		c0,0,0.1,0,0.1,0c0,0,0.1,0,0.1,0H15.1z"/>
	<path class="st2" d="M21.9,41.7c0,0.4-0.1,0.8-0.2,1.2c-0.1,0.4-0.3,0.7-0.6,0.9c-0.3,0.3-0.6,0.5-0.9,0.6
		c-0.4,0.1-0.8,0.2-1.2,0.2c-0.4,0-0.8-0.1-1.2-0.2c-0.4-0.1-0.7-0.4-0.9-0.6c-0.3-0.3-0.5-0.6-0.6-0.9c-0.1-0.4-0.2-0.8-0.2-1.2
		c0-0.4,0.1-0.8,0.2-1.2c0.1-0.4,0.3-0.7,0.6-0.9c0.3-0.3,0.6-0.5,0.9-0.6c0.4-0.1,0.8-0.2,1.2-0.2c0.3,0,0.6,0,0.8,0.1
		s0.5,0.2,0.7,0.3s0.4,0.3,0.6,0.5c0.2,0.2,0.3,0.4,0.4,0.6s0.2,0.5,0.3,0.7S21.9,41.5,21.9,41.7z M20.8,41.7c0-0.3,0-0.6-0.1-0.9
		c-0.1-0.3-0.2-0.5-0.4-0.6c-0.2-0.2-0.3-0.3-0.6-0.4c-0.2-0.1-0.5-0.1-0.8-0.1s-0.5,0-0.8,0.1c-0.2,0.1-0.4,0.2-0.6,0.4
		c-0.2,0.2-0.3,0.4-0.4,0.6s-0.1,0.5-0.1,0.9s0,0.6,0.1,0.9s0.2,0.5,0.4,0.6c0.2,0.2,0.4,0.3,0.6,0.4c0.2,0.1,0.5,0.1,0.8,0.1
		s0.5,0,0.8-0.1c0.2-0.1,0.4-0.2,0.6-0.4c0.2-0.2,0.3-0.4,0.4-0.6C20.8,42.3,20.8,42.1,20.8,41.7z"/>
	<path class="st2" d="M24.9,38.8c0.4,0,0.7,0,1,0.1c0.3,0.1,0.5,0.2,0.7,0.3c0.2,0.1,0.3,0.3,0.4,0.5s0.1,0.4,0.1,0.6
		c0,0.1,0,0.3-0.1,0.4c0,0.1-0.1,0.2-0.2,0.3c-0.1,0.1-0.2,0.2-0.3,0.3c-0.1,0.1-0.3,0.2-0.5,0.2c0.8,0.2,1.2,0.6,1.2,1.3
		c0,0.2,0,0.5-0.1,0.7c-0.1,0.2-0.2,0.4-0.4,0.5c-0.2,0.2-0.4,0.3-0.7,0.4s-0.6,0.1-0.9,0.1h-2.2v-5.8H24.9z M24,39.7v1.7h0.9
		c0.4,0,0.6-0.1,0.8-0.2c0.2-0.1,0.3-0.3,0.3-0.6c0-0.3-0.1-0.5-0.3-0.6c-0.2-0.1-0.4-0.2-0.8-0.2H24z M25,43.8c0.2,0,0.4,0,0.5-0.1
		s0.2-0.1,0.3-0.2c0.1-0.1,0.1-0.2,0.2-0.3s0.1-0.2,0.1-0.3c0-0.1,0-0.2-0.1-0.3c0-0.1-0.1-0.2-0.2-0.3c-0.1-0.1-0.2-0.1-0.3-0.2
		c-0.1,0-0.3-0.1-0.5-0.1H24v1.7H25z"/>
	<path class="st2" d="M29.2,44.6h-1.1v-5.8h1.1V44.6z"/>
	<path class="st2" d="M33.9,43.7v0.9h-3.4v-5.8h1.1v4.9H33.9z"/>
	<path class="st2" d="M35.8,39.7v1.6h2v0.8h-2v1.6h2.6v0.9h-3.6v-5.8h3.6v0.9H35.8z"/>
</g>
<rect x="34.3" y="38.1" class="st0" width="15.6" height="6.5"/>
<g class="st1">
	<path class="st2" d="M41.4,38.7h-0.9v2.5H40v-2.5h-0.9v-0.4h2.3V38.7z"/>
	<path class="st2" d="M44.9,38.2v2.9h-0.5v-1.9c0-0.1,0-0.2,0-0.2l-0.9,1.6c0,0.1-0.1,0.1-0.2,0.1h-0.1c-0.1,0-0.1,0-0.2-0.1
		L42.3,39c0,0,0,0.1,0,0.1c0,0,0,0.1,0,0.1v1.9h-0.5v-2.9h0.4c0,0,0,0,0.1,0c0,0,0,0,0,0c0,0,0,0,0,0c0,0,0,0,0,0l0.9,1.6
		c0,0,0,0.1,0.1,0.1c0,0,0,0.1,0.1,0.1c0,0,0-0.1,0.1-0.1c0,0,0-0.1,0.1-0.1l0.9-1.6c0,0,0,0,0,0c0,0,0,0,0,0c0,0,0,0,0,0
		c0,0,0,0,0.1,0H44.9z"/>
</g>
<g>
	<path class="st3" d="M6.9,8.2h37.2v23.4c0,0,4,3.4-37.2,0.7C7.1,25.9,6.9,8.2,6.9,8.2z"/>
	<g id="_34">
		<path class="st4" d="M41.7,3H9.4C7.3,3,5.7,4.7,5.7,6.7v24c0,2.1,1.7,3.7,3.7,3.7h32.3c2.1,0,3.7-1.7,3.7-3.7v-24
			C45.4,4.7,43.7,3,41.7,3z M41.3,5.4c0.5,0,0.8,0.4,0.8,0.8c0,0.5-0.4,0.8-0.8,0.8c-0.5,0-0.8-0.4-0.8-0.8
			C40.4,5.8,40.8,5.4,41.3,5.4L41.3,5.4z M34.6,5.4h4.2c0.4,0,0.8,0.4,0.8,0.8S39.2,7,38.8,7h-4.2c-0.4,0-0.8-0.4-0.8-0.8
			S34.1,5.4,34.6,5.4z M43.4,30.7c0,0.9-0.8,1.7-1.7,1.7H9.4c-0.9,0-1.7-0.8-1.7-1.7V9.1h35.6v21.6H43.4z"/>
		<rect x="11.2" y="27.4" class="st2" width="27.8" height="2.5"/>
		<rect x="11.2" y="11.9" class="st2" width="27.8" height="3.7"/>
		<rect x="11.4" y="17.4" class="st2" width="6.4" height="7.5"/>
		<rect x="19.1" y="17.6" class="st5" width="19.7" height="0.8"/>
		<rect x="19.1" y="19.9" class="st5" width="19.7" height="0.8"/>
		<rect x="19.1" y="22.2" class="st5" width="19.7" height="0.8"/>
		<rect x="19.1" y="24.5" class="st5" width="19.7" height="0.8"/>
	</g>
</g>
</svg>
