<?xml version="1.0" encoding="utf-8"?>
<!-- Generator: Adobe Illustrator 21.1.0, SVG Export Plug-In . SVG Version: 6.00 Build 0)  -->
<svg version="1.1" id="Calque_1" xmlns="http://www.w3.org/2000/svg" xmlns:xlink="http://www.w3.org/1999/xlink" x="0px" y="0px"
	 viewBox="0 0 50 50" style="enable-background:new 0 0 50 50;" xml:space="preserve">
<style type="text/css">
	.st0{enable-background:new    ;}
	.st1{fill:#203D59;}
	.st2{fill:#203D59;stroke:#203D59;stroke-width:0.5;stroke-miterlimit:10;}
	.st3{fill:none;stroke:#203D59;stroke-miterlimit:10;}
	.st4{fill:#066A36;}
</style>
<title>Plan de travail 2 copie 18</title>
<g class="st0">
	<path class="st1" d="M8.8,39.8c0,0,0.1,0,0.1,0.1l0.3,0.3c-0.2,0.2-0.4,0.4-0.6,0.5S8,40.8,7.6,40.8c-0.3,0-0.6-0.1-0.9-0.2
		c-0.3-0.1-0.5-0.3-0.7-0.5s-0.3-0.4-0.4-0.7c-0.1-0.3-0.1-0.6-0.1-0.9c0-0.3,0.1-0.6,0.2-0.9C5.8,37.5,6,37.2,6.1,37
		c0.2-0.2,0.4-0.3,0.7-0.5c0.3-0.1,0.6-0.2,0.9-0.2c0.3,0,0.6,0.1,0.8,0.2C8.8,36.7,9,36.8,9.2,37l-0.3,0.4c0,0,0,0-0.1,0.1
		c0,0-0.1,0-0.1,0c0,0-0.1,0-0.1,0c0,0-0.1,0-0.1-0.1c0,0-0.1-0.1-0.1-0.1c-0.1,0-0.1-0.1-0.2-0.1c-0.1,0-0.1,0-0.2-0.1
		c-0.1,0-0.2,0-0.3,0c-0.2,0-0.4,0-0.5,0.1c-0.2,0.1-0.3,0.2-0.4,0.3c-0.1,0.1-0.2,0.3-0.3,0.5c-0.1,0.2-0.1,0.4-0.1,0.6
		c0,0.2,0,0.5,0.1,0.7c0.1,0.2,0.2,0.3,0.3,0.5S7,40,7.2,40.1c0.2,0.1,0.3,0.1,0.5,0.1c0.1,0,0.2,0,0.3,0c0.1,0,0.2,0,0.2-0.1
		S8.4,40,8.5,40s0.1-0.1,0.2-0.2C8.7,39.8,8.7,39.8,8.8,39.8C8.7,39.8,8.8,39.8,8.8,39.8z"/>
	<path class="st1" d="M13.8,38.6c0,0.3-0.1,0.6-0.2,0.9c-0.1,0.3-0.3,0.5-0.4,0.7s-0.4,0.4-0.7,0.5c-0.3,0.1-0.6,0.2-0.9,0.2
		c-0.3,0-0.6-0.1-0.9-0.2c-0.3-0.1-0.5-0.3-0.7-0.5s-0.3-0.4-0.4-0.7c-0.1-0.3-0.2-0.6-0.2-0.9s0.1-0.6,0.2-0.9
		c0.1-0.3,0.3-0.5,0.4-0.7s0.4-0.4,0.7-0.5c0.3-0.1,0.6-0.2,0.9-0.2c0.2,0,0.4,0,0.6,0.1s0.4,0.1,0.5,0.2s0.3,0.2,0.4,0.3
		c0.1,0.1,0.2,0.3,0.3,0.4c0.1,0.2,0.2,0.3,0.2,0.5C13.8,38.2,13.8,38.4,13.8,38.6z M13,38.6c0-0.2,0-0.5-0.1-0.6
		c-0.1-0.2-0.2-0.3-0.3-0.5c-0.1-0.1-0.3-0.2-0.4-0.3c-0.2-0.1-0.4-0.1-0.6-0.1s-0.4,0-0.6,0.1c-0.2,0.1-0.3,0.2-0.4,0.3
		s-0.2,0.3-0.3,0.5c-0.1,0.2-0.1,0.4-0.1,0.6s0,0.5,0.1,0.6c0.1,0.2,0.2,0.3,0.3,0.5s0.3,0.2,0.4,0.3s0.4,0.1,0.6,0.1s0.4,0,0.6-0.1
		s0.3-0.2,0.4-0.3c0.1-0.1,0.2-0.3,0.3-0.5C13,39.1,13,38.9,13,38.6z"/>
	<path class="st1" d="M19.2,36.5v4.3h-0.7V38c0-0.1,0-0.2,0-0.4l-1.3,2.5c-0.1,0.1-0.2,0.2-0.3,0.2h-0.1c-0.1,0-0.2-0.1-0.3-0.2
		l-1.3-2.5c0,0.1,0,0.1,0,0.2c0,0.1,0,0.1,0,0.2v2.8h-0.7v-4.3h0.6c0,0,0.1,0,0.1,0s0,0,0.1,0c0,0,0,0,0.1,0c0,0,0,0,0,0.1l1.3,2.4
		c0,0.1,0.1,0.1,0.1,0.2c0,0.1,0.1,0.1,0.1,0.2c0-0.1,0.1-0.1,0.1-0.2c0-0.1,0.1-0.1,0.1-0.2l1.3-2.4c0,0,0-0.1,0.1-0.1
		c0,0,0,0,0.1,0c0,0,0,0,0.1,0s0.1,0,0.1,0H19.2z"/>
	<path class="st1" d="M21.6,36.5c0.3,0,0.5,0,0.8,0.1c0.2,0.1,0.4,0.2,0.5,0.3c0.1,0.1,0.2,0.3,0.3,0.4s0.1,0.4,0.1,0.6
		c0,0.2,0,0.4-0.1,0.6c-0.1,0.2-0.2,0.3-0.3,0.5c-0.1,0.1-0.3,0.2-0.5,0.3s-0.5,0.1-0.7,0.1H21v1.5h-0.8v-4.3H21.6z M21.6,38.6
		c0.1,0,0.3,0,0.4-0.1c0.1,0,0.2-0.1,0.3-0.2c0.1-0.1,0.1-0.2,0.2-0.3c0-0.1,0.1-0.2,0.1-0.3c0-0.1,0-0.2-0.1-0.3
		c0-0.1-0.1-0.2-0.2-0.2c-0.1-0.1-0.2-0.1-0.3-0.2c-0.1,0-0.2-0.1-0.4-0.1H21v1.6H21.6z"/>
	<path class="st1" d="M26.5,40.1v0.7h-2.5v-4.3h0.8v3.7H26.5z"/>
	<path class="st1" d="M27.8,40.8H27v-4.3h0.8V40.8z"/>
	<path class="st1" d="M32.5,40.8h-0.6c-0.1,0-0.1,0-0.2-0.1s-0.1-0.1-0.1-0.1l-0.3-0.9h-1.8l-0.3,0.9c0,0,0,0.1-0.1,0.1
		s-0.1,0.1-0.2,0.1h-0.6l1.7-4.3h0.8L32.5,40.8z M31.1,39.2l-0.5-1.4c0-0.1-0.1-0.1-0.1-0.2c0-0.1-0.1-0.2-0.1-0.3
		c0,0.1-0.1,0.2-0.1,0.3c0,0.1-0.1,0.2-0.1,0.2l-0.5,1.4H31.1z"/>
	<path class="st1" d="M36.6,36.5v4.3h-0.4c-0.1,0-0.1,0-0.2,0c0,0-0.1-0.1-0.1-0.1l-2.3-2.9c0,0.1,0,0.3,0,0.4v2.7H33v-4.3h0.4
		c0,0,0.1,0,0.1,0c0,0,0,0,0.1,0c0,0,0,0,0.1,0c0,0,0,0,0.1,0.1l2.3,2.9c0-0.1,0-0.1,0-0.2c0-0.1,0-0.1,0-0.2v-2.6H36.6z"/>
	<path class="st1" d="M40.6,39.8c0,0,0.1,0,0.1,0.1l0.3,0.3c-0.2,0.2-0.4,0.4-0.6,0.5s-0.6,0.2-0.9,0.2c-0.3,0-0.6-0.1-0.9-0.2
		c-0.3-0.1-0.5-0.3-0.7-0.5c-0.2-0.2-0.3-0.4-0.4-0.7c-0.1-0.3-0.1-0.6-0.1-0.9c0-0.3,0.1-0.6,0.2-0.9c0.1-0.3,0.3-0.5,0.4-0.7
		c0.2-0.2,0.4-0.3,0.7-0.5c0.3-0.1,0.6-0.2,0.9-0.2c0.3,0,0.6,0.1,0.8,0.2c0.2,0.1,0.5,0.2,0.6,0.4l-0.3,0.4c0,0,0,0-0.1,0.1
		c0,0-0.1,0-0.1,0c0,0-0.1,0-0.1,0c0,0-0.1,0-0.1-0.1c0,0-0.1-0.1-0.1-0.1c-0.1,0-0.1-0.1-0.2-0.1c-0.1,0-0.1,0-0.2-0.1
		c-0.1,0-0.2,0-0.3,0c-0.2,0-0.4,0-0.5,0.1c-0.2,0.1-0.3,0.2-0.4,0.3c-0.1,0.1-0.2,0.3-0.3,0.5c-0.1,0.2-0.1,0.4-0.1,0.6
		c0,0.2,0,0.5,0.1,0.7c0.1,0.2,0.2,0.3,0.3,0.5s0.3,0.2,0.4,0.3c0.2,0.1,0.3,0.1,0.5,0.1c0.1,0,0.2,0,0.3,0c0.1,0,0.2,0,0.2-0.1
		s0.1-0.1,0.2-0.1c0.1,0,0.1-0.1,0.2-0.2C40.5,39.8,40.5,39.8,40.6,39.8C40.5,39.8,40.6,39.8,40.6,39.8z"/>
	<path class="st1" d="M42.4,37.1v1.2h1.5v0.6h-1.5v1.2h1.9v0.6h-2.7v-4.3h2.7v0.6H42.4z"/>
</g>
<g class="st0">
	<path class="st1" d="M8.1,44.5C8.1,44.5,8.1,44.5,8.1,44.5C8,44.6,8,44.6,7.9,44.6c0,0-0.1,0-0.1,0s-0.1-0.1-0.2-0.1
		c-0.1,0-0.1-0.1-0.2-0.1s-0.2,0-0.3,0c-0.1,0-0.2,0-0.3,0s-0.2,0.1-0.2,0.1c-0.1,0-0.1,0.1-0.1,0.2c0,0.1,0,0.1,0,0.2
		c0,0.1,0,0.2,0.1,0.3c0.1,0.1,0.1,0.1,0.2,0.2c0.1,0,0.2,0.1,0.3,0.1c0.1,0,0.2,0.1,0.4,0.1s0.2,0.1,0.4,0.2s0.2,0.1,0.3,0.2
		c0.1,0.1,0.2,0.2,0.2,0.3c0.1,0.1,0.1,0.3,0.1,0.5c0,0.2,0,0.4-0.1,0.6c-0.1,0.2-0.2,0.3-0.3,0.4c-0.1,0.1-0.3,0.2-0.5,0.3
		S7.1,48,6.9,48c-0.1,0-0.3,0-0.4,0c-0.1,0-0.3-0.1-0.4-0.1c-0.1,0-0.2-0.1-0.3-0.2c-0.1-0.1-0.2-0.1-0.3-0.2l0.2-0.4
		c0,0,0-0.1,0.1-0.1c0,0,0.1,0,0.1,0c0,0,0.1,0,0.2,0.1c0.1,0,0.1,0.1,0.2,0.1c0.1,0,0.2,0.1,0.3,0.1s0.2,0.1,0.4,0.1
		c0.2,0,0.4-0.1,0.5-0.2s0.2-0.3,0.2-0.5c0-0.1,0-0.2-0.1-0.3c-0.1-0.1-0.1-0.1-0.2-0.2c-0.1,0-0.2-0.1-0.3-0.1
		c-0.1,0-0.2-0.1-0.4-0.1S6.4,46,6.3,45.9c-0.1-0.1-0.2-0.1-0.3-0.2c-0.1-0.1-0.2-0.2-0.2-0.3s-0.1-0.3-0.1-0.5c0-0.2,0-0.3,0.1-0.5
		C5.8,44.2,5.9,44.1,6,44s0.3-0.2,0.4-0.3c0.2-0.1,0.4-0.1,0.6-0.1c0.3,0,0.5,0,0.7,0.1c0.2,0.1,0.4,0.2,0.6,0.3L8.1,44.5z"/>
	<path class="st1" d="M12.8,43.7V48h-0.8v-1.9h-2V48H9.1v-4.3h0.8v1.9h2v-1.9H12.8z"/>
	<path class="st1" d="M14.5,44.3v1.2H16v0.6h-1.5v1.2h1.9V48h-2.7v-4.3h2.7v0.6H14.5z"/>
	<path class="st1" d="M18,44.3v1.2h1.5v0.6H18v1.2h1.9V48h-2.7v-4.3h2.7v0.6H18z"/>
	<path class="st1" d="M23.6,44.3h-1.3V48h-0.8v-3.7h-1.3v-0.7h3.4V44.3z"/>
</g>
<g class="st0">
	<path class="st1" d="M47.3,36.6h-0.4v1.2h-0.3v-1.2h-0.4v-0.2h1.1V36.6z"/>
	<path class="st1" d="M49.1,36.4v1.4h-0.2v-0.9c0,0,0-0.1,0-0.1l-0.4,0.8c0,0-0.1,0.1-0.1,0.1h0c0,0-0.1,0-0.1-0.1l-0.4-0.8
		c0,0,0,0,0,0.1c0,0,0,0,0,0.1v0.9h-0.2v-1.4h0.2c0,0,0,0,0,0c0,0,0,0,0,0c0,0,0,0,0,0s0,0,0,0l0.4,0.8c0,0,0,0,0,0.1s0,0,0,0.1
		c0,0,0,0,0-0.1c0,0,0,0,0-0.1l0.4-0.8c0,0,0,0,0,0s0,0,0,0c0,0,0,0,0,0c0,0,0,0,0,0H49.1z"/>
</g>
<path class="st2" d="M29.2,3.2H13.1V33l21.4-0.3c1,0,1.8-0.8,1.8-1.8l0.2-20.5L29.2,3.2z M29.5,4.9l5.2,5.2h-5.2V4.9z M35.5,32H14.1
	V4.2h14.4v7h7L35.5,32z"/>
<path class="st1" d="M31,13.6h-7.9c-0.3,0-0.5,0.2-0.5,0.5s0.2,0.5,0.5,0.5h8c0.3,0,0.5-0.2,0.5-0.5S31.3,13.6,31,13.6L31,13.6z"/>
<path class="st1" d="M31,19.1h-7.9c-0.3,0-0.5,0.2-0.5,0.5s0.2,0.5,0.5,0.5h8c0.3,0,0.5-0.2,0.5-0.5S31.3,19.1,31,19.1L31,19.1z"/>
<path class="st1" d="M27.2,24.5H23c-0.1,0-0.3,0.2-0.3,0.5s0.1,0.5,0.3,0.5h4.2c0.1,0,0.3-0.2,0.3-0.5S27.3,24.5,27.2,24.5z"/>
<path class="st3" d="M41,32.3h-2.2c-0.3,0-0.5-0.2-0.5-0.4v-20c0,0,0-0.1,0-0.1l1.1-4.3c0.1-0.3,0.5-0.4,0.8-0.3
	c0.1,0.1,0.2,0.2,0.3,0.3l1.1,4.3c0,0,0,0.1,0,0.1v20C41.4,32.1,41.2,32.3,41,32.3z"/>
<polygon class="st4" points="18.9,13.3 17.8,14.4 17.3,13.8 17,14.1 17.9,15 19.3,13.6 "/>
<path class="st4" d="M18.1,11.9c-1.2,0-2.2,1-2.2,2.2s1,2.2,2.2,2.2s2.2-1,2.2-2.2l0,0C20.3,12.9,19.3,11.9,18.1,11.9z M18.1,15.9
	c-1,0-1.8-0.8-1.8-1.8s0.8-1.8,1.8-1.8s1.8,0.8,1.8,1.8l0,0C19.9,15.1,19.1,15.9,18.1,15.9L18.1,15.9z"/>
<polygon class="st4" points="18.9,18.7 17.8,19.8 17.3,19.3 17,19.6 17.9,20.5 19.3,19.1 "/>
<path class="st4" d="M18.1,17.3c-1.2,0-2.2,1-2.2,2.2s1,2.2,2.2,2.2s2.2-1,2.2-2.2l0,0C20.3,18.3,19.3,17.3,18.1,17.3z M18.1,21.4
	c-1,0-1.8-0.8-1.8-1.8s0.8-1.8,1.8-1.8s1.8,0.8,1.8,1.8l0,0C19.9,20.6,19.1,21.4,18.1,21.4L18.1,21.4z"/>
<polygon class="st4" points="18.9,24.1 17.8,25.2 17.3,24.7 17,25 17.9,25.9 19.3,24.5 "/>
<path class="st4" d="M18.1,22.7c-1.2,0-2.2,1-2.2,2.2s1,2.2,2.2,2.2c1.2,0,2.2-1,2.2-2.2C20.3,23.8,19.3,22.8,18.1,22.7L18.1,22.7z
	 M18.1,26.8c-1,0-1.8-0.8-1.8-1.8s0.8-1.8,1.8-1.8s1.8,0.8,1.8,1.8c0,0,0,0,0,0C19.9,26,19.1,26.8,18.1,26.8L18.1,26.8z"/>
</svg>
