<svg id="Calque_1" data-name="Calque 1" xmlns="http://www.w3.org/2000/svg" viewBox="0 0 60 60"><defs><style>.cls-1{fill:#203d59;}.cls-2{fill:#5a9dd6;}</style></defs><title>Plan de travail 1</title><path class="cls-1" d="M17.69,30c-3.21,0-5.81-2.57-5.81-4.58s.91-2.83,2.32-3.66a4.35,4.35,0,0,1-.11-1c0-3,3.09-5.44,6.9-5.44a8.65,8.65,0,0,1,1.87.21,4.34,4.34,0,0,1,0-.44c0-2.18,1.62-4.05,4-4.93v9.14h-3.7l6.45,8,6.46-8h-3.7V10c2.53.8,4.32,2.76,4.32,5,0,.12,0,.24,0,.37a8.7,8.7,0,0,1,1.52-.13c3.81,0,6.9,2.43,6.9,5.44a4.36,4.36,0,0,1-.11,1c1.41.84,2.32,1.65,2.32,3.66S44.65,30,41.45,30Z"/><path class="cls-2" d="M47.23,27.88l-1.06-.28h0a3,3,0,0,0,0-.38l.17-.07.85-.34a.23.23,0,0,0,.14-.27l-.19-.72a.22.22,0,0,0-.26-.16l-.21,0-.89.12a3.31,3.31,0,0,0-.17-.32l.8-.74a.23.23,0,0,0,0-.3l-.1-.14L46,23.81a.21.21,0,0,0-.22-.09l-.08,0-1,.57-.23-.19.49-1a.23.23,0,0,0-.08-.3l-.63-.4a.21.21,0,0,0-.25,0l-.06,0-.47.56-.33.39h0l-.07,0,0-1.23a.22.22,0,0,0-.19-.24l-.41-.06-.28,0h-.05a.19.19,0,0,0-.15,0,.24.24,0,0,0-.1.14l-.2.71-.13.47h-.22v0l-.23-.53v0L40.82,22a.25.25,0,0,0-.09-.1.21.21,0,0,0-.18,0l-.71.21a.23.23,0,0,0-.16.26l.2,1.18-.23.1,0,0-.87-.87a.22.22,0,0,0-.31,0l-.59.45a.22.22,0,0,0-.05.3l.62,1-.2.21h0l-1.12-.51a.22.22,0,0,0-.29.09l-.39.63a.22.22,0,0,0,.06.3l.56.45.4.32h0c0,.09-.07.19-.1.29h0l-1.23,0a.23.23,0,0,0-.24.19l-.11.74a.23.23,0,0,0,.17.25l1.18.34h0a2.17,2.17,0,0,0,0,.26h0L36,28.51a.22.22,0,0,0-.14.27l.19.72a.22.22,0,0,0,.26.16l1.21-.17c0,.09.08.18.12.26l-.09.09-.78.73a.22.22,0,0,0,0,.31l.44.6a.22.22,0,0,0,.3.06l1-.58.21.19-.19.42-.29.64a.22.22,0,0,0,.09.29l.63.39a.23.23,0,0,0,.3-.06l.72-.92.3.11,0,1.17a.23.23,0,0,0,.19.24l.63.09h.1a.23.23,0,0,0,.25-.17l.21-.75.1-.38h.17l.26.65.09.22.07.19a.22.22,0,0,0,.27.14l.72-.19a.19.19,0,0,0,.1-.06.24.24,0,0,0,.06-.19l-.06-.46-.05-.4,0-.21.08,0,.22-.1,0,0,.75.76a.23.23,0,0,0,.31,0l.59-.45a.22.22,0,0,0,.06-.3l-.54-.92.25-.27,1,.45a.23.23,0,0,0,.3-.09l.39-.63a.22.22,0,0,0-.06-.3l-.87-.69A3.47,3.47,0,0,0,46,29h1.09a.23.23,0,0,0,.24-.2l.1-.74A.22.22,0,0,0,47.23,27.88Zm-2.35-1.23a3.42,3.42,0,0,1-.5,3.09L43.43,29l-.11-.09c0-.07.08-.14.11-.21a2,2,0,0,0,.18-1.53ZM44.6,26l-1.16.46-.11,0a2,2,0,0,0-.38-.4,2.17,2.17,0,0,0-.49-.29l-.18-.07.18-1.23,0-.12A3.47,3.47,0,0,1,44.6,26Zm-3.08,2.57a.89.89,0,0,1,.25-1.76.9.9,0,0,1,.41.17.92.92,0,0,1,.28.35.88.88,0,0,1,.07.48.93.93,0,0,1-.34.58.89.89,0,0,1-.67.18Zm-.79-4.16a3.38,3.38,0,0,1,1.06-.12l-.2,1.35a2,2,0,0,0-.86.22,2.09,2.09,0,0,0-.37.23l-1.08-.84a3.43,3.43,0,0,1,1.45-.83Zm-2.29,4.44a3.4,3.4,0,0,1-.16-1.64,3.44,3.44,0,0,1,.56-1.44l1.07.84a2,2,0,0,0-.21,1.73l-.48.21Zm.56,1a3.35,3.35,0,0,1-.26-.36l.59-.23L40,29a2.07,2.07,0,0,0,.7.57l.28.11L40.82,31a3.33,3.33,0,0,1-.82-.34,3.42,3.42,0,0,1-1-.83Zm4.44.76a3.39,3.39,0,0,1-1.26.47h-.05a3.65,3.65,0,0,1-.51,0h-.1l.2-1.35a1.88,1.88,0,0,0,.38-.05l.1,0,.28-.1a2,2,0,0,0,.37-.2l.61.48.48.38A3.5,3.5,0,0,1,43.43,30.6Z"/><path class="cls-1" d="M21.83,42.88a.19.19,0,0,1,.14.06l.37.4a2,2,0,0,1-.76.58,2.61,2.61,0,0,1-1.08.2,2.55,2.55,0,0,1-1-.19,2.22,2.22,0,0,1-.77-.54,2.34,2.34,0,0,1-.49-.82,3.07,3.07,0,0,1-.17-1,2.89,2.89,0,0,1,.18-1,2.4,2.4,0,0,1,.51-.82,2.32,2.32,0,0,1,.79-.53,2.62,2.62,0,0,1,1-.19,2.5,2.5,0,0,1,1,.18,2.35,2.35,0,0,1,.73.48l-.31.44-.07.07a.2.2,0,0,1-.12,0l-.11,0-.12-.07-.15-.1-.2-.1-.27-.07a1.83,1.83,0,0,0-.35,0,1.56,1.56,0,0,0-.62.12,1.35,1.35,0,0,0-.48.35,1.6,1.6,0,0,0-.31.56,2.34,2.34,0,0,0-.11.75,2.23,2.23,0,0,0,.12.76,1.67,1.67,0,0,0,.33.56,1.4,1.4,0,0,0,.49.35,1.5,1.5,0,0,0,.6.12l.35,0a1.46,1.46,0,0,0,.29-.07,1.27,1.27,0,0,0,.25-.12,1.55,1.55,0,0,0,.23-.18l.07-.05Z"/><path class="cls-1" d="M25.95,43.3v.78H23V39h.94V43.3Z"/><path class="cls-1" d="M31.27,41.54a2.83,2.83,0,0,1-.18,1,2.41,2.41,0,0,1-.52.82,2.36,2.36,0,0,1-.81.54,2.92,2.92,0,0,1-2.1,0,2.38,2.38,0,0,1-.81-.54,2.43,2.43,0,0,1-.52-.82,3,3,0,0,1,0-2.06,2.42,2.42,0,0,1,.52-.82,2.38,2.38,0,0,1,.81-.54,2.73,2.73,0,0,1,1-.19,2.84,2.84,0,0,1,.72.09,2.55,2.55,0,0,1,.62.25,2.31,2.31,0,0,1,.51.4,2.39,2.39,0,0,1,.38.52,2.54,2.54,0,0,1,.24.62A3,3,0,0,1,31.27,41.54Zm-1,0a2.32,2.32,0,0,0-.11-.75,1.6,1.6,0,0,0-.32-.56,1.36,1.36,0,0,0-.5-.35,1.87,1.87,0,0,0-1.33,0,1.37,1.37,0,0,0-.5.35,1.59,1.59,0,0,0-.32.56,2.55,2.55,0,0,0,0,1.49,1.57,1.57,0,0,0,.32.56,1.39,1.39,0,0,0,.5.35,1.87,1.87,0,0,0,1.33,0,1.37,1.37,0,0,0,.5-.35,1.59,1.59,0,0,0,.32-.56A2.32,2.32,0,0,0,30.3,41.54Z"/><path class="cls-1" d="M34.13,43.31a1.25,1.25,0,0,0,.49-.09A1,1,0,0,0,35,43a1.14,1.14,0,0,0,.23-.4,1.64,1.64,0,0,0,.08-.52V39h.94v3a2.34,2.34,0,0,1-.15.83A1.85,1.85,0,0,1,35,44a2.55,2.55,0,0,1-1.75,0,1.85,1.85,0,0,1-1.08-1.1A2.34,2.34,0,0,1,32,42V39H33v3a1.65,1.65,0,0,0,.08.53,1.14,1.14,0,0,0,.23.4,1,1,0,0,0,.36.26A1.25,1.25,0,0,0,34.13,43.31Z"/><path class="cls-1" d="M41.79,41.54a2.74,2.74,0,0,1-.19,1,2.29,2.29,0,0,1-1.33,1.32,2.85,2.85,0,0,1-1,.19H37.29V39h1.93a2.82,2.82,0,0,1,1,.19,2.36,2.36,0,0,1,.81.52,2.32,2.32,0,0,1,.52.8A2.74,2.74,0,0,1,41.79,41.54Zm-1,0a2.37,2.37,0,0,0-.11-.75,1.55,1.55,0,0,0-.32-.56,1.39,1.39,0,0,0-.5-.35,1.73,1.73,0,0,0-.67-.12h-1v3.56h1a1.73,1.73,0,0,0,.67-.12,1.39,1.39,0,0,0,.5-.35,1.55,1.55,0,0,0,.32-.56A2.37,2.37,0,0,0,40.82,41.54Z"/><path class="cls-1" d="M43.73,39.42H43.3v1.23H43V39.42h-.44v-.22h1.14Z"/><path class="cls-1" d="M45.49,39.19v1.45h-.24v-.93s0-.08,0-.12l-.44.82a.1.1,0,0,1-.1.06h0a.1.1,0,0,1-.1-.06l-.44-.82v.06s0,0,0,.06v.93h-.24V39.19h.28l0,0,.43.8,0,.07,0,.07,0-.07,0-.07.43-.8,0,0h.28Z"/></svg>