<svg id="Calque_1" data-name="Calque 1" xmlns="http://www.w3.org/2000/svg" viewBox="0 0 50 50"><defs><style>.cls-1,.cls-3,.cls-5{fill:#fff;}.cls-2{fill:#5a9dd6;}.cls-3{font-size:6px;}.cls-3,.cls-5{font-family:Lato-Bold, Lato;font-weight:700;}.cls-4{letter-spacing:-0.04em;}.cls-5{font-size:2px;}</style></defs><title>Plan de travail 1 copie</title><path class="cls-1" d="M9.35,29c-4.23,0-7.65-3.38-7.65-6s1.2-3.73,3.06-4.82a5.73,5.73,0,0,1-.14-1.27c0-4,4.07-7.17,9.09-7.17a11.39,11.39,0,0,1,2.47.27,5.71,5.71,0,0,1,0-.57c0-2.87,2.14-5.34,5.22-6.49v12H16.5L25,25.48l8.5-10.57H28.63V2.72C32,3.78,34.32,6.36,34.32,9.37c0,.16,0,.32,0,.48a11.46,11.46,0,0,1,2-.17c5,0,9.09,3.21,9.09,7.17a5.74,5.74,0,0,1-.14,1.27c1.86,1.1,3.06,2.17,3.06,4.83s-3.43,6-7.65,6Z"/><path class="cls-2" d="M46.69,26.69l-1.39-.37a.11.11,0,0,0,0,0,3.9,3.9,0,0,0,0-.5l.22-.09,1.12-.45a.3.3,0,0,0,.19-.36l-.25-.95a.3.3,0,0,0-.34-.22l-.28,0-1.18.16a4.36,4.36,0,0,0-.22-.43l1.05-1a.3.3,0,0,0,0-.4l-.14-.19L45,21.34a.27.27,0,0,0-.29-.12l-.11,0L43.3,22l-.3-.25.64-1.33a.3.3,0,0,0-.1-.39l-.83-.53a.27.27,0,0,0-.32,0l-.07.06-.62.73-.43.51h0l-.09,0,0-1.62a.29.29,0,0,0-.25-.31l-.54-.08L40,18.72H40a.26.26,0,0,0-.19,0,.32.32,0,0,0-.14.19l-.26.94-.17.62h-.29l0-.05-.3-.7v0L38.25,19a.33.33,0,0,0-.12-.14.27.27,0,0,0-.24,0l-.94.28a.3.3,0,0,0-.21.34L37,21l-.3.14,0,0-1.15-1.15a.29.29,0,0,0-.41,0l-.77.6a.29.29,0,0,0-.07.39l.81,1.37-.26.28h0l-1.48-.68a.29.29,0,0,0-.38.11l-.51.83a.29.29,0,0,0,.08.4l.74.59.53.42h0c0,.12-.09.25-.14.38h0l-1.62,0a.3.3,0,0,0-.32.25l-.15,1a.3.3,0,0,0,.23.34l1.56.44h0a2.86,2.86,0,0,0,0,.34h0l-1.51.61a.29.29,0,0,0-.19.36l.25.95a.29.29,0,0,0,.34.22l1.59-.22c0,.12.11.23.16.34l-.12.11-1,1a.3.3,0,0,0,0,.41l.58.79a.3.3,0,0,0,.4.08l1.38-.76.27.25-.25.55-.38.84a.29.29,0,0,0,.11.38l.84.51a.3.3,0,0,0,.4-.08l1-1.22.4.14,0,1.54a.3.3,0,0,0,.26.31l.83.12.14,0a.3.3,0,0,0,.33-.23l.27-1,.14-.5h.22l.35.86.11.29.1.24a.3.3,0,0,0,.36.19l.95-.25a.25.25,0,0,0,.14-.08.32.32,0,0,0,.08-.26l-.08-.61-.07-.53,0-.27.11,0,.29-.14,0,0,1,1a.3.3,0,0,0,.41,0l.78-.59a.3.3,0,0,0,.07-.4l-.71-1.22c.11-.11.22-.23.33-.36l1.31.59a.3.3,0,0,0,.39-.11l.52-.83a.29.29,0,0,0-.07-.39l-1.14-.91a4.57,4.57,0,0,0,.16-.44l1.44,0a.3.3,0,0,0,.31-.26l.14-1A.3.3,0,0,0,46.69,26.69ZM43.6,25.07a4.5,4.5,0,0,1-.66,4.07l-1.25-1L41.54,28c.06-.09.1-.19.15-.27a2.58,2.58,0,0,0,.24-2Zm-.37-.83-1.53.61-.15.06a2.65,2.65,0,0,0-.5-.53,2.86,2.86,0,0,0-.64-.39l-.24-.1.24-1.62,0-.15a4.57,4.57,0,0,1,2.8,2.12Zm-4.06,3.38a1.17,1.17,0,0,1,.34-2.32,1.19,1.19,0,0,1,.54.23,1.22,1.22,0,0,1,.37.46,1.16,1.16,0,0,1,.09.64,1.23,1.23,0,0,1-.45.77,1.17,1.17,0,0,1-.88.23Zm-1-5.48A4.45,4.45,0,0,1,39.53,22l-.26,1.78a2.66,2.66,0,0,0-1.13.29,2.76,2.76,0,0,0-.48.3l-1.43-1.11a4.52,4.52,0,0,1,1.91-1.09Zm-3,5.85a4.48,4.48,0,0,1-.22-2.16,4.53,4.53,0,0,1,.74-1.89L37,25a2.67,2.67,0,0,0-.27,2.27l-.64.27Zm.74,1.3a4.41,4.41,0,0,1-.34-.48l.77-.31.93-.37a2.72,2.72,0,0,0,.92.76,2.78,2.78,0,0,0,.37.15l-.26,1.78a4.38,4.38,0,0,1-1.08-.44,4.51,4.51,0,0,1-1.32-1.1Zm5.84,1A4.47,4.47,0,0,1,40,30.9H40a4.81,4.81,0,0,1-.68,0h-.14l.26-1.78a2.48,2.48,0,0,0,.5-.07l.14,0,.37-.14a2.58,2.58,0,0,0,.49-.26l.8.63.63.5A4.61,4.61,0,0,1,41.7,30.28Z"/><text class="cls-3" transform="translate(14.73 40.85)">C<tspan class="cls-4" x="4.02" y="0">L</tspan><tspan x="6.89" y="0">OUD</tspan></text><text class="cls-5" transform="translate(35.48 37.53)">TM</text></svg>