<svg id="Calque_1" data-name="Calque 1" xmlns="http://www.w3.org/2000/svg" viewBox="0 0 50 50"><defs><style>.cls-1{font-size:6px;fill:#fff;}.cls-1,.cls-2,.cls-6{font-family:Lato-Bold, Lato;font-weight:700;}.cls-2,.cls-6{font-size:2px;}.cls-2{fill:#feffff;}.cls-3{fill:#fdfdfd;stroke:#fff;stroke-miterlimit:10;stroke-width:0.5px;}.cls-4{fill:#fafafa;}.cls-5{fill:#5b9cd1;}.cls-6{fill:#203d59;}</style></defs><title>Plan de travail 2 copie 17</title><text class="cls-1" transform="translate(8.13 40.8)">SANCTIONS <tspan x="0" y="7.2">LISTS</tspan></text><text class="cls-2" transform="translate(43.55 37.83)">TM</text><path class="cls-3" d="M28.47,3.35H12.55V32.82l21.14-.25a1.77,1.77,0,0,0,1.76-1.76l.19-20.29ZM28.76,5l5.18,5.18H28.76Zm5.9,26.81H13.54V4.33H27.78v6.88h6.88Z"/><path class="cls-4" d="M30.23,13.66H22.37a.49.49,0,0,0,0,1h7.91a.49.49,0,0,0,0-1Z"/><path class="cls-4" d="M20.6,11.72l-2.2,2-.65-.79A.45.45,0,0,0,17,13a.67.67,0,0,0,0,.77l1,1.2a.45.45,0,0,0,.66.06l2.55-2.29a.69.69,0,0,0,.14-.86.48.48,0,0,0-.74-.16Z"/><path class="cls-4" d="M30.23,19.06H22.37a.49.49,0,0,0,0,1h7.91a.49.49,0,0,0,0-1Z"/><path class="cls-4" d="M20.6,17.7l-2.12,1.7-.65-.65a.49.49,0,1,0-.72.65l1,1a.49.49,0,0,0,.65,0l2.45-1.94a.49.49,0,0,0-.6-.78Z"/><path class="cls-4" d="M26.43,24.46H22.28c-.14,0-.25.22-.25.49s.12.49.25.49h4.14c.14,0,.25-.22.25-.49S26.57,24.46,26.43,24.46Z"/><path class="cls-4" d="M20.6,23.1l-2.11,1.69-.65-.65a.49.49,0,0,0-.75.64l.05.05,1,1a.49.49,0,0,0,.65,0l2.45-1.94a.52.52,0,0,0-.63-.82Z"/><path class="cls-5" d="M36.88,23.5a6.66,6.66,0,1,0,0,7.4A6.66,6.66,0,0,0,36.88,23.5Zm-2.94,6.32a.51.51,0,0,1-.72,0h0l-1.9-1.9-2,2a.51.51,0,0,1-.69-.65l2-2-1.93-2a.51.51,0,1,1,.73-.73l1.9,1.9,1.82-1.81a.51.51,0,0,1,.73.73l-1.81,1.81,1.9,1.9a.51.51,0,0,1,0,.72Z"/><text class="cls-6" transform="translate(-7.95 37.83)">TM</text></svg>