<svg id="Calque_1" data-name="Calque 1" xmlns="http://www.w3.org/2000/svg" viewBox="0 0 50 50"><defs><style>.cls-1{font-size:6px;}.cls-1,.cls-2,.cls-3,.cls-4{fill:#203d59;}.cls-1,.cls-2{font-family:Lato-Bold, Lato;font-weight:700;}.cls-2{font-size:2px;}.cls-3{stroke:#203d59;stroke-miterlimit:10;stroke-width:0.5px;}.cls-5{fill:#5a9dd6;}</style></defs><title>Plan de travail 2 copie 3</title><text class="cls-1" transform="translate(19.53 40.85)">PPE</text><text class="cls-2" transform="translate(31.71 37.61)">TM</text><path class="cls-3" d="M31.13,3.38H14.76V33.69l21.74-.26a1.82,1.82,0,0,0,1.81-1.81l.19-20.87Zm.3,1.72,5.33,5.33H31.43ZM37.5,32.68H15.77V4.39H30.43v7.07H37.5Z"/><path class="cls-4" d="M24.46,14.56h6.6a.52.52,0,0,0,.52-.52h0a.52.52,0,0,0-.52-.52h-6.6a.52.52,0,0,0-.52.52h0A.52.52,0,0,0,24.46,14.56Z"/><path class="cls-4" d="M23.94,16a.52.52,0,0,0,.52.52h8.88a.52.52,0,0,0,.52-.52h0a.52.52,0,0,0-.52-.52H24.46a.52.52,0,0,0-.52.52h0Z"/><path class="cls-4" d="M23.94,18a.52.52,0,0,0,.52.52h8.88a.52.52,0,0,0,.52-.52h0a.52.52,0,0,0-.52-.52H24.46a.52.52,0,0,0-.52.52h0Z"/><path class="cls-4" d="M23.94,22.88a.52.52,0,0,0,.52.52h6.6a.52.52,0,0,0,.52-.52h0a.52.52,0,0,0-.52-.52h-6.6a.52.52,0,0,0-.52.52h0Z"/><path class="cls-4" d="M23.94,24.89a.52.52,0,0,0,.52.52h4.78a.52.52,0,0,0,.52-.52h0a.52.52,0,0,0-.52-.52H24.47a.52.52,0,0,0-.52.52h0Z"/><path class="cls-4" d="M23.94,26.89a.52.52,0,0,0,.52.52h8.88a.52.52,0,0,0,.52-.52h0a.52.52,0,0,0-.52-.52H24.46a.52.52,0,0,0-.52.52h0Z"/><path class="cls-5" d="M18.09,16.35V19h4.24V16.35a.42.42,0,0,0-.43-.4h-.48a.27.27,0,0,0-.21.1L20.5,17l-.17-.34.28-.54a.11.11,0,0,0-.05-.15h-.61a.11.11,0,0,0-.11.16l.28.54-.17.34L19.24,16a.27.27,0,0,0-.22-.1h-.51A.42.42,0,0,0,18.09,16.35Z"/><path class="cls-5" d="M20.22,15.64a1.3,1.3,0,1,0-1.3-1.3A1.3,1.3,0,0,0,20.22,15.64Z"/><path class="cls-5" d="M18.09,27.87h4.24V25.19a.42.42,0,0,0-.43-.4h-.48a.27.27,0,0,0-.21.1l-.71.93-.17-.34.28-.54a.11.11,0,0,0-.05-.15h-.61a.11.11,0,0,0-.11.16l.28.54-.17.33-.69-.93a.27.27,0,0,0-.22-.1h-.51a.42.42,0,0,0-.43.4v2.68Z"/><path class="cls-5" d="M18.92,23.19a1.3,1.3,0,1,0,1.3-1.3A1.3,1.3,0,0,0,18.92,23.19Z"/></svg>