<svg id="Calque_1" data-name="Calque 1" xmlns="http://www.w3.org/2000/svg" viewBox="0 0 50 50"><defs><style>.cls-1{font-size:6px;fill:#fff;}.cls-1,.cls-3{font-family:Lato-Bold, Lato;font-weight:700;}.cls-2{letter-spacing:-0.08em;}.cls-3{font-size:2px;fill:#fafafa;}.cls-4{fill:#e7e6e6;opacity:0.81;isolation:isolate;}.cls-5{fill:#5a9dd6;}.cls-6{fill:#1b1b1b;}</style></defs><title>Plan de travail 2 copie 8</title><text class="cls-1" transform="translate(9.8 40.8)">COM<tspan class="cls-2" x="14.4" y="0">P</tspan><tspan x="17.69" y="0">ANY</tspan></text><text class="cls-3" transform="translate(42.24 37.59)">TM</text><path class="cls-4" d="M3.3,6h29A1.65,1.65,0,0,1,34,7.63V24.69a1.65,1.65,0,0,1-1.63,1.66H3.3a1.65,1.65,0,0,1-1.63-1.66V7.63A1.65,1.65,0,0,1,3.3,6Z"/><g id="_16" data-name=" 16"><path class="cls-5" d="M8.33,23.18l1.26,2.4h3.27l-2-3.79a3.93,3.93,0,0,0-.5-5.47,3.77,3.77,0,0,0-2.89-.87l1.67,3.17L8.3,20,6.7,20,5,16.79a3.93,3.93,0,0,0,.42,5.47,3.77,3.77,0,0,0,2.88.91Z"/><path class="cls-5" d="M21.57,21.82a3.28,3.28,0,0,0-4.41-1.56,3.39,3.39,0,0,0-1,5.32h1.57a2.47,2.47,0,0,1-1.42-3.16A2.4,2.4,0,0,1,19.45,21a2.47,2.47,0,0,1,1.42,3.16,2.44,2.44,0,0,1-1.22,1.35l-.21.09H21A3.4,3.4,0,0,0,21.57,21.82Z"/><path class="cls-5" d="M11.44,22.15l1.75.89a5.56,5.56,0,0,0,.06,1.1l-.57.37.57,1.08h2.55a3.71,3.71,0,0,1,.54-5.16A3.56,3.56,0,0,1,21.4,21a3.72,3.72,0,0,1,0,4.62h4.4L26,25a.45.45,0,0,0-.21-.53L24,23.52a5.58,5.58,0,0,0-.06-1.1l1.69-1.11a.45.45,0,0,0,.15-.55L25,19.14a.43.43,0,0,0-.52-.22l-1.91.65a5.38,5.38,0,0,0-.8-.73l.42-2a.45.45,0,0,0-.27-.5l-1.68-.6a.43.43,0,0,0-.52.21l-.9,1.83a5.2,5.2,0,0,0-1.08.06l-1.09-1.72a.43.43,0,0,0-.54-.15l-1.6.79a.45.45,0,0,0-.22.52l.64,1.94a5.45,5.45,0,0,0-.73.82l-1.93-.42a3.94,3.94,0,0,1-.87,2.47Z"/><path class="cls-5" d="M26.06,24.36a.48.48,0,0,1,.23.57l-.22.65h1.3l1.1-1.93a.85.85,0,0,0-.3-1.15l0,0,2.66-4.65.1.06a.19.19,0,0,0,.26-.08h0L31.94,16a.21.21,0,0,0-.08-.27l-.49-.3a.2.2,0,0,0-.27.07L30,17.12a.19.19,0,0,0,.06.26h0l.1.06-2.65,4.67,0,0a.82.82,0,0,0-1.13.3L25.42,24Z"/></g><path class="cls-6" d="M44.73,3.87H40.22a3.38,3.38,0,0,0-3.35,3.4v22.6a3.38,3.38,0,0,0,3.35,3.41h4.51a3.38,3.38,0,0,0,3.34-3.41V7.27A3.38,3.38,0,0,0,44.73,3.87ZM42.48,20.78a1,1,0,1,1,.93-1h0A.94.94,0,0,1,42.48,20.78Zm-.4-3.33a.4.4,0,1,1,.4.41.4.4,0,0,1-.4-.41h0ZM45.77,11H39.18a.34.34,0,0,1,0-.68h6.64a.34.34,0,0,1,0,.68Zm0-1.7H39.18a.34.34,0,0,1,0-.68h6.64a.34.34,0,0,1,0,.68Zm0-1.7H39.18a.34.34,0,0,1,0-.68h6.59a.34.34,0,0,1,0,.68ZM31.8,3.2H5.71A4.3,4.3,0,0,0,1.45,7.53V23.39a4.3,4.3,0,0,0,4.26,4.33h9.71V30a2.31,2.31,0,0,1-.21.87L12,32.1a3.19,3.19,0,0,1-1.15.25h-.64c-.34,0-.63.2-.63.44v0c0,.25.28.44.63.44H27.28c.34,0,.63-.2.63-.44v0c0-.25-.13-.44-.29-.44s-.57,0-.91-.07l-4.13-1.56a.89.89,0,0,1-.53-.69V27.72H31.8a4.3,4.3,0,0,0,4.26-4.33V7.53A4.3,4.3,0,0,0,31.79,3.2ZM27.64,26.84H24.21a.44.44,0,0,1,0-.89h3.43a.44.44,0,0,1,0,.89Zm1.46,0a.45.45,0,1,1,.45-.46.45.45,0,0,1-.45.46h0Zm4.5-3.47a1.84,1.84,0,0,1-1.8,1.83H5.71a1.84,1.84,0,0,1-1.8-1.83V7.53A1.83,1.83,0,0,1,5.71,5.7H31.79a1.83,1.83,0,0,1,1.8,1.83Z"/></svg>