<svg id="Calque_1" data-name="Calque 1" xmlns="http://www.w3.org/2000/svg" viewBox="0 0 50 50"><defs><style>.cls-1{font-size:6px;}.cls-1,.cls-3,.cls-4{fill:#203d59;}.cls-1,.cls-3{font-family:Lato-Bold, Lato;font-weight:700;}.cls-2{letter-spacing:-0.04em;}.cls-3{font-size:2px;}.cls-5{fill:#1b1b1b;}.cls-6{fill:#5a9dd6;}</style></defs><title>Plan de travail 2 copie 5</title><text class="cls-1" transform="translate(14.03 40.8)">S<tspan class="cls-2" x="3.22" y="0">T</tspan><tspan x="6.55" y="0">ORES</tspan></text><text class="cls-3" transform="translate(37.71 37.61)">TM</text><path class="cls-4" d="M14.24,23v-1.9H20.6V23Zm6.36-5V16.1H14.24V18Zm-.17,8.12H11.38v-23H27.72v11H20.43v.62H12.89v4h7.54v1.11H12.89v4h7.54ZM22.41,7A1.62,1.62,0,1,0,24,5.35,1.62,1.62,0,0,0,22.41,7Zm-4,0A1.62,1.62,0,1,0,20,5.35,1.62,1.62,0,0,0,18.43,7Zm-5.19,7H26.41V10H13.24Zm1-2.9H25.41v1.9H14.24Zm8.87,1.15h1.53v-.53H23.12Z"/><path class="cls-5" d="M33.62,27.41v.85c2.34.08,4,.29,4,.55s-2.64.57-5.91.57-5.91-.26-5.91-.57,1.36-.43,3.33-.52v-.88h-7V15.63H40.63V27.41h-7Zm5.79-1V16.54h-16V26.4Z"/><path class="cls-6" d="M32.1,14.25a.15.15,0,0,0,.18,0,.15.15,0,0,0,0-.17l-.74-1.87h1.29a3,3,0,0,1,1.83.72,2.46,2.46,0,0,1,.65,1.86h1.79A4.2,4.2,0,0,0,36,11.64a4.85,4.85,0,0,0-3.2-1.24v0l-.22,0h-.95l.74-1.87a.15.15,0,0,0,0-.18.16.16,0,0,0-.09,0,.15.15,0,0,0-.09,0l-3.67,2.82a.15.15,0,0,0-.06.11.15.15,0,0,0,.06.11ZM21,28.06a.15.15,0,0,0-.23.17l.74,1.87H20.22a3,3,0,0,1-1.82-.72,2.46,2.46,0,0,1-.65-1.86H16a4.22,4.22,0,0,0,1.19,3.14,4.81,4.81,0,0,0,3.2,1.24v0l.22,0h.95l-.74,1.87a.15.15,0,0,0,0,.17.15.15,0,0,0,.09,0,.14.14,0,0,0,.09,0l3.67-2.82a.15.15,0,0,0,0-.21l0,0Z"/></svg>