<svg id="Calque_1" data-name="Calque 1" xmlns="http://www.w3.org/2000/svg" viewBox="0 0 50 50"><defs><style>.cls-1{font-size:6px;}.cls-1,.cls-3{fill:#fff;font-family:Lato-Bold, Lato;font-weight:700;}.cls-2{letter-spacing:-0.04em;}.cls-3{font-size:2px;}.cls-4{fill:#1b1b1b;}.cls-5{fill:#f4f1f0;}.cls-6{fill:#5a9dd6;}</style></defs><title>Plan de travail 2 copie 10</title><text class="cls-1" transform="translate(8.66 40.6)">CUS<tspan class="cls-2" x="11.61" y="0">T</tspan><tspan x="14.95" y="0">OMER</tspan></text><text class="cls-3" transform="translate(42.71 37.55)">TM</text><g id="_3" data-name=" 3"><path class="cls-4" d="M39.66,3h-30a.89.89,0,0,0-.88.88V24a1,1,0,0,0,.88,1h6.8l.73-.28c.48-.19,1-.37,1.47-.58,1.12-.47,1.8-.77,2.19-1V22a4.36,4.36,0,0,1-.56-.95H10.53V5.18H38.7V21.09H29a4.4,4.4,0,0,1-.56.95V23.2c.39.19,1.07.5,2.19,1l1.47.58.73.28h6.8a1,1,0,0,0,.88-1V3.87A.88.88,0,0,0,39.66,3Z"/><path class="cls-5" d="M35.51,27.74c-.68-1.06-3-1.72-5.22-2.66L30.16,25a25.61,25.61,0,0,1-2.67-1.22l0-2.17a2.14,2.14,0,0,0,.44-.56A5.47,5.47,0,0,0,28.58,19c.53.15,1.08-.79,1.11-1.29S29.62,15.88,29,16a13.29,13.29,0,0,0,.18-2.37,4.32,4.32,0,0,0-4.51-3.57,4.31,4.31,0,0,0-4.51,3.57A13.31,13.31,0,0,0,20.32,16c-.65-.13-.75,1.19-.72,1.67s.59,1.44,1.11,1.29a5.46,5.46,0,0,0,.66,2.12,2.13,2.13,0,0,0,.44.56l0,2.17A25.61,25.61,0,0,1,19.13,25l-.12.05c-2.26.94-4.54,1.6-5.22,2.66s-.43,4.18-.43,4.18H35.93S36.11,28.69,35.51,27.74Z"/><polygon class="cls-6" points="12.84 8.8 14.11 10.06 12.84 11.33 13.38 11.87 15.19 10.06 13.38 8.25 12.84 8.8"/><rect class="cls-6" x="16.19" y="9.29" width="2.31" height="0.77"/><path class="cls-4" d="M38,33.73H11.26s-.84-4.92,0-5.73c4.2-4,22-3.67,26.73,0C38.93,28.74,38,33.73,38,33.73Z"/></g></svg>