<svg id="Calque_1" data-name="Calque 1" xmlns="http://www.w3.org/2000/svg" viewBox="0 0 50 50"><defs><style>.cls-1{fill:#203d59;}.cls-2,.cls-4,.cls-6{fill:#fff;}.cls-3{fill:#5a9dd6;}.cls-4{font-size:4px;}.cls-4,.cls-6{font-family:Lato-Bold, Lato;font-weight:700;}.cls-5{letter-spacing:-0.04em;}.cls-6{font-size:2px;}</style></defs><title>Plan de travail 1 copie</title><circle class="cls-1" cx="25" cy="25" r="24"/><path class="cls-2" d="M12.85,26.61c-3.28,0-5.94-2.63-5.94-4.68S7.84,19,9.28,18.18a4.45,4.45,0,0,1-.11-1c0-3.07,3.16-5.57,7.06-5.57a8.85,8.85,0,0,1,1.92.21,4.44,4.44,0,0,1,0-.45c0-2.23,1.66-4.15,4.06-5V15.7H18.4L25,23.91l6.6-8.21H27.82V6.23c2.59.82,4.42,2.82,4.42,5.16,0,.13,0,.25,0,.37a8.9,8.9,0,0,1,1.55-.13c3.9,0,7.06,2.49,7.06,5.57a4.46,4.46,0,0,1-.11,1c1.44.85,2.38,1.69,2.38,3.75s-2.66,4.68-5.94,4.68Z"/><path class="cls-3" d="M41.84,24.84l-1.08-.29h0a3,3,0,0,0,0-.39l.17-.07.87-.35a.23.23,0,0,0,.15-.28l-.2-.74a.23.23,0,0,0-.26-.17l-.22,0-.91.13a3.38,3.38,0,0,0-.17-.33l.82-.76a.23.23,0,0,0,0-.31l-.11-.14-.34-.47a.21.21,0,0,0-.22-.09l-.08,0-1.05.58L39,21l.5-1a.23.23,0,0,0-.08-.3l-.64-.41a.21.21,0,0,0-.25,0l-.06,0-.48.57-.33.4h0l-.07,0,0-1.26a.23.23,0,0,0-.2-.24L37,18.7l-.28,0h-.05a.2.2,0,0,0-.15,0,.25.25,0,0,0-.11.15l-.2.73L36,20h-.22v0l-.24-.54v0l-.27-.58a.25.25,0,0,0-.1-.11.21.21,0,0,0-.19,0l-.73.22a.23.23,0,0,0-.16.27l.2,1.21-.23.11,0,0-.89-.89a.23.23,0,0,0-.32,0l-.6.47a.23.23,0,0,0-.05.31l.63,1.07-.2.22h0l-1.15-.53a.23.23,0,0,0-.3.09l-.4.65a.23.23,0,0,0,.06.31l.58.46.41.33h0c0,.1-.07.19-.11.29h0l-1.26,0a.24.24,0,0,0-.24.2l-.12.75a.23.23,0,0,0,.18.26l1.21.34h0a2.22,2.22,0,0,0,0,.27h0l-1.17.47a.23.23,0,0,0-.14.28l.2.74a.23.23,0,0,0,.26.17l1.24-.17c0,.09.08.18.13.27l-.09.09-.79.75a.23.23,0,0,0,0,.32l.45.61a.23.23,0,0,0,.31.06L32.92,28l.21.2-.19.43-.29.66a.23.23,0,0,0,.09.3l.65.4a.24.24,0,0,0,.31-.06l.74-.95.31.11,0,1.2a.23.23,0,0,0,.2.24l.64.09h.11a.23.23,0,0,0,.26-.18l.21-.76.11-.39h.17l.27.66.09.22.08.19a.23.23,0,0,0,.28.15l.74-.19a.19.19,0,0,0,.11-.07.25.25,0,0,0,.06-.2L38,29.58l-.06-.41,0-.21.09,0,.23-.11,0,0,.76.78a.24.24,0,0,0,.32,0l.6-.46a.23.23,0,0,0,.06-.31l-.55-.95.26-.28,1,.46A.23.23,0,0,0,41,28l.4-.65a.23.23,0,0,0-.06-.3l-.89-.71a3.55,3.55,0,0,0,.12-.34h1.12a.23.23,0,0,0,.24-.2L42,25.1A.23.23,0,0,0,41.84,24.84Zm-2.4-1.26a3.5,3.5,0,0,1-.51,3.16L38,26l-.12-.09c0-.07.08-.14.12-.21a2,2,0,0,0,.19-1.57Zm-.29-.65L38,23.41l-.12,0a2.06,2.06,0,0,0-.39-.41,2.22,2.22,0,0,0-.5-.3l-.18-.08L37,21.41l0-.12a3.55,3.55,0,0,1,2.17,1.65ZM36,25.56a.91.91,0,0,1,.26-1.8.92.92,0,0,1,.42.18.94.94,0,0,1,.28.36.9.9,0,0,1,.07.49,1,1,0,0,1-.35.6.91.91,0,0,1-.68.18Zm-.81-4.25a3.46,3.46,0,0,1,1.08-.13l-.2,1.38a2.07,2.07,0,0,0-.88.23,2.14,2.14,0,0,0-.38.24l-1.11-.86a3.51,3.51,0,0,1,1.48-.85Zm-2.35,4.54a3.48,3.48,0,0,1-.17-1.68,3.52,3.52,0,0,1,.57-1.47l1.09.86a2.08,2.08,0,0,0-.21,1.77l-.49.21Zm.58,1a3.42,3.42,0,0,1-.27-.37l.6-.24.72-.29a2.12,2.12,0,0,0,.72.59l.29.12-.2,1.38a3.4,3.4,0,0,1-.84-.34,3.5,3.5,0,0,1-1-.85Zm4.54.77a3.47,3.47,0,0,1-1.29.48h-.05a3.73,3.73,0,0,1-.53,0H36l.2-1.38a1.93,1.93,0,0,0,.39-.05l.11,0,.28-.11a2,2,0,0,0,.38-.2l.62.49.49.39A3.58,3.58,0,0,1,38,27.63Z"/><text class="cls-4" transform="translate(18.16 40.76)">C<tspan class="cls-5" x="2.68" y="0">L</tspan><tspan x="4.59" y="0">OUD</tspan></text><text class="cls-6" transform="translate(34.53 39.05)">TM</text></svg>