<svg id="Calque_1" data-name="Calque 1" xmlns="http://www.w3.org/2000/svg" viewBox="0 0 50 50"><defs><style>.cls-1,.cls-5{fill:#203d59;}.cls-2{font-size:5px;}.cls-2,.cls-4{fill:#fff;}.cls-2,.cls-3{font-family:Lato-Bold, Lato;font-weight:700;}.cls-3{font-size:2px;fill:#f4f7f9;}.cls-4,.cls-6{stroke:#fdfdfd;}.cls-4,.cls-5,.cls-6{stroke-miterlimit:10;}.cls-4{stroke-width:0.5px;}.cls-5{stroke:#feffff;}.cls-6{fill:none;}.cls-7{fill:#066a36;}</style></defs><title>Plan de travail 2 copie 22</title><circle class="cls-1" cx="25" cy="24.96" r="24.96"/><text class="cls-2" transform="translate(8.65 40.05)">COMPLIANCE <tspan x="8.83" y="6">SHEET</tspan></text><text class="cls-3" transform="translate(42.75 37.8)">TM</text><path class="cls-4" d="M27.76,6.87H15.64V30.23L31.73,30a1.38,1.38,0,0,0,1.34-1.4l.14-16.08ZM28,8.2l3.94,4.11H28Zm4.49,21.26H16.39V7.65H27.23V13.1h5.23Z"/><path class="cls-5" d="M29.09,15h-6a.39.39,0,0,0,0,.78h6a.39.39,0,0,0,0-.78Z"/><path class="cls-5" d="M29.09,19.33h-6a.39.39,0,0,0,0,.78h6a.39.39,0,0,0,0-.78Z"/><path class="cls-5" d="M26.2,23.61H23c-.11,0-.19.17-.19.39s.09.39.19.39H26.2c.11,0,.19-.17.19-.39S26.31,23.61,26.2,23.61Z"/><path class="cls-6" d="M36.59,29.7H35a.38.38,0,0,1-.41-.34V13.65a.29.29,0,0,1,0-.07l.81-3.4A.43.43,0,0,1,36,10a.45.45,0,0,1,.23.24l.81,3.4a.29.29,0,0,1,0,.07V29.36A.38.38,0,0,1,36.59,29.7Z"/><polygon class="cls-7" points="20 14.79 19.18 15.66 18.77 15.22 18.54 15.45 19.2 16.14 20.26 15.07 20 14.79"/><path class="cls-7" d="M19.37,13.68A1.76,1.76,0,1,0,21,15.44a1.72,1.72,0,0,0-1.68-1.76Zm0,3.19a1.44,1.44,0,1,1,1.38-1.44,1.41,1.41,0,0,1-1.38,1.44h0Z"/><polygon class="cls-7" points="20 19.07 19.18 19.94 18.77 19.5 18.54 19.73 19.2 20.42 20.26 19.35 20 19.07"/><path class="cls-7" d="M19.37,18A1.76,1.76,0,1,0,21,19.72,1.72,1.72,0,0,0,19.37,18Zm0,3.19a1.44,1.44,0,1,1,1.38-1.44,1.41,1.41,0,0,1-1.38,1.44h0Z"/><polygon class="cls-7" points="20 23.3 19.18 24.17 18.77 23.73 18.54 23.97 19.2 24.65 20.26 23.58 20 23.3"/><path class="cls-7" d="M19.37,22.2A1.76,1.76,0,1,0,21,23.95a1.72,1.72,0,0,0-1.68-1.75Zm0,3.19a1.44,1.44,0,1,1,1.38-1.44,1.41,1.41,0,0,1-1.38,1.44Z"/></svg>