<svg id="Calque_1" data-name="Calque 1" xmlns="http://www.w3.org/2000/svg" viewBox="0 0 50 50"><defs><style>.cls-1{fill:#203d59;}.cls-2,.cls-6{font-size:2px;}.cls-2{fill:#feffff;}.cls-2,.cls-3,.cls-6{font-family:Lato-Bold, Lato;font-weight:700;}.cls-3{font-size:5px;}.cls-3,.cls-6,.cls-8{fill:#fff;}.cls-4{letter-spacing:-0.03em;}.cls-5{letter-spacing:-0.07em;}.cls-7{fill:#5a9dd6;}</style></defs><title>Plan de travail 2 copie 14</title><circle class="cls-1" cx="25" cy="25" r="24.96"/><text class="cls-2" transform="translate(39.25 37.68)">TM</text><text class="cls-3" transform="translate(12.35 40.05)"><tspan class="cls-4">D</tspan><tspan class="cls-5" x="3.61" y="0">AT</tspan><tspan x="9.4" y="0">ABASE</tspan></text><text class="cls-6" transform="translate(43.81 38.61)"><tspan xml:space="preserve">       </tspan></text><path class="cls-7" d="M27,23.26l-1.41-.49a.11.11,0,0,0,0,0,4.66,4.66,0,0,0,0-.52l.23-.08L27,21.77a.31.31,0,0,0,.22-.35l-.19-1a.31.31,0,0,0-.34-.25l-.29,0-1.23.08a4.82,4.82,0,0,0-.2-.46l1.17-.93a.31.31,0,0,0,.08-.41l-.12-.2-.41-.66a.29.29,0,0,0-.29-.14l-.11,0-1.46.67c-.1-.1-.19-.2-.29-.28l.77-1.33a.31.31,0,0,0-.08-.41l-.81-.61a.29.29,0,0,0-.34,0l-.08.06-.69.71-.48.49h0l-.09,0,.16-1.67a.3.3,0,0,0-.24-.34l-.55-.12-.37-.08h-.07a.27.27,0,0,0-.2,0,.33.33,0,0,0-.16.19l-.34.95-.22.63h-.3v-.06l-.26-.74v0l-.29-.82a.34.34,0,0,0-.12-.15.28.28,0,0,0-.25-.06l-1,.22a.31.31,0,0,0-.24.34l.15,1.63-.32.12,0,0L16,15.43a.3.3,0,0,0-.41-.06l-.85.56a.3.3,0,0,0-.1.4l.74,1.48-.29.27h0l-1.48-.81a.3.3,0,0,0-.41.09l-.59.82a.31.31,0,0,0,0,.42l.72.67.51.48h0c-.06.12-.12.25-.17.38h0L12,20a.31.31,0,0,0-.35.24l-.23,1a.31.31,0,0,0,.21.36l1.58.57h0c0,.12,0,.24,0,.36h0l-1.6.52a.3.3,0,0,0-.22.36l.19,1a.3.3,0,0,0,.34.25l1.67-.11c0,.13.09.25.14.37L13.6,25l-1.13.92a.31.31,0,0,0-.07.41l.54.86a.31.31,0,0,0,.4.11l1.49-.69c.08.1.17.19.26.28l-.29.55-.46.85a.3.3,0,0,0,.09.41l.83.59a.31.31,0,0,0,.42,0L16.74,28l.4.18L17,29.81a.31.31,0,0,0,.24.34l.85.19.14,0a.31.31,0,0,0,.36-.21l.35-1,.18-.51h.23l.29.91.1.3.08.26a.31.31,0,0,0,.35.22l1-.19a.26.26,0,0,0,.15-.08.33.33,0,0,0,.1-.26l0-.64,0-.56,0-.29.12,0,.31-.11,0,0,.94,1.12a.31.31,0,0,0,.42.07l.85-.55a.31.31,0,0,0,.1-.4l-.64-1.31.37-.34,1.31.72a.31.31,0,0,0,.41-.09l.59-.83a.31.31,0,0,0,0-.41l-1.1-1c.07-.14.14-.29.2-.44l1.49.13a.31.31,0,0,0,.34-.24l.21-1A.31.31,0,0,0,27,23.26Zm-3.07-1.91a4.67,4.67,0,0,1-1,4.16L21.74,24.4l-.15-.13c.07-.08.12-.18.18-.28a2.68,2.68,0,0,0,.41-2.07Zm-.32-.89L22,21l-.16.05a2.75,2.75,0,0,0-.47-.59,3,3,0,0,0-.63-.45l-.24-.12.37-1.67,0-.16A4.74,4.74,0,0,1,23.63,20.46Zm-4.46,3.2a1.21,1.21,0,0,1,.52-2.37,1.23,1.23,0,0,1,.54.28,1.26,1.26,0,0,1,.34.51,1.2,1.2,0,0,1,0,.66,1.27,1.27,0,0,1-.53.76,1.21,1.21,0,0,1-.92.16Zm-.66-5.75A4.62,4.62,0,0,1,20,17.85l-.4,1.83a2.76,2.76,0,0,0-1.2.22,2.86,2.86,0,0,0-.52.27L16.45,18.9A4.69,4.69,0,0,1,18.51,17.91Zm-3.57,5.81a4.64,4.64,0,0,1-.06-2.25,4.71,4.71,0,0,1,.9-1.9l1.37,1.25a2.77,2.77,0,0,0-.45,2.33l-.69.22Zm.67,1.4a4.57,4.57,0,0,1-.32-.52l.82-.26,1-.31a2.83,2.83,0,0,0,.9.85,2.88,2.88,0,0,0,.37.18L18,26.9a4.55,4.55,0,0,1-1.08-.54,4.68,4.68,0,0,1-1.28-1.23Zm6,1.47a4.64,4.64,0,0,1-1.76.51h-.07a5,5,0,0,1-.71,0H18.9l.4-1.82a2.57,2.57,0,0,0,.52,0l.14,0,.39-.11a2.68,2.68,0,0,0,.52-.23l.78.72.62.56a4.78,4.78,0,0,1-.7.44Z"/><path class="cls-8" d="M28.81,11.63c-5.34,0-9.67-1.24-9.67-2.76S23.47,6.1,28.81,6.1s9.67,1.24,9.67,2.76S34.15,11.63,28.81,11.63Z"/><path class="cls-8" d="M38.48,11.08v3.31c0,1.52-4.33,2.76-9.67,2.76-.83,0-1.62,0-2.39-.09a1.55,1.55,0,0,0-.69-.26,1.53,1.53,0,0,0-.63-1.14l-.75-.59a1.53,1.53,0,0,0-1-.35,1.61,1.61,0,0,0-.39,0A1.52,1.52,0,0,0,22,14l-.92-.27a1.5,1.5,0,0,0-.46-.07,1.56,1.56,0,0,0-.86.26l-.1.07-.21-.16a1.59,1.59,0,0,0-.33-.15v-2.6C21.9,12.93,27.94,13,28.81,13S35.72,12.93,38.48,11.08Z"/><path class="cls-8" d="M28.81,22.68h-.42a1.49,1.49,0,0,0,.08-.78l-.15-1a1.56,1.56,0,0,0-.8-1.16,1.54,1.54,0,0,0-.08-1.29c.67,0,1.16,0,1.37,0,.87,0,6.91-.08,9.67-1.93v3.31C38.48,21.44,34.15,22.68,28.81,22.68Z"/><path class="cls-8" d="M27.2,26.58a1.54,1.54,0,0,0,.88-1.05l.24-.91a1.51,1.51,0,0,0,.05-.57h.44c.87,0,6.91-.08,9.67-1.93v3.31c0,1.52-4.33,2.76-9.67,2.76-.72,0-1.41,0-2.08-.07l.19-.26A1.53,1.53,0,0,0,27.2,26.58Z"/></svg>