<svg id="Calque_1" data-name="Calque 1" xmlns="http://www.w3.org/2000/svg" viewBox="0 0 50 50"><defs><style>.cls-1{fill:#203d59;}.cls-2{font-size:4px;}.cls-2,.cls-4{fill:#fff;font-family:Lato-Bold, Lato;font-weight:700;}.cls-3{letter-spacing:-0.04em;}.cls-4{font-size:2px;}.cls-5{fill:#1b1b1b;}.cls-6{fill:#f4f1f0;}.cls-7{fill:#5a9dd6;}</style></defs><title>Plan de travail 2 copie 10</title><circle class="cls-1" cx="25" cy="25" r="24"/><text class="cls-2" transform="translate(14.1 40.86)">CUS<tspan class="cls-3" x="7.74" y="0">T</tspan><tspan x="9.96" y="0">OMER</tspan></text><text class="cls-4" transform="translate(37.71 39.05)">TM</text><g id="_3" data-name=" 3"><path class="cls-5" d="M36.49,6.23H12.81a.7.7,0,0,0-.7.7V22.84a.75.75,0,0,0,.7.78h5.36l.57-.22,1.16-.46c.88-.37,1.42-.61,1.73-.76v-.92a3.44,3.44,0,0,1-.44-.75H13.51V8H35.73V20.51H28.11a3.47,3.47,0,0,1-.44.75v.92c.31.15.84.39,1.73.76l1.16.46.57.22h5.36a.75.75,0,0,0,.7-.78V6.93A.7.7,0,0,0,36.49,6.23Z"/><path class="cls-6" d="M33.21,25.76c-.54-.84-2.33-1.35-4.11-2.1l-.1,0a20.19,20.19,0,0,1-2.11-1l0-1.71a1.68,1.68,0,0,0,.35-.44,4.31,4.31,0,0,0,.52-1.67c.42.12.85-.62.88-1s-.06-1.42-.57-1.32a10.48,10.48,0,0,0,.14-1.87,3.41,3.41,0,0,0-3.56-2.82,3.4,3.4,0,0,0-3.56,2.82,10.5,10.5,0,0,0,.14,1.87c-.51-.11-.59.94-.57,1.32s.46,1.13.88,1a4.3,4.3,0,0,0,.52,1.67,1.68,1.68,0,0,0,.35.44l0,1.71a20.19,20.19,0,0,1-2.11,1l-.1,0c-1.78.74-3.58,1.26-4.11,2.1s-.34,3.3-.34,3.3h17.8S33.69,26.5,33.21,25.76Z"/><polygon class="cls-7" points="15.33 10.82 16.33 11.81 15.33 12.81 15.76 13.24 17.19 11.81 15.76 10.39 15.33 10.82"/><rect class="cls-7" x="17.97" y="11.21" width="1.82" height="0.61"/><path class="cls-5" d="M35.17,30.48H14.09s-.66-3.88,0-4.52c3.31-3.18,17.35-2.9,21.08,0C35.91,26.54,35.17,30.48,35.17,30.48Z"/></g></svg>