<svg id="Calque_1" data-name="Calque 1" xmlns="http://www.w3.org/2000/svg" viewBox="0 0 50 50"><defs><style>.cls-1{fill:#203d59;}.cls-2{font-size:5px;}.cls-2,.cls-3,.cls-4,.cls-5{fill:#fff;}.cls-2,.cls-3{font-family:Lato-Bold, Lato;font-weight:700;}.cls-3{font-size:2px;}.cls-4{stroke:#fff;stroke-miterlimit:10;stroke-width:0.5px;}.cls-6{fill:#5a9dd6;}</style></defs><title>Plan de travail 2 copie 4</title><circle class="cls-1" cx="25.42" cy="25.41" r="24.96"/><text class="cls-2" transform="translate(20.44 40.11)">PPE</text><text class="cls-3" transform="translate(31.71 37.61)">TM</text><path class="cls-4" d="M30.28,6.26H17V30.82l17.62-.21a1.48,1.48,0,0,0,1.46-1.47l.16-16.91Zm.24,1.39L34.84,12H30.52ZM35.44,30H17.83V7.07H29.71V12.8h5.73Z"/><path class="cls-5" d="M24.88,15.31h5.35a.42.42,0,0,0,.42-.42h0a.42.42,0,0,0-.42-.42H24.88a.42.42,0,0,0-.42.42h0A.42.42,0,0,0,24.88,15.31Z"/><path class="cls-5" d="M24.45,16.51a.42.42,0,0,0,.42.42h7.2a.42.42,0,0,0,.42-.42h0a.42.42,0,0,0-.42-.42h-7.2a.42.42,0,0,0-.42.42h0Z"/><path class="cls-5" d="M24.45,18.14a.42.42,0,0,0,.42.42h7.2a.42.42,0,0,0,.42-.42h0a.42.42,0,0,0-.42-.42h-7.2a.42.42,0,0,0-.42.42h0Z"/><path class="cls-5" d="M24.45,22.06a.42.42,0,0,0,.42.42h5.35a.42.42,0,0,0,.42-.42h0a.42.42,0,0,0-.42-.42H24.88a.42.42,0,0,0-.42.42h0Z"/><path class="cls-5" d="M24.45,23.68a.42.42,0,0,0,.42.42h3.87a.42.42,0,0,0,.42-.42h0a.42.42,0,0,0-.42-.42H24.88a.42.42,0,0,0-.42.42h0Z"/><path class="cls-5" d="M24.45,25.31a.42.42,0,0,0,.42.42h7.2a.42.42,0,0,0,.42-.42h0a.42.42,0,0,0-.42-.42h-7.2a.42.42,0,0,0-.42.42h0Z"/><path class="cls-6" d="M19.71,16.76v2.17h3.44V16.76a.34.34,0,0,0-.35-.33h-.39a.22.22,0,0,0-.17.08l-.57.75L21.52,17l.22-.44a.09.09,0,0,0,0-.12H21.2a.09.09,0,0,0-.09.13l.22.44-.14.27-.56-.75a.22.22,0,0,0-.17-.08h-.41A.34.34,0,0,0,19.71,16.76Z"/><path class="cls-6" d="M21.43,16.19a1.06,1.06,0,1,0-1.06-1.06A1.06,1.06,0,0,0,21.43,16.19Z"/><path class="cls-6" d="M19.71,26.1h3.44V23.93a.34.34,0,0,0-.35-.33h-.39a.22.22,0,0,0-.17.08l-.58.76-.14-.27.22-.44a.09.09,0,0,0,0-.12H21.2a.09.09,0,0,0-.09.13l.22.44-.14.27-.56-.75a.22.22,0,0,0-.17-.08h-.41a.34.34,0,0,0-.35.33V26.1Z"/><path class="cls-6" d="M20.38,22.31a1.06,1.06,0,1,0,1.06-1.06A1.06,1.06,0,0,0,20.38,22.31Z"/></svg>