<svg id="Calque_1" data-name="Calque 1" xmlns="http://www.w3.org/2000/svg" viewBox="0 0 50 50"><defs><style>.cls-1{fill:#203d59;}.cls-2{font-size:4px;fill:#fff;}.cls-2,.cls-3{font-family:Lato-Bold, Lato;font-weight:700;}.cls-3{font-size:2px;fill:#feffff;}.cls-4{fill:#fdfdfd;stroke:#fff;stroke-miterlimit:10;stroke-width:0.5px;}.cls-5{fill:#fafafa;}.cls-6{fill:#5b9cd1;}</style></defs><title>Plan de travail 2 copie 17</title><circle class="cls-1" cx="25" cy="25" r="24"/><text class="cls-2" transform="translate(14.45 38.31)">SANCTIONS <tspan x="6.35" y="4.8">LISTS</tspan></text><text class="cls-3" transform="translate(39.45 36.88)">TM</text><path class="cls-4" d="M27.82,6.45H15.14V29.93L32,29.72a1.41,1.41,0,0,0,1.4-1.4l.15-16.16Zm.23,1.33,4.13,4.13H28.05Zm4.7,21.36H15.93V7.23H27.27v5.48h5.48Z"/><path class="cls-5" d="M29.22,14.67H23a.39.39,0,0,0,0,.78h6.3a.39.39,0,0,0,0-.78Z"/><path class="cls-5" d="M21.56,13.12l-1.75,1.59-.52-.63a.36.36,0,0,0-.57,0,.53.53,0,0,0,0,.61l.79,1a.36.36,0,0,0,.53,0l2-1.82a.55.55,0,0,0,.11-.69.38.38,0,0,0-.59-.13Z"/><path class="cls-5" d="M29.22,19H23a.39.39,0,0,0,0,.78h6.3a.39.39,0,0,0,0-.78Z"/><path class="cls-5" d="M21.55,17.88l-1.69,1.36-.52-.52a.39.39,0,1,0-.57.52l.78.78a.39.39,0,0,0,.52,0l2-1.55a.39.39,0,0,0-.48-.62Z"/><path class="cls-5" d="M26.19,23.27h-3.3c-.11,0-.2.18-.2.39s.09.39.2.39h3.3c.11,0,.2-.18.2-.39S26.31,23.27,26.19,23.27Z"/><path class="cls-5" d="M21.55,22.18l-1.68,1.35L19.35,23a.39.39,0,1,0-.6.51l0,0,.78.78a.39.39,0,0,0,.52,0l2-1.55a.41.41,0,0,0-.5-.65Z"/><path class="cls-6" d="M34.52,22.51a5.3,5.3,0,1,0,0,5.89A5.3,5.3,0,0,0,34.52,22.51Zm-2.34,5a.4.4,0,0,1-.57,0h0L30.09,26l-1.56,1.56a.4.4,0,0,1-.55-.52l1.56-1.56L28,23.94a.41.41,0,0,1,.58-.58l1.51,1.51,1.45-1.44a.41.41,0,0,1,.58.58l-1.45,1.44L32.2,27a.4.4,0,0,1,0,.57Z"/></svg>