<svg id="Calque_1" data-name="Calque 1" xmlns="http://www.w3.org/2000/svg" viewBox="0 0 50 50"><defs><style>.cls-1{fill:#203d59;}.cls-2{font-size:2px;}.cls-2,.cls-3{fill:#fff;font-family:Lato-Bold, Lato;font-weight:700;}.cls-3{font-size:4px;}.cls-4{fill:#f4f1f0;}.cls-5{fill:#1b1b1b;}.cls-6{fill:#817c75;}</style></defs><title>Plan de travail 2 copie 2</title><circle class="cls-1" cx="25" cy="25" r="24"/><text class="cls-2" transform="translate(34.67 39.26)">TM</text><text class="cls-3" transform="translate(17.57 40.86)">MOBILE</text><text class="cls-2" transform="translate(39.41 37.44)"><tspan xml:space="preserve">        </tspan></text><path class="cls-4" d="M10.58,10.3H39.7V28.66s3.11,2.69-29.12.58C10.73,24.18,10.58,10.3,10.58,10.3Z"/><g id="_34" data-name=" 34"><path class="cls-5" d="M37.76,6.23H12.51A2.93,2.93,0,0,0,9.59,9.16V27.92a2.93,2.93,0,0,0,2.92,2.92H37.76a2.93,2.93,0,0,0,2.92-2.92V9.15A2.93,2.93,0,0,0,37.76,6.23Zm-.31,1.87a.66.66,0,1,1-.66.66.66.66,0,0,1,.66-.66Zm-5.22,0H35.5a.63.63,0,0,1,0,1.25H32.23a.63.63,0,0,1,0-1.25Zm6.86,19.77a1.34,1.34,0,0,1-1.33,1.33H12.51a1.34,1.34,0,0,1-1.33-1.33V11H39.09Z"/><rect class="cls-1" x="13.89" y="25.32" width="21.77" height="1.92"/><rect class="cls-1" x="13.89" y="13.18" width="21.77" height="2.88"/><rect class="cls-1" x="14.03" y="17.48" width="4.97" height="5.91"/><rect class="cls-6" x="20.1" y="17.63" width="15.39" height="0.62"/><rect class="cls-6" x="20.1" y="19.44" width="15.39" height="0.62"/><rect class="cls-6" x="20.1" y="21.26" width="15.39" height="0.62"/><rect class="cls-6" x="20.1" y="23.07" width="15.39" height="0.62"/></g></svg>