<?xml version="1.0" encoding="utf-8"?>
<!-- Generator: Adobe Illustrator 15.1.0, SVG Export Plug-In . SVG Version: 6.00 Build 0)  -->
<!DOCTYPE svg PUBLIC "-//W3C//DTD SVG 1.1//EN" "http://www.w3.org/Graphics/SVG/1.1/DTD/svg11.dtd">
<svg version="1.1" id="Calque_1" xmlns="http://www.w3.org/2000/svg" xmlns:xlink="http://www.w3.org/1999/xlink" x="0px" y="0px"
	 width="353.637px" height="353.637px" viewBox="0 0 353.637 353.637" enable-background="new 0 0 353.637 353.637"
	 xml:space="preserve">
<path fill="#1F3D59" d="M176.319,0.502C78.662,0.502-0.5,79.668-0.5,177.321c0,97.653,79.162,176.818,176.818,176.818
	c97.649,0,176.818-79.165,176.818-176.818C353.137,79.668,273.968,0.502,176.319,0.502z"/>
<path fill="#F4F1F0" d="M84.319,96.319h184v116c0,0,19.666,17.001-184,3.667C85.319,183.986,84.319,96.319,84.319,96.319z"/>
<g id="_x33_4">
	<g>
		<path fill="#1A1A1A" d="M256.086,70.573H96.551c-10.191,0.019-18.457,8.281-18.465,18.472V207.6
			c0.008,10.188,8.273,18.453,18.465,18.469h159.535c10.185-0.016,18.457-8.281,18.465-18.469V89.045
			C274.543,78.854,266.271,70.592,256.086,70.573z M254.121,82.411c2.318,0,4.206,1.88,4.206,4.198c0,2.318-1.888,4.194-4.206,4.194
			c-2.317,0-4.197-1.876-4.197-4.194C249.924,84.291,251.804,82.411,254.121,82.411z M221.129,82.66h20.645
			c2.188,0,3.944,1.772,3.944,3.948c0,2.18-1.757,3.949-3.944,3.949h-20.645c-2.187,0-3.952-1.769-3.952-3.949
			C217.177,84.433,218.943,82.66,221.129,82.66z M264.483,207.6c-0.016,4.586-3.814,8.392-8.396,8.392H96.551
			c-4.59,0-8.381-3.806-8.396-8.392V100.887h176.327V207.6z"/>
	</g>
	<g>
		<rect x="105.246" y="191.164" fill="#1F3D59" width="137.525" height="12.13"/>
		<rect x="105.246" y="114.471" fill="#1F3D59" width="137.525" height="18.192"/>
		<rect x="106.175" y="141.619" fill="#1F3D59" width="31.434" height="37.328"/>
	</g>
	<g>
		<rect x="144.486" y="142.602" fill="#817B75" width="97.25" height="3.929"/>
		<rect x="144.486" y="154.059" fill="#817B75" width="97.25" height="3.93"/>
		<rect x="144.486" y="165.525" fill="#817B75" width="97.25" height="3.929"/>
		<rect x="144.486" y="176.983" fill="#817B75" width="97.25" height="3.93"/>
	</g>
</g>
<g>
	<path fill="#F2F2F2" d="M114.192,285.047c0.187,0.406,0.354,0.822,0.5,1.25c0.16-0.428,0.33-0.851,0.51-1.271
		c0.181-0.42,0.371-0.823,0.57-1.21l9.1-16.7c0.188-0.373,0.394-0.597,0.621-0.67c0.227-0.073,0.546-0.11,0.959-0.11h3.5v28.801
		h-4.119v-19.74c0-0.32,0.01-0.667,0.029-1.04c0.021-0.374,0.043-0.753,0.07-1.14l-9.24,17.08c-0.359,0.706-0.913,1.06-1.66,1.06
		h-0.66c-0.76,0-1.313-0.354-1.66-1.06l-9.42-17.141c0.041,0.4,0.074,0.79,0.101,1.17s0.04,0.736,0.04,1.07v19.74h-4.12v-28.801h3.5
		c0.413,0,0.733,0.037,0.96,0.11s0.434,0.297,0.62,0.67l9.24,16.74C113.819,284.243,114.005,284.64,114.192,285.047z"/>
	<path fill="#F2F2F2" d="M163.852,280.737c0,2.133-0.347,4.1-1.04,5.9c-0.693,1.799-1.67,3.35-2.931,4.649
		c-1.26,1.3-2.773,2.317-4.539,3.05c-1.768,0.734-3.73,1.1-5.891,1.1c-2.146,0-4.104-0.365-5.869-1.1
		c-1.768-0.732-3.283-1.75-4.551-3.05c-1.267-1.3-2.246-2.851-2.939-4.649c-0.693-1.801-1.04-3.768-1.04-5.9s0.347-4.1,1.04-5.9
		c0.693-1.8,1.673-3.354,2.939-4.66c1.268-1.307,2.783-2.326,4.551-3.06c1.766-0.733,3.723-1.101,5.869-1.101
		c2.16,0,4.123,0.367,5.891,1.101c1.766,0.733,3.279,1.753,4.539,3.06c1.261,1.307,2.237,2.86,2.931,4.66
		C163.505,276.637,163.852,278.604,163.852,280.737z M159.073,280.737c0-1.653-0.225-3.141-0.671-4.46
		c-0.446-1.32-1.087-2.44-1.92-3.36s-1.843-1.627-3.03-2.119c-1.187-0.494-2.52-0.74-4-0.74c-1.467,0-2.793,0.246-3.979,0.74
		c-1.187,0.492-2.2,1.199-3.04,2.119s-1.486,2.04-1.939,3.36c-0.454,1.319-0.681,2.807-0.681,4.46c0,1.667,0.227,3.16,0.681,4.48
		c0.453,1.319,1.1,2.437,1.939,3.35s1.854,1.613,3.04,2.1c1.187,0.487,2.513,0.73,3.979,0.73c1.48,0,2.813-0.243,4-0.73
		c1.188-0.486,2.197-1.187,3.03-2.1s1.474-2.03,1.92-3.35C158.848,283.897,159.073,282.404,159.073,280.737z"/>
	<path fill="#F2F2F2" d="M168.971,295.137v-28.801h9.58c1.84,0,3.414,0.178,4.721,0.53c1.307,0.354,2.38,0.856,3.22,1.511
		c0.84,0.652,1.456,1.449,1.851,2.389c0.393,0.94,0.59,1.998,0.59,3.17c0,0.681-0.104,1.341-0.311,1.98
		c-0.207,0.641-0.527,1.234-0.96,1.78c-0.433,0.547-0.977,1.044-1.63,1.489c-0.653,0.447-1.427,0.817-2.32,1.111
		c2.041,0.426,3.57,1.18,4.59,2.26c1.021,1.08,1.53,2.486,1.53,4.22c0,1.227-0.229,2.351-0.69,3.37c-0.459,1.02-1.127,1.9-2,2.64
		c-0.873,0.74-1.949,1.317-3.229,1.729c-1.28,0.414-2.739,0.621-4.38,0.621H168.971z M173.652,278.996h4.68
		c2,0,3.493-0.387,4.479-1.16c0.987-0.773,1.48-1.887,1.48-3.34c0-1.586-0.463-2.732-1.39-3.439s-2.377-1.061-4.351-1.061h-4.899
		V278.996z M173.652,282.297v9.139h5.8c1.053,0,1.943-0.123,2.67-0.369s1.32-0.584,1.78-1.01c0.46-0.427,0.793-0.93,1-1.51
		c0.206-0.58,0.31-1.203,0.31-1.871c0-1.359-0.463-2.43-1.39-3.209c-0.927-0.781-2.39-1.17-4.39-1.17H173.652z"/>
	<path fill="#F2F2F2" d="M199.791,295.137h-4.7v-28.801h4.7V295.137z"/>
	<path fill="#F2F2F2" d="M211.311,291.217h11.961v3.92h-16.641v-28.801h4.68V291.217z"/>
	<path fill="#F2F2F2" d="M245.25,266.336v3.78h-13.26v8.681h10.601v3.659H231.99v8.9h13.28l-0.021,3.78h-17.959v-28.801H245.25z"/>
</g>
<g>
	<path fill="#1A1A1A" d="M254.548,241.31v3.053h-4.868v13.255h-3.656v-13.255h-4.896v-3.053H254.548z M265.878,250
		c0.11,0.257,0.216,0.514,0.316,0.77c0.101,0.258,0.196,0.514,0.288,0.771c0.166-0.531,0.367-1.045,0.605-1.54l4.482-8.112
		c0.201-0.257,0.375-0.417,0.522-0.481c0.146-0.064,0.376-0.097,0.688-0.097h3.08v16.308h-3.19v-9.707l0.248-2.173l-4.895,9.075
		c-0.258,0.532-0.68,0.798-1.266,0.798h-0.522c-0.587,0-1.009-0.266-1.265-0.798l-4.923-9.075l0.274,2.173v9.707h-3.244V241.31
		h3.107c0.312,0,0.545,0.032,0.701,0.097c0.155,0.064,0.334,0.225,0.536,0.481L265.878,250z"/>
</g>
</svg>
