<?xml version="1.0" encoding="utf-8"?>
<!-- Generator: Adobe Illustrator 15.1.0, SVG Export Plug-In . SVG Version: 6.00 Build 0)  -->
<!DOCTYPE svg PUBLIC "-//W3C//DTD SVG 1.1//EN" "http://www.w3.org/Graphics/SVG/1.1/DTD/svg11.dtd">
<svg version="1.1" id="Calque_1" xmlns="http://www.w3.org/2000/svg" xmlns:xlink="http://www.w3.org/1999/xlink" x="0px" y="0px"
	 width="353.637px" height="353.637px" viewBox="0 0 353.637 353.637" enable-background="new 0 0 353.637 353.637"
	 xml:space="preserve">
<path fill="#1F3D59" d="M176.819,0C79.162,0,0,79.166,0,176.819c0,97.653,79.162,176.818,176.818,176.818
	c97.649,0,176.818-79.165,176.818-176.818C353.637,79.166,274.468,0,176.819,0z"/>
<g id="_x33_4_1_">
	<g>
		<rect x="105.746" y="190.662" fill="#1F3D59" width="137.525" height="12.13"/>
		<rect x="106.675" y="141.117" fill="#1F3D59" width="31.434" height="37.328"/>
	</g>
</g>
<g>
	<path fill="#1A1A1A" d="M255.048,240.808v3.053h-4.868v13.255h-3.656v-13.255h-4.896v-3.053H255.048z M266.378,249.498
		c0.11,0.257,0.216,0.514,0.316,0.77c0.101,0.258,0.196,0.514,0.288,0.771c0.166-0.531,0.367-1.045,0.605-1.54l4.482-8.112
		c0.201-0.257,0.375-0.417,0.522-0.481c0.146-0.064,0.376-0.097,0.688-0.097h3.08v16.308h-3.19v-9.707l0.248-2.173l-4.895,9.075
		c-0.258,0.532-0.68,0.798-1.266,0.798h-0.522c-0.587,0-1.009-0.266-1.265-0.798l-4.923-9.075l0.274,2.173v9.707h-3.244v-16.308
		h3.107c0.312,0,0.545,0.032,0.701,0.097c0.155,0.064,0.334,0.225,0.536,0.481L266.378,249.498z"/>
</g>
<g id="_x35_">
	<g>
		<path fill="#FFFFFF" d="M196.178,92.258c-38.521,0-69.749-8.936-69.749-19.93c0-10.993,31.229-19.926,69.749-19.926
			s69.748,8.933,69.748,19.926C265.926,83.323,234.698,92.258,196.178,92.258z"/>
		<path fill="#FFFFFF" d="M265.926,88.287v23.897c0,10.994-31.228,19.927-69.748,19.927c-5.964,0-11.721-0.238-17.244-0.639
			c-1.447-0.992-3.123-1.648-4.935-1.875c-0.212-3.229-1.808-6.292-4.563-8.275l-5.408-4.186c-1.96-1.608-4.428-2.488-7.006-2.488
			c-0.956,0-1.904,0.125-2.822,0.355c-1.405-2.756-3.882-4.872-6.967-5.685l-6.604-1.977c-1.083-0.352-2.205-0.529-3.352-0.529
			c-2.205,0-4.359,0.663-6.239,1.911c-0.254,0.165-0.499,0.338-0.732,0.521c-0.47-0.425-0.978-0.817-1.523-1.168
			c-0.753-0.477-1.549-0.783-2.354-1.069V88.287c19.923,13.389,63.48,13.934,69.749,13.934
			C202.446,102.221,246.008,101.676,265.926,88.287z"/>
		<path fill="#FFFFFF" d="M196.178,171.965c-1.021,0-2.011-0.029-3.019-0.042c0.647-1.769,0.89-3.687,0.542-5.62l-1.058-6.861
			c-0.462-3.592-2.692-6.652-5.778-8.347c1.173-2.983,0.979-6.362-0.566-9.278c4.813,0.221,8.401,0.259,9.879,0.259
			c6.268,0,49.83-0.546,69.748-13.934v23.897C265.926,163.033,234.698,171.965,196.178,171.965z"/>
		<path fill="#FFFFFF" d="M184.58,200.149c3.141-1.401,5.536-4.17,6.332-7.602l1.735-6.559c0.41-1.357,0.474-2.736,0.359-4.094
			c1.385,0.025,2.522,0.036,3.171,0.036c6.268,0,49.83-0.546,69.748-13.934v23.897c0,10.996-31.228,19.927-69.748,19.927
			c-5.168,0-10.192-0.173-15.039-0.479l1.376-1.877C184.635,206.77,185.309,203.342,184.58,200.149z"/>
	</g>
	<path fill="#579DD9" d="M70.932,176.967l0.974,7.201c0.072,1.043,1.075,1.92,2.294,1.906l10.688-0.118
		c0.334,1.111,0.74,2.19,1.164,3.253l-8.448,6.74c-0.915,0.738-1.169,2.063-0.555,2.903l3.788,6.203
		c0.512,0.965,1.782,1.327,2.887,0.833l9.701-4.389c0.774,0.897,1.6,1.803,2.434,2.644l-5.236,9.015
		c-0.609,1.035-0.372,2.352,0.529,2.934l5.757,4.392c0.796,0.696,2.137,0.584,3.001-0.261l7.288-7.473l0.263-0.264
		c0.744,0.359,1.456,0.666,2.18,0.975c0.262,0.113,0.55,0.254,0.816,0.355l-0.271,2.058l-0.546,3.951l-0.593,4.501
		c-0.098,0.738,0.165,1.418,0.593,1.898c0.275,0.305,0.613,0.546,1.02,0.615l7.043,1.854c0.99,0.354,2.167-0.279,2.637-1.391
		l0.729-1.813l0.847-2.121l2.561-6.354c0.537,0.049,1.104,0.058,1.655,0.058l1.023,3.741l2.007,7.292
		c0.317,1.156,1.422,1.92,2.463,1.686l1.059-0.15l6.124-0.881c1.075-0.065,1.913-1.113,1.893-2.314l-0.216-11.407
		c1.003-0.317,1.959-0.665,2.938-1.058l7.063,8.964c0.767,0.929,2.083,1.188,2.946,0.573l6.188-3.775
		c0.957-0.477,1.334-1.746,0.855-2.853l-2.807-6.258l-1.045-2.334l-0.792-1.771c0.698-0.612,1.393-1.224,2.015-1.866l9.743,5.396
		l0.491,0.272c0.729,0.402,1.55,0.377,2.185,0.051c0.3-0.146,0.571-0.345,0.749-0.628l4.283-5.846
		c0.689-0.798,0.559-2.142-0.309-2.965l-7.589-7.178l-0.872-0.83c0.414-0.821,0.842-1.67,1.202-2.539l11.796,1.614
		c1.197,0.173,2.336-0.557,2.526-1.596l1.862-7.022c0.237-0.628,0.047-1.316-0.385-1.866c-0.254-0.321-0.567-0.607-0.986-0.778
		l-11.148-4.521c-0.038-0.03-0.105-0.054-0.161-0.063c0.056-0.832,0.102-1.683,0.102-2.544c0.038-0.009,0.094-0.009,0.136-0.009
		l7.932-2.247l3.64-1.035c1.169-0.343,1.9-1.447,1.681-2.486l-1.108-7.175c-0.094-1.068-1.147-1.912-2.337-1.892l-12.024,0.343
		c-0.038,0-0.068,0.025-0.11,0.032c-0.288-0.964-0.635-1.89-0.986-2.802c0.009,0,0.03-0.03,0.063-0.043l3.911-3.127l5.494-4.393
		c0.952-0.76,1.189-2.064,0.571-2.939l-2.929-4.773l-0.864-1.403c-0.478-0.956-1.777-1.327-2.848-0.827l-3.311,1.498l-7.669,3.475
		c-0.03,0-0.06,0.025-0.093,0.025c-0.618-0.7-1.253-1.402-1.922-2.061l1.52-2.578l4.482-7.604c0.3-0.513,0.397-1.097,0.3-1.628
		c-0.093-0.533-0.372-1.011-0.821-1.302l-5.739-4.443c-0.795-0.713-2.142-0.593-2.962,0.254l-3.146,3.159l-5.354,5.38
		c-0.068,0.065-0.114,0.135-0.17,0.19c-0.745-0.364-1.469-0.698-2.222-1.024l1.05-6.34l0.854-5.178
		c0.182-1.188-0.499-2.34-1.532-2.563l-6.95-2.076c-0.604-0.22-1.252-0.071-1.794,0.286c-0.373,0.247-0.711,0.582-0.914,1.037
		l-1.57,3.581l-0.91,2.084l-0.093,0.216l-2.261,5.141c-0.029,0.134-0.076,0.265-0.127,0.397c-0.707-0.055-1.439-0.08-2.15-0.102
		l-1.261-4.577l-1.926-6.952c-0.148-0.611-0.542-1.098-1.016-1.404c-0.437-0.275-0.944-0.4-1.448-0.277l-0.486,0.069l-2.705,0.396
		l-4.004,0.582c-1.05,0.057-1.896,1.099-1.879,2.303l0.245,11.999c-0.245,0.054-0.444,0.134-0.673,0.214
		c-0.021-0.055-0.038-0.08-0.072-0.105l-3.187-3.777l-4.559-5.425c-0.161-0.188-0.352-0.323-0.542-0.452
		c-0.766-0.508-1.731-0.574-2.404-0.051l-6.086,3.955c-0.936,0.514-1.274,1.805-0.754,2.895l4.771,9.862
		c-0.762,0.579-1.507,1.2-2.223,1.847l-10.068-5.523c-0.259-0.135-0.517-0.213-0.788-0.256c-0.851-0.133-1.701,0.178-2.124,0.879
		l-3.264,4.508l-0.994,1.375c-0.678,0.819-0.521,2.14,0.334,2.955l7.796,7.258c-0.579,1.021-1.143,2.081-1.629,3.158l-8.728-1.209
		l-2.074-0.285c-1.181-0.172-2.319,0.544-2.522,1.604l-1.875,7.01c-0.347,0.998,0.267,2.189,1.393,2.651l8.274,3.374l1.621,0.658
		c-0.161,1.23-0.225,2.476-0.258,3.732c-0.009,0.038-0.009,0.074-0.009,0.114l-10.319,2.739
		C71.452,174.826,70.699,175.932,70.932,176.967z M120.94,153.801c-0.602,0.197-1.16,0.48-1.731,0.73
		c-1.727,0.752-3.318,1.721-4.757,2.874c-1.401,1.132-2.642,2.442-3.687,3.913l-1.126-0.451l-11.348-4.52
		c1.773-3.117,4.105-5.893,6.789-8.292c1.422-1.268,2.92-2.464,4.559-3.476c2.856-1.767,6.015-3.119,9.404-3.965l0.165,1.134
		L120.94,153.801z M125.896,164.289c4.728-0.688,9.13,2.604,9.828,7.351c0.051,0.383,0.042,0.753,0.047,1.13
		c0.059,4.287-3.03,8.057-7.398,8.691c-0.656,0.094-1.304,0.098-1.943,0.047c-1.667-0.129-3.233-0.722-4.516-1.691
		c-1.181-0.883-2.104-2.082-2.705-3.475c-0.305-0.696-0.559-1.424-0.664-2.218c-0.241-1.67,0.017-3.278,0.664-4.713
		c0.602-1.344,1.524-2.531,2.705-3.423C123.047,165.132,124.381,164.506,125.896,164.289z M125.735,139.635
		c0.237-0.008,0.462,0.031,0.694,0.027c3.318-0.067,6.573,0.318,9.646,1.184c5.346,1.496,10.2,4.298,14.162,8.107l-10.573,8.316
		c-1.104-0.893-2.328-1.616-3.589-2.256c-2.573-1.295-5.414-2.095-8.419-2.167l-1.228-8.441L125.735,139.635z M150.91,181.091
		l-4.774-1.907c0.309-0.924,0.529-1.883,0.703-2.863c0.368-2.029,0.461-4.147,0.147-6.309c-0.216-1.467-0.593-2.863-1.096-4.188
		c-0.457-1.236-1.024-2.413-1.706-3.505l10.421-8.198c0.668,0.982,1.286,2.015,1.857,3.072c1.778,3.309,3.031,6.969,3.59,10.914
		c0.051,0.326,0.042,0.644,0.08,0.965c0.394,3.396,0.254,6.73-0.347,9.934c-0.322,1.74-0.736,3.456-1.325,5.099L150.91,181.091z
		 M134.666,201.281l-1.354-9.351c0.956-0.302,1.883-0.684,2.764-1.123c2.704-1.346,5.032-3.28,6.853-5.602l6.865,2.736l5.714,2.283
		c-0.754,1.238-1.621,2.408-2.54,3.539c-2.653,3.29-5.988,6.004-9.738,8.107c-1.113,0.626-2.277,1.189-3.467,1.699
		c-1.456,0.635-2.959,1.188-4.537,1.582L134.666,201.281z M104.949,197.666l4.689-3.699l5.959-4.694
		c1.126,0.787,2.35,1.407,3.61,1.94c0.876,0.375,1.77,0.722,2.705,0.976c0.325,0.089,0.664,0.144,0.999,0.22
		c1.189,0.268,2.383,0.466,3.631,0.491c0.043,0.22,0.098,0.444,0.157,0.665l1.819,12.558c-0.343,0.017-0.681-0.009-1.016-0.005
		c-1.714,0.014-3.411-0.082-5.07-0.32c-0.17-0.023-0.352-0.03-0.521-0.056c-4.402-0.698-8.567-2.288-12.274-4.586
		C107.992,200.127,106.409,198.973,104.949,197.666z M95.515,162.535l12.316,4.912c-0.74,2.619-0.969,5.437-0.555,8.305
		c0.352,2.432,1.249,4.621,2.362,6.668c0.381,0.688,0.694,1.422,1.126,2.053l-1.126,0.887l-9.253,7.31
		c-3.179-4.298-5.362-9.384-6.162-15.017C93.445,172.391,93.965,167.236,95.515,162.535z"/>
</g>
<g>
	<path fill="#FFFFFF" d="M104.828,287.101c0,2.067-0.344,3.966-1.033,5.694c-0.689,1.729-1.658,3.218-2.906,4.465
		c-1.248,1.248-2.75,2.217-4.504,2.906c-1.755,0.688-3.699,1.033-5.831,1.033H79.791v-28.197h10.764
		c2.132,0,4.076,0.349,5.831,1.044s3.257,1.664,4.504,2.905c1.248,1.241,2.216,2.727,2.906,4.455
		C104.484,283.136,104.828,285.034,104.828,287.101z M99.466,287.101c0-1.547-0.208-2.935-0.624-4.163s-1.007-2.269-1.774-3.12
		s-1.7-1.505-2.798-1.96s-2.337-0.683-3.715-0.683h-5.479v19.852h5.479c1.378,0,2.616-0.228,3.715-0.683s2.031-1.108,2.798-1.96
		s1.358-1.892,1.774-3.12S99.466,288.648,99.466,287.101z"/>
	<path fill="#FFFFFF" d="M132.733,301.199h-4.056c-0.456,0-0.829-0.113-1.122-0.341s-0.504-0.511-0.634-0.849l-2.106-5.753h-11.68
		l-2.106,5.753c-0.104,0.299-0.309,0.572-0.614,0.819c-0.306,0.247-0.68,0.37-1.122,0.37h-4.075l11.076-28.197h5.363
		L132.733,301.199z M114.481,290.552h8.99l-3.432-9.379c-0.156-0.416-0.329-0.907-0.517-1.473c-0.189-0.565-0.374-1.18-0.556-1.843
		c-0.182,0.663-0.36,1.281-0.536,1.853c-0.175,0.572-0.348,1.073-0.517,1.502L114.481,290.552z"/>
	<path fill="#FFFFFF" d="M152.643,273.002v4.31h-8.482v23.888h-5.246v-23.888h-8.521v-4.31H152.643z"/>
	<path fill="#FFFFFF" d="M177.895,301.199h-4.055c-0.456,0-0.829-0.113-1.122-0.341s-0.504-0.511-0.634-0.849l-2.106-5.753h-11.68
		l-2.106,5.753c-0.104,0.299-0.309,0.572-0.614,0.819c-0.306,0.247-0.68,0.37-1.122,0.37h-4.075l11.076-28.197h5.363
		L177.895,301.199z M159.643,290.552h8.99l-3.432-9.379c-0.156-0.416-0.329-0.907-0.517-1.473c-0.189-0.565-0.374-1.18-0.556-1.843
		c-0.182,0.663-0.36,1.281-0.536,1.853c-0.175,0.572-0.348,1.073-0.517,1.502L159.643,290.552z"/>
	<path fill="#FFFFFF" d="M180.801,301.199v-28.197h9.73c1.846,0,3.422,0.176,4.729,0.526c1.307,0.352,2.379,0.852,3.217,1.502
		c0.839,0.65,1.453,1.437,1.844,2.359c0.389,0.923,0.584,1.963,0.584,3.12c0,0.663-0.098,1.297-0.292,1.901
		c-0.195,0.604-0.497,1.17-0.907,1.696c-0.409,0.526-0.93,1.004-1.56,1.434c-0.631,0.429-1.382,0.793-2.253,1.092
		c3.875,0.871,5.812,2.964,5.812,6.279c0,1.196-0.228,2.301-0.683,3.314s-1.118,1.889-1.988,2.623
		c-0.871,0.734-1.944,1.31-3.219,1.726c-1.273,0.416-2.729,0.624-4.367,0.624H180.801z M186.045,285.209h4.193
		c1.781,0,3.133-0.324,4.056-0.975s1.385-1.684,1.385-3.101c0-1.469-0.417-2.516-1.248-3.14c-0.832-0.624-2.132-0.936-3.899-0.936
		h-4.486V285.209z M186.045,288.836v8.269h5.324c0.975,0,1.791-0.117,2.447-0.352c0.656-0.233,1.183-0.546,1.58-0.936
		c0.396-0.391,0.682-0.845,0.857-1.365c0.176-0.52,0.264-1.072,0.264-1.657c0-0.611-0.098-1.16-0.293-1.648
		c-0.195-0.487-0.5-0.903-0.916-1.247c-0.416-0.345-0.949-0.608-1.6-0.79s-1.437-0.273-2.359-0.273H186.045z"/>
	<path fill="#FFFFFF" d="M230.992,301.199h-4.055c-0.456,0-0.83-0.113-1.122-0.341s-0.504-0.511-0.634-0.849l-2.105-5.753h-11.681
		l-2.106,5.753c-0.104,0.299-0.309,0.572-0.613,0.819c-0.307,0.247-0.68,0.37-1.122,0.37h-4.075l11.076-28.197h5.362
		L230.992,301.199z M212.74,290.552h8.99l-3.432-9.379c-0.156-0.416-0.329-0.907-0.518-1.473s-0.373-1.18-0.556-1.843
		c-0.183,0.663-0.36,1.281-0.536,1.853c-0.176,0.572-0.348,1.073-0.517,1.502L212.74,290.552z"/>
	<path fill="#FFFFFF" d="M249.01,278.131c-0.143,0.286-0.309,0.487-0.496,0.604c-0.189,0.117-0.414,0.176-0.674,0.176
		s-0.553-0.101-0.877-0.303c-0.325-0.201-0.709-0.426-1.15-0.673c-0.442-0.247-0.959-0.471-1.551-0.673
		c-0.592-0.201-1.29-0.302-2.096-0.302c-0.729,0-1.362,0.088-1.901,0.263c-0.54,0.176-0.995,0.42-1.365,0.731
		c-0.37,0.313-0.647,0.686-0.829,1.121s-0.272,0.914-0.272,1.434c0,0.663,0.185,1.216,0.556,1.657
		c0.371,0.442,0.861,0.819,1.473,1.131c0.61,0.313,1.307,0.592,2.086,0.839c0.78,0.247,1.576,0.511,2.389,0.79
		s1.609,0.604,2.389,0.975c0.78,0.37,1.476,0.839,2.087,1.404c0.61,0.565,1.102,1.258,1.472,2.076
		c0.371,0.819,0.557,1.813,0.557,2.983c0,1.274-0.219,2.467-0.654,3.579c-0.436,1.111-1.072,2.08-1.91,2.905
		c-0.839,0.825-1.862,1.476-3.071,1.95c-1.209,0.474-2.594,0.711-4.153,0.711c-0.897,0-1.781-0.087-2.652-0.263
		s-1.706-0.426-2.506-0.751c-0.799-0.324-1.547-0.715-2.242-1.17s-1.316-0.962-1.862-1.521l1.521-2.516
		c0.143-0.183,0.315-0.335,0.518-0.459c0.201-0.123,0.426-0.185,0.672-0.185c0.325,0,0.676,0.133,1.053,0.399
		s0.822,0.563,1.336,0.888s1.118,0.62,1.814,0.887c0.695,0.267,1.53,0.4,2.506,0.4c1.494,0,2.651-0.354,3.471-1.063
		c0.818-0.708,1.229-1.726,1.229-3.052c0-0.741-0.186-1.346-0.557-1.813c-0.37-0.468-0.861-0.86-1.472-1.18
		c-0.611-0.318-1.307-0.588-2.087-0.809c-0.779-0.222-1.572-0.462-2.379-0.722c-0.806-0.26-1.599-0.572-2.379-0.937
		c-0.779-0.363-1.476-0.838-2.086-1.423c-0.611-0.585-1.102-1.316-1.473-2.194c-0.371-0.877-0.556-1.96-0.556-3.246
		c0-1.027,0.204-2.028,0.614-3.004c0.41-0.975,1.008-1.839,1.794-2.593s1.751-1.358,2.896-1.813s2.451-0.683,3.92-0.683
		c1.664,0,3.197,0.26,4.602,0.78c1.404,0.52,2.6,1.247,3.588,2.184L249.01,278.131z"/>
	<path fill="#FFFFFF" d="M272.606,273.002v4.173h-12.5v7.82h9.848v4.036h-9.848v7.976h12.5v4.192h-17.783v-28.197H272.606z"/>
</g>
</svg>
