<?xml version="1.0" encoding="utf-8"?>
<!-- Generator: Adobe Illustrator 15.1.0, SVG Export Plug-In . SVG Version: 6.00 Build 0)  -->
<!DOCTYPE svg PUBLIC "-//W3C//DTD SVG 1.1//EN" "http://www.w3.org/Graphics/SVG/1.1/DTD/svg11.dtd">
<svg version="1.1" id="Calque_1" xmlns="http://www.w3.org/2000/svg" xmlns:xlink="http://www.w3.org/1999/xlink" x="0px" y="0px"
	 width="353.637px" height="353.637px" viewBox="0 0 353.637 353.637" enable-background="new 0 0 353.637 353.637"
	 xml:space="preserve">
<path fill="#1F3D59" d="M176.819,0C79.162,0,0,79.166,0,176.819c0,97.653,79.162,176.818,176.818,176.818
	c97.65,0,176.818-79.165,176.818-176.818C353.637,79.166,274.469,0,176.819,0z"/>
<g>
	<path fill="#F2F2F2" d="M88.207,288.215c0.253,0,0.473,0.1,0.66,0.299l1.859,2.021c-1.174,1.413-2.613,2.503-4.32,3.271
		c-1.707,0.767-3.746,1.149-6.119,1.149c-2.107,0-4.01-0.362-5.711-1.09c-1.699-0.727-3.149-1.739-4.35-3.04
		c-1.199-1.3-2.123-2.85-2.77-4.65c-0.647-1.799-0.971-3.779-0.971-5.939s0.344-4.143,1.03-5.95c0.687-1.807,1.653-3.36,2.899-4.659
		c1.247-1.301,2.74-2.311,4.48-3.031c1.74-0.719,3.656-1.08,5.75-1.08c2.08,0,3.916,0.338,5.51,1.011s2.977,1.569,4.15,2.69
		l-1.54,2.18c-0.106,0.146-0.233,0.273-0.38,0.38s-0.348,0.159-0.6,0.159c-0.268,0-0.57-0.123-0.91-0.369s-0.773-0.52-1.301-0.82
		c-0.526-0.3-1.187-0.572-1.979-0.82c-0.794-0.246-1.784-0.369-2.97-0.369c-1.373,0-2.634,0.24-3.78,0.72
		c-1.147,0.479-2.134,1.18-2.96,2.101c-0.827,0.92-1.471,2.039-1.93,3.359c-0.461,1.32-0.69,2.82-0.69,4.5
		c0,1.693,0.24,3.203,0.72,4.529c0.48,1.328,1.141,2.447,1.98,3.361c0.84,0.912,1.826,1.609,2.96,2.09
		c1.133,0.479,2.353,0.719,3.659,0.719c0.801,0,1.518-0.043,2.15-0.129c0.633-0.087,1.217-0.227,1.75-0.42s1.037-0.438,1.51-0.73
		c0.474-0.293,0.943-0.653,1.41-1.08C87.674,288.334,87.94,288.215,88.207,288.215z"/>
	<path fill="#F2F2F2" d="M106.147,290.855c1.106,0,2.096-0.187,2.97-0.56c0.873-0.373,1.613-0.894,2.22-1.561
		c0.607-0.666,1.07-1.471,1.391-2.41s0.479-1.982,0.479-3.13v-17.36h4.66v17.36c0,1.693-0.271,3.26-0.81,4.7
		c-0.541,1.439-1.317,2.684-2.33,3.73c-1.014,1.047-2.244,1.866-3.69,2.459c-1.446,0.594-3.077,0.891-4.89,0.891
		c-1.813,0-3.443-0.297-4.891-0.891c-1.446-0.593-2.677-1.412-3.689-2.459c-1.014-1.047-1.79-2.291-2.33-3.73
		c-0.54-1.44-0.811-3.007-0.811-4.7v-17.36h4.681v17.34c0,1.147,0.159,2.19,0.479,3.131c0.32,0.939,0.78,1.746,1.381,2.42
		c0.6,0.674,1.336,1.197,2.209,1.57S105.039,290.855,106.147,290.855z"/>
	<path fill="#F2F2F2" d="M139.426,270.754c-0.146,0.24-0.3,0.418-0.46,0.53c-0.16,0.114-0.36,0.17-0.601,0.17
		c-0.253,0-0.536-0.106-0.85-0.319s-0.699-0.451-1.16-0.711c-0.459-0.26-1.003-0.5-1.63-0.72c-0.626-0.22-1.373-0.329-2.239-0.329
		c-0.801,0-1.504,0.1-2.11,0.299c-0.606,0.201-1.117,0.48-1.53,0.84c-0.414,0.361-0.723,0.784-0.93,1.271
		c-0.207,0.487-0.311,1.017-0.311,1.591c0,0.732,0.193,1.343,0.58,1.829c0.387,0.487,0.896,0.903,1.53,1.25s1.356,0.65,2.17,0.91
		c0.813,0.261,1.644,0.537,2.49,0.83c0.847,0.294,1.677,0.627,2.489,1c0.813,0.374,1.537,0.847,2.17,1.42
		c0.634,0.573,1.144,1.273,1.531,2.101c0.386,0.826,0.58,1.833,0.58,3.02c0,1.279-0.221,2.48-0.66,3.6
		c-0.44,1.12-1.078,2.098-1.91,2.93c-0.834,0.834-1.86,1.49-3.08,1.971c-1.221,0.48-2.61,0.72-4.17,0.72
		c-0.92,0-1.817-0.09-2.69-0.271c-0.874-0.18-1.707-0.433-2.5-0.76c-0.794-0.326-1.536-0.723-2.229-1.189s-1.314-0.986-1.86-1.561
		l1.36-2.24c0.119-0.186,0.272-0.332,0.459-0.439c0.188-0.106,0.394-0.16,0.621-0.16c0.307,0,0.646,0.144,1.02,0.43
		c0.373,0.287,0.823,0.601,1.35,0.94c0.527,0.341,1.164,0.653,1.91,0.94s1.641,0.43,2.68,0.43c1.693,0,3.004-0.413,3.931-1.24
		c0.927-0.826,1.39-1.967,1.39-3.42c0-0.813-0.193-1.477-0.58-1.99c-0.387-0.513-0.896-0.943-1.529-1.289
		c-0.634-0.348-1.357-0.641-2.17-0.881c-0.814-0.24-1.641-0.496-2.48-0.77s-1.667-0.594-2.48-0.96
		c-0.813-0.366-1.537-0.847-2.17-1.44c-0.633-0.593-1.143-1.326-1.529-2.199s-0.58-1.963-0.58-3.271c0-1.04,0.203-2.046,0.609-3.021
		c0.406-0.973,1-1.836,1.78-2.59c0.78-0.753,1.743-1.355,2.89-1.81c1.146-0.453,2.453-0.681,3.92-0.681
		c1.654,0,3.17,0.261,4.551,0.781c1.38,0.52,2.57,1.26,3.57,2.219L139.426,270.754z"/>
	<path fill="#F2F2F2" d="M166.006,265.834v3.9h-8.98v24.9h-4.66v-24.9h-9v-3.9H166.006z"/>
	<path fill="#F2F2F2" d="M195.946,280.235c0,2.133-0.348,4.1-1.041,5.9c-0.693,1.799-1.67,3.35-2.93,4.649s-2.773,2.317-4.539,3.05
		c-1.768,0.734-3.73,1.1-5.891,1.1c-2.146,0-4.104-0.365-5.87-1.1c-1.767-0.732-3.283-1.75-4.55-3.05
		c-1.268-1.3-2.247-2.851-2.939-4.649c-0.694-1.801-1.041-3.768-1.041-5.9s0.347-4.1,1.041-5.9c0.692-1.8,1.672-3.354,2.939-4.66
		c1.267-1.307,2.783-2.326,4.55-3.06s3.724-1.101,5.87-1.101c2.16,0,4.123,0.367,5.891,1.101c1.766,0.733,3.279,1.753,4.539,3.06
		s2.236,2.86,2.93,4.66C195.598,276.135,195.946,278.102,195.946,280.235z M191.165,280.235c0-1.653-0.224-3.141-0.671-4.46
		c-0.446-1.32-1.086-2.44-1.92-3.36c-0.833-0.92-1.843-1.627-3.029-2.119c-1.188-0.494-2.52-0.74-4-0.74
		c-1.467,0-2.793,0.246-3.98,0.74c-1.187,0.492-2.199,1.199-3.039,2.119s-1.487,2.04-1.94,3.36c-0.454,1.319-0.681,2.807-0.681,4.46
		c0,1.667,0.227,3.16,0.681,4.48c0.453,1.319,1.101,2.437,1.94,3.35s1.853,1.613,3.039,2.1c1.188,0.487,2.514,0.73,3.98,0.73
		c1.48,0,2.813-0.243,4-0.73c1.187-0.486,2.196-1.187,3.029-2.1c0.834-0.913,1.474-2.03,1.92-3.35
		C190.942,283.395,191.165,281.902,191.165,280.235z"/>
	<path fill="#F2F2F2" d="M215.945,284.545c0.187,0.406,0.354,0.822,0.5,1.25c0.16-0.428,0.33-0.851,0.511-1.271
		c0.18-0.42,0.369-0.823,0.569-1.21l9.101-16.7c0.186-0.373,0.393-0.597,0.619-0.67s0.547-0.11,0.961-0.11h3.5v28.801h-4.121v-19.74
		c0-0.32,0.011-0.667,0.031-1.04c0.02-0.374,0.043-0.753,0.069-1.14l-9.24,17.08c-0.36,0.706-0.913,1.06-1.659,1.06h-0.66
		c-0.76,0-1.314-0.354-1.66-1.06l-9.42-17.141c0.039,0.4,0.072,0.79,0.1,1.17c0.026,0.38,0.04,0.736,0.04,1.07v19.74h-4.12v-28.801
		h3.5c0.413,0,0.733,0.037,0.96,0.11s0.433,0.297,0.62,0.67l9.24,16.74C215.572,283.741,215.758,284.138,215.945,284.545z"/>
	<path fill="#F2F2F2" d="M256.504,265.834v3.78h-13.26v8.681h10.6v3.659h-10.6v8.9h13.279l-0.02,3.78h-17.96v-28.801H256.504z"/>
	<path fill="#F2F2F2" d="M266.264,283.034v11.601h-4.68v-28.801h8.479c1.894,0,3.523,0.193,4.89,0.58
		c1.367,0.387,2.49,0.938,3.371,1.65c0.879,0.713,1.529,1.57,1.949,2.57s0.631,2.113,0.631,3.34c0,1-0.15,1.934-0.451,2.8
		c-0.299,0.866-0.732,1.653-1.299,2.36c-0.567,0.707-1.268,1.319-2.101,1.84c-0.833,0.52-1.776,0.927-2.83,1.22
		c0.587,0.347,1.087,0.833,1.5,1.46l7.78,10.98h-4.18c-0.828,0-1.428-0.32-1.801-0.961l-6.72-9.699
		c-0.228-0.334-0.474-0.573-0.74-0.721c-0.267-0.146-0.667-0.22-1.2-0.22H266.264z M266.264,279.635h3.68
		c1.066,0,2-0.131,2.801-0.391c0.799-0.26,1.466-0.623,2-1.09c0.533-0.467,0.933-1.023,1.199-1.67s0.4-1.363,0.4-2.15
		c0-1.572-0.52-2.773-1.561-3.6c-1.039-0.826-2.613-1.24-4.72-1.24h-3.8V279.635z"/>
</g>
<g id="_x33_">
	<g>
		<path fill="#1A1A1A" d="M260.89,55.034H92.756c-2.725,0-4.947,2.223-4.947,4.948v99.049v2.325v11.582
			c0,3.055,2.223,5.555,4.947,5.555h38.067c1.325-0.523,2.678-1.051,4.062-1.588c2.677-1.039,5.443-2.109,8.203-3.266
			c6.252-2.605,10.052-4.324,12.249-5.375l0.063-6.532c-0.972-1.207-2.1-2.954-3.158-5.32H97.75v-89.07h157.744v89.07h-54.092
			c-1.057,2.366-2.188,4.113-3.152,5.32l0.058,6.532c2.192,1.047,5.987,2.77,12.245,5.375c2.76,1.152,5.529,2.227,8.201,3.264
			c1.388,0.539,2.735,1.066,4.068,1.59h38.067c2.722,0,4.944-2.5,4.944-5.555v-11.582v-2.325V59.982
			C265.834,57.257,263.612,55.034,260.89,55.034z"/>
		<path fill="#F4F1F0" d="M237.623,193.658c-3.803-5.93-16.568-9.613-29.211-14.883c-0.232-0.096-0.447-0.184-0.677-0.283
			c-12.051-5.041-14.957-6.809-14.957-6.809l-0.113-12.126c0,0,1.146-0.893,2.486-3.146c1.388-2.329,2.968-6.101,3.721-11.897
			c2.954,0.858,6.065-4.414,6.23-7.198c0.164-2.674-0.411-10.108-4.021-9.359c0.738-5.594,1.272-10.617,1.016-13.278
			c-0.94-9.745-10.529-20.012-25.274-20.012c-14.747,0-24.336,10.267-25.276,20.012c-0.258,2.661,0.278,7.685,1.018,13.278
			c-3.612-0.749-4.188,6.686-4.023,9.359c0.168,2.784,3.274,8.057,6.241,7.198c0.745,5.797,2.328,9.568,3.713,11.897
			c1.342,2.253,2.488,3.146,2.488,3.146l-0.116,12.126c0,0-2.91,1.768-14.959,6.809c-0.232,0.1-0.444,0.188-0.681,0.283
			c-12.637,5.27-25.404,8.953-29.203,14.883c-3.406,5.307-2.384,23.404-2.384,23.404h63.183h63.181
			C240.003,217.063,241.03,198.965,237.623,193.658z"/>
	</g>
	<g>
		<polygon fill="#579DD9" points="110.709,87.589 117.797,94.675 110.709,101.76 113.752,104.803 123.885,94.675 113.752,84.546 		
			"/>
		<rect x="129.449" y="90.372" fill="#579DD9" width="12.912" height="4.303"/>
	</g>
	<path fill="#1A1A1A" d="M251.51,227.201H101.878c0,0-4.705-27.553,0-32.076c23.509-22.607,123.181-20.555,149.632,0
		C256.8,199.239,251.51,227.201,251.51,227.201z"/>
</g>
<g>
	<path fill="#1A1A1A" d="M281.647,238.808v3.053h-4.867v13.255h-3.657v-13.255h-4.896v-3.053H281.647z M292.977,247.498
		c0.11,0.257,0.216,0.514,0.316,0.77c0.101,0.258,0.197,0.514,0.289,0.771c0.165-0.531,0.367-1.045,0.605-1.54l4.482-8.112
		c0.201-0.257,0.375-0.417,0.521-0.481s0.376-0.097,0.688-0.097h3.08v16.308h-3.189v-9.707l0.248-2.173l-4.896,9.075
		c-0.257,0.532-0.679,0.798-1.265,0.798h-0.523c-0.586,0-1.008-0.266-1.265-0.798l-4.923-9.075l0.275,2.173v9.707h-3.245v-16.308
		h3.108c0.311,0,0.545,0.032,0.701,0.097c0.154,0.064,0.334,0.225,0.535,0.481L292.977,247.498z"/>
</g>
</svg>
