<?xml version="1.0" encoding="utf-8"?>
<!-- Generator: Adobe Illustrator 15.1.0, SVG Export Plug-In . SVG Version: 6.00 Build 0)  -->
<!DOCTYPE svg PUBLIC "-//W3C//DTD SVG 1.1//EN" "http://www.w3.org/Graphics/SVG/1.1/DTD/svg11.dtd">
<svg version="1.1" id="Calque_1" xmlns="http://www.w3.org/2000/svg" xmlns:xlink="http://www.w3.org/1999/xlink" x="0px" y="0px"
	 width="353.637px" height="353.637px" viewBox="0 0 353.637 353.637" enable-background="new 0 0 353.637 353.637"
	 xml:space="preserve">
<path fill="#1F3D59" d="M176.818,0C79.162,0,0,79.166,0,176.818c0,97.652,79.162,176.818,176.818,176.818
	c97.649,0,176.819-79.166,176.819-176.818C353.637,79.166,274.467,0,176.818,0z"/>
<path fill-rule="evenodd" clip-rule="evenodd" fill="#FFFFFF" d="M94.983,209.535c-22.101,0-40.02-17.678-40.02-31.549
	c0-13.873,6.287-19.488,16.011-25.244c-0.491-2.159-0.75-4.383-0.75-6.655c0-20.689,21.279-37.461,47.526-37.461
	c4.476,0,8.805,0.485,12.909,1.396c-0.1-0.989-0.15-1.995-0.15-3.005c0-14.994,11.18-27.929,27.323-33.916v62.92h-25.497
	l44.479,55.292l44.482-55.292h-25.496V72.264c17.443,5.547,29.756,19.018,29.756,34.754c0,0.847-0.041,1.686-0.109,2.515
	c3.357-0.594,6.85-0.907,10.438-0.907c26.244,0,47.523,16.771,47.523,37.461c0,2.271-0.258,4.496-0.748,6.657
	c9.723,5.756,16.012,11.369,16.012,25.242c0,13.871-17.92,31.549-40.021,31.549H94.983z"/>
<path fill="#579DD9" d="M290.297,197.619l-7.277-1.936c0-0.025-0.002-0.053-0.004-0.074c-0.023-0.893-0.074-1.77-0.182-2.635
	l1.146-0.471l5.832-2.375c0.795-0.328,1.23-1.172,0.984-1.873l-1.324-4.941c-0.137-0.748-0.941-1.256-1.779-1.135l-1.467,0.203
	l-6.156,0.85c-0.346-0.756-0.736-1.51-1.143-2.229l5.492-5.121c0.611-0.58,0.721-1.506,0.24-2.082l-0.703-0.973l-2.305-3.181
	c-0.295-0.494-0.895-0.713-1.496-0.617c-0.188,0.027-0.375,0.082-0.555,0.178l-7.107,3.9c-0.506-0.457-1.031-0.896-1.57-1.308
	l3.367-6.959c0.367-0.764,0.131-1.678-0.529-2.041l-4.299-2.787c-0.471-0.373-1.156-0.324-1.691,0.035
	c-0.139,0.09-0.273,0.184-0.383,0.316l-3.221,3.826l-2.246,2.667c-0.021,0.018-0.041,0.039-0.055,0.076
	c-0.158-0.059-0.301-0.111-0.469-0.152l0.168-8.463c0.02-0.852-0.58-1.588-1.326-1.627l-2.818-0.414l-1.91-0.275l-0.346-0.049
	c-0.352-0.088-0.711,0.002-1.021,0.191c-0.336,0.217-0.613,0.563-0.721,0.998l-1.357,4.9l-0.893,3.236
	c-0.5,0.012-1.014,0.025-1.514,0.068c-0.037-0.094-0.064-0.186-0.088-0.279l-1.594-3.633l-0.061-0.146l-1.758-4
	c-0.139-0.32-0.379-0.559-0.641-0.732c-0.387-0.256-0.844-0.355-1.27-0.203l-4.902,1.467c-0.73,0.156-1.209,0.969-1.082,1.807
	l1.342,8.131c-0.529,0.223-1.043,0.467-1.568,0.721c-0.033-0.041-0.07-0.09-0.119-0.135l-5.998-6.028
	c-0.578-0.602-1.525-0.682-2.092-0.174l-4.047,3.137c-0.633,0.401-0.795,1.338-0.369,2.061l4.24,7.187
	c-0.477,0.465-0.928,0.961-1.359,1.453c-0.023,0-0.043-0.02-0.07-0.02l-7.742-3.511c-0.76-0.35-1.676-0.09-2.008,0.585l-2.676,4.361
	c-0.439,0.617-0.273,1.541,0.4,2.07l3.877,3.102l2.758,2.211c0.023,0.004,0.037,0.029,0.049,0.029
	c-0.252,0.641-0.496,1.293-0.697,1.975c-0.029,0-0.057-0.021-0.076-0.021l-8.488-0.244c-0.838-0.014-1.584,0.586-1.646,1.332
	l-0.781,5.068c-0.16,0.729,0.355,1.512,1.186,1.756l8.162,2.316c0.033,0,0.07,0,0.096,0.002c0,0.611,0.033,1.203,0.07,1.793
	c-0.037,0.008-0.084,0.029-0.109,0.049l-7.871,3.186c-0.793,0.324-1.232,1.164-0.967,1.869l1.318,4.957
	c0.129,0.736,0.934,1.248,1.777,1.127l8.328-1.145c0.25,0.617,0.551,1.217,0.848,1.793l-0.619,0.586l-5.35,5.064
	c-0.617,0.58-0.709,1.535-0.221,2.094l3.021,4.123c0.396,0.635,1.322,0.826,2.068,0.408l7.223-3.998
	c0.439,0.453,0.932,0.887,1.428,1.318l-1.299,2.895l-1.979,4.416c-0.338,0.783-0.08,1.678,0.596,2.01l4.371,2.67
	c0.609,0.432,1.541,0.246,2.076-0.402l4.986-6.332c0.689,0.279,1.367,0.527,2.072,0.744l-0.152,8.055
	c-0.016,0.846,0.58,1.582,1.338,1.633l4.326,0.623l0.738,0.102c0.734,0.168,1.514-0.373,1.744-1.188l1.412-5.146l0.723-2.639
	c0.391,0,0.787-0.01,1.17-0.037l1.807,4.48l0.6,1.494l0.512,1.279c0.326,0.787,1.158,1.232,1.859,0.98l4.965-1.305
	c0.287-0.051,0.525-0.223,0.721-0.438c0.303-0.34,0.492-0.818,0.42-1.334l-0.42-3.182l-0.377-2.785l-0.197-1.449
	c0.188-0.072,0.389-0.17,0.574-0.254c0.514-0.215,1.016-0.436,1.541-0.691l0.184,0.189l5.143,5.27
	c0.607,0.6,1.553,0.678,2.115,0.186l4.064-3.094c0.635-0.412,0.803-1.344,0.379-2.07l-3.697-6.369
	c0.592-0.588,1.166-1.227,1.719-1.865l6.838,3.102c0.781,0.348,1.686,0.094,2.041-0.59l2.67-4.375
	c0.438-0.592,0.258-1.529-0.391-2.051l-5.961-4.754c0.305-0.746,0.59-1.51,0.824-2.299l7.537,0.088
	c0.867,0.01,1.572-0.615,1.623-1.346l0.688-5.08C291.652,198.623,291.113,197.846,290.297,197.619z M274.133,189.166
	c1.1,3.322,1.465,6.963,0.914,10.674c-0.561,3.971-2.104,7.563-4.346,10.594l-6.533-5.156l-0.793-0.623
	c0.309-0.449,0.521-0.971,0.793-1.449c0.785-1.447,1.418-2.99,1.664-4.711c0.297-2.02,0.137-4.012-0.389-5.857L274.133,189.166z
	 M272.182,184.807l-8.014,3.186l-0.793,0.32c-0.736-1.041-1.611-1.961-2.6-2.764c-1.012-0.813-2.141-1.494-3.354-2.027
	c-0.406-0.174-0.799-0.371-1.229-0.516l1.229-8.5l0.111-0.803c2.396,0.6,4.617,1.549,6.635,2.799
	c1.154,0.713,2.213,1.555,3.217,2.451C269.281,180.645,270.924,182.605,272.182,184.807z M250.949,202.523
	c-3.348-0.486-5.664-3.58-5.184-6.932c0.496-3.348,3.594-5.67,6.936-5.188c1.068,0.16,2.004,0.598,2.811,1.199
	c0.828,0.633,1.482,1.473,1.91,2.418c0.447,1.012,0.639,2.152,0.469,3.328c-0.08,0.559-0.256,1.07-0.469,1.566
	c-0.428,0.977-1.082,1.824-1.91,2.451C254.256,202.307,252.637,202.768,250.949,202.523z M245.52,173.867
	c2.324-0.652,4.777-0.963,7.295-0.855l-1.361,9.322c-2.115,0.051-4.125,0.617-5.934,1.529c-0.898,0.455-1.756,0.965-2.535,1.592
	l-7.463-5.867C238.316,176.902,241.746,174.924,245.52,173.867z M229.719,204.389c-1.25-3.498-1.695-7.354-1.123-11.285
	c0.398-2.791,1.283-5.367,2.535-7.701c0.4-0.75,0.836-1.475,1.311-2.17l7.354,5.787c-0.994,1.598-1.689,3.43-1.98,5.428
	c-0.326,2.262-0.068,4.461,0.6,6.471l-3.363,1.348L229.719,204.389z M233.594,211.205c-0.641-0.797-1.258-1.619-1.789-2.498
	l4.033-1.611l4.844-1.932c1.283,1.639,2.928,3.004,4.838,3.959c0.617,0.303,1.27,0.574,1.945,0.791l-1.346,9.328
	c-2.025-0.504-3.893-1.336-5.646-2.316C237.824,215.443,235.467,213.527,233.594,211.205z M264.168,216.422
	c-2.617,1.621-5.553,2.744-8.656,3.234c-0.123,0.018-0.244,0.021-0.369,0.043c-1.17,0.162-2.367,0.232-3.572,0.227
	c-0.246-0.004-0.482,0.014-0.723,0.002l1.35-9.326c0.896-0.018,1.758-0.16,2.607-0.352c0.234-0.053,0.473-0.092,0.707-0.154
	c0.654-0.182,1.287-0.426,1.91-0.691c0.889-0.373,1.75-0.813,2.541-1.367l4.205,3.314l3.307,2.609
	C266.447,214.881,265.33,215.695,264.168,216.422z"/>
<text transform="matrix(1 0 0 1 107.4385 285.4248)" fill="#F2F2F2" font-family="'Lato-Semibold'" font-size="40">CLOUD</text>
</svg>
