<?xml version="1.0" encoding="utf-8"?>
<!-- Generator: Adobe Illustrator 15.1.0, SVG Export Plug-In . SVG Version: 6.00 Build 0)  -->
<!DOCTYPE svg PUBLIC "-//W3C//DTD SVG 1.1//EN" "http://www.w3.org/Graphics/SVG/1.1/DTD/svg11.dtd">
<svg version="1.1" id="Calque_1" xmlns="http://www.w3.org/2000/svg" xmlns:xlink="http://www.w3.org/1999/xlink" x="0px" y="0px"
	 width="353.637px" height="353.637px" viewBox="0 0 353.637 353.637" enable-background="new 0 0 353.637 353.637"
	 xml:space="preserve">
<path fill="#1F3D59" d="M176.319,0.502C78.662,0.502-0.5,79.668-0.5,177.321c0,97.653,79.162,176.818,176.818,176.818
	c97.649,0,176.818-79.165,176.818-176.818C353.137,79.668,273.968,0.502,176.319,0.502z"/>
<text transform="matrix(1 0 0 1 84.9978 297.137)" fill="#F2F2F2" font-family="'Lato-Semibold'" font-size="40">C - RULES</text>
<path fill="#FFFFFF" d="M164.282,149.146l-2.886-2.704l32.937-35.367l2.893,2.736L164.282,149.146z M214.53,95.23l-7.113-6.645
	l-15.689,16.813l7.141,6.671L214.53,95.23z M157.559,156.397l5.11-5.498l-7.141-6.646l-5.107,5.474l-1.487,8.208h-5.337v5.237
	h71.298v-5.237h-63.379L157.559,156.397z M193.005,109.873l-2.919-2.707l-32.915,35.341l2.89,2.703L193.005,109.873z
	 M239.991,66.151v147.347c0,3.673-2.997,6.671-6.671,6.671H125.169c-3.674,0-6.672-2.998-6.672-6.671V66.151
	c0-3.678,2.998-6.672,6.672-6.672h108.151C237.02,59.479,239.991,62.472,239.991,66.151L239.991,66.151z M184.013,213.523
	c0-2.631-2.136-4.769-4.771-4.769c-2.629,0-4.764,2.104-4.764,4.769c0,2.632,2.135,4.762,4.764,4.762
	C181.877,218.284,184.013,216.122,184.013,213.523L184.013,213.523z M226.649,72.822H153.99V89.5l-5.21-4.377l-5.183,4.377V72.822
	h-11.756v134.003h94.808V72.822z M143.597,183.311h71.272v-5.264h-71.272V183.311z M143.597,183.311"/>
<rect x="142.819" y="177.819" fill="#579DD9" stroke="#579DD9" stroke-miterlimit="10" width="72" height="5"/>
<rect x="142.819" y="157.819" fill="#579DD9" stroke="#579DD9" stroke-miterlimit="10" width="72" height="6"/>
<text transform="matrix(1 0 0 1 253.9055 282.7727)" fill="#1A1A1A" font-family="'Lato-Medium'" font-size="55">™</text>
</svg>
