<?xml version="1.0" encoding="utf-8"?>
<!-- Generator: Adobe Illustrator 15.1.0, SVG Export Plug-In . SVG Version: 6.00 Build 0)  -->
<!DOCTYPE svg PUBLIC "-//W3C//DTD SVG 1.1//EN" "http://www.w3.org/Graphics/SVG/1.1/DTD/svg11.dtd">
<svg version="1.1" id="Calque_1" xmlns="http://www.w3.org/2000/svg" xmlns:xlink="http://www.w3.org/1999/xlink" x="0px" y="0px"
	 width="353.637px" height="353.637px" viewBox="0 0 353.637 353.637" enable-background="new 0 0 353.637 353.637"
	 xml:space="preserve">
<path fill="#1F3D59" d="M176.319,0.502C78.662,0.502-0.5,79.668-0.5,177.321c0,97.653,79.162,176.818,176.818,176.818
	c97.649,0,176.818-79.165,176.818-176.818C353.137,79.668,273.968,0.502,176.319,0.502z"/>
<path opacity="0.81" fill="#E6E6E6" d="M222.319,183.319c0,4.418-3.582,8-8,8h-142c-4.418,0-8-3.582-8-8v-82c0-4.418,3.582-8,8-8
	h142c4.418,0,8,3.582,8,8V183.319z"/>
<g id="_x31_6">
	<path fill="#579DD9" d="M96.936,176.079l6.172,11.549h15.994l-9.727-18.199c4.693-5.666,5.782-13.822,2.098-20.716
		c-3.729-6.979-11.26-10.616-18.672-9.739l8.154,15.258l-4.142,6.657l-7.841-0.255l-8.153-15.252
		c-4.85,5.672-6.007,13.954-2.276,20.93C82.225,173.204,89.614,176.833,96.936,176.079z"/>
	<path fill="#579DD9" d="M161.713,169.545c-3.867-8.04-13.524-11.424-21.562-7.553c-8.04,3.872-11.417,13.522-7.552,21.563
		c0.738,1.536,1.693,2.896,2.801,4.073h7.65c-2.771-1.027-5.166-3.08-6.55-5.948c-2.828-5.883-0.353-12.951,5.528-15.785
		c5.887-2.834,12.947-0.355,15.782,5.527c2.831,5.887,0.362,12.951-5.528,15.786c-0.331,0.159-0.665,0.294-1.002,0.42h7.616
		C163.355,182.901,164.701,175.747,161.713,169.545z"/>
	<path fill="#579DD9" d="M112.157,171.134l8.534,4.252c-0.077,1.748,0.021,3.515,0.301,5.276l-2.783,1.797l2.768,5.169h12.457
		c-0.834-1.037-1.58-2.172-2.182-3.42c-4.223-8.786-0.533-19.335,8.249-23.559c8.782-4.23,19.332-0.534,23.56,8.248
		c3.052,6.341,1.957,13.593-2.185,18.73h21.521l1.049-2.997c0.335-0.944-0.132-2.086-1.03-2.533l-8.795-4.381
		c0.08-1.755-0.021-3.516-0.297-5.276l8.251-5.334c0.847-0.543,1.178-1.733,0.739-2.636l-3.782-7.868
		c-0.436-0.898-1.57-1.377-2.519-1.064l-9.325,3.123c-1.199-1.313-2.519-2.494-3.933-3.521l2.062-9.604
		c0.212-0.984-0.39-2.055-1.341-2.39l-8.238-2.887c-0.945-0.331-2.084,0.136-2.531,1.031l-4.384,8.801
		c-1.748-0.083-3.515,0.012-5.278,0.291l-5.332-8.252c-0.546-0.84-1.727-1.178-2.635-0.742l-7.865,3.789
		c-0.905,0.433-1.384,1.57-1.068,2.519l3.127,9.318c-1.313,1.203-2.498,2.521-3.525,3.936l-9.466-2.03
		c-0.013,4.319-1.516,8.54-4.295,11.896L112.157,171.134z"/>
	<path fill="#579DD9" d="M183.701,181.766c0.976,0.485,1.476,1.725,1.12,2.749l-1.093,3.113h6.341l5.381-9.255
		c1.116-1.926,0.46-4.417-1.467-5.533l-0.175-0.104l13.004-22.375l0.509,0.295c0.451,0.264,1.03,0.101,1.279-0.362l3.88-8.47
		c0.252-0.46,0.083-1.052-0.371-1.313l-2.39-1.393c-0.453-0.264-1.049-0.116-1.328,0.331l-5.436,7.57
		c-0.276,0.445-0.132,1.025,0.322,1.286l0.509,0.294l-13.006,22.381l-0.178-0.104c-1.921-1.116-4.411-0.457-5.528,1.467l-4.552,7.84
		L183.701,181.766z"/>
</g>
<path fill="#1A1A1A" d="M275.024,83.274h-22.051c-8.989,0-16.345,7.347-16.345,16.341v108.631c0,8.994,7.355,16.35,16.345,16.35
	h22.051c8.984,0,16.334-7.355,16.334-16.35V99.615C291.358,90.62,284.008,83.274,275.024,83.274z M264,164.548
	c-2.534,0-4.581-2.049-4.581-4.57c0-2.528,2.047-4.58,4.581-4.58c2.521,0,4.567,2.052,4.567,4.58
	C268.568,162.499,266.522,164.548,264,164.548z M262.037,148.538c0-1.083,0.874-1.957,1.963-1.957c1.085,0,1.959,0.874,1.959,1.957
	s-0.874,1.96-1.959,1.96C262.911,150.498,262.037,149.621,262.037,148.538z M280.129,117.584h-32.267
	c-0.899,0-1.636-0.742-1.636-1.638c0-0.908,0.736-1.632,1.636-1.632h32.267c0.899,0,1.631,0.724,1.631,1.632
	C281.76,116.842,281.029,117.584,280.129,117.584z M280.129,109.412h-32.267c-0.899,0-1.636-0.73-1.636-1.638
	c0-0.899,0.736-1.632,1.636-1.632h32.267c0.899,0,1.631,0.733,1.631,1.632C281.76,108.682,281.029,109.412,280.129,109.412z
	 M280.129,101.243h-32.267c-0.899,0-1.636-0.73-1.636-1.629c0-0.908,0.736-1.638,1.636-1.638h32.267c0.899,0,1.631,0.73,1.631,1.638
	C281.76,100.513,281.029,101.243,280.129,101.243z M211.746,80.047H84.115c-11.498,0.016-20.812,9.329-20.836,20.819v76.231
	c0.024,11.497,9.338,20.805,20.836,20.819h47.522v11.087c0,1.192-0.464,3.086-1.038,4.202l-15.671,5.767
	c-1.405,0.653-3.93,1.185-5.603,1.185h-3.131c-1.681,0-3.06,0.984-3.06,2.169v0.101c0,1.185,1.379,2.169,3.06,2.169h83.471
	c1.681,0,3.059-0.984,3.059-2.169v-0.101c0-1.185-0.643-2.169-1.424-2.169c-0.786,0-2.782-0.15-4.45-0.328l-20.189-7.497
	c-1.42-0.639-2.579-2.136-2.579-3.328v-11.087h47.664c11.497-0.015,20.811-9.322,20.836-20.819v-76.231
	C232.557,89.375,223.243,80.062,211.746,80.047z M191.422,193.705h-16.78c-1.177,0-2.131-0.948-2.131-2.136
	c0-1.175,0.954-2.125,2.131-2.125h16.78c1.177,0,2.131,0.95,2.131,2.125C193.553,192.757,192.599,193.705,191.422,193.705z
	 M198.533,193.763c-1.215,0-2.193-0.972-2.193-2.193c0-1.208,0.979-2.184,2.193-2.184c1.205,0,2.192,0.976,2.192,2.184
	C200.726,192.791,199.739,193.763,198.533,193.763z M220.55,177.097c-0.004,4.801-4.001,8.792-8.804,8.811H84.115
	c-4.809-0.019-8.801-4.01-8.809-8.811v-76.231c0.008-4.792,4-8.792,8.809-8.801h127.631c4.803,0.009,8.8,4.009,8.804,8.801V177.097z
	"/>
<text transform="matrix(1 0 0 1 76.3357 297.137)" fill="#F2F2F2" font-family="'Lato-Semibold'" font-size="40">COMPANY</text>
<text transform="matrix(1 0 0 1 269.8655 282.7727)" fill="#1A1A1A" font-family="'Lato-Medium'" font-size="55">™</text>
</svg>
