<?xml version="1.0" encoding="utf-8"?>
<!-- Generator: Adobe Illustrator 15.1.0, SVG Export Plug-In . SVG Version: 6.00 Build 0)  -->
<!DOCTYPE svg PUBLIC "-//W3C//DTD SVG 1.1//EN" "http://www.w3.org/Graphics/SVG/1.1/DTD/svg11.dtd">
<svg version="1.1" id="Calque_1" xmlns="http://www.w3.org/2000/svg" xmlns:xlink="http://www.w3.org/1999/xlink" x="0px" y="0px"
	 width="353.637px" height="353.637px" viewBox="0 0 353.637 353.637" enable-background="new 0 0 353.637 353.637"
	 xml:space="preserve">
<path fill="#1F3D59" d="M176.319,0.502C78.662,0.502-0.5,79.668-0.5,177.321c0,97.653,79.162,176.818,176.817,176.818
	c97.649,0,176.818-79.165,176.818-176.818C353.137,79.668,273.968,0.502,176.319,0.502z"/>
<path opacity="0.81" fill="#E6E6E6" enable-background="new    " d="M222.319,183.319c0,4.418-3.582,8-8,8h-142
	c-4.418,0-8-3.582-8-8v-82c0-4.418,3.582-8,8-8h142c4.418,0,8,3.582,8,8V183.319z"/>
<g id="_x31_6">
	<path fill="#579DD9" d="M96.936,176.079l6.172,11.549h15.994l-9.727-18.199c4.692-5.666,5.782-13.822,2.098-20.716
		c-3.729-6.979-11.26-10.616-18.672-9.739l8.154,15.258l-4.143,6.657l-7.841-0.255l-8.153-15.252
		c-4.85,5.672-6.007,13.954-2.275,20.93C82.225,173.204,89.614,176.833,96.936,176.079z"/>
	<path fill="#579DD9" d="M161.713,169.545c-3.867-8.04-13.524-11.424-21.563-7.553c-8.04,3.872-11.417,13.521-7.552,21.563
		c0.738,1.536,1.693,2.896,2.801,4.073h7.65c-2.771-1.027-5.166-3.08-6.55-5.948c-2.828-5.883-0.354-12.951,5.527-15.785
		c5.888-2.834,12.947-0.354,15.782,5.527c2.831,5.887,0.362,12.951-5.528,15.786c-0.33,0.159-0.664,0.294-1.002,0.42h7.616
		C163.355,182.901,164.701,175.747,161.713,169.545z"/>
	<path fill="#579DD9" d="M112.157,171.134l8.533,4.252c-0.077,1.748,0.021,3.515,0.302,5.276l-2.783,1.797l2.768,5.169h12.457
		c-0.834-1.037-1.58-2.172-2.182-3.42c-4.224-8.786-0.533-19.335,8.249-23.56c8.782-4.229,19.332-0.533,23.56,8.248
		c3.052,6.341,1.957,13.594-2.185,18.73h21.521l1.049-2.997c0.335-0.944-0.132-2.086-1.029-2.533l-8.795-4.381
		c0.08-1.755-0.021-3.516-0.298-5.276l8.252-5.334c0.847-0.543,1.178-1.732,0.738-2.636l-3.782-7.868
		c-0.436-0.897-1.569-1.377-2.519-1.063l-9.325,3.123c-1.199-1.313-2.519-2.494-3.933-3.521l2.062-9.604
		c0.212-0.984-0.39-2.056-1.341-2.391l-8.238-2.887c-0.944-0.331-2.084,0.136-2.53,1.031l-4.385,8.801
		c-1.747-0.083-3.515,0.012-5.277,0.291l-5.332-8.252c-0.546-0.84-1.728-1.178-2.635-0.742l-7.865,3.789
		c-0.905,0.433-1.384,1.57-1.068,2.519l3.127,9.318c-1.313,1.203-2.498,2.521-3.524,3.937l-9.467-2.03
		c-0.013,4.319-1.516,8.54-4.295,11.896L112.157,171.134z"/>
	<path fill="#579DD9" d="M183.701,181.766c0.976,0.485,1.476,1.726,1.119,2.749l-1.093,3.113h6.341l5.382-9.255
		c1.115-1.926,0.46-4.417-1.468-5.533l-0.175-0.104l13.004-22.375l0.509,0.296c0.451,0.264,1.03,0.101,1.279-0.362l3.88-8.47
		c0.252-0.461,0.083-1.053-0.371-1.313l-2.39-1.393c-0.453-0.265-1.049-0.116-1.328,0.331l-5.436,7.569
		c-0.276,0.445-0.133,1.025,0.321,1.286l0.51,0.294L190.78,170.98l-0.178-0.104c-1.921-1.116-4.411-0.457-5.527,1.467l-4.553,7.84
		L183.701,181.766z"/>
</g>
<path fill="#1A1A1A" d="M275.024,83.274h-22.051c-8.989,0-16.345,7.348-16.345,16.342v108.631c0,8.994,7.354,16.35,16.345,16.35
	h22.051c8.984,0,16.334-7.354,16.334-16.35V99.615C291.358,90.62,284.008,83.274,275.024,83.274z M264,164.548
	c-2.534,0-4.581-2.049-4.581-4.57c0-2.527,2.047-4.58,4.581-4.58c2.521,0,4.566,2.053,4.566,4.58
	C268.568,162.499,266.522,164.548,264,164.548z M262.037,148.538c0-1.083,0.874-1.957,1.963-1.957c1.085,0,1.959,0.874,1.959,1.957
	s-0.874,1.96-1.959,1.96C262.911,150.498,262.037,149.621,262.037,148.538z M280.129,117.584h-32.268
	c-0.898,0-1.636-0.742-1.636-1.639c0-0.907,0.736-1.632,1.636-1.632h32.268c0.898,0,1.631,0.725,1.631,1.632
	C281.76,116.842,281.029,117.584,280.129,117.584z M280.129,109.412h-32.268c-0.898,0-1.636-0.73-1.636-1.639
	c0-0.898,0.736-1.632,1.636-1.632h32.268c0.898,0,1.631,0.733,1.631,1.632C281.76,108.682,281.029,109.412,280.129,109.412z
	 M280.129,101.243h-32.268c-0.898,0-1.636-0.73-1.636-1.629c0-0.908,0.736-1.639,1.636-1.639h32.268c0.898,0,1.631,0.73,1.631,1.639
	C281.76,100.513,281.029,101.243,280.129,101.243z M211.746,80.047H84.115c-11.497,0.016-20.812,9.329-20.836,20.819v76.23
	c0.024,11.497,9.339,20.805,20.836,20.819h47.522v11.087c0,1.191-0.464,3.086-1.038,4.202l-15.671,5.767
	c-1.405,0.653-3.93,1.186-5.603,1.186h-3.132c-1.681,0-3.06,0.983-3.06,2.169v0.101c0,1.185,1.379,2.169,3.06,2.169h83.472
	c1.681,0,3.059-0.984,3.059-2.169v-0.101c0-1.186-0.643-2.169-1.424-2.169c-0.786,0-2.782-0.15-4.45-0.328l-20.188-7.497
	c-1.42-0.64-2.579-2.137-2.579-3.328v-11.087h47.664c11.497-0.016,20.811-9.322,20.836-20.819v-76.23
	C232.557,89.375,223.243,80.062,211.746,80.047z M191.422,193.705h-16.78c-1.177,0-2.131-0.948-2.131-2.137
	c0-1.175,0.954-2.125,2.131-2.125h16.78c1.177,0,2.131,0.95,2.131,2.125C193.553,192.757,192.599,193.705,191.422,193.705z
	 M198.533,193.763c-1.216,0-2.193-0.972-2.193-2.193c0-1.208,0.979-2.184,2.193-2.184c1.204,0,2.191,0.976,2.191,2.184
	C200.726,192.791,199.739,193.763,198.533,193.763z M220.55,177.097c-0.004,4.801-4.001,8.792-8.804,8.812H84.115
	c-4.809-0.02-8.801-4.011-8.809-8.812v-76.23c0.008-4.792,4-8.792,8.809-8.802h127.632c4.803,0.01,8.8,4.01,8.804,8.802V177.097z"/>
<g enable-background="new    ">
	<path fill="#F2F2F2" d="M99.755,290.717c0.253,0,0.473,0.1,0.66,0.3l1.86,2.021c-1.173,1.413-2.613,2.503-4.32,3.27
		c-1.707,0.767-3.747,1.15-6.12,1.15c-2.107,0-4.01-0.363-5.71-1.09s-3.15-1.74-4.35-3.04c-1.2-1.301-2.124-2.851-2.77-4.65
		c-0.647-1.8-0.97-3.78-0.97-5.94c0-2.159,0.343-4.143,1.03-5.949c0.687-1.807,1.653-3.36,2.9-4.66s2.74-2.311,4.48-3.03
		c1.74-0.72,3.657-1.08,5.75-1.08c2.08,0,3.917,0.337,5.51,1.01c1.593,0.674,2.977,1.57,4.15,2.69l-1.54,2.18
		c-0.107,0.147-0.233,0.273-0.38,0.38c-0.147,0.107-0.347,0.16-0.6,0.16c-0.267,0-0.57-0.123-0.91-0.37
		c-0.34-0.246-0.773-0.52-1.3-0.819c-0.527-0.301-1.187-0.573-1.98-0.82c-0.793-0.247-1.784-0.37-2.97-0.37
		c-1.373,0-2.633,0.24-3.78,0.72c-1.147,0.48-2.133,1.181-2.96,2.101c-0.827,0.92-1.47,2.04-1.93,3.359
		c-0.46,1.32-0.69,2.82-0.69,4.5c0,1.693,0.24,3.204,0.72,4.53c0.48,1.327,1.14,2.447,1.98,3.36c0.84,0.913,1.826,1.609,2.96,2.09
		c1.133,0.479,2.353,0.72,3.66,0.72c0.8,0,1.517-0.043,2.15-0.13c0.633-0.087,1.216-0.227,1.75-0.42
		c0.533-0.193,1.036-0.437,1.51-0.73c0.473-0.293,0.943-0.652,1.41-1.079C99.222,290.837,99.489,290.717,99.755,290.717z"/>
	<path fill="#F2F2F2" d="M132.816,282.737c0,2.134-0.348,4.101-1.04,5.9c-0.694,1.8-1.671,3.35-2.931,4.65
		c-1.26,1.3-2.773,2.316-4.54,3.05s-3.729,1.1-5.89,1.1c-2.147,0-4.104-0.366-5.87-1.1s-3.283-1.75-4.55-3.05
		c-1.267-1.301-2.247-2.851-2.94-4.65c-0.694-1.8-1.04-3.767-1.04-5.9c0-2.133,0.346-4.1,1.04-5.899
		c0.693-1.8,1.673-3.354,2.94-4.66c1.267-1.307,2.783-2.326,4.55-3.06s3.723-1.101,5.87-1.101c2.16,0,4.123,0.367,5.89,1.101
		s3.28,1.753,4.54,3.06s2.236,2.86,2.931,4.66C132.468,278.637,132.816,280.604,132.816,282.737z M128.035,282.737
		c0-1.652-0.224-3.14-0.67-4.46c-0.447-1.319-1.087-2.439-1.92-3.359c-0.834-0.92-1.844-1.627-3.03-2.12s-2.521-0.74-4-0.74
		c-1.467,0-2.793,0.247-3.98,0.74c-1.187,0.493-2.2,1.2-3.04,2.12s-1.487,2.04-1.94,3.359c-0.454,1.32-0.68,2.808-0.68,4.46
		c0,1.667,0.227,3.16,0.68,4.48c0.453,1.32,1.1,2.437,1.94,3.35c0.84,0.914,1.853,1.613,3.04,2.101
		c1.187,0.486,2.513,0.729,3.98,0.729c1.479,0,2.813-0.243,4-0.729c1.187-0.487,2.196-1.187,3.03-2.101
		c0.833-0.913,1.473-2.029,1.92-3.35C127.812,285.897,128.035,284.404,128.035,282.737z"/>
	<path fill="#F2F2F2" d="M152.815,287.047c0.187,0.406,0.354,0.823,0.5,1.25c0.16-0.427,0.33-0.851,0.51-1.271
		c0.181-0.42,0.37-0.823,0.57-1.21l9.101-16.699c0.187-0.374,0.393-0.597,0.619-0.671c0.227-0.072,0.547-0.109,0.96-0.109h3.5v28.8
		h-4.119v-19.74c0-0.319,0.01-0.666,0.029-1.04c0.021-0.373,0.043-0.753,0.07-1.14l-9.24,17.08c-0.359,0.707-0.913,1.06-1.66,1.06
		h-0.659c-0.761,0-1.313-0.353-1.66-1.06l-9.42-17.141c0.04,0.4,0.072,0.79,0.1,1.171c0.026,0.38,0.04,0.736,0.04,1.069v19.74h-4.12
		v-28.8h3.5c0.413,0,0.733,0.037,0.96,0.109c0.227,0.074,0.434,0.297,0.62,0.671l9.24,16.739
		C152.442,286.243,152.628,286.641,152.815,287.047z"/>
	<path fill="#F2F2F2" d="M180.094,286.717v10.42h-4.68v-28.8h8.96c1.88,0,3.51,0.22,4.89,0.66c1.381,0.439,2.521,1.057,3.421,1.85
		c0.899,0.794,1.569,1.747,2.01,2.86c0.439,1.113,0.66,2.343,0.66,3.689c0,1.374-0.233,2.63-0.7,3.771
		c-0.467,1.14-1.16,2.12-2.08,2.939c-0.92,0.82-2.063,1.46-3.43,1.92c-1.367,0.46-2.957,0.69-4.771,0.69H180.094z M180.094,283.017
		h4.28c1.04,0,1.957-0.133,2.75-0.399s1.453-0.644,1.98-1.131c0.526-0.486,0.923-1.076,1.189-1.77s0.4-1.467,0.4-2.32
		c0-0.84-0.13-1.593-0.391-2.26c-0.26-0.667-0.649-1.233-1.17-1.7c-0.52-0.467-1.177-0.823-1.97-1.069
		c-0.793-0.247-1.724-0.37-2.79-0.37h-4.28V283.017z"/>
	<path fill="#F2F2F2" d="M221.934,297.137h-3.619c-0.414,0-0.747-0.104-1-0.31c-0.254-0.207-0.447-0.464-0.58-0.771l-2.4-6.36h-12.4
		l-2.399,6.36c-0.107,0.267-0.294,0.514-0.561,0.74s-0.6,0.34-1,0.34h-3.619l11.42-28.8h4.739L221.934,297.137z M203.195,286.337
		h9.88l-3.96-10.521c-0.16-0.387-0.323-0.847-0.49-1.38s-0.33-1.106-0.49-1.72c-0.16,0.627-0.323,1.203-0.489,1.729
		c-0.167,0.527-0.324,0.99-0.471,1.391L203.195,286.337z"/>
	<path fill="#F2F2F2" d="M228.244,268.367c0.14,0.02,0.27,0.057,0.39,0.109c0.12,0.054,0.233,0.134,0.34,0.24
		c0.107,0.106,0.221,0.24,0.341,0.4l15.84,20.34c-0.04-0.413-0.07-0.82-0.09-1.221c-0.021-0.399-0.03-0.772-0.03-1.119v-18.78h4.1
		v28.8h-2.38c-0.36,0-0.667-0.063-0.92-0.19c-0.253-0.126-0.493-0.336-0.72-0.63l-15.82-20.319c0.04,0.387,0.07,0.77,0.09,1.149
		c0.021,0.38,0.03,0.73,0.03,1.05v18.94h-4.12v-28.8h2.44C227.934,268.337,228.105,268.347,228.244,268.367z"/>
	<path fill="#F2F2F2" d="M267.633,285.857v11.28h-4.659v-11.28l-10.521-17.52h4.101c0.413,0,0.739,0.1,0.979,0.3
		s0.44,0.453,0.6,0.76l5.9,10.32c0.267,0.52,0.51,1.014,0.73,1.479c0.22,0.468,0.409,0.928,0.569,1.381
		c0.16-0.467,0.347-0.931,0.561-1.391c0.213-0.46,0.453-0.95,0.72-1.47l5.86-10.32c0.133-0.267,0.326-0.51,0.58-0.729
		c0.253-0.221,0.579-0.33,0.979-0.33h4.12L267.633,285.857z"/>
</g>
<g enable-background="new    ">
	<path fill="#1A1A1A" d="M285.678,243.31v3.053h-4.867v13.255h-3.658v-13.255h-4.895v-3.053H285.678z M297.008,252
		c0.109,0.257,0.215,0.514,0.316,0.77c0.1,0.258,0.197,0.514,0.289,0.771c0.164-0.531,0.366-1.045,0.604-1.54l4.482-8.112
		c0.202-0.257,0.376-0.417,0.522-0.481s0.375-0.097,0.688-0.097h3.08v16.308h-3.189v-9.707l0.247-2.173l-4.896,9.075
		c-0.256,0.532-0.678,0.798-1.265,0.798h-0.522c-0.587,0-1.008-0.266-1.266-0.798l-4.922-9.075l0.275,2.173v9.707h-3.246V243.31
		h3.108c0.312,0,0.545,0.032,0.701,0.097c0.155,0.064,0.334,0.225,0.536,0.481L297.008,252z"/>
</g>
</svg>
