<?xml version="1.0" encoding="utf-8"?>
<!-- Generator: Adobe Illustrator 15.1.0, SVG Export Plug-In . SVG Version: 6.00 Build 0)  -->
<!DOCTYPE svg PUBLIC "-//W3C//DTD SVG 1.1//EN" "http://www.w3.org/Graphics/SVG/1.1/DTD/svg11.dtd">
<svg version="1.1" id="Calque_1" xmlns="http://www.w3.org/2000/svg" xmlns:xlink="http://www.w3.org/1999/xlink" x="0px" y="0px"
	 width="353.637px" height="353.637px" viewBox="0 0 353.637 353.637" enable-background="new 0 0 353.637 353.637"
	 xml:space="preserve">
<path fill="#1F3D59" d="M176.819-1.288C79.162-1.288,0,77.878,0,175.531C0,273.184,79.162,352.35,176.819,352.35
	c97.648,0,176.818-79.166,176.818-176.817C353.637,77.878,274.467-1.288,176.819-1.288z"/>
<path fill="#FFFFFF" d="M94.983,208.248c-22.1,0-40.02-17.679-40.02-31.549c0-13.874,6.287-19.489,16.012-25.245
	c-0.491-2.159-0.75-4.384-0.75-6.655c0-20.689,21.279-37.461,47.525-37.461c4.477,0,8.805,0.485,12.909,1.396
	c-0.102-0.988-0.149-1.994-0.149-3.005c0-14.994,11.18-27.929,27.322-33.916v62.92h-25.496l44.479,55.293l44.482-55.293h-25.496
	V70.976c17.443,5.547,29.756,19.019,29.756,34.754c0,0.848-0.041,1.687-0.109,2.516c3.357-0.595,6.851-0.907,10.438-0.907
	c26.244,0,47.523,16.771,47.523,37.461c0,2.271-0.259,4.496-0.748,6.657c9.723,5.756,16.012,11.369,16.012,25.243
	c0,13.87-17.92,31.549-40.021,31.549H94.983L94.983,208.248z"/>
<path fill="#579DD9" d="M290.297,196.332l-7.277-1.937c0-0.024-0.002-0.053-0.004-0.074c-0.022-0.893-0.074-1.77-0.182-2.635
	l1.146-0.471l5.832-2.375c0.795-0.328,1.23-1.172,0.984-1.873l-1.324-4.941c-0.137-0.748-0.941-1.256-1.779-1.135l-1.467,0.203
	l-6.156,0.85c-0.346-0.756-0.735-1.51-1.143-2.229l5.492-5.121c0.61-0.58,0.721-1.506,0.24-2.082l-0.703-0.973l-2.306-3.183
	c-0.295-0.493-0.895-0.713-1.496-0.616c-0.188,0.026-0.375,0.082-0.555,0.178l-7.106,3.899c-0.507-0.457-1.031-0.896-1.57-1.309
	l3.367-6.959c0.366-0.764,0.131-1.678-0.529-2.041l-4.299-2.787c-0.472-0.373-1.156-0.324-1.691,0.035
	c-0.139,0.09-0.272,0.184-0.383,0.316l-3.221,3.825l-2.246,2.667c-0.021,0.019-0.041,0.039-0.056,0.076
	c-0.157-0.059-0.301-0.11-0.469-0.151l0.168-8.464c0.021-0.852-0.58-1.588-1.326-1.627l-2.817-0.414l-1.91-0.274l-0.346-0.049
	c-0.353-0.088-0.711,0.002-1.021,0.19c-0.336,0.217-0.613,0.563-0.721,0.998l-1.357,4.9l-0.893,3.235
	c-0.5,0.013-1.014,0.025-1.514,0.068c-0.037-0.094-0.064-0.186-0.089-0.279l-1.594-3.633L247.918,160l-1.758-4
	c-0.14-0.32-0.38-0.56-0.642-0.732c-0.387-0.256-0.844-0.354-1.27-0.203l-4.902,1.468c-0.729,0.155-1.209,0.969-1.082,1.807
	l1.342,8.131c-0.528,0.223-1.043,0.467-1.567,0.721c-0.033-0.041-0.07-0.09-0.119-0.135l-5.998-6.028
	c-0.578-0.602-1.525-0.682-2.092-0.174l-4.047,3.138c-0.634,0.4-0.796,1.338-0.369,2.061l4.239,7.188
	c-0.477,0.465-0.928,0.961-1.358,1.452c-0.023,0-0.043-0.02-0.07-0.02l-7.742-3.512c-0.76-0.351-1.676-0.091-2.008,0.586
	l-2.676,4.36c-0.439,0.617-0.273,1.541,0.4,2.07l3.877,3.103l2.758,2.211c0.022,0.004,0.037,0.028,0.049,0.028
	c-0.252,0.642-0.496,1.293-0.697,1.976c-0.029,0-0.057-0.021-0.076-0.021l-8.487-0.244c-0.838-0.014-1.584,0.586-1.646,1.332
	l-0.781,5.068c-0.159,0.729,0.355,1.512,1.187,1.756l8.162,2.316c0.033,0,0.069,0,0.096,0.002c0,0.61,0.033,1.203,0.07,1.793
	c-0.037,0.008-0.084,0.028-0.109,0.049l-7.871,3.186c-0.793,0.324-1.231,1.164-0.967,1.869l1.318,4.957
	c0.129,0.736,0.934,1.248,1.776,1.127l8.328-1.145c0.25,0.617,0.551,1.217,0.849,1.793l-0.619,0.586l-5.351,5.063
	c-0.617,0.58-0.709,1.535-0.221,2.095l3.021,4.123c0.396,0.635,1.322,0.825,2.068,0.407l7.223-3.998
	c0.439,0.453,0.933,0.888,1.429,1.318l-1.299,2.896l-1.979,4.415c-0.338,0.783-0.08,1.679,0.596,2.011l4.371,2.67
	c0.609,0.432,1.541,0.246,2.076-0.402l4.986-6.332c0.688,0.279,1.367,0.527,2.071,0.744l-0.151,8.055
	c-0.017,0.847,0.58,1.582,1.338,1.634l4.326,0.623l0.737,0.102c0.734,0.168,1.515-0.373,1.744-1.188l1.412-5.146l0.724-2.639
	c0.391,0,0.786-0.011,1.17-0.037l1.807,4.479l0.6,1.494l0.513,1.279c0.326,0.787,1.158,1.231,1.858,0.979l4.966-1.305
	c0.286-0.051,0.524-0.223,0.721-0.438c0.303-0.341,0.492-0.818,0.42-1.335l-0.42-3.182l-0.377-2.785l-0.197-1.449
	c0.188-0.071,0.389-0.17,0.574-0.254c0.514-0.215,1.016-0.436,1.541-0.69l0.184,0.188l5.144,5.271
	c0.606,0.6,1.553,0.678,2.114,0.186l4.064-3.094c0.635-0.412,0.803-1.344,0.379-2.07l-3.697-6.368
	c0.593-0.589,1.166-1.228,1.72-1.865l6.838,3.102c0.78,0.349,1.686,0.094,2.041-0.59l2.67-4.375
	c0.438-0.592,0.258-1.529-0.392-2.051l-5.961-4.754c0.306-0.746,0.59-1.511,0.824-2.299l7.537,0.088
	c0.867,0.01,1.572-0.615,1.623-1.347l0.688-5.08C291.653,197.336,291.114,196.559,290.297,196.332z M274.133,187.879
	c1.1,3.322,1.465,6.963,0.914,10.674c-0.562,3.971-2.104,7.563-4.346,10.594l-6.533-5.155l-0.793-0.623
	c0.309-0.449,0.521-0.972,0.793-1.449c0.785-1.447,1.418-2.99,1.664-4.711c0.297-2.021,0.137-4.013-0.39-5.857L274.133,187.879z
	 M272.182,183.52l-8.014,3.187l-0.793,0.319c-0.736-1.041-1.611-1.961-2.601-2.764c-1.012-0.813-2.141-1.494-3.354-2.027
	c-0.406-0.174-0.799-0.37-1.229-0.516l1.229-8.5l0.11-0.803c2.396,0.6,4.617,1.549,6.636,2.799c1.153,0.713,2.213,1.555,3.217,2.451
	C269.281,179.358,270.924,181.319,272.182,183.52z M250.949,201.237c-3.349-0.485-5.664-3.579-5.185-6.932
	c0.496-3.348,3.594-5.67,6.937-5.188c1.067,0.159,2.004,0.598,2.811,1.198c0.828,0.634,1.482,1.474,1.91,2.418
	c0.447,1.013,0.639,2.152,0.469,3.328c-0.08,0.56-0.256,1.07-0.469,1.566c-0.428,0.977-1.082,1.824-1.91,2.451
	C254.256,201.02,252.637,201.481,250.949,201.237z M245.52,172.58c2.324-0.652,4.777-0.963,7.295-0.855l-1.36,9.322
	c-2.115,0.051-4.125,0.617-5.935,1.529c-0.897,0.455-1.756,0.965-2.535,1.592l-7.463-5.867
	C238.317,175.615,241.746,173.637,245.52,172.58z M229.719,203.102c-1.25-3.498-1.695-7.354-1.123-11.285
	c0.398-2.791,1.283-5.366,2.535-7.7c0.399-0.75,0.836-1.476,1.311-2.171l7.354,5.787c-0.994,1.599-1.689,3.431-1.98,5.429
	c-0.325,2.262-0.067,4.461,0.601,6.471l-3.363,1.348L229.719,203.102z M233.594,209.918c-0.641-0.797-1.258-1.619-1.789-2.498
	l4.033-1.611l4.844-1.932c1.283,1.639,2.928,3.004,4.838,3.959c0.617,0.303,1.271,0.574,1.945,0.791l-1.346,9.328
	c-2.025-0.504-3.894-1.336-5.646-2.316C237.824,214.156,235.467,212.24,233.594,209.918z M264.168,215.135
	c-2.617,1.621-5.554,2.744-8.656,3.234c-0.123,0.018-0.244,0.021-0.369,0.043c-1.17,0.162-2.367,0.231-3.572,0.227
	c-0.245-0.004-0.481,0.014-0.723,0.002l1.35-9.326c0.896-0.018,1.759-0.16,2.607-0.352c0.234-0.053,0.473-0.092,0.707-0.154
	c0.654-0.182,1.287-0.426,1.91-0.69c0.889-0.373,1.75-0.813,2.541-1.367l4.205,3.313l3.307,2.609
	C266.448,213.594,265.33,214.408,264.168,215.135z"/>
<g enable-background="new    ">
	<path fill="#F2F2F2" d="M130.859,297.717c0.253,0,0.473,0.1,0.66,0.3l1.86,2.021c-1.173,1.413-2.613,2.503-4.32,3.27
		c-1.707,0.767-3.747,1.15-6.12,1.15c-2.107,0-4.01-0.363-5.71-1.09s-3.15-1.74-4.35-3.04c-1.2-1.301-2.124-2.851-2.77-4.65
		c-0.647-1.8-0.97-3.78-0.97-5.94c0-2.159,0.343-4.143,1.03-5.949c0.687-1.807,1.653-3.36,2.9-4.66s2.74-2.311,4.48-3.03
		c1.74-0.72,3.657-1.08,5.75-1.08c2.08,0,3.917,0.337,5.51,1.01c1.593,0.674,2.977,1.57,4.15,2.69l-1.54,2.18
		c-0.107,0.147-0.233,0.273-0.38,0.38c-0.147,0.107-0.347,0.16-0.6,0.16c-0.267,0-0.57-0.123-0.91-0.37
		c-0.34-0.246-0.773-0.52-1.3-0.819c-0.527-0.301-1.187-0.573-1.98-0.82c-0.793-0.247-1.784-0.37-2.97-0.37
		c-1.373,0-2.633,0.24-3.78,0.72c-1.147,0.48-2.133,1.181-2.96,2.101c-0.827,0.92-1.47,2.04-1.93,3.359
		c-0.46,1.32-0.69,2.82-0.69,4.5c0,1.693,0.24,3.204,0.72,4.53c0.48,1.327,1.14,2.447,1.98,3.36c0.84,0.913,1.826,1.609,2.96,2.09
		c1.133,0.479,2.353,0.72,3.66,0.72c0.8,0,1.517-0.043,2.15-0.13c0.633-0.087,1.216-0.227,1.75-0.42
		c0.533-0.193,1.036-0.437,1.51-0.73c0.473-0.293,0.943-0.652,1.41-1.079C130.325,297.837,130.592,297.717,130.859,297.717z"/>
	<path fill="#F2F2F2" d="M142.118,300.217h11.96v3.92h-16.64v-28.8h4.68V300.217z"/>
	<path fill="#F2F2F2" d="M183.999,289.737c0,2.134-0.348,4.101-1.04,5.9c-0.694,1.8-1.671,3.35-2.931,4.65
		c-1.26,1.3-2.773,2.316-4.54,3.05s-3.729,1.1-5.89,1.1c-2.146,0-4.104-0.366-5.87-1.1s-3.283-1.75-4.55-3.05
		c-1.267-1.301-2.247-2.851-2.94-4.65s-1.04-3.767-1.04-5.9c0-2.133,0.347-4.1,1.04-5.899s1.674-3.354,2.94-4.66
		s2.783-2.326,4.55-3.06s3.724-1.101,5.87-1.101c2.16,0,4.123,0.367,5.89,1.101s3.28,1.753,4.54,3.06s2.236,2.86,2.931,4.66
		C183.652,285.637,183.999,287.604,183.999,289.737z M179.219,289.737c0-1.652-0.224-3.14-0.67-4.46
		c-0.447-1.319-1.087-2.439-1.92-3.359c-0.834-0.92-1.844-1.627-3.03-2.12s-2.521-0.74-4-0.74c-1.467,0-2.794,0.247-3.98,0.74
		s-2.199,1.2-3.04,2.12c-0.84,0.92-1.486,2.04-1.939,3.359c-0.453,1.32-0.68,2.808-0.68,4.46c0,1.667,0.227,3.16,0.68,4.48
		s1.1,2.437,1.939,3.35c0.841,0.914,1.854,1.613,3.04,2.101c1.187,0.486,2.514,0.729,3.98,0.729c1.479,0,2.813-0.243,4-0.729
		c1.187-0.487,2.196-1.187,3.03-2.101c0.833-0.913,1.473-2.029,1.92-3.35C178.995,292.897,179.219,291.404,179.219,289.737z"/>
	<path fill="#F2F2F2" d="M200.479,300.357c1.106,0,2.097-0.187,2.97-0.56s1.613-0.894,2.22-1.561c0.606-0.666,1.07-1.47,1.391-2.409
		c0.319-0.94,0.479-1.983,0.479-3.131v-17.359h4.66v17.359c0,1.694-0.27,3.261-0.81,4.7c-0.54,1.44-1.317,2.684-2.33,3.73
		c-1.014,1.047-2.244,1.866-3.69,2.46c-1.447,0.593-3.077,0.89-4.89,0.89c-1.813,0-3.443-0.297-4.891-0.89
		c-1.446-0.594-2.677-1.413-3.689-2.46c-1.014-1.047-1.79-2.29-2.33-3.73c-0.54-1.439-0.811-3.006-0.811-4.7v-17.359h4.681v17.34
		c0,1.146,0.16,2.19,0.479,3.13c0.32,0.94,0.78,1.747,1.38,2.42c0.601,0.674,1.337,1.197,2.21,1.57
		C198.382,300.17,199.371,300.357,200.479,300.357z"/>
	<path fill="#F2F2F2" d="M243.978,289.737c0,2.134-0.347,4.084-1.04,5.851s-1.67,3.283-2.93,4.55c-1.261,1.267-2.773,2.25-4.54,2.95
		c-1.768,0.7-3.73,1.05-5.891,1.05h-10.88v-28.8h10.88c2.16,0,4.123,0.35,5.891,1.05c1.767,0.7,3.279,1.684,4.54,2.95
		c1.26,1.267,2.236,2.783,2.93,4.55S243.978,287.604,243.978,289.737z M239.198,289.737c0-1.652-0.224-3.14-0.67-4.46
		c-0.447-1.319-1.087-2.433-1.92-3.34c-0.834-0.906-1.844-1.603-3.03-2.09c-1.187-0.486-2.52-0.729-4-0.729h-6.18v21.239h6.18
		c1.48,0,2.813-0.239,4-0.72s2.196-1.177,3.03-2.09c0.833-0.913,1.473-2.026,1.92-3.34
		C238.974,292.894,239.198,291.404,239.198,289.737z"/>
</g>
<g enable-background="new    ">
	<path fill="#1A1A1A" d="M252.393,255.31v3.053h-4.868v13.255h-3.657v-13.255h-4.895v-3.053H252.393z M263.723,264
		c0.109,0.257,0.215,0.514,0.316,0.77c0.1,0.258,0.196,0.514,0.288,0.771c0.165-0.531,0.366-1.045,0.604-1.54l4.482-8.112
		c0.202-0.257,0.376-0.417,0.523-0.481c0.146-0.064,0.375-0.097,0.688-0.097h3.08v16.308h-3.19v-9.707l0.247-2.173l-4.895,9.075
		c-0.257,0.532-0.679,0.798-1.266,0.798h-0.521c-0.588,0-1.009-0.266-1.266-0.798l-4.922-9.075l0.274,2.173v9.707h-3.245V255.31
		h3.107c0.313,0,0.545,0.032,0.701,0.097s0.334,0.225,0.537,0.481L263.723,264z"/>
</g>
</svg>
