<?xml version="1.0" encoding="utf-8"?>
<!-- Generator: Adobe Illustrator 15.1.0, SVG Export Plug-In . SVG Version: 6.00 Build 0)  -->
<!DOCTYPE svg PUBLIC "-//W3C//DTD SVG 1.1//EN" "http://www.w3.org/Graphics/SVG/1.1/DTD/svg11.dtd">
<svg version="1.1" id="Calque_1" xmlns="http://www.w3.org/2000/svg" xmlns:xlink="http://www.w3.org/1999/xlink" x="0px" y="0px"
	 width="353.637px" height="353.637px" viewBox="0 0 353.637 353.637" enable-background="new 0 0 353.637 353.637"
	 xml:space="preserve">
<path fill="#1F3D59" d="M176.819,0C79.162,0,0,79.166,0,176.819c0,97.653,79.162,176.818,176.817,176.818
	c97.649,0,176.818-79.165,176.818-176.818C353.637,79.166,274.468,0,176.819,0z"/>
<g enable-background="new    ">
	<path fill="#F2F2F2" d="M123.478,272.755c-0.147,0.24-0.3,0.417-0.46,0.53s-0.36,0.17-0.6,0.17c-0.253,0-0.537-0.106-0.85-0.32
		c-0.313-0.213-0.7-0.45-1.16-0.71s-1.003-0.5-1.63-0.72c-0.626-0.221-1.373-0.33-2.24-0.33c-0.8,0-1.503,0.1-2.11,0.3
		c-0.607,0.2-1.117,0.479-1.53,0.84c-0.414,0.36-0.723,0.783-0.93,1.271c-0.207,0.486-0.31,1.017-0.31,1.59
		c0,0.733,0.193,1.343,0.58,1.83c0.386,0.486,0.896,0.903,1.53,1.25s1.356,0.649,2.17,0.91c0.813,0.26,1.643,0.536,2.49,0.829
		c0.846,0.294,1.676,0.627,2.49,1c0.813,0.374,1.537,0.848,2.17,1.421s1.143,1.273,1.53,2.1c0.386,0.827,0.58,1.833,0.58,3.02
		c0,1.28-0.22,2.48-0.66,3.601s-1.077,2.097-1.91,2.93c-0.833,0.834-1.86,1.49-3.08,1.97c-1.22,0.48-2.61,0.721-4.17,0.721
		c-0.92,0-1.817-0.09-2.69-0.271c-0.874-0.18-1.707-0.433-2.5-0.76c-0.793-0.326-1.537-0.724-2.23-1.19
		c-0.693-0.466-1.313-0.986-1.86-1.56l1.36-2.24c0.12-0.187,0.273-0.333,0.46-0.439c0.187-0.106,0.393-0.16,0.62-0.16
		c0.307,0,0.646,0.144,1.02,0.43c0.373,0.287,0.823,0.601,1.35,0.94c0.526,0.34,1.163,0.653,1.91,0.939
		c0.747,0.287,1.64,0.431,2.68,0.431c1.693,0,3.003-0.413,3.93-1.24c0.926-0.827,1.39-1.967,1.39-3.42
		c0-0.813-0.193-1.477-0.58-1.99c-0.387-0.513-0.897-0.943-1.53-1.29s-1.357-0.64-2.17-0.88c-0.813-0.24-1.64-0.497-2.48-0.771
		c-0.84-0.272-1.667-0.593-2.48-0.96c-0.813-0.366-1.537-0.847-2.17-1.439c-0.634-0.594-1.144-1.327-1.53-2.2s-0.58-1.963-0.58-3.27
		c0-1.04,0.203-2.047,0.61-3.021c0.406-0.973,1-1.837,1.78-2.59c0.78-0.753,1.743-1.356,2.89-1.811
		c1.146-0.453,2.453-0.68,3.92-0.68c1.653,0,3.17,0.26,4.55,0.78c1.38,0.52,2.57,1.26,3.57,2.22L123.478,272.755z"/>
	<path fill="#F2F2F2" d="M150.058,267.835v3.899h-8.98v24.9h-4.66v-24.9h-9v-3.899H150.058z"/>
	<path fill="#F2F2F2" d="M179.998,282.235c0,2.134-0.348,4.101-1.04,5.9c-0.694,1.8-1.671,3.35-2.931,4.65
		c-1.26,1.3-2.773,2.316-4.54,3.05s-3.729,1.1-5.89,1.1c-2.146,0-4.104-0.366-5.87-1.1s-3.283-1.75-4.55-3.05
		c-1.267-1.301-2.247-2.851-2.94-4.65s-1.04-3.767-1.04-5.9c0-2.133,0.347-4.1,1.04-5.899s1.674-3.354,2.94-4.66
		s2.783-2.326,4.55-3.06s3.724-1.101,5.87-1.101c2.16,0,4.123,0.367,5.89,1.101s3.28,1.753,4.54,3.06s2.236,2.86,2.931,4.66
		C179.651,278.135,179.998,280.102,179.998,282.235z M175.218,282.235c0-1.652-0.224-3.14-0.67-4.46
		c-0.447-1.319-1.087-2.439-1.92-3.359c-0.834-0.92-1.844-1.627-3.03-2.12s-2.521-0.74-4-0.74c-1.467,0-2.794,0.247-3.98,0.74
		s-2.199,1.2-3.04,2.12c-0.84,0.92-1.486,2.04-1.939,3.359c-0.453,1.32-0.68,2.808-0.68,4.46c0,1.667,0.227,3.16,0.68,4.48
		s1.1,2.437,1.939,3.35c0.841,0.914,1.854,1.613,3.04,2.101c1.187,0.486,2.514,0.729,3.98,0.729c1.479,0,2.813-0.243,4-0.729
		c1.187-0.487,2.196-1.187,3.03-2.101c0.833-0.913,1.473-2.029,1.92-3.35C174.994,285.395,175.218,283.902,175.218,282.235z"/>
	<path fill="#F2F2F2" d="M189.796,285.035v11.6h-4.68v-28.8h8.48c1.893,0,3.522,0.193,4.89,0.58c1.366,0.387,2.49,0.937,3.37,1.649
		c0.88,0.714,1.53,1.57,1.95,2.57s0.63,2.113,0.63,3.34c0,1-0.15,1.934-0.45,2.8c-0.3,0.867-0.733,1.653-1.3,2.36
		c-0.567,0.707-1.268,1.32-2.101,1.84c-0.833,0.521-1.776,0.927-2.83,1.22c0.587,0.348,1.087,0.834,1.5,1.46l7.78,10.98h-4.18
		c-0.827,0-1.427-0.32-1.8-0.96l-6.721-9.7c-0.227-0.333-0.473-0.573-0.739-0.72c-0.268-0.146-0.667-0.22-1.2-0.22H189.796z
		 M189.796,281.635h3.681c1.066,0,2-0.13,2.8-0.39c0.8-0.261,1.467-0.623,2-1.091c0.533-0.466,0.933-1.022,1.2-1.67
		c0.267-0.646,0.399-1.362,0.399-2.149c0-1.573-0.52-2.773-1.56-3.601c-1.04-0.826-2.613-1.239-4.72-1.239h-3.801V281.635z"/>
	<path fill="#F2F2F2" d="M228.477,267.835v3.78h-13.26v8.68h10.6v3.66h-10.6v8.899h13.28l-0.021,3.78h-17.96v-28.8H228.477z"/>
	<path fill="#F2F2F2" d="M248.616,272.755c-0.147,0.24-0.301,0.417-0.461,0.53c-0.159,0.113-0.359,0.17-0.6,0.17
		c-0.253,0-0.537-0.106-0.85-0.32c-0.313-0.213-0.7-0.45-1.16-0.71s-1.004-0.5-1.63-0.72c-0.627-0.221-1.374-0.33-2.24-0.33
		c-0.8,0-1.504,0.1-2.11,0.3s-1.116,0.479-1.529,0.84c-0.414,0.36-0.724,0.783-0.931,1.271c-0.207,0.486-0.31,1.017-0.31,1.59
		c0,0.733,0.193,1.343,0.58,1.83c0.387,0.486,0.896,0.903,1.529,1.25c0.634,0.347,1.357,0.649,2.171,0.91
		c0.813,0.26,1.643,0.536,2.489,0.829c0.847,0.294,1.677,0.627,2.49,1c0.813,0.374,1.537,0.848,2.17,1.421s1.144,1.273,1.53,2.1
		c0.387,0.827,0.58,1.833,0.58,3.02c0,1.28-0.22,2.48-0.66,3.601s-1.077,2.097-1.91,2.93c-0.833,0.834-1.86,1.49-3.08,1.97
		c-1.22,0.48-2.609,0.721-4.17,0.721c-0.92,0-1.816-0.09-2.689-0.271c-0.874-0.18-1.707-0.433-2.5-0.76
		c-0.794-0.326-1.537-0.724-2.23-1.19c-0.693-0.466-1.313-0.986-1.86-1.56l1.36-2.24c0.12-0.187,0.273-0.333,0.46-0.439
		s0.394-0.16,0.62-0.16c0.307,0,0.646,0.144,1.02,0.43c0.374,0.287,0.823,0.601,1.351,0.94c0.526,0.34,1.163,0.653,1.91,0.939
		c0.746,0.287,1.64,0.431,2.68,0.431c1.693,0,3.003-0.413,3.93-1.24s1.391-1.967,1.391-3.42c0-0.813-0.193-1.477-0.58-1.99
		c-0.387-0.513-0.897-0.943-1.53-1.29c-0.634-0.347-1.356-0.64-2.17-0.88s-1.64-0.497-2.48-0.771
		c-0.84-0.272-1.666-0.593-2.479-0.96c-0.813-0.366-1.537-0.847-2.17-1.439c-0.634-0.594-1.144-1.327-1.53-2.2
		s-0.58-1.963-0.58-3.27c0-1.04,0.203-2.047,0.61-3.021c0.406-0.973,1-1.837,1.78-2.59c0.779-0.753,1.743-1.356,2.89-1.811
		c1.146-0.453,2.453-0.68,3.92-0.68c1.653,0,3.17,0.26,4.55,0.78c1.38,0.52,2.57,1.26,3.57,2.22L248.616,272.755z"/>
</g>
<g>
	<path fill="#FFFFFF" d="M116.496,166.679v-11.671h39.133v11.671H116.496z M155.629,136.01v-11.68h-39.133v11.68H155.629z
		 M154.568,185.958H98.843V44.793H199.4v67.873h-44.832v3.842h-46.409v24.606h46.409v6.818h-46.409v24.616h46.409V185.958z
		 M166.742,68.163c0,5.493,4.467,9.96,9.96,9.96c5.48,0,9.947-4.467,9.947-9.96c0-5.481-4.467-9.948-9.947-9.948
		C171.209,58.215,166.742,62.682,166.742,68.163L166.742,68.163z M142.25,68.163c0,5.493,4.456,9.96,9.949,9.96
		c5.491,0,9.958-4.467,9.958-9.96c0-5.481-4.467-9.948-9.958-9.948C146.706,58.215,142.25,62.682,142.25,68.163L142.25,68.163z
		 M110.319,111.08h81.015V87.046h-81.015V111.08z M116.496,93.223h68.657v11.67h-68.657V93.223z M171.081,100.265h9.394v-3.259
		h-9.394V100.265z"/>
</g>
<g>
	<path fill="#1A1A1A" d="M235.708,193.918v5.215c14.415,0.481,24.813,1.804,24.813,3.389c0,1.964-16.274,3.568-36.344,3.568
		s-36.333-1.604-36.333-3.568c0-1.421,8.389-2.64,20.539-3.217v-5.387h-43.076v-72.484h113.466v72.474h-43.064V193.918
		L235.708,193.918z M271.325,187.699v-60.665h-98.569v60.665H271.325z"/>
</g>
<g>
	<path fill="#579DD9" d="M226.323,112.933c0.331,0.246,0.79,0.256,1.122,0c0.33-0.246,0.448-0.684,0.3-1.067l-4.541-11.498h7.918
		c1.729,0.085,7.384,0.673,11.229,4.444c2.704,2.65,4.02,6.38,4.02,11.413h11.018c0-8.036-2.457-14.521-7.319-19.288
		c-7.887-7.736-19.192-7.62-19.686-7.608v0.097c-0.779-0.064-1.335-0.097-1.335-0.097l-5.845-0.012l4.541-11.498
		c0.148-0.385,0.03-0.822-0.3-1.08c-0.172-0.117-0.363-0.182-0.556-0.182c-0.203,0-0.396,0.064-0.566,0.193l-22.579,17.354
		c-0.226,0.182-0.354,0.449-0.354,0.737c0,0.289,0.128,0.556,0.354,0.727L226.323,112.933z M158.059,197.899
		c-0.318-0.257-0.779-0.257-1.11-0.011c-0.33,0.246-0.458,0.695-0.3,1.069l4.542,11.499h-7.929
		c-1.721-0.086-7.384-0.674-11.221-4.438c-2.704-2.648-4.019-6.389-4.019-11.423h-11.018c0,8.033,2.458,14.523,7.309,19.29
		c7.897,7.746,19.203,7.618,19.695,7.607v-0.098c0.77,0.065,1.336,0.098,1.336,0.098l5.845,0.021l-4.542,11.499
		c-0.147,0.383-0.03,0.823,0.299,1.067c0.173,0.126,0.364,0.183,0.558,0.183c0.203,0,0.396-0.057,0.565-0.193l22.58-17.354
		c0.225-0.174,0.354-0.448,0.354-0.736c0-0.276-0.129-0.545-0.354-0.727L158.059,197.899z"/>
</g>
<g enable-background="new    ">
	<path fill="#1A1A1A" d="M258.257,242.808v3.053h-4.868v13.255h-3.656v-13.255h-4.896v-3.053H258.257z M269.587,251.498
		c0.11,0.257,0.216,0.514,0.316,0.77c0.101,0.258,0.196,0.514,0.288,0.771c0.166-0.531,0.367-1.045,0.605-1.54l4.482-8.112
		c0.201-0.257,0.375-0.417,0.522-0.481c0.146-0.064,0.376-0.097,0.688-0.097h3.08v16.308h-3.19v-9.707l0.248-2.173l-4.895,9.075
		c-0.258,0.532-0.68,0.798-1.266,0.798h-0.522c-0.587,0-1.009-0.266-1.265-0.798l-4.923-9.075l0.274,2.173v9.707h-3.244v-16.308
		h3.107c0.312,0,0.545,0.032,0.701,0.097c0.155,0.064,0.334,0.225,0.536,0.481L269.587,251.498z"/>
</g>
</svg>
