<?xml version="1.0" encoding="utf-8"?>
<!-- Generator: Adobe Illustrator 15.1.0, SVG Export Plug-In . SVG Version: 6.00 Build 0)  -->
<!DOCTYPE svg PUBLIC "-//W3C//DTD SVG 1.1//EN" "http://www.w3.org/Graphics/SVG/1.1/DTD/svg11.dtd">
<svg version="1.1" id="Calque_1" xmlns="http://www.w3.org/2000/svg" xmlns:xlink="http://www.w3.org/1999/xlink" x="0px" y="0px"
	 width="353.637px" height="353.637px" viewBox="0 0 353.637 353.637" enable-background="new 0 0 353.637 353.637"
	 xml:space="preserve">
<path fill="#1F3D59" d="M176.818,0C79.162,0,0,79.166,0,176.818c0,97.653,79.162,176.818,176.818,176.818
	c97.649,0,176.818-79.165,176.818-176.818C353.637,79.166,274.468,0,176.818,0z"/>
<text transform="matrix(1 0 0 1 85.4976 285.6348)" fill="#F2F2F2" font-family="'Lato-Semibold'" font-size="40">C - RULES</text>
<path fill="#FFFFFF" d="M164.782,148.644l-2.886-2.704l32.937-35.367l2.893,2.736L164.782,148.644z M215.029,94.728l-7.113-6.645
	l-15.689,16.813l7.141,6.671L215.029,94.728z M158.059,155.895l5.11-5.498l-7.141-6.646l-5.107,5.474l-1.487,8.208h-5.337v5.237
	h71.298v-5.237h-63.379L158.059,155.895z M193.505,109.371l-2.919-2.707l-32.915,35.341l2.89,2.703L193.505,109.371z
	 M240.491,65.648v147.347c0,3.673-2.997,6.671-6.671,6.671H125.669c-3.674,0-6.672-2.998-6.672-6.671V65.648
	c0-3.678,2.998-6.672,6.672-6.672H233.82C237.52,58.977,240.491,61.97,240.491,65.648L240.491,65.648z M184.513,213.021
	c0-2.631-2.136-4.769-4.771-4.769c-2.629,0-4.764,2.104-4.764,4.769c0,2.632,2.135,4.762,4.764,4.762
	C182.377,217.782,184.513,215.62,184.513,213.021L184.513,213.021z M227.148,72.319h-72.659v16.679l-5.21-4.377l-5.183,4.377V72.319
	h-11.756v134.003h94.808V72.319z M144.097,182.809h71.272v-5.264h-71.272V182.809z M144.097,182.809"/>
<rect x="143.318" y="177.316" fill="#579DD9" stroke="#579DD9" stroke-miterlimit="10" width="72" height="5"/>
<rect x="143.318" y="157.316" fill="#579DD9" stroke="#579DD9" stroke-miterlimit="10" width="72" height="6"/>
</svg>
