<?xml version="1.0" encoding="utf-8"?>
<!-- Generator: Adobe Illustrator 15.1.0, SVG Export Plug-In . SVG Version: 6.00 Build 0)  -->
<!DOCTYPE svg PUBLIC "-//W3C//DTD SVG 1.1//EN" "http://www.w3.org/Graphics/SVG/1.1/DTD/svg11.dtd">
<svg version="1.1" id="Calque_1" xmlns="http://www.w3.org/2000/svg" xmlns:xlink="http://www.w3.org/1999/xlink" x="0px" y="0px"
	 width="353.637px" height="353.637px" viewBox="0 0 353.637 353.637" enable-background="new 0 0 353.637 353.637"
	 xml:space="preserve">
<path fill="#1F3D59" d="M176.319,0.502C78.662,0.502-0.5,79.668-0.5,177.321c0,97.653,79.162,176.818,176.817,176.818
	c97.649,0,176.818-79.165,176.818-176.818C353.137,79.668,273.968,0.502,176.319,0.502z"/>
<g enable-background="new    ">
	<path fill="#F2F2F2" d="M108.417,290.717c0.253,0,0.473,0.1,0.66,0.3l1.86,2.021c-1.173,1.413-2.613,2.503-4.32,3.27
		c-1.707,0.767-3.747,1.15-6.12,1.15c-2.107,0-4.01-0.363-5.71-1.09s-3.15-1.74-4.35-3.04c-1.2-1.301-2.124-2.851-2.77-4.65
		c-0.647-1.8-0.97-3.78-0.97-5.94c0-2.159,0.343-4.143,1.03-5.949c0.687-1.807,1.653-3.36,2.9-4.66s2.74-2.311,4.48-3.03
		c1.74-0.72,3.657-1.08,5.75-1.08c2.08,0,3.917,0.337,5.51,1.01c1.593,0.674,2.977,1.57,4.15,2.69l-1.54,2.18
		c-0.107,0.147-0.233,0.273-0.38,0.38c-0.147,0.107-0.347,0.16-0.6,0.16c-0.267,0-0.57-0.123-0.91-0.37
		c-0.34-0.246-0.773-0.52-1.3-0.819c-0.527-0.301-1.187-0.573-1.98-0.82c-0.793-0.247-1.784-0.37-2.97-0.37
		c-1.373,0-2.633,0.24-3.78,0.72c-1.147,0.48-2.133,1.181-2.96,2.101c-0.827,0.92-1.47,2.04-1.93,3.359
		c-0.46,1.32-0.69,2.82-0.69,4.5c0,1.693,0.24,3.204,0.72,4.53c0.48,1.327,1.14,2.447,1.98,3.36c0.84,0.913,1.826,1.609,2.96,2.09
		c1.133,0.479,2.353,0.72,3.66,0.72c0.8,0,1.517-0.043,2.15-0.13c0.633-0.087,1.216-0.227,1.75-0.42
		c0.533-0.193,1.036-0.437,1.51-0.73c0.473-0.293,0.943-0.652,1.41-1.079C107.884,290.837,108.151,290.717,108.417,290.717z"/>
	<path fill="#F2F2F2" d="M123.916,283.277h10.14v3.641h-10.14V283.277z"/>
	<path fill="#F2F2F2" d="M154.495,285.537v11.6h-4.68v-28.8h8.48c1.893,0,3.522,0.193,4.89,0.58c1.366,0.387,2.49,0.937,3.37,1.649
		c0.88,0.714,1.53,1.57,1.95,2.57s0.63,2.113,0.63,3.34c0,1-0.15,1.934-0.45,2.8c-0.3,0.867-0.733,1.653-1.3,2.36
		c-0.567,0.707-1.268,1.32-2.101,1.84c-0.833,0.521-1.776,0.927-2.83,1.22c0.587,0.348,1.087,0.834,1.5,1.46l7.78,10.98h-4.18
		c-0.827,0-1.427-0.32-1.8-0.96l-6.721-9.7c-0.227-0.333-0.473-0.573-0.739-0.72c-0.268-0.146-0.667-0.22-1.2-0.22H154.495z
		 M154.495,282.137h3.681c1.066,0,2-0.13,2.8-0.39c0.8-0.261,1.467-0.623,2-1.091c0.533-0.466,0.933-1.022,1.2-1.67
		c0.267-0.646,0.399-1.362,0.399-2.149c0-1.573-0.52-2.773-1.56-3.601c-1.04-0.826-2.613-1.239-4.72-1.239h-3.801V282.137z"/>
	<path fill="#F2F2F2" d="M186.576,293.357c1.106,0,2.097-0.187,2.97-0.56s1.613-0.894,2.22-1.561c0.606-0.666,1.07-1.47,1.391-2.409
		c0.319-0.94,0.479-1.983,0.479-3.131v-17.359h4.66v17.359c0,1.694-0.27,3.261-0.81,4.7c-0.54,1.44-1.317,2.684-2.33,3.73
		c-1.014,1.047-2.244,1.866-3.69,2.46c-1.447,0.593-3.077,0.89-4.89,0.89c-1.813,0-3.443-0.297-4.891-0.89
		c-1.446-0.594-2.677-1.413-3.689-2.46c-1.014-1.047-1.79-2.29-2.33-3.73c-0.54-1.439-0.811-3.006-0.811-4.7v-17.359h4.681v17.34
		c0,1.146,0.16,2.19,0.479,3.13c0.32,0.94,0.78,1.747,1.38,2.42c0.601,0.674,1.337,1.197,2.21,1.57
		C184.48,293.17,185.469,293.357,186.576,293.357z"/>
	<path fill="#F2F2F2" d="M209.475,293.217h11.96v3.92h-16.64v-28.8h4.68V293.217z"/>
	<path fill="#F2F2F2" d="M243.415,268.337v3.78h-13.26v8.68h10.6v3.66h-10.6v8.899h13.28l-0.021,3.78h-17.96v-28.8H243.415z"/>
	<path fill="#F2F2F2" d="M263.555,273.257c-0.147,0.24-0.301,0.417-0.461,0.53c-0.159,0.113-0.359,0.17-0.6,0.17
		c-0.253,0-0.537-0.106-0.85-0.32c-0.313-0.213-0.7-0.45-1.16-0.71s-1.004-0.5-1.63-0.72c-0.627-0.221-1.374-0.33-2.24-0.33
		c-0.8,0-1.504,0.1-2.11,0.3s-1.116,0.479-1.529,0.84c-0.414,0.36-0.724,0.783-0.931,1.271c-0.207,0.486-0.31,1.017-0.31,1.59
		c0,0.733,0.193,1.343,0.58,1.83c0.387,0.486,0.896,0.903,1.529,1.25c0.634,0.347,1.357,0.649,2.171,0.91
		c0.813,0.26,1.643,0.536,2.489,0.829c0.847,0.294,1.677,0.627,2.49,1c0.813,0.374,1.537,0.848,2.17,1.421s1.144,1.273,1.53,2.1
		c0.387,0.827,0.58,1.833,0.58,3.02c0,1.28-0.22,2.48-0.66,3.601s-1.077,2.097-1.91,2.93c-0.833,0.834-1.86,1.49-3.08,1.97
		c-1.22,0.48-2.609,0.721-4.17,0.721c-0.92,0-1.816-0.09-2.689-0.271c-0.874-0.18-1.707-0.433-2.5-0.76
		c-0.794-0.326-1.537-0.724-2.23-1.19c-0.693-0.466-1.313-0.986-1.86-1.56l1.36-2.24c0.12-0.187,0.273-0.333,0.46-0.439
		s0.394-0.16,0.62-0.16c0.307,0,0.646,0.144,1.02,0.43c0.374,0.287,0.823,0.601,1.351,0.94c0.526,0.34,1.163,0.653,1.91,0.939
		c0.746,0.287,1.64,0.431,2.68,0.431c1.693,0,3.003-0.413,3.93-1.24s1.391-1.967,1.391-3.42c0-0.813-0.193-1.477-0.58-1.99
		c-0.387-0.513-0.897-0.943-1.53-1.29c-0.634-0.347-1.356-0.64-2.17-0.88s-1.64-0.497-2.48-0.771
		c-0.84-0.272-1.666-0.593-2.479-0.96c-0.813-0.366-1.537-0.847-2.17-1.439c-0.634-0.594-1.144-1.327-1.53-2.2
		s-0.58-1.963-0.58-3.27c0-1.04,0.203-2.047,0.61-3.021c0.406-0.973,1-1.837,1.78-2.59c0.779-0.753,1.743-1.356,2.89-1.811
		c1.146-0.453,2.453-0.68,3.92-0.68c1.653,0,3.17,0.26,4.55,0.78c1.38,0.52,2.57,1.26,3.57,2.22L263.555,273.257z"/>
</g>
<path fill="#FFFFFF" d="M164.282,149.146l-2.887-2.704l32.938-35.366l2.893,2.735L164.282,149.146z M214.53,95.23l-7.112-6.645
	l-15.689,16.813l7.142,6.671L214.53,95.23z M157.559,156.397l5.11-5.498l-7.142-6.646l-5.106,5.474l-1.487,8.208h-5.337v5.237
	h71.298v-5.237h-63.379L157.559,156.397z M193.005,109.873l-2.919-2.707l-32.915,35.341l2.89,2.703L193.005,109.873z
	 M239.991,66.151v147.348c0,3.673-2.997,6.671-6.672,6.671h-108.15c-3.674,0-6.672-2.998-6.672-6.671V66.151
	c0-3.678,2.998-6.672,6.672-6.672h108.15C237.02,59.479,239.991,62.472,239.991,66.151L239.991,66.151z M184.013,213.523
	c0-2.631-2.136-4.769-4.771-4.769c-2.63,0-4.765,2.104-4.765,4.769c0,2.632,2.135,4.763,4.765,4.763
	C181.877,218.284,184.013,216.122,184.013,213.523L184.013,213.523z M226.649,72.822H153.99V89.5l-5.211-4.377l-5.183,4.377V72.822
	h-11.756v134.004h94.808V72.822z M143.597,183.311h71.272v-5.264h-71.272V183.311z"/>
<rect x="142.819" y="177.819" fill="#579DD9" stroke="#579DD9" stroke-miterlimit="10" width="72" height="5"/>
<rect x="142.819" y="157.819" fill="#579DD9" stroke="#579DD9" stroke-miterlimit="10" width="72" height="6"/>
<g enable-background="new    ">
	<path fill="#1A1A1A" d="M269.717,243.31v3.053h-4.867v13.255h-3.657v-13.255h-4.896v-3.053H269.717z M281.047,252
		c0.11,0.257,0.216,0.514,0.316,0.77c0.101,0.258,0.197,0.514,0.289,0.771c0.165-0.531,0.367-1.045,0.605-1.54l4.482-8.112
		c0.201-0.257,0.375-0.417,0.521-0.481s0.376-0.097,0.688-0.097h3.08v16.308h-3.189v-9.707l0.248-2.173l-4.896,9.075
		c-0.257,0.532-0.679,0.798-1.265,0.798h-0.523c-0.586,0-1.008-0.266-1.265-0.798l-4.923-9.075l0.275,2.173v9.707h-3.245V243.31
		h3.108c0.311,0,0.545,0.032,0.701,0.097c0.154,0.064,0.334,0.225,0.535,0.481L281.047,252z"/>
</g>
</svg>
