<?xml version="1.0" encoding="utf-8"?>
<!-- Generator: Adobe Illustrator 15.1.0, SVG Export Plug-In . SVG Version: 6.00 Build 0)  -->
<!DOCTYPE svg PUBLIC "-//W3C//DTD SVG 1.1//EN" "http://www.w3.org/Graphics/SVG/1.1/DTD/svg11.dtd">
<svg version="1.1" id="Calque_1" xmlns="http://www.w3.org/2000/svg" xmlns:xlink="http://www.w3.org/1999/xlink" x="0px" y="0px"
	 width="353.637px" height="353.637px" viewBox="0 0 353.637 353.637" enable-background="new 0 0 353.637 353.637"
	 xml:space="preserve">
<path fill="#1F3D59" d="M176.819,0C79.162,0,0,79.166,0,176.819c0,97.653,79.162,176.818,176.818,176.818
	c97.649,0,176.818-79.165,176.818-176.818C353.637,79.166,274.468,0,176.819,0z"/>
<g id="_x31_">
	<path fill="#E6E6E6" d="M164.029,209.511c-11.887-8.823-21.763-20.854-28.038-33.891c6.664-3.14,13.727-5.118,21.223-6.157
		c-0.031-1.747-0.038-3.398-0.038-4.952c-8.106,1.104-15.978,3.341-23.257,6.519c-4.037-9.859-6.656-21.088-7.107-31.627
		l0.086-1.903l31.514-0.051l8.699,0.038l-0.021,13.02l4.924-1.879l0.054-11.12l29.258-0.065l5.168-1.971l5.183,1.978l0.687,0.051
		c0,0.071-0.007,0.132-0.007,0.207l4.834,1.846c0.027-0.704,0.08-1.414,0.094-2.107l28.652-0.058
		c0.339,0.19,0.803,0.075,1.219,0.116c-0.174,4.391-0.73,8.68-1.601,12.877l4.54,1.729c4.34-20.71,0.592-44.184-10.053-61.452
		c-13.75-23.372-39.508-39.056-65.48-40.47c-34.441-2.637-67.532,17.017-82.096,48.694c-10.473,21.281-10.074,51.273,0.513,72.269
		c13.348,28.816,44.527,48.463,76.015,47.501c-2.101-3.33-3.717-6.437-4.911-9.026C164.059,209.589,164.045,209.548,164.029,209.511
		z M247.18,132.541l-29.875,0.061c-0.434-13.893-3.511-26.345-8.608-38.312c6.505-3.48,12.59-7.99,18.111-13.383
		C239.791,95.198,246.581,112.776,247.18,132.541z M223.424,77.23c-4.944,5.05-10.877,9.452-16.996,12.741
		C200.005,76.86,188.345,63.796,176.1,55.12C193.719,56.989,210.017,64.16,223.424,77.23z M172.115,58.494
		c12.211,8.068,23.566,20.976,29.993,33.632c-9.254,4.541-19.037,7.317-30.063,7.646L172.115,58.494z M172.026,104.735
		c11.293-0.404,22.292-3.331,32.163-8.092c5.061,11.008,7.867,22.96,8.192,35.933l-40.215,0.088l-0.07-0.075l-0.074-27.47
		L172.026,104.735z M167.057,132.643l-40.293,0.007c0.32-12.588,2.857-24.17,7.557-35.032c10.131,4.323,21.447,7.198,32.854,7.287
		L167.057,132.643z M167.088,99.943c-11.638-0.238-20.861-2.685-30.647-6.811c6.704-13.744,17.94-26.515,30.835-35.501
		L167.088,99.943z M162.442,55.055c-12.596,9.292-23.948,22.594-30.378,35.844c-6.7-3.348-13.472-8.034-18.634-13.516
		C126.996,64.282,143.74,56.462,162.442,55.055z M89.782,126.532c0.345-0.265-0.073-0.765,0.197-1.101
		c2.131-16.629,8.381-31.898,19.96-44.517c6.081,5.829,12.771,10.858,20.007,14.475c-5.013,11.426-7.857,25.264-8.063,37.241
		l-32.201,0.047l-0.115-0.115L89.782,126.532z M109.734,187.594c-12.569-14.06-19.398-30.954-20.194-50.077l29.688-0.051
		l2.746,0.085c0.211,12.748,3.019,24.625,7.618,35.674C122.218,176.967,115.823,182.092,109.734,187.594z M113.224,191.268
		c5.331-5.774,11.951-9.979,18.263-13.533c6.538,13.228,17.084,26.516,29.707,35.841
		C142.739,212.009,126.293,203.917,113.224,191.268z"/>
</g>
<g>
	<path fill="#E6E6E6" d="M215.322,159.24c-2.114-0.597-4.354-0.935-6.657-0.935c-1.444,0-2.841,0.147-4.206,0.377
		c-5.133,0.887-9.724,3.323-13.262,6.848c-4.472,4.47-7.22,10.646-7.22,17.457c0,6.822,2.748,12.993,7.22,17.462
		c3.208,3.195,7.274,5.499,11.83,6.554c1.816,0.429,3.683,0.673,5.638,0.673c2.089,0,4.105-0.29,6.041-0.774
		c4.388-1.105,8.311-3.354,11.416-6.452c4.47-4.469,7.231-10.64,7.231-17.462c0-6.811-2.762-12.987-7.231-17.457
		C223.163,162.583,219.458,160.395,215.322,159.24z M215.322,189.333c-1.684,1.761-4.044,2.874-6.657,2.874
		c-1.529,0-2.947-0.405-4.206-1.068c-2.969-1.53-5.006-4.589-5.006-8.151c0-3.567,2.037-6.624,5.006-8.153
		c1.259-0.654,2.677-1.058,4.206-1.058c2.613,0,4.974,1.109,6.657,2.864c1.58,1.651,2.57,3.881,2.57,6.347
		C217.892,185.452,216.902,187.674,215.322,189.333z"/>
	<path fill="#579DD9" d="M260.229,175.78l-11.152-1.319c-1.061-5.071-3.073-9.811-5.824-14.01l6.96-8.824
		c0.502-0.622,0.45-1.603-0.123-2.168l-7.898-7.898c-0.561-0.561-1.525-0.622-2.175-0.13l-8.817,6.964
		c-4.205-2.742-8.929-4.745-14.005-5.807l-1.32-11.163c-0.044-0.397-0.252-0.759-0.552-1.019c-0.291-0.265-0.671-0.423-1.07-0.423
		h-9.793h-1.384c-0.791,0-1.52,0.649-1.618,1.442l-1.319,11.163c-5.083,1.063-9.806,3.065-14.006,5.807l-8.831-6.964
		c-0.625-0.492-1.596-0.431-2.175,0.13l-7.887,7.898c-0.569,0.565-0.643,1.547-0.129,2.171l6.958,8.821
		c-2.744,4.199-4.753,8.938-5.82,14.01l-11.148,1.319c-0.798,0.097-1.443,0.828-1.443,1.623v11.173c0,0.793,0.646,1.529,1.443,1.626
		l11.148,1.31c1.067,5.089,3.076,9.806,5.82,14.022l-4.539,5.751l-2.419,3.065c-0.514,0.64-0.44,1.61,0.129,2.165l5.625,5.64
		l0.117,0.117l2.145,2.146c0.569,0.567,1.55,0.621,2.185,0.124l2.878-2.27l0.133-0.117l5.811-4.577
		c2.92,1.916,6.11,3.426,9.476,4.557c0.12,0.043,0.236,0.1,0.354,0.143c1.372,0.438,2.746,0.825,4.176,1.126l1.319,11.15
		c0.099,0.795,0.827,1.441,1.618,1.452l11.177-0.011c0.789,0.011,1.531-0.646,1.622-1.441l1.32-11.15
		c1.418-0.301,2.8-0.688,4.164-1.126c3.501-1.142,6.813-2.716,9.841-4.699l5.929,4.684l2.889,2.28
		c0.649,0.497,1.614,0.443,2.175-0.124l2.158-2.156l5.74-5.746c0.573-0.555,0.625-1.525,0.123-2.165l-6.96-8.816
		c2.751-4.217,4.764-8.934,5.824-14.022l11.152-1.31c0.786-0.097,1.451-0.833,1.451-1.626v-11.173
		C261.68,176.608,261.015,175.876,260.229,175.78z M212.397,212.464c-1.228,0.155-2.469,0.262-3.732,0.262
		c-3.71,0-7.227-0.7-10.491-1.937c-11.242-4.249-19.241-15.079-19.241-27.802c0-14.99,11.101-27.357,25.526-29.404
		c1.374-0.196,2.771-0.328,4.206-0.328c2.294,0,4.507,0.285,6.657,0.777c13.207,3.032,23.072,14.834,23.072,28.955
		C238.394,198.139,227.05,210.624,212.397,212.464z"/>
</g>
<text transform="matrix(1 0 0 1 57.6667 295.426)" fill="#F2F2F2" font-family="'Lato-Semibold'" font-size="36">DISTRIBUTION</text>
<text transform="matrix(1 0 0 1 280.3254 282.0608)" fill="#1A1A1A" font-family="'Lato-Medium'" font-size="55">™</text>
</svg>
