<?xml version="1.0" encoding="utf-8"?>
<!-- Generator: Adobe Illustrator 15.1.0, SVG Export Plug-In . SVG Version: 6.00 Build 0)  -->
<!DOCTYPE svg PUBLIC "-//W3C//DTD SVG 1.1//EN" "http://www.w3.org/Graphics/SVG/1.1/DTD/svg11.dtd">
<svg version="1.1" id="Calque_1" xmlns="http://www.w3.org/2000/svg" xmlns:xlink="http://www.w3.org/1999/xlink" x="0px" y="0px"
	 width="353.637px" height="353.637px" viewBox="0 0 353.637 353.637" enable-background="new 0 0 353.637 353.637"
	 xml:space="preserve">
<path fill="#1F3D59" d="M176.818,0C79.162,0,0,79.166,0,176.818c0,97.653,79.162,176.818,176.818,176.818
	c97.649,0,176.818-79.165,176.818-176.818C353.637,79.166,274.468,0,176.818,0z"/>
<path fill="#F4F1F0" d="M84.818,95.816h184v116c0,0,19.666,17.001-184,3.667C85.818,183.483,84.818,95.816,84.818,95.816z"/>
<g id="_x33_4">
	<g>
		<path fill="#1A1A1A" d="M256.586,70.071H97.051c-10.191,0.019-18.457,8.281-18.465,18.472v118.555
			c0.008,10.188,8.273,18.453,18.465,18.469h159.535c10.185-0.016,18.457-8.281,18.465-18.469V88.543
			C275.043,78.352,266.771,70.09,256.586,70.071z M254.621,81.909c2.318,0,4.206,1.88,4.206,4.198c0,2.318-1.888,4.194-4.206,4.194
			c-2.317,0-4.197-1.876-4.197-4.194C250.424,83.789,252.304,81.909,254.621,81.909z M221.629,82.158h20.645
			c2.188,0,3.944,1.772,3.944,3.948c0,2.18-1.757,3.949-3.944,3.949h-20.645c-2.187,0-3.952-1.769-3.952-3.949
			C217.677,83.931,219.442,82.158,221.629,82.158z M264.982,207.098c-0.016,4.586-3.814,8.392-8.396,8.392H97.051
			c-4.59,0-8.381-3.806-8.396-8.392V100.385h176.327V207.098z"/>
	</g>
	<g>
		<rect x="105.746" y="190.662" fill="#1F3D59" width="137.525" height="12.13"/>
		<rect x="105.746" y="113.969" fill="#1F3D59" width="137.525" height="18.192"/>
		<rect x="106.675" y="141.117" fill="#1F3D59" width="31.434" height="37.328"/>
	</g>
	<g>
		<rect x="144.985" y="142.1" fill="#817B75" width="97.25" height="3.929"/>
		<rect x="144.985" y="153.557" fill="#817B75" width="97.25" height="3.93"/>
		<rect x="144.985" y="165.022" fill="#817B75" width="97.25" height="3.929"/>
		<rect x="144.985" y="176.48" fill="#817B75" width="97.25" height="3.93"/>
	</g>
</g>
<text transform="matrix(1 0 0 1 96.3916 283.6348)" fill="#F2F2F2" font-family="'Lato-Semibold'" font-size="40">MOBILE</text>
</svg>
