<?xml version="1.0" encoding="utf-8"?>
<!-- Generator: Adobe Illustrator 15.1.0, SVG Export Plug-In . SVG Version: 6.00 Build 0)  -->
<!DOCTYPE svg PUBLIC "-//W3C//DTD SVG 1.1//EN" "http://www.w3.org/Graphics/SVG/1.1/DTD/svg11.dtd">
<svg version="1.1" id="Calque_1" xmlns="http://www.w3.org/2000/svg" xmlns:xlink="http://www.w3.org/1999/xlink" x="0px" y="0px"
	 width="353.637px" height="353.637px" viewBox="0 0 353.637 353.637" enable-background="new 0 0 353.637 353.637"
	 xml:space="preserve">
<path fill="#1F3D59" d="M176.818,0C79.162,0,0,79.166,0,176.818c0,97.653,79.162,176.818,176.818,176.818
	c97.649,0,176.818-79.165,176.818-176.818C353.637,79.166,274.468,0,176.818,0z"/>
<text transform="matrix(1 0 0 1 104.9985 285.6348)" fill="#F2F2F2" font-family="'Lato-Semibold'" font-size="40">STORES</text>
<g>
	<path fill="#FFFFFF" d="M116.496,166.679v-11.671h39.133v11.671H116.496z M155.629,136.01v-11.68h-39.133v11.68H155.629z
		 M154.567,185.958H98.843V44.793h100.557v67.873h-44.832v3.842h-46.41v24.606h46.41v6.819h-46.41v24.616h46.41V185.958z
		 M166.742,68.163c0,5.493,4.467,9.96,9.96,9.96c5.481,0,9.948-4.467,9.948-9.96c0-5.481-4.467-9.948-9.948-9.948
		C171.209,58.215,166.742,62.682,166.742,68.163L166.742,68.163z M142.25,68.163c0,5.493,4.456,9.96,9.949,9.96
		c5.492,0,9.958-4.467,9.958-9.96c0-5.481-4.466-9.948-9.958-9.948C146.706,58.215,142.25,62.682,142.25,68.163L142.25,68.163z
		 M110.318,111.08h81.014V87.046h-81.014V111.08z M116.496,93.223h68.658v11.67h-68.658V93.223z M171.081,100.265h9.394v-3.259
		h-9.394V100.265z M156.259,194.73"/>
</g>
<g>
	<path fill="#1A1A1A" d="M235.708,193.918v5.215c14.415,0.481,24.813,1.804,24.813,3.389c0,1.964-16.275,3.568-36.344,3.568
		c-20.069,0-36.333-1.604-36.333-3.568c0-1.421,8.389-2.64,20.539-3.217v-5.387h-43.076v-72.484h113.466v72.473h-43.065V193.918z
		 M271.325,187.699v-60.665h-98.569v60.665H271.325z"/>
</g>
<g>
	<path fill="#579DD9" d="M226.323,112.933c0.331,0.246,0.79,0.256,1.122,0c0.33-0.246,0.448-0.684,0.299-1.068l-4.541-11.498h7.918
		c1.73,0.085,7.384,0.673,11.23,4.445c2.704,2.65,4.019,6.38,4.019,11.413h11.018c0-8.036-2.457-14.522-7.319-19.288
		c-7.887-7.737-19.193-7.62-19.686-7.609v0.097c-0.779-0.064-1.335-0.097-1.335-0.097l-5.845-0.011l4.541-11.498
		c0.149-0.385,0.031-0.823-0.299-1.08c-0.172-0.118-0.364-0.182-0.556-0.182c-0.203,0-0.396,0.064-0.566,0.193l-22.58,17.354
		c-0.225,0.181-0.353,0.449-0.353,0.737c0,0.289,0.128,0.556,0.353,0.727L226.323,112.933z M158.059,197.898
		c-0.319-0.257-0.779-0.257-1.111-0.011c-0.33,0.246-0.458,0.695-0.299,1.069l4.542,11.499h-7.929
		c-1.721-0.086-7.384-0.674-11.221-4.437c-2.704-2.649-4.018-6.389-4.018-11.423h-11.018c0,8.033,2.458,14.523,7.309,19.29
		c7.897,7.746,19.203,7.618,19.695,7.607v-0.097c0.77,0.065,1.336,0.097,1.336,0.097l5.845,0.021l-4.542,11.499
		c-0.148,0.383-0.031,0.823,0.299,1.067c0.172,0.126,0.364,0.183,0.557,0.183c0.203,0,0.396-0.057,0.566-0.193l22.58-17.354
		c0.224-0.174,0.353-0.448,0.353-0.736c0-0.277-0.129-0.545-0.353-0.727L158.059,197.898z M158.059,197.898"/>
</g>
</svg>
