<?xml version="1.0" encoding="utf-8"?>
<!-- Generator: Adobe Illustrator 15.1.0, SVG Export Plug-In . SVG Version: 6.00 Build 0)  -->
<!DOCTYPE svg PUBLIC "-//W3C//DTD SVG 1.1//EN" "http://www.w3.org/Graphics/SVG/1.1/DTD/svg11.dtd">
<svg version="1.1" id="Calque_1" xmlns="http://www.w3.org/2000/svg" xmlns:xlink="http://www.w3.org/1999/xlink" x="0px" y="0px"
	 width="353.637px" height="353.637px" viewBox="0 0 353.637 353.637" enable-background="new 0 0 353.637 353.637"
	 xml:space="preserve">
<path fill="#1F3D59" d="M176.819,0C79.162,0,0,79.166,0,176.819c0,97.653,79.162,176.818,176.817,176.818
	c97.649,0,176.818-79.165,176.818-176.818C353.637,79.166,274.468,0,176.819,0z"/>
<g id="_x31_">
	<path fill="#E6E6E6" d="M164.029,209.511c-11.887-8.823-21.763-20.854-28.037-33.891c6.663-3.141,13.727-5.118,21.223-6.157
		c-0.031-1.747-0.038-3.398-0.038-4.952c-8.106,1.104-15.978,3.341-23.257,6.519c-4.037-9.858-6.656-21.088-7.107-31.627
		l0.086-1.902l31.515-0.051l8.698,0.037l-0.021,13.021l4.924-1.879l0.054-11.12l29.259-0.065l5.168-1.971l5.183,1.979l0.687,0.051
		c0,0.071-0.007,0.132-0.007,0.207l4.834,1.846c0.027-0.704,0.08-1.414,0.095-2.106l28.651-0.059
		c0.339,0.19,0.804,0.075,1.219,0.116c-0.174,4.391-0.729,8.68-1.601,12.877l4.54,1.729c4.34-20.71,0.592-44.184-10.053-61.451
		c-13.75-23.372-39.508-39.057-65.48-40.471c-34.44-2.637-67.532,17.018-82.096,48.694c-10.473,21.281-10.074,51.273,0.513,72.269
		c13.349,28.816,44.527,48.464,76.016,47.501c-2.102-3.329-3.718-6.437-4.911-9.025
		C164.059,209.589,164.045,209.548,164.029,209.511z M247.18,132.541l-29.875,0.061c-0.434-13.893-3.511-26.345-8.608-38.312
		c6.506-3.48,12.591-7.99,18.111-13.383C239.791,95.198,246.581,112.776,247.18,132.541z M223.424,77.23
		c-4.944,5.05-10.877,9.452-16.996,12.741C200.005,76.86,188.345,63.796,176.1,55.12C193.719,56.99,210.017,64.16,223.424,77.23z
		 M172.115,58.494c12.211,8.067,23.565,20.976,29.992,33.632c-9.254,4.541-19.037,7.316-30.063,7.646L172.115,58.494z
		 M172.026,104.735c11.293-0.403,22.292-3.331,32.163-8.092c5.062,11.008,7.867,22.96,8.192,35.934l-40.215,0.088l-0.07-0.075
		l-0.074-27.47L172.026,104.735z M167.057,132.643l-40.293,0.007c0.32-12.588,2.857-24.17,7.557-35.031
		c10.132,4.322,21.447,7.197,32.854,7.287L167.057,132.643z M167.088,99.943c-11.638-0.237-20.861-2.685-30.647-6.811
		c6.704-13.744,17.94-26.515,30.835-35.501L167.088,99.943z M162.442,55.055c-12.596,9.292-23.947,22.594-30.378,35.844
		c-6.7-3.348-13.472-8.033-18.634-13.516C126.996,64.282,143.74,56.462,162.442,55.055z M89.782,126.532
		c0.345-0.266-0.073-0.766,0.196-1.102c2.131-16.629,8.381-31.897,19.96-44.517c6.081,5.829,12.771,10.857,20.007,14.475
		c-5.013,11.426-7.856,25.264-8.063,37.241l-32.201,0.047l-0.115-0.115L89.782,126.532z M109.734,187.594
		c-12.568-14.06-19.397-30.954-20.193-50.077l29.688-0.051l2.746,0.085c0.211,12.748,3.02,24.625,7.618,35.674
		C122.218,176.967,115.823,182.092,109.734,187.594z M113.224,191.268c5.331-5.773,11.951-9.979,18.263-13.533
		c6.538,13.229,17.084,26.517,29.707,35.842C142.739,212.009,126.293,203.917,113.224,191.268z"/>
</g>
<g>
	<path fill="#E6E6E6" d="M215.322,159.24c-2.113-0.598-4.354-0.936-6.656-0.936c-1.444,0-2.841,0.147-4.206,0.377
		c-5.133,0.887-9.725,3.323-13.263,6.849c-4.472,4.47-7.22,10.646-7.22,17.456c0,6.822,2.748,12.993,7.22,17.463
		c3.208,3.194,7.274,5.499,11.83,6.554c1.816,0.429,3.684,0.673,5.639,0.673c2.089,0,4.104-0.29,6.041-0.774
		c4.388-1.104,8.311-3.354,11.416-6.451c4.47-4.47,7.23-10.641,7.23-17.462c0-6.812-2.762-12.987-7.23-17.457
		C223.163,162.583,219.458,160.395,215.322,159.24z M215.322,189.333c-1.684,1.761-4.044,2.874-6.656,2.874
		c-1.529,0-2.947-0.405-4.206-1.068c-2.969-1.53-5.006-4.589-5.006-8.151c0-3.566,2.037-6.623,5.006-8.152
		c1.259-0.654,2.677-1.059,4.206-1.059c2.612,0,4.974,1.109,6.656,2.864c1.58,1.651,2.57,3.881,2.57,6.347
		C217.892,185.452,216.902,187.674,215.322,189.333z"/>
	<path fill="#579DD9" d="M260.229,175.78l-11.151-1.318c-1.062-5.071-3.073-9.812-5.824-14.01l6.96-8.824
		c0.502-0.622,0.45-1.604-0.123-2.168l-7.898-7.898c-0.561-0.561-1.524-0.622-2.175-0.13l-8.816,6.964
		c-4.205-2.742-8.93-4.745-14.006-5.807l-1.319-11.163c-0.044-0.397-0.252-0.759-0.553-1.019c-0.291-0.266-0.671-0.424-1.069-0.424
		h-9.793h-1.384c-0.791,0-1.521,0.649-1.618,1.442l-1.319,11.163c-5.083,1.063-9.806,3.064-14.006,5.807l-8.831-6.964
		c-0.625-0.492-1.596-0.431-2.175,0.13l-7.888,7.898c-0.568,0.564-0.643,1.547-0.129,2.171l6.958,8.821
		c-2.743,4.198-4.753,8.938-5.819,14.01l-11.148,1.318c-0.798,0.098-1.442,0.828-1.442,1.623v11.174
		c0,0.793,0.646,1.528,1.442,1.626l11.148,1.31c1.066,5.089,3.076,9.806,5.819,14.022l-4.539,5.751l-2.419,3.064
		c-0.514,0.641-0.439,1.61,0.129,2.165l5.625,5.64l0.117,0.117l2.146,2.146c0.568,0.566,1.55,0.621,2.185,0.124l2.878-2.271
		l0.133-0.117l5.812-4.576c2.92,1.916,6.11,3.426,9.476,4.557c0.12,0.043,0.236,0.1,0.354,0.143
		c1.372,0.438,2.746,0.825,4.176,1.126l1.319,11.15c0.099,0.795,0.827,1.441,1.618,1.452l11.177-0.011
		c0.789,0.011,1.531-0.646,1.622-1.441l1.319-11.15c1.418-0.301,2.801-0.688,4.164-1.126c3.501-1.142,6.813-2.716,9.842-4.698
		l5.929,4.684l2.889,2.28c0.649,0.497,1.614,0.442,2.175-0.124l2.158-2.156l5.74-5.746c0.573-0.555,0.625-1.524,0.123-2.165
		l-6.96-8.815c2.751-4.218,4.764-8.935,5.824-14.022l11.151-1.31c0.786-0.098,1.451-0.833,1.451-1.626v-11.173
		C261.68,176.608,261.015,175.876,260.229,175.78z M212.397,212.464c-1.228,0.155-2.469,0.262-3.731,0.262
		c-3.71,0-7.228-0.7-10.491-1.937c-11.242-4.249-19.241-15.079-19.241-27.803c0-14.989,11.102-27.356,25.526-29.403
		c1.374-0.196,2.771-0.328,4.206-0.328c2.294,0,4.507,0.285,6.656,0.777c13.207,3.031,23.072,14.834,23.072,28.954
		C238.394,198.139,227.05,210.624,212.397,212.464z"/>
</g>
<g enable-background="new    ">
	<path fill="#F2F2F2" d="M83.496,282.466c0,1.92-0.313,3.675-0.936,5.265c-0.624,1.591-1.503,2.955-2.637,4.096
		c-1.134,1.14-2.496,2.024-4.086,2.654s-3.357,0.945-5.301,0.945h-9.792v-25.92h9.792c1.944,0,3.711,0.314,5.301,0.945
		c1.59,0.63,2.952,1.515,4.086,2.654c1.134,1.141,2.013,2.506,2.637,4.096C83.184,278.791,83.496,280.546,83.496,282.466z
		 M79.194,282.466c0-1.488-0.201-2.826-0.603-4.014c-0.402-1.188-0.978-2.19-1.728-3.007c-0.75-0.815-1.659-1.442-2.727-1.881
		c-1.068-0.438-2.268-0.656-3.6-0.656h-5.562v19.115h5.562c1.332,0,2.532-0.216,3.6-0.647c1.068-0.433,1.977-1.06,2.727-1.881
		c0.75-0.822,1.326-1.824,1.728-3.006C78.993,285.307,79.194,283.966,79.194,282.466z"/>
	<path fill="#F2F2F2" d="M92.352,295.426h-4.23v-25.92h4.23V295.426z"/>
	<path fill="#F2F2F2" d="M112.062,273.934c-0.132,0.216-0.27,0.375-0.414,0.478c-0.144,0.102-0.324,0.152-0.54,0.152
		c-0.228,0-0.483-0.096-0.765-0.288c-0.282-0.191-0.63-0.404-1.044-0.639s-0.903-0.45-1.467-0.647
		c-0.564-0.198-1.236-0.298-2.017-0.298c-0.72,0-1.353,0.091-1.898,0.271c-0.547,0.18-1.006,0.432-1.377,0.756
		c-0.372,0.324-0.651,0.705-0.837,1.143c-0.187,0.438-0.279,0.916-0.279,1.432c0,0.66,0.174,1.209,0.521,1.646
		c0.349,0.438,0.808,0.813,1.377,1.125c0.57,0.313,1.222,0.585,1.953,0.819c0.732,0.234,1.479,0.483,2.241,0.747
		s1.509,0.564,2.241,0.899c0.731,0.337,1.383,0.763,1.953,1.278c0.569,0.517,1.028,1.146,1.377,1.891
		c0.348,0.744,0.521,1.649,0.521,2.718c0,1.151-0.197,2.231-0.594,3.24c-0.396,1.008-0.969,1.887-1.719,2.637
		s-1.674,1.341-2.772,1.772c-1.098,0.433-2.349,0.648-3.753,0.648c-0.828,0-1.635-0.081-2.421-0.243s-1.536-0.39-2.25-0.684
		s-1.383-0.651-2.007-1.071s-1.182-0.888-1.674-1.404l1.224-2.016c0.108-0.168,0.246-0.3,0.414-0.396
		c0.168-0.096,0.354-0.144,0.558-0.144c0.276,0,0.582,0.129,0.918,0.387c0.336,0.259,0.741,0.54,1.216,0.847
		c0.474,0.306,1.047,0.588,1.719,0.846s1.476,0.387,2.412,0.387c1.523,0,2.702-0.372,3.537-1.116
		c0.834-0.743,1.251-1.77,1.251-3.078c0-0.731-0.175-1.328-0.522-1.791c-0.348-0.461-0.807-0.849-1.377-1.16
		c-0.57-0.313-1.221-0.576-1.953-0.792c-0.731-0.217-1.476-0.447-2.231-0.693s-1.5-0.534-2.232-0.864s-1.383-0.762-1.953-1.296
		s-1.029-1.193-1.377-1.979s-0.522-1.768-0.522-2.943c0-0.936,0.183-1.842,0.549-2.718s0.899-1.653,1.602-2.331
		s1.569-1.221,2.602-1.629c1.031-0.408,2.208-0.612,3.527-0.612c1.488,0,2.854,0.234,4.096,0.702
		c1.241,0.468,2.313,1.134,3.213,1.998L112.062,273.934z"/>
	<path fill="#F2F2F2" d="M135.984,269.506v3.51h-8.082v22.41h-4.194v-22.41h-8.1v-3.51H135.984z"/>
	<path fill="#F2F2F2" d="M143.795,284.986v10.44h-4.212v-25.92h7.632c1.704,0,3.171,0.174,4.401,0.521
		c1.229,0.349,2.24,0.844,3.032,1.485c0.792,0.643,1.378,1.413,1.756,2.313c0.378,0.899,0.566,1.901,0.566,3.006
		c0,0.899-0.135,1.74-0.405,2.52c-0.27,0.78-0.659,1.488-1.17,2.124c-0.51,0.637-1.14,1.188-1.89,1.656s-1.6,0.834-2.547,1.098
		c0.527,0.313,0.978,0.75,1.35,1.314l7.002,9.882h-3.762c-0.744,0-1.284-0.288-1.62-0.864l-6.048-8.729
		c-0.204-0.3-0.426-0.516-0.666-0.648c-0.24-0.132-0.601-0.198-1.08-0.198H143.795z M143.795,281.926h3.312
		c0.96,0,1.801-0.117,2.521-0.351c0.72-0.234,1.32-0.562,1.8-0.981s0.84-0.921,1.08-1.503s0.36-1.227,0.36-1.935
		c0-1.416-0.469-2.496-1.404-3.24s-2.353-1.116-4.248-1.116h-3.42V281.926z"/>
	<path fill="#F2F2F2" d="M166.673,295.426h-4.229v-25.92h4.229V295.426z"/>
	<path fill="#F2F2F2" d="M172.829,295.426v-25.92h8.622c1.656,0,3.071,0.159,4.248,0.477c1.176,0.318,2.142,0.771,2.897,1.359
		s1.312,1.305,1.665,2.151c0.354,0.846,0.531,1.797,0.531,2.853c0,0.612-0.093,1.206-0.279,1.782
		c-0.186,0.576-0.474,1.11-0.863,1.602c-0.391,0.492-0.88,0.939-1.468,1.341c-0.588,0.402-1.284,0.735-2.088,0.999
		c1.836,0.385,3.213,1.063,4.131,2.034c0.918,0.973,1.377,2.238,1.377,3.798c0,1.104-0.207,2.115-0.62,3.033
		c-0.414,0.918-1.015,1.71-1.801,2.376s-1.755,1.186-2.906,1.558c-1.152,0.372-2.467,0.558-3.942,0.558H172.829z M177.041,280.9
		h4.212c1.8,0,3.144-0.348,4.032-1.044c0.888-0.695,1.332-1.697,1.332-3.006c0-1.428-0.417-2.46-1.251-3.096
		s-2.14-0.954-3.915-0.954h-4.41V280.9z M177.041,283.87v8.226h5.22c0.948,0,1.749-0.11,2.403-0.333
		c0.654-0.222,1.188-0.524,1.602-0.909c0.414-0.384,0.714-0.837,0.9-1.358c0.186-0.522,0.279-1.083,0.279-1.684
		c0-1.224-0.417-2.187-1.251-2.889c-0.835-0.702-2.151-1.053-3.951-1.053H177.041z"/>
	<path fill="#F2F2F2" d="M206.561,292.024c0.996,0,1.887-0.168,2.673-0.504s1.452-0.804,1.998-1.403
		c0.546-0.601,0.963-1.323,1.251-2.169c0.288-0.847,0.433-1.785,0.433-2.817v-15.624h4.193v15.624c0,1.524-0.242,2.934-0.729,4.229
		c-0.486,1.297-1.186,2.415-2.097,3.357c-0.912,0.942-2.02,1.68-3.321,2.214c-1.303,0.534-2.77,0.801-4.401,0.801
		s-3.099-0.267-4.4-0.801c-1.303-0.534-2.409-1.271-3.321-2.214s-1.611-2.061-2.097-3.357c-0.486-1.296-0.729-2.705-0.729-4.229
		v-15.624h4.212v15.605c0,1.032,0.145,1.972,0.433,2.817c0.287,0.846,0.701,1.572,1.241,2.178c0.54,0.606,1.203,1.077,1.989,1.413
		S205.565,292.024,206.561,292.024z"/>
	<path fill="#F2F2F2" d="M240.796,269.506v3.51h-8.082v22.41h-4.194v-22.41h-8.1v-3.51H240.796z"/>
	<path fill="#F2F2F2" d="M248.626,295.426h-4.229v-25.92h4.229V295.426z"/>
	<path fill="#F2F2F2" d="M279.136,282.466c0,1.92-0.312,3.69-0.936,5.31c-0.624,1.62-1.503,3.016-2.637,4.186
		c-1.135,1.17-2.496,2.085-4.086,2.745c-1.591,0.66-3.357,0.989-5.302,0.989c-1.932,0-3.692-0.329-5.282-0.989
		c-1.591-0.66-2.955-1.575-4.096-2.745c-1.14-1.17-2.021-2.565-2.646-4.186c-0.624-1.619-0.937-3.39-0.937-5.31
		s0.313-3.69,0.937-5.31c0.624-1.62,1.506-3.019,2.646-4.194c1.141-1.176,2.505-2.094,4.096-2.754c1.59-0.66,3.351-0.99,5.282-0.99
		c1.944,0,3.711,0.33,5.302,0.99c1.59,0.66,2.951,1.578,4.086,2.754c1.134,1.176,2.013,2.574,2.637,4.194
		C278.824,278.776,279.136,280.546,279.136,282.466z M274.834,282.466c0-1.488-0.201-2.826-0.603-4.014
		c-0.402-1.188-0.979-2.196-1.729-3.024s-1.659-1.464-2.727-1.908c-1.068-0.443-2.269-0.666-3.601-0.666
		c-1.32,0-2.514,0.223-3.582,0.666c-1.067,0.444-1.979,1.08-2.735,1.908s-1.339,1.836-1.746,3.024
		c-0.408,1.188-0.612,2.525-0.612,4.014c0,1.5,0.204,2.844,0.612,4.032c0.407,1.188,0.99,2.193,1.746,3.015
		c0.756,0.822,1.668,1.452,2.735,1.89c1.068,0.438,2.262,0.657,3.582,0.657c1.332,0,2.532-0.219,3.601-0.657
		c1.067-0.438,1.977-1.067,2.727-1.89c0.75-0.821,1.326-1.827,1.729-3.015C274.633,285.31,274.834,283.966,274.834,282.466z"/>
	<path fill="#F2F2F2" d="M286.399,269.533c0.126,0.018,0.242,0.051,0.351,0.099s0.21,0.12,0.306,0.216
		c0.097,0.097,0.198,0.216,0.307,0.36l14.256,18.306c-0.036-0.372-0.063-0.738-0.081-1.098c-0.019-0.36-0.027-0.696-0.027-1.008
		v-16.902h3.69v25.92h-2.143c-0.323,0-0.6-0.057-0.827-0.171c-0.229-0.114-0.444-0.303-0.648-0.567L287.343,276.4
		c0.036,0.349,0.063,0.693,0.081,1.035c0.019,0.342,0.027,0.657,0.027,0.945v17.046h-3.708v-25.92h2.196
		C286.119,269.506,286.273,269.515,286.399,269.533z"/>
</g>
<g enable-background="new    ">
	<path fill="#1A1A1A" d="M296.137,242.598v3.053h-4.867v13.255h-3.657v-13.255h-4.896v-3.053H296.137z M307.467,251.288
		c0.11,0.257,0.216,0.514,0.316,0.77c0.101,0.258,0.197,0.514,0.289,0.771c0.165-0.531,0.367-1.045,0.605-1.54l4.482-8.112
		c0.201-0.257,0.375-0.417,0.521-0.481s0.376-0.097,0.688-0.097h3.08v16.308h-3.189v-9.707l0.248-2.173l-4.896,9.075
		c-0.257,0.532-0.679,0.798-1.265,0.798h-0.523c-0.586,0-1.008-0.266-1.265-0.798l-4.923-9.075l0.275,2.173v9.707h-3.245v-16.308
		h3.108c0.311,0,0.545,0.032,0.701,0.097c0.154,0.064,0.334,0.225,0.535,0.481L307.467,251.288z"/>
</g>
</svg>
