<svg id="Calque_1" data-name="Calque 1" xmlns="http://www.w3.org/2000/svg" viewBox="0 0 500 500"><defs><style>.cls-1{fill:#e6e6e6;opacity:0.81;}.cls-2{fill:#579dd9;}.cls-3{fill:#1a1a1a;}.cls-4{fill:#1f3d59;}</style></defs><title>Plan de travail 10 copie 6</title><rect class="cls-1" x="94.41" y="132.04" width="221.88" height="137.62" rx="11.23" ry="11.23"/><g id="_16" data-name="16"><path class="cls-2" d="M140.21,248.26l8.67,16.22h22.46l-13.66-25.56a26.21,26.21,0,0,0-23.28-42.77l11.45,21.43L140,226.92l-11-.36-11.45-21.42a26.21,26.21,0,0,0,22.63,43.11Z"/><path class="cls-2" d="M231.18,239.08a22.69,22.69,0,1,0-37,25.39H205a16.59,16.59,0,1,1,13-.59c-.46.22-.93.41-1.41.59h10.7A22.67,22.67,0,0,0,231.18,239.08Z"/><path class="cls-2" d="M161.59,241.31l12,6a36.92,36.92,0,0,0,.42,7.41l-3.91,2.52,3.89,7.26h17.49a24.78,24.78,0,1,1,38.54,0h30.22l1.47-4.21a3,3,0,0,0-1.45-3.56l-12.35-6.15a37,37,0,0,0-.42-7.41l11.59-7.49a3,3,0,0,0,1-3.7l-5.31-11a3,3,0,0,0-3.54-1.49l-13.1,4.39a36.76,36.76,0,0,0-5.52-4.95l2.89-13.49a3,3,0,0,0-1.88-3.36L222.09,198a3,3,0,0,0-3.55,1.45l-6.16,12.36a36.35,36.35,0,0,0-7.41.41l-7.49-11.59a3,3,0,0,0-3.7-1l-11,5.32a3,3,0,0,0-1.5,3.54l4.39,13.09a37,37,0,0,0-5,5.53l-13.29-2.85a26.33,26.33,0,0,1-6,16.7Z"/><path class="cls-2" d="M262.06,256.24a3.25,3.25,0,0,1,1.57,3.86l-1.53,4.37H271l7.56-13a5.7,5.7,0,0,0-2.06-7.77l-.25-.15,18.26-31.42.71.41A1.3,1.3,0,0,0,297,212l5.45-11.89a1.38,1.38,0,0,0-.52-1.84l-3.36-2a1.39,1.39,0,0,0-1.87.47l-7.63,10.63a1.29,1.29,0,0,0,.45,1.81l.71.41L272,241.1l-.25-.15A5.7,5.7,0,0,0,264,243l-6.39,11Z"/></g><path class="cls-3" d="M390.3,117.93h-31a23,23,0,0,0-23,22.95V293.43a23,23,0,0,0,23,23h31a23,23,0,0,0,22.94-23V140.88A23,23,0,0,0,390.3,117.93ZM374.82,232.06a6.43,6.43,0,1,1,6.41-6.42A6.42,6.42,0,0,1,374.82,232.06Zm-2.76-22.48a2.75,2.75,0,1,1,2.76,2.75A2.75,2.75,0,0,1,372.07,209.58Zm25.41-43.47H352.16a2.3,2.3,0,1,1,0-4.59h45.31a2.3,2.3,0,0,1,0,4.59Zm0-11.48H352.16a2.3,2.3,0,1,1,0-4.59h45.31a2.3,2.3,0,0,1,0,4.59Zm0-11.47H352.16a2.29,2.29,0,1,1,0-4.59h45.31a2.29,2.29,0,0,1,0,4.59Zm-96-29.77H122.21a29.3,29.3,0,0,0-29.26,29.24V249.69a29.29,29.29,0,0,0,29.26,29.24h66.74v15.57a15.38,15.38,0,0,1-1.46,5.9l-22,8.1a22.28,22.28,0,0,1-7.87,1.66h-4.4c-2.36,0-4.3,1.38-4.3,3v.14c0,1.66,1.94,3,4.3,3H270.44c2.36,0,4.3-1.38,4.3-3v-.14c0-1.66-.9-3-2-3s-3.91-.21-6.25-.46l-28.35-10.53c-2-.9-3.62-3-3.62-4.67V278.92h66.94a29.29,29.29,0,0,0,29.26-29.24V142.63A29.3,29.3,0,0,0,301.44,113.4ZM272.9,273H249.34a3,3,0,1,1,0-6H272.9a3,3,0,1,1,0,6Zm10,.08A3.07,3.07,0,1,1,286,270,3.07,3.07,0,0,1,282.89,273.09Zm30.92-23.4a12.5,12.5,0,0,1-12.36,12.37H122.21a12.51,12.51,0,0,1-12.37-12.37V142.63a12.49,12.49,0,0,1,12.37-12.36H301.44a12.49,12.49,0,0,1,12.36,12.36Z"/><path class="cls-4" d="M144.17,409.24a1.23,1.23,0,0,1,.93.42l2.61,2.84a16.6,16.6,0,0,1-6.07,4.59,20.84,20.84,0,0,1-8.59,1.62,20.22,20.22,0,0,1-8-1.53,17.64,17.64,0,0,1-6.11-4.27,19,19,0,0,1-3.89-6.53,24.5,24.5,0,0,1-1.36-8.34,23.34,23.34,0,0,1,1.45-8.36,19.18,19.18,0,0,1,4.07-6.54,18.29,18.29,0,0,1,6.29-4.25,20.9,20.9,0,0,1,8.07-1.52,19.72,19.72,0,0,1,7.74,1.42,19.17,19.17,0,0,1,5.83,3.78L145,385.62a2.41,2.41,0,0,1-.53.53,1.4,1.4,0,0,1-.84.22,2.26,2.26,0,0,1-1.28-.52,19.81,19.81,0,0,0-1.83-1.15,13.49,13.49,0,0,0-7-1.67,13.6,13.6,0,0,0-5.31,1,11.47,11.47,0,0,0-4.16,2.95,13.67,13.67,0,0,0-2.71,4.72,19.1,19.1,0,0,0-1,6.32,18.65,18.65,0,0,0,1,6.36,13.83,13.83,0,0,0,2.78,4.72,11.85,11.85,0,0,0,4.16,2.93,13,13,0,0,0,5.14,1,22.15,22.15,0,0,0,3-.18,11.91,11.91,0,0,0,2.46-.59,11.3,11.3,0,0,0,2.12-1,13.41,13.41,0,0,0,2-1.52A1.7,1.7,0,0,1,144.17,409.24Z"/><path class="cls-4" d="M190.6,398a22.85,22.85,0,0,1-1.46,8.28,19.13,19.13,0,0,1-4.12,6.53,18.8,18.8,0,0,1-6.38,4.28,22.85,22.85,0,0,1-16.51,0,18.65,18.65,0,0,1-10.52-10.81,24.25,24.25,0,0,1,0-16.57,19.18,19.18,0,0,1,4.13-6.54,18.84,18.84,0,0,1,6.39-4.3,22.85,22.85,0,0,1,16.51,0,18.69,18.69,0,0,1,6.38,4.3,19.28,19.28,0,0,1,4.12,6.54A22.85,22.85,0,0,1,190.6,398Zm-6.71,0a19.49,19.49,0,0,0-.94-6.26,13.28,13.28,0,0,0-2.7-4.72,11.77,11.77,0,0,0-4.26-3,15.62,15.62,0,0,0-11.21,0,11.88,11.88,0,0,0-4.27,3,13.31,13.31,0,0,0-2.72,4.72,21.12,21.12,0,0,0,0,12.55,13.15,13.15,0,0,0,2.72,4.71,11.79,11.79,0,0,0,4.27,2.95A15.83,15.83,0,0,0,176,412a11.68,11.68,0,0,0,4.26-2.95,13.12,13.12,0,0,0,2.7-4.71A19.58,19.58,0,0,0,183.89,398Z"/><path class="cls-4" d="M218.69,404.09q.39.86.7,1.76.34-.9.72-1.78t.8-1.7l12.78-23.45a1.7,1.7,0,0,1,.87-.94,4.58,4.58,0,0,1,1.35-.15h4.92v40.44H235V390.54q0-.67,0-1.46c0-.52.06-1.06.1-1.6l-13,24a2.47,2.47,0,0,1-2.33,1.49h-.93a2.44,2.44,0,0,1-2.33-1.49l-13.23-24.07q.09.84.14,1.64c0,.53.06,1,.06,1.5v27.72h-5.79V377.82h4.92a4.59,4.59,0,0,1,1.35.15,1.7,1.7,0,0,1,.87.94l13,23.51Q218.29,403.23,218.69,404.09Z"/><path class="cls-4" d="M257,403.63v14.63h-6.57V377.82H263a22.68,22.68,0,0,1,6.87.93,13.25,13.25,0,0,1,4.8,2.6,10.38,10.38,0,0,1,2.82,4,14,14,0,0,1,.93,5.18,13.84,13.84,0,0,1-1,5.29,11.1,11.1,0,0,1-2.92,4.13,13.69,13.69,0,0,1-4.82,2.7,21,21,0,0,1-6.7,1Zm0-5.19h6a12.09,12.09,0,0,0,3.86-.56,7.58,7.58,0,0,0,2.78-1.59,6.55,6.55,0,0,0,1.67-2.49,9,9,0,0,0,.56-3.26,8.69,8.69,0,0,0-.55-3.17,6.18,6.18,0,0,0-1.64-2.39,7.35,7.35,0,0,0-2.77-1.5A13.26,13.26,0,0,0,263,383h-6Z"/><path class="cls-4" d="M315.75,418.26h-5.08a2.15,2.15,0,0,1-1.4-.43,2.8,2.8,0,0,1-.81-1.08l-3.37-8.93H287.66l-3.37,8.93a2.69,2.69,0,0,1-.79,1,2.1,2.1,0,0,1-1.4.48H277l16-40.44h6.66Zm-26.32-15.16h13.87l-5.56-14.77q-.34-.81-.69-1.94c-.24-.75-.46-1.56-.69-2.42q-.34,1.32-.69,2.43t-.66,2Z"/><path class="cls-4" d="M324.61,377.86a2.07,2.07,0,0,1,.55.15,1.7,1.7,0,0,1,.48.34,5.45,5.45,0,0,1,.48.56l22.24,28.56c-.05-.58-.1-1.15-.13-1.71s0-1.09,0-1.57V377.82h5.76v40.44h-3.34a2.86,2.86,0,0,1-1.29-.27,3,3,0,0,1-1-.88l-22.22-28.54c.05.54.1,1.08.13,1.61s0,1,0,1.48v26.6h-5.78V377.82h3.43A5.29,5.29,0,0,1,324.61,377.86Z"/><path class="cls-4" d="M379.93,402.42v15.84h-6.54V402.42l-14.77-24.6h5.76a2.09,2.09,0,0,1,1.38.42,3.47,3.47,0,0,1,.84,1.07l8.28,14.49q.56,1.1,1,2.08a20.53,20.53,0,0,1,.8,1.94,20.09,20.09,0,0,1,.79-2q.45-1,1-2.07l8.23-14.49a3.37,3.37,0,0,1,.81-1,2,2,0,0,1,1.38-.46h5.79Z"/><path class="cls-3" d="M408,343.35v4.07h-6.49V365.1H396.6V347.42h-6.53v-4.07Zm15.12,11.59q.22.51.42,1c.13.34.26.69.39,1a14.76,14.76,0,0,1,.81-2.05l6-10.82a2.13,2.13,0,0,1,.7-.64,2.43,2.43,0,0,1,.92-.13h4.11V365.1h-4.26v-13l.33-2.9L426,361.36a1.74,1.74,0,0,1-1.69,1.06h-.7a1.75,1.75,0,0,1-1.69-1.06l-6.57-12.11.37,2.9v13h-4.33V343.35h4.15a2.6,2.6,0,0,1,.94.13,2,2,0,0,1,.72.64Z"/></svg>