<?xml version="1.0" encoding="utf-8"?>
<!-- Generator: Adobe Illustrator 15.1.0, SVG Export Plug-In . SVG Version: 6.00 Build 0)  -->
<!DOCTYPE svg PUBLIC "-//W3C//DTD SVG 1.1//EN" "http://www.w3.org/Graphics/SVG/1.1/DTD/svg11.dtd">
<svg version="1.1" id="Calque_1" xmlns="http://www.w3.org/2000/svg" xmlns:xlink="http://www.w3.org/1999/xlink" x="0px" y="0px"
	 width="80px" height="80px" viewBox="0 0 80 80" enable-background="new 0 0 80 80" xml:space="preserve">
<path fill="#666666" d="M73.563,18.604C66.5,7.697,54.246,0.463,40.279,0.463c-21.907,0-39.66,17.753-39.66,39.657
	c0,21.904,17.753,39.657,39.66,39.657c21.9,0,39.66-17.753,39.66-39.657c0-5.95-1.906-12.733-4.26-17.799 M73.317,40.12
	c0,18.244-14.791,33.032-33.038,33.032c-18.241,0-33.035-14.788-33.035-33.032c0-18.244,14.794-33.035,33.035-33.035
	c11.82,0,22.159,6.229,28.003,15.56L33.244,53.034L20.419,40.12l-7.495,7.486L31.728,66.53c0.824,0.827,2.167,0.827,2.991,0
	c0,0,22.676-24.194,36.465-37.989C72.542,32.146,73.317,36.039,73.317,40.12z"/>
<polygon fill="#666666" points="68.975,22.444 78.312,14.666 71.854,28.69 "/>
</svg>
