<?xml version="1.0" encoding="utf-8"?>
<!-- Generator: Adobe Illustrator 15.1.0, SVG Export Plug-In . SVG Version: 6.00 Build 0)  -->
<!DOCTYPE svg PUBLIC "-//W3C//DTD SVG 1.1//EN" "http://www.w3.org/Graphics/SVG/1.1/DTD/svg11.dtd">
<svg version="1.1" id="Calque_1" xmlns="http://www.w3.org/2000/svg" xmlns:xlink="http://www.w3.org/1999/xlink" x="0px" y="0px"
	 width="281.578px" height="281.568px" viewBox="0 72.069 281.578 281.568" enable-background="new 0 72.069 281.578 281.568"
	 xml:space="preserve">
<path fill="#A5A5A5" d="M258.948,136.472c-25.076-38.725-68.576-64.403-118.158-64.403C63.022,72.069,0,135.097,0,212.848
	c0,77.766,63.021,140.789,140.79,140.789c77.747,0,140.788-63.023,140.788-140.789c0-21.118-8.738-49.212-17.093-67.196
	 M258.071,212.848c0,64.766-52.507,117.271-117.28,117.271c-64.755,0-117.272-52.506-117.272-117.271S76.035,95.582,140.79,95.582
	c41.959,0,78.663,22.11,99.409,55.236l-125.5,98.589l-45.527-45.843L42.567,230.14l66.752,67.179c2.924,2.937,7.692,2.937,10.616,0
	c0,0,81.614-76.604,130.565-125.564C255.321,184.552,258.071,198.369,258.071,212.848z"/>
<polygon fill="#A5A5A5" points="230.319,161.152 275.963,131.319 244.783,177.451 "/>
</svg>
