<?xml version="1.0" encoding="utf-8"?>
<!-- Generator: Adobe Illustrator 15.1.0, SVG Export Plug-In . SVG Version: 6.00 Build 0)  -->
<!DOCTYPE svg PUBLIC "-//W3C//DTD SVG 1.1//EN" "http://www.w3.org/Graphics/SVG/1.1/DTD/svg11.dtd">
<svg version="1.1" id="Calque_1" xmlns="http://www.w3.org/2000/svg" xmlns:xlink="http://www.w3.org/1999/xlink" x="0px" y="0px"
	 width="353.637px" height="353.637px" viewBox="0 0 353.637 353.637" enable-background="new 0 0 353.637 353.637"
	 xml:space="preserve">
<path fill="#A5A5A5" d="M334.198,78.942l-75.25,57.53c-25.076-38.725-68.576-64.403-118.158-64.403
	C63.022,72.069,0,135.097,0,212.848c0,77.766,63.022,140.789,140.79,140.789c77.747,0,140.788-63.023,140.788-140.789
	c0-21.118-4.768-41.069-13.123-59.053c32.514-32.496,62.146-62.121,73.722-73.707C373.03,49.234,334.198,78.942,334.198,78.942z
	 M258.071,212.848c0,64.766-52.507,117.271-117.281,117.271c-64.755,0-117.272-52.506-117.272-117.271
	c0-64.765,52.517-117.266,117.272-117.266c41.959,0,78.663,22.111,99.409,55.237l-93.091,71.169l-45.528-45.843L74.975,202.72
	l66.752,67.179c2.924,2.936,7.692,2.936,10.616,0c0,0,49.206-49.185,98.157-98.145C255.321,184.552,258.071,198.369,258.071,212.848
	z"/>
</svg>
