<svg id="Calque_1" data-name="Calque 1" xmlns="http://www.w3.org/2000/svg" viewBox="0 0 500 500"><defs><style>.cls-1,.cls-5{fill:#1f3d59;}.cls-2{fill:#1a1a1a;}.cls-3{fill:#fff;}.cls-4{fill:#579dd9;}.cls-5{font-size:55.14px;font-family:Lato-Bold, Lato;font-weight:700;}.cls-6{letter-spacing:-0.03em;}.cls-7{letter-spacing:-0.07em;}</style></defs><title>Plan de travail 10</title><g id="_34" data-name="34"><rect class="cls-1" x="150.99" y="266.57" width="194.44" height="17.15"/><rect class="cls-1" x="152.3" y="196.52" width="44.44" height="52.78"/></g><path class="cls-2" d="M395.49,341v4.1H389v17.8H384v-17.8h-6.58V341Zm15.22,11.67q.22.52.42,1c.14.35.26.69.39,1a15.17,15.17,0,0,1,.81-2.07l6-10.9a2.09,2.09,0,0,1,.7-.65A2.44,2.44,0,0,1,420,341h4.14v21.9h-4.29v-13l.33-2.92-6.57,12.19a1.76,1.76,0,0,1-1.7,1.07h-.7a1.75,1.75,0,0,1-1.7-1.07l-6.61-12.19.37,2.92v13h-4.36V341h4.17a2.59,2.59,0,0,1,.94.13,2,2,0,0,1,.72.65Z"/><g id="_5" data-name="5"><path class="cls-3" d="M278.85,127.44c-54.46,0-98.62-12.63-98.62-28.18s44.15-28.17,98.62-28.17,98.62,12.63,98.62,28.17S333.31,127.44,278.85,127.44Z"/><path class="cls-3" d="M377.47,121.83v33.79c0,15.54-44.15,28.17-98.62,28.17-8.43,0-16.57-.34-24.38-.9a15.76,15.76,0,0,0-7-2.65,15.62,15.62,0,0,0-6.45-11.7l-7.65-5.92a15.58,15.58,0,0,0-9.91-3.52,16.4,16.4,0,0,0-4,.5,15.52,15.52,0,0,0-9.85-8l-9.34-2.79a15.28,15.28,0,0,0-4.74-.75,15.92,15.92,0,0,0-8.82,2.7c-.36.23-.71.48-1,.74a16.53,16.53,0,0,0-2.15-1.65,16.23,16.23,0,0,0-3.33-1.51V121.83c28.17,18.93,89.75,19.7,98.62,19.7S349.3,140.76,377.47,121.83Z"/><path class="cls-3" d="M278.85,240.14c-1.44,0-2.84,0-4.27-.06a15.19,15.19,0,0,0,.77-7.95l-1.5-9.7a15.86,15.86,0,0,0-8.17-11.8,15.71,15.71,0,0,0-.8-13.12c6.8.31,11.88.37,14,.37,8.86,0,70.45-.77,98.62-19.7V212C377.47,227.51,333.31,240.14,278.85,240.14Z"/><path class="cls-3" d="M262.45,280a15.7,15.7,0,0,0,9-10.75l2.45-9.27a15.37,15.37,0,0,0,.51-5.79c2,0,3.57.05,4.48.05,8.86,0,70.45-.77,98.62-19.7v33.79c0,15.55-44.15,28.17-98.62,28.17-7.31,0-14.41-.24-21.26-.68l1.95-2.65A15.62,15.62,0,0,0,262.45,280Z"/><path class="cls-4" d="M101.77,247.21l1.38,10.18a3.12,3.12,0,0,0,3.24,2.7l15.11-.17c.47,1.57,1,3.1,1.65,4.6L111.2,274a3.11,3.11,0,0,0-.78,4.1l5.36,8.77a3.13,3.13,0,0,0,4.08,1.18l13.72-6.21c1.09,1.27,2.26,2.55,3.44,3.74l-7.4,12.75a3.08,3.08,0,0,0,.75,4.15l8.14,6.21a3.2,3.2,0,0,0,4.24-.37L153,297.8l.37-.37c1.05.51,2.06.94,3.08,1.38.37.16.78.36,1.15.5l-.38,2.91-.77,5.59-.84,6.36a3.37,3.37,0,0,0,.84,2.68,2.55,2.55,0,0,0,1.44.87l10,2.62a3.12,3.12,0,0,0,3.73-2l1-2.56,1.2-3,3.62-9c.76.07,1.56.08,2.34.08l1.45,5.29,2.84,10.31a3.11,3.11,0,0,0,3.48,2.38l1.5-.21,8.66-1.25a3.1,3.1,0,0,0,2.68-3.27L200.1,301c1.42-.45,2.77-.94,4.15-1.5l10,12.67a3.17,3.17,0,0,0,4.17.81l8.75-5.34a3.09,3.09,0,0,0,1.21-4l-4-8.85-1.48-3.3L221.8,289c1-.87,2-1.73,2.85-2.64L238.42,294l.69.39a3.29,3.29,0,0,0,3.09.07,2.5,2.5,0,0,0,1.06-.89l6.06-8.27a3.11,3.11,0,0,0-.44-4.19L238.16,271l-1.23-1.17c.59-1.16,1.19-2.36,1.7-3.59l16.68,2.28a3.1,3.1,0,0,0,3.57-2.26l2.63-9.93a2.73,2.73,0,0,0-.54-2.64,3.43,3.43,0,0,0-1.39-1.1l-15.76-6.39a.56.56,0,0,0-.23-.09c.08-1.18.14-2.38.14-3.6h.19l11.21-3.18,5.15-1.46a3.16,3.16,0,0,0,2.38-3.52l-1.57-10.14a3.18,3.18,0,0,0-3.3-2.67l-17,.48c-.05,0-.1,0-.16,0-.41-1.36-.9-2.67-1.39-4,0,0,0,0,.09-.06l5.53-4.42,7.77-6.21a3.11,3.11,0,0,0,.81-4.16l-4.14-6.75-1.22-2a3.06,3.06,0,0,0-4-1.17l-4.68,2.12-10.84,4.91s-.08,0-.13,0c-.87-1-1.77-2-2.72-2.91l2.15-3.65,6.34-10.75a3.38,3.38,0,0,0,.42-2.3,2.71,2.71,0,0,0-1.16-1.84l-8.11-6.28a3.09,3.09,0,0,0-4.19.36l-4.45,4.47-7.57,7.61c-.1.09-.16.19-.24.27-1.05-.52-2.08-1-3.14-1.45l1.48-9,1.21-7.32a3.13,3.13,0,0,0-2.17-3.62L196.41,161a2.84,2.84,0,0,0-2.54.4,3.47,3.47,0,0,0-1.29,1.47L190.36,168l-1.29,2.95-.13.31-3.2,7.27a3.94,3.94,0,0,1-.18.56c-1-.08-2-.11-3-.14l-1.78-6.47L178,162.62a3.32,3.32,0,0,0-1.44-2,2.64,2.64,0,0,0-2-.39l-.69.1-3.82.56-5.66.82a3.09,3.09,0,0,0-2.66,3.26l.35,17a7.77,7.77,0,0,0-1,.3.29.29,0,0,0-.1-.15l-4.51-5.34L150,169.09a3.65,3.65,0,0,0-.77-.64,2.92,2.92,0,0,0-3.4-.07l-8.6,5.59a3.12,3.12,0,0,0-1.07,4.09L143,192c-1.08.82-2.13,1.7-3.14,2.61l-14.24-7.81a3.57,3.57,0,0,0-1.11-.36,2.91,2.91,0,0,0-3,1.24l-4.61,6.37L115.44,196a3.14,3.14,0,0,0,.47,4.18l11,10.26c-.82,1.44-1.62,2.94-2.3,4.47l-12.34-1.71-2.93-.4a3.1,3.1,0,0,0-3.57,2.27L103.14,225a3.13,3.13,0,0,0,2,3.75l11.7,4.77,2.29.93a51,51,0,0,0-.36,5.28.7.7,0,0,0,0,.16l-14.59,3.87A3.09,3.09,0,0,0,101.77,247.21Zm70.71-32.75c-.85.28-1.64.68-2.45,1a29.69,29.69,0,0,0-6.73,4.06,27.82,27.82,0,0,0-5.21,5.53l-1.59-.64-16-6.39a47,47,0,0,1,9.6-11.72,44.79,44.79,0,0,1,19.74-10.52l.23,1.6Zm7,14.83a12.29,12.29,0,0,1,13.9,10.39,13.21,13.21,0,0,1,.07,1.6A12.22,12.22,0,0,1,183,253.56a12.39,12.39,0,0,1-2.75.07,12,12,0,0,1-10.21-7.3,11.6,11.6,0,0,1-.94-3.14,11.93,11.93,0,0,1,.94-6.66,12.41,12.41,0,0,1,3.82-4.84A12.17,12.17,0,0,1,179.48,229.29Zm-.23-34.86c.34,0,.65,0,1,0A46.63,46.63,0,0,1,213.9,207.6l-14.95,11.76a28.56,28.56,0,0,0-5.07-3.19,27.91,27.91,0,0,0-11.9-3.06l-1.74-11.94ZM214.85,253l-6.75-2.7a28.42,28.42,0,0,0,1-4,27.59,27.59,0,0,0,.21-8.92,28.21,28.21,0,0,0-1.55-5.92,27.07,27.07,0,0,0-2.41-5l14.73-11.59a50,50,0,0,1,2.63,4.34,46.17,46.17,0,0,1,5.08,15.43c.07.46.06.91.11,1.36a49.13,49.13,0,0,1-2.36,21.25Zm-23,28.55L190,268.37a27,27,0,0,0,3.91-1.59,28.43,28.43,0,0,0,9.69-7.92l9.71,3.87,8.08,3.23a45.52,45.52,0,0,1-3.59,5A47.33,47.33,0,0,1,204,282.42a51,51,0,0,1-4.9,2.4,40.81,40.81,0,0,1-6.42,2.24Zm-42-5.11,6.63-5.23,8.43-6.64a27.62,27.62,0,0,0,5.1,2.74,29.1,29.1,0,0,0,3.82,1.38c.46.13.94.2,1.41.31a25.6,25.6,0,0,0,5.13.69c.06.31.14.63.22.94l2.57,17.76c-.48,0-1,0-1.44,0a47.78,47.78,0,0,1-7.17-.45c-.24,0-.5,0-.74-.08a46.92,46.92,0,0,1-17.35-6.48A48.2,48.2,0,0,1,149.86,276.48Zm-13.34-49.67,17.41,6.95a26.92,26.92,0,0,0,2.56,21.17c.54,1,1,2,1.59,2.9l-1.59,1.25-13.08,10.33a47.22,47.22,0,0,1-6.89-42.61Z"/></g><text class="cls-5" transform="translate(110.27 413.86)"><tspan class="cls-6">D</tspan><tspan class="cls-7" x="39.81" y="0">AT</tspan><tspan x="103.67" y="0">ABASE</tspan></text></svg>