<svg id="Calque_1" data-name="Calque 1" xmlns="http://www.w3.org/2000/svg" viewBox="0 0 50 50"><defs><style>.cls-1{fill:#213f5a;}.cls-2,.cls-6{fill:#fff;}.cls-2,.cls-5,.cls-6{stroke:#a09f9f;stroke-miterlimit:10;}.cls-3{fill:#599bd1;}.cls-4{fill:#203e59;}.cls-5{fill:none;}.cls-6{stroke-width:0.5px;}</style></defs><title>0.icons_BECLM</title><circle class="cls-1" cx="25.17" cy="25" r="24.74"/><rect class="cls-2" x="7.56" y="12.53" width="35.68" height="24.95" rx="1.73" ry="1.73"/><path class="cls-3" d="M20,33.19a6,6,0,0,1,1-2.5l1.86,1.47a3.57,3.57,0,0,0-.5,1.38,3.48,3.48,0,0,0,0,.74h2A1.53,1.53,0,0,1,26.1,32.5a1.58,1.58,0,0,1,.71.3,1.6,1.6,0,0,1,.48.61,1.53,1.53,0,0,1,.12.84h2a3.54,3.54,0,0,0-.12-1.2l2.2-.88a5.86,5.86,0,0,1,.29,2.08h3.59l-1.62-.43v0a6.51,6.51,0,0,0,0-.67L34,33l1.48-.6a.4.4,0,0,0,.25-.47l-.34-1.25a.39.39,0,0,0-.45-.29l-.37.05L33,30.68c-.09-.19-.19-.38-.29-.56l1.39-1.3a.39.39,0,0,0,.06-.53L34,28l-.58-.81a.36.36,0,0,0-.38-.16l-.14,0-1.8,1-.4-.33L31.58,26a.4.4,0,0,0-.13-.52l-1.09-.71a.37.37,0,0,0-.43,0,.41.41,0,0,0-.1.08l-.82,1-.57.68v0l-.12,0,0-2.15A.39.39,0,0,0,28,24l-.71-.11-.48-.07h-.09a.34.34,0,0,0-.26,0,.42.42,0,0,0-.18.25l-.34,1.24-.23.82-.38,0,0-.07-.4-.92,0,0-.45-1a.43.43,0,0,0-.16-.19.36.36,0,0,0-.32-.05l-1.24.37a.4.4,0,0,0-.27.46l.34,2.06-.4.18,0,0-1.52-1.53a.39.39,0,0,0-.53,0l-1,.8a.39.39,0,0,0-.09.52l1.08,1.82c-.12.12-.24.24-.34.37h0l-2-.89a.39.39,0,0,0-.51.15l-.68,1.11a.39.39,0,0,0,.1.53l1,.79.7.56h0c-.06.16-.13.33-.18.5h0l-2.15-.06a.4.4,0,0,0-.42.34l-.2,1.28a.4.4,0,0,0,.3.45l2.07.59h0s0,.07,0,.1h2A5.93,5.93,0,0,1,20,33.19Zm7.31-4.72,0-.2A5.9,5.9,0,0,1,29,29a5.83,5.83,0,0,1,.82.62A6,6,0,0,1,31,31.08l-2,.81-.2.08a3.51,3.51,0,0,0-.66-.7,3.79,3.79,0,0,0-.85-.51L27,30.63Zm-3-.16a5.9,5.9,0,0,1,1.85-.22l-.34,2.36a3.53,3.53,0,0,0-1.5.39,3.67,3.67,0,0,0-.64.4l-1.89-1.49A6,6,0,0,1,24.28,28.31Z"/><path class="cls-4" d="M25.78,32.82a1.47,1.47,0,0,1,1.47,1.45h2.34a3.81,3.81,0,0,0-7.62,0h2.34A1.47,1.47,0,0,1,25.78,32.82Z"/><rect class="cls-5" x="8.98" y="16.66" width="31.94" height="17.86" rx="1.73" ry="1.73"/><rect class="cls-6" x="15.57" y="13.92" width="3.67" height="0.34" rx="0.15" ry="0.15"/><rect class="cls-6" x="30.39" y="13.92" width="11.75" height="0.34" rx="0.15" ry="0.15"/><rect class="cls-6" x="9.63" y="13.92" width="3.67" height="0.34" rx="0.15" ry="0.15"/></svg>