<?xml version="1.0" encoding="utf-8"?>
<!-- Generator: Adobe Illustrator 21.0.0, SVG Export Plug-In . SVG Version: 6.00 Build 0)  -->
<svg version="1.1" id="Layer_1" xmlns="http://www.w3.org/2000/svg" xmlns:xlink="http://www.w3.org/1999/xlink" x="0px" y="0px"
	 viewBox="0 0 400 400" style="enable-background:new 0 0 400 400;" xml:space="preserve">
<style type="text/css">
	.st0{fill:#D9D9D9;}
	.st1{fill:#FFFFFF;stroke:#000000;stroke-miterlimit:10;}
	.st2{fill:#C4C4C4;}
	.st3{fill:#B5B4B4;}
	.st4{fill:#FFFFFF;}
	.st5{fill:#F7F7F8;}
	.st6{fill:#999999;}
</style>
<title>conseiller_prospect</title>
<polygon class="st0" points="-1402.7,305.7 -1645.8,305.7 -1641.4,250.5 -1567.2,198.4 -1572.9,92.3 -1560.1,46.9 -1490.5,44 
	-1473.3,97 -1483.6,197.1 -1407.8,249.7 "/>
<polyline id="_Tracé__3_" class="st1" points="-1513.9,232.2 -1508.6,348.4 -1524.6,362.8 -1540.2,348.6 -1535.2,232.2 "/>
<path class="st2" d="M-1644.2,305.7c3.4,0,6.1-2.8,6.1-6.1v-33.8c0-5.3,2.3-10.4,6.5-13.8c30.2-24.8,62.9-41.3,69.1-44.3
	c2.9-1.4,4.7-4.3,4.6-7.5v-47.6c0-2-1-3.9-2.7-5c-4.5-3-7.2-8-7.2-13.4V84.7c0-21.2,17.2-38.4,38.4-38.4h10.6
	c21.2,0,38.4,17.2,38.4,38.4V134c0,5.4-2.7,10.4-7.2,13.4c-1.7,1.1-2.7,3-2.7,5v47.6c0,3.2,1.8,6.1,4.6,7.5
	c6.3,3,38.9,19.6,69.1,44.3c4.1,3.4,6.5,8.5,6.5,13.8v33.8c0.3,3.4,3.4,5.8,6.7,5.5c2.9-0.3,5.2-2.6,5.5-5.5v-33.8
	c0-9-4-17.5-11-23.2c-28.6-23.5-59.4-39.8-69.3-44.8v-42.2c6.3-5.4,9.9-13.2,10-21.5V84.7c0-27.9-22.7-50.6-50.6-50.6h-10.6
	c-27.9,0-50.6,22.7-50.6,50.6V134c0,8.3,3.6,16.2,10,21.6v42.2c-10,5-40.7,21.2-69.3,44.8c-6.9,5.7-11,14.2-11,23.2v33.9
	c-0.1,3.3,2.4,6,5.7,6.1c0,0,0,0,0,0L-1644.2,305.7z"/>
<path class="st2" d="M-1507.7,213.4c-3.4,0-6.1,2.8-6.1,6.1c0,2.9-1.2,5.7-3.3,7.6c-0.4,0.3-0.8,0.6-1.1,0.9
	c-1.7,1.2-3.7,1.8-5.8,1.8c-5.7,0-10.3-4.6-10.3-10.3c0,0,0,0,0,0c-0.3-3.4-3.4-5.8-6.7-5.5c-2.9,0.3-5.2,2.6-5.5,5.5
	c0,5.2,1.8,10.2,5.1,14.3l-5,114.6c-0.1,1.8,0.7,3.6,2,4.8l15.7,14.1c1.1,1,2.6,1.6,4.1,1.6c1.5,0,3-0.6,4.1-1.5l16.1-14.4
	c1.3-1.2,2.1-3,2-4.8l-5.1-113.3c3.9-4.2,6.1-9.6,6.1-15.3C-1501.6,216.2-1504.3,213.4-1507.7,213.4
	C-1507.6,213.4-1507.6,213.4-1507.7,213.4L-1507.7,213.4z M-1524.6,354.6l-9.5-8.5l4.5-104.8c1.8,0.5,3.6,0.7,5.4,0.7
	c1.5,0,3-0.1,4.4-0.5l4.7,104.3L-1524.6,354.6z"/>
<path class="st0" d="M-1236.6,306.8c3.4,0,6.1-2.8,6.2-6.2v-34.1c0-5.4,2.4-10.5,6.5-13.9c30.4-25,63.4-41.6,69.7-44.7
	c2.9-1.4,4.7-4.3,4.7-7.5v-48c0-2-1-3.9-2.7-5.1c-4.5-3.1-7.2-8.1-7.3-13.6V84c0-21.4,17.3-38.7,38.7-38.7h10.7
	c21.4,0,38.7,17.3,38.7,38.7v49.8c0,5.5-2.7,10.6-7.3,13.6c-1.7,1.1-2.7,3-2.7,5.1v48c0,3.2,1.8,6.1,4.7,7.5
	c6.3,3,39.3,19.7,69.7,44.7c4.1,3.4,6.5,8.5,6.5,13.9v34.1c0.1,3.4,3,6.1,6.4,5.9c3.2-0.1,5.8-2.7,5.9-5.9v-34.1
	c0-9.1-4.1-17.7-11.1-23.5c-28.8-23.7-59.9-40.2-69.9-45.2v-42.4c6.3-5.4,10-13.3,10-21.7V84c0-28.2-22.9-51-51-51.1h-10.6
	c-28.2,0-51,22.9-51.1,51.1v49.8c0,8.3,3.6,16.3,10,21.7v42.6c-10,5.1-41.1,21.4-69.9,45.2c-7,5.8-11.1,14.4-11.1,23.4v34.1
	C-1242.7,304.2-1239.9,306.8-1236.6,306.8z"/>
<path class="st0" d="M-1971.2,303.7c2.6,0,4.8-2.2,4.8-4.8v-26.5c0-4.2,1.8-8.1,5.1-10.8c23.6-19.4,49.3-32.4,54.2-34.7
	c2.2-1.1,3.7-3.4,3.7-5.8v-37.3c0-1.6-0.8-3.1-2.1-3.9c-3.5-2.4-5.6-6.3-5.7-10.6v-38.7c0-16.6,13.5-30.1,30.1-30.1h8.3
	c16.6,0,30.1,13.5,30.1,30.1v38.7c0,4.2-2.1,8.2-5.7,10.6c-1.3,0.9-2.1,2.4-2.1,3.9V221c0,2.5,1.4,4.8,3.7,5.8
	c4.9,2.4,30.5,15.3,54.2,34.7c3.2,2.7,5.1,6.6,5.1,10.8v26.5c0.1,2.6,2.3,4.7,5,4.6c2.5-0.1,4.5-2.1,4.6-4.6v-26.5
	c0-7.1-3.2-13.8-8.6-18.2c-22.4-18.4-46.6-31.2-54.3-35.1v-33c4.9-4.2,7.8-10.4,7.8-16.8v-38.7c0-21.9-17.8-39.7-39.7-39.7h-8.3
	c-21.9,0-39.7,17.8-39.7,39.7v38.7c0,6.5,2.8,12.6,7.8,16.8v33.1c-7.8,3.9-31.9,16.7-54.3,35.1c-5.4,4.5-8.6,11.2-8.6,18.2V299
	C-1976,301.6-1973.8,303.6-1971.2,303.7z"/>
<polygon class="st0" points="-1890.2,304.8 -2133.3,304.8 -2128.9,249.6 -2054.7,197.5 -2060.4,91.4 -2047.6,46 -1978,43.1 
	-1960.8,96.1 -1971.1,196.2 -1895.3,248.8 "/>
<polyline id="_Tracé__4_" class="st1" points="-2001.4,231.2 -1996.1,347.5 -2012.1,361.9 -2027.7,347.7 -2022.7,231.2 "/>
<path class="st2" d="M-2131.7,304.8c3.4,0,6.1-2.8,6.1-6.1v-33.8c0-5.3,2.3-10.4,6.5-13.8c30.2-24.8,62.9-41.3,69.1-44.3
	c2.9-1.4,4.7-4.3,4.6-7.5v-47.6c0-2-1-3.9-2.7-5c-4.5-3-7.2-8-7.2-13.4V83.7c0-21.2,17.2-38.4,38.4-38.4h10.6
	c21.2,0,38.4,17.2,38.4,38.4v49.4c0,5.4-2.7,10.4-7.2,13.4c-1.7,1.1-2.7,3-2.7,5v47.6c0,3.2,1.8,6.1,4.6,7.5
	c6.3,3,38.9,19.6,69.1,44.3c4.1,3.4,6.5,8.5,6.5,13.8v33.8c0.3,3.4,3.4,5.8,6.7,5.5c2.9-0.3,5.2-2.6,5.5-5.5v-33.8
	c0-9-4-17.5-11-23.2c-28.6-23.5-59.4-39.8-69.3-44.8v-42.2c6.3-5.4,9.9-13.2,10-21.5V83.7c0-27.9-22.7-50.6-50.6-50.6h-10.6
	c-27.9,0-50.6,22.7-50.6,50.6v49.4c0,8.3,3.6,16.2,10,21.6v42.2c-10,5-40.7,21.2-69.3,44.8c-6.9,5.7-11,14.2-11,23.2v33.9
	c-0.1,3.3,2.4,6,5.7,6.1c0,0,0,0,0,0L-2131.7,304.8z"/>
<path class="st2" d="M-1995.2,212.5c-3.4,0-6.1,2.8-6.1,6.1c0,2.9-1.2,5.7-3.3,7.6c-0.4,0.3-0.8,0.6-1.1,0.9
	c-1.7,1.2-3.7,1.8-5.8,1.8c-5.7,0-10.3-4.6-10.3-10.3c0,0,0,0,0,0c-0.3-3.4-3.4-5.8-6.7-5.5c-2.9,0.3-5.2,2.6-5.5,5.5
	c0,5.2,1.8,10.2,5.1,14.3l-5,114.6c-0.1,1.8,0.7,3.6,2,4.8l15.7,14.1c1.1,1,2.6,1.6,4.1,1.6c1.5,0,3-0.6,4.1-1.5l16.1-14.4
	c1.3-1.2,2.1-3,2-4.8l-5.1-113.3c3.9-4.2,6.1-9.6,6.1-15.3C-1989.1,215.2-1991.8,212.5-1995.2,212.5
	C-1995.1,212.5-1995.1,212.5-1995.2,212.5L-1995.2,212.5z M-2012.1,353.6l-9.5-8.5l4.5-104.8c1.8,0.5,3.6,0.7,5.4,0.7
	c1.5,0,3-0.1,4.4-0.5l4.7,104.3L-2012.1,353.6z"/>
<path class="st3" d="M-2004.5,32.1h-12.8c-35.2,0-63.9,31-63.9,69.1v37.3c-0.1,2.1,1.5,3.8,3.6,3.9h5.4v2.7
	c-0.1,2.1,1.5,3.8,3.6,3.9h6.5c6.4,0,11.6-5.7,11.6-12.6v-30.3c0-6.9-5.2-12.6-11.6-12.6h-6.5c-2.1,0.1-3.7,1.8-3.6,3.9v2.7h-1.8
	c0.5-33.4,25.7-60.3,56.7-60.3h12.8c30.9,0,56.2,27,56.7,60.3h-1.8v-2.7c0.1-2.1-1.5-3.8-3.5-3.9c0,0,0,0-0.1,0h-6.5
	c-6.4,0-11.6,5.7-11.6,12.6v30.3c0,6.9,5.2,12.6,11.6,12.6h6.5c1,0,1.9-0.4,2.5-1.1v8.4c0,11.2-8.4,20.3-18.8,20.3h-21.3
	c-1.3-3.8-4.9-6.4-8.9-6.5h-9.7c-5.3,0-9.6,4.6-9.6,10.4c0,5.7,4.3,10.4,9.6,10.4h9.7c4-0.1,7.6-2.7,8.9-6.5h21.3
	c14.3,0,25.9-12.6,25.9-28.1v-13.8c1.7-0.5,2.9-2,2.8-3.8v-37.3C-1940.7,63.1-1969.3,32.1-2004.5,32.1z"/>
<polygon class="st0" points="319.4,308.2 76.3,308.2 80.7,253 155,200.8 149.3,94.8 162.1,49.4 231.7,46.4 248.8,99.4 238.6,199.6 
	314.3,252.1 "/>
<polyline id="_Tracé__1_" class="st1" points="208.3,234.6 213.5,350.8 197.6,365.2 181.9,351 186.9,234.6 "/>
<path class="st2" d="M78,308.2c3.4,0,6.1-2.8,6.1-6.1v-33.8c0-5.3,2.3-10.4,6.5-13.8c30.2-24.8,62.9-41.3,69.1-44.3
	c2.9-1.4,4.7-4.3,4.6-7.5V155c0-2-1-3.9-2.7-5c-4.5-3-7.2-8-7.2-13.4V87.1c0-21.2,17.2-38.4,38.4-38.4h10.6
	c21.2,0,38.4,17.2,38.4,38.4v49.4c0,5.4-2.7,10.4-7.2,13.4c-1.7,1.1-2.7,3-2.7,5v47.6c0,3.2,1.8,6.1,4.6,7.5
	c6.3,3,38.9,19.6,69.1,44.3c4.1,3.4,6.5,8.5,6.5,13.8V302c0.3,3.4,3.4,5.8,6.7,5.5c2.9-0.3,5.2-2.6,5.5-5.5v-33.8
	c0-9-4-17.5-11-23.2c-28.6-23.5-59.4-39.8-69.3-44.8V158c6.3-5.4,9.9-13.2,10-21.5V87.1c0-27.9-22.7-50.6-50.6-50.6h-10.6
	c-27.9,0-50.6,22.7-50.6,50.6v49.4c0,8.3,3.6,16.2,10,21.6v42.2c-10,5-40.7,21.2-69.3,44.8c-6.9,5.7-11,14.2-11,23.2v33.9
	c-0.1,3.3,2.4,6,5.7,6.1c0,0,0,0,0,0L78,308.2z"/>
<path class="st2" d="M214.5,215.9c-3.4,0-6.1,2.8-6.1,6.1c0,2.9-1.2,5.7-3.3,7.6c-0.4,0.3-0.8,0.6-1.1,0.9c-1.7,1.2-3.7,1.8-5.8,1.8
	c-5.7,0-10.3-4.6-10.3-10.3c0,0,0,0,0,0c-0.3-3.4-3.4-5.8-6.7-5.5c-2.9,0.3-5.2,2.6-5.5,5.5c0,5.2,1.8,10.2,5.1,14.3l-5,114.6
	c-0.1,1.8,0.7,3.6,2,4.8l15.7,14.1c1.1,1,2.6,1.6,4.1,1.6c1.5,0,3-0.6,4.1-1.5l16.1-14.4c1.3-1.2,2.1-3,2-4.8l-5.1-113.3
	c3.9-4.2,6.1-9.6,6.1-15.3C220.6,218.6,217.9,215.9,214.5,215.9C214.5,215.8,214.5,215.8,214.5,215.9L214.5,215.9z M197.6,357
	l-9.5-8.5l4.5-104.8c1.8,0.5,3.6,0.7,5.4,0.7c1.5,0,3-0.1,4.4-0.5l4.7,104.3L197.6,357z"/>
<path class="st3" d="M205.1,35.4h-12.8c-35.2,0-63.9,31-63.9,69.1v37.3c-0.1,2.1,1.5,3.8,3.6,3.9h5.4v2.7c-0.1,2.1,1.5,3.8,3.6,3.9
	h6.5c6.4,0,11.6-5.7,11.6-12.6v-30.3c0-6.9-5.2-12.6-11.6-12.6h-6.5c-2.1,0.1-3.7,1.8-3.6,3.9v2.7h-1.8
	c0.5-33.4,25.7-60.3,56.7-60.3h12.8c30.9,0,56.2,27,56.7,60.3H260v-2.7c0.1-2.1-1.5-3.8-3.5-3.9c0,0,0,0-0.1,0h-6.5
	c-6.4,0-11.6,5.7-11.6,12.6v30.3c0,6.9,5.2,12.6,11.6,12.6h6.5c1,0,1.9-0.4,2.5-1.1v8.4c0,11.2-8.4,20.3-18.8,20.3h-21.3
	c-1.3-3.8-4.9-6.4-8.9-6.5h-9.7c-5.3,0-9.6,4.6-9.6,10.4c0,5.7,4.3,10.4,9.6,10.4h9.7c4-0.1,7.6-2.7,8.9-6.5h21.3
	c14.3,0,25.9-12.6,25.9-28.1v-13.8c1.7-0.5,2.9-2,2.8-3.8v-37.3C269,66.5,240.3,35.4,205.1,35.4z"/>
<path class="st2" d="M-631.5,99.9V62.2c0-8.1-6.6-14.7-14.7-14.7h-162.4c-8.1,0-14.7,6.6-14.7,14.8c0,0,0,0,0,0v37.7
	c0,4.5,2.1,8.8,5.7,11.5c-3.6,2.8-5.7,7-5.7,11.5v37.7c0,4.5,2.1,8.8,5.7,11.5c-3.6,2.8-5.7,7-5.7,11.5v37.7
	c0,8.1,6.6,14.7,14.7,14.7h162.4c8.1,0,14.7-6.6,14.7-14.8c0,0,0,0,0,0v-37.7c0-4.5-2.1-8.8-5.7-11.5c3.6-2.8,5.7-7,5.7-11.5v-37.7
	c0-4.5-2.1-8.8-5.7-11.5C-633.6,108.6-631.5,104.4-631.5,99.9z M-637.9,183.7v37.7c0,4.6-3.7,8.3-8.3,8.3h-162.4
	c-4.6,0-8.3-3.7-8.3-8.3v-37.7c0-4.6,3.7-8.3,8.3-8.3h162.4C-641.6,175.4-637.9,179.1-637.9,183.7L-637.9,183.7z M-637.9,123v37.7
	c0,4.6-3.7,8.3-8.3,8.3h-162.4c-4.6,0-8.3-3.7-8.3-8.3V123c0-4.6,3.7-8.3,8.3-8.3h162.4C-641.6,114.6-637.9,118.4-637.9,123
	L-637.9,123z M-808.6,108.2c-4.6,0-8.3-3.7-8.3-8.3V62.2c0-4.6,3.7-8.3,8.3-8.3h162.4c4.6,0,8.3,3.7,8.3,8.3v37.7
	c0,4.6-3.7,8.3-8.3,8.3H-808.6L-808.6,108.2z"/>
<path class="st0" d="M-789.8,66.7c-7.9,0-14.4,6.4-14.4,14.4s6.4,14.4,14.4,14.4c7.9,0,14.4-6.4,14.4-14.4
	C-775.4,73.1-781.8,66.7-789.8,66.7z M-789.8,89.1c-4.4,0-8-3.6-8-8c0-4.4,3.6-8,8-8s8,3.6,8,8l0,0C-781.8,85.5-785.3,89-789.8,89.1
	z"/>
<circle class="st0" cx="-663.5" cy="76.3" r="3.2"/>
<circle class="st0" cx="-676.2" cy="76.3" r="3.2"/>
<circle class="st0" cx="-657.1" cy="85.9" r="3.2"/>
<circle class="st0" cx="-669.8" cy="85.9" r="3.2"/>
<circle class="st0" cx="-689" cy="76.3" r="3.2"/>
<circle class="st0" cx="-682.6" cy="85.9" r="3.2"/>
<circle class="st0" cx="-701.8" cy="76.3" r="3.2"/>
<circle class="st0" cx="-695.4" cy="85.9" r="3.2"/>
<circle class="st0" cx="-714.6" cy="76.3" r="3.2"/>
<circle class="st0" cx="-708.2" cy="85.9" r="3.2"/>
<path class="st0" d="M-789.8,156.2c7.9,0,14.4-6.4,14.4-14.4c0-7.9-6.4-14.4-14.4-14.4c-7.9,0-14.4,6.4-14.4,14.4l0,0
	C-804.1,149.8-797.7,156.2-789.8,156.2z M-789.8,133.8c4.4,0,8,3.6,8,8s-3.6,8-8,8c-4.4,0-8-3.6-8-8l0,0
	C-797.7,137.4-794.2,133.8-789.8,133.8z"/>
<circle class="st0" cx="-663.5" cy="137" r="3.2"/>
<circle class="st0" cx="-676.2" cy="137" r="3.2"/>
<circle class="st0" cx="-657.1" cy="146.6" r="3.2"/>
<circle class="st0" cx="-669.8" cy="146.6" r="3.2"/>
<circle class="st0" cx="-689" cy="137" r="3.2"/>
<circle class="st0" cx="-682.6" cy="146.6" r="3.2"/>
<circle class="st0" cx="-701.8" cy="137" r="3.2"/>
<circle class="st0" cx="-695.4" cy="146.6" r="3.2"/>
<circle class="st0" cx="-714.6" cy="137" r="3.2"/>
<circle class="st0" cx="-708.2" cy="146.6" r="3.2"/>
<path class="st0" d="M-789.8,217c7.9,0,14.4-6.4,14.4-14.4c0-7.9-6.4-14.4-14.4-14.4c-7.9,0-14.4,6.4-14.4,14.4
	C-804.1,210.5-797.7,216.9-789.8,217z M-789.8,194.6c4.4,0,8,3.6,8,8c0,4.4-3.6,8-8,8c-4.4,0-8-3.6-8-8l0,0
	C-797.7,198.2-794.1,194.6-789.8,194.6L-789.8,194.6z"/>
<circle class="st0" cx="-663.5" cy="197.8" r="3.2"/>
<circle class="st0" cx="-676.2" cy="197.8" r="3.2"/>
<circle class="st0" cx="-657.1" cy="207.4" r="3.2"/>
<circle class="st0" cx="-669.8" cy="207.4" r="3.2"/>
<circle class="st0" cx="-689" cy="197.8" r="3.2"/>
<circle class="st0" cx="-682.6" cy="207.4" r="3.2"/>
<circle class="st0" cx="-701.8" cy="197.8" r="3.2"/>
<circle class="st0" cx="-695.4" cy="207.4" r="3.2"/>
<circle class="st0" cx="-714.6" cy="197.8" r="3.2"/>
<circle class="st0" cx="-708.2" cy="207.4" r="3.2"/>
<path class="st4" d="M-734.5,85.9h239.1c7.1,0,12.9,5.8,12.9,12.9v155.6c0,7.1-5.8,12.9-12.9,12.9h-239.1c-7.1,0-12.9-5.8-12.9-12.9
	V98.8C-747.4,91.7-741.6,85.9-734.5,85.9z"/>
<path class="st2" d="M-503.4,92.1v-0.4h-223v0.4c-7.1,0.6-12.7,6.1-13.5,13.2v146.6c0,2.6,0.7,5.1,2,7.3c2.4,4.8,7.4,7.7,12.7,7.5
	h80.5V287H-660c-3.7,0.1-6.6,3.3-6.5,7c0.1,3.5,3,6.3,6.5,6.5h90.2c3.7,0.1,6.9-2.7,7-6.5c0.1-3.7-2.7-6.9-6.5-7c-0.2,0-0.4,0-0.5,0
	h-15.3v-20.3h80.5c5.3,0.2,10.3-2.7,12.7-7.5c1.3-2.2,2-4.7,2.1-7.3V105.3C-490.7,98.3-496.4,92.8-503.4,92.1z M-503.4,106.5v145.3
	c0,0.9-0.4,1.2-1.2,1.2h-220.6c-0.9,0-1.2-0.4-1.2-1.2V105.3h223V106.5L-503.4,106.5z"/>
<path class="st0" d="M-318.6,74.9c52.5,0,95.4,0,148.2,0c8,0,14.5,6.5,14.5,14.5v86.9v20.6v73v6.2c0,9.8-7.9,17.7-17.7,17.7h-145.1
	c-8.1,0-14.5-6.5-14.5-14.5V89.4C-333.2,81.4-326.7,74.9-318.6,74.9z"/>
<rect x="-323.8" y="83.4" class="st5" width="158.5" height="201.8"/>
<g>
	<circle class="st6" cx="-141.4" cy="246.6" r="49.9"/>
	<path class="st0" d="M-310.8,100h20.5v23.6h-20.5V100z M-310.8,226.7h20.5v23.6h-20.5V226.7z M-310.8,184.5h20.5v23.6h-20.5V184.5z
		 M-310.8,142.1h20.5v23.6h-20.5V142.1z"/>
</g>
<path class="st6" d="M-280.7,108.6h69.9v6.2h-69.9V108.6L-280.7,108.6z M-280.7,235.4h69.9v6.2h-69.9V235.4L-280.7,235.4z
	 M-280.7,193.1h69.9v6.2h-69.9V193.1L-280.7,193.1z M-280.7,150.8h69.9v6.2h-69.9V150.8L-280.7,150.8z"/>
<circle class="st0" cx="-141.4" cy="246.6" r="42.2"/>
<path class="st4" d="M-177.1,248l13.4-1.5l14.5,12.9c0,0,7-29.4,39.9-36.2c-16.1,8.7-26,25.9-32.7,49.6c-1.6,6-6,4.4-7.4,2.7
	C-151.6,272.5-166.6,255.3-177.1,248L-177.1,248L-177.1,248z"/>
<path class="st6" d="M-258.5,62.6h2.3c-0.6-1-1-2.3-1-3.5v-7.5c0-4.1,3.7-7.5,8.4-7.5h8.7c4.6,0,8.4,3.4,8.4,7.5v7.5
	c0,1.2-0.4,2.4-1,3.5h2.3c15.5,0,28,11.4,28,25.2l0,0h-84.1l0,0C-286.6,73.8-274,62.6-258.5,62.6L-258.5,62.6L-258.5,62.6z"/>
<path class="st6" d="M-244.4,44h4.4c4.6,0,8.4,3.4,8.4,7.5v7.5c0,1.2-0.4,2.4-1,3.5h2.3c15.5,0,28,11.4,28,25.2l0,0h-42L-244.4,44
	L-244.4,44z"/>
</svg>
