<svg id="Layer_1" data-name="Layer 1" xmlns="http://www.w3.org/2000/svg" viewBox="0 0 389.92 394.48"><defs><style>.cls-1{fill:#d9d9d9;}.cls-2{fill:#fff;stroke:#000;stroke-miterlimit:10;}.cls-3{fill:#c4c4c4;}</style></defs><title>conseiller_prospect</title><path class="cls-1" d="M213.48,389.62a5.52,5.52,0,0,0,5.5-5.5v-30.4a16,16,0,0,1,5.8-12.39c27.14-22.3,56.51-37.11,62.13-39.83a7.35,7.35,0,0,0,4.17-6.71V252a5.41,5.41,0,0,0-2.42-4.53,14.57,14.57,0,0,1-6.47-12.09V191a34.54,34.54,0,0,1,34.51-34.51h9.55A34.54,34.54,0,0,1,360.77,191v44.36a14.57,14.57,0,0,1-6.47,12.09,5.49,5.49,0,0,0-2.42,4.53v42.79a7.35,7.35,0,0,0,4.17,6.71c5.62,2.72,35,17.59,62.13,39.83a16,16,0,0,1,5.8,12.39v30.4a5.5,5.5,0,0,0,11,0v-30.4a26.82,26.82,0,0,0-9.85-20.85c-25.69-21.09-53.37-35.78-62.31-40.25V254.72a25.51,25.51,0,0,0,8.95-19.34V191a45.48,45.48,0,0,0-45.45-45.45h-9.55A45.48,45.48,0,0,0,271.32,191v44.36a25.21,25.21,0,0,0,8.95,19.34v38c-8.95,4.47-36.57,19.1-62.31,40.25a27,27,0,0,0-9.85,20.85v30.4A5.31,5.31,0,0,0,213.48,389.62Z" transform="translate(-45.07 -64.62)"/><polygon class="cls-1" points="296.53 325.57 5.17 325.57 10.43 259.38 99.43 196.88 92.6 69.79 107.93 15.38 191.38 11.87 211.93 75.38 199.63 195.38 290.43 258.38 296.53 325.57"/><polyline id="_Tracé_" data-name="&lt;Tracé&gt;" class="cls-2" points="163.31 230.69 169.6 369.98 150.5 387.23 131.72 370.22 137.76 230.69"/><path class="cls-3" d="M52.25,390.18a7.36,7.36,0,0,0,7.34-7.34V342.3a21.28,21.28,0,0,1,7.74-16.52c36.19-29.74,75.37-49.49,82.86-53.12a9.81,9.81,0,0,0,5.56-8.95V206.64a7.21,7.21,0,0,0-3.22-6,19.43,19.43,0,0,1-8.62-16.12V125.23a46.06,46.06,0,0,1,46-46h12.74a46.06,46.06,0,0,1,46,46V184.4a19.43,19.43,0,0,1-8.62,16.12,7.32,7.32,0,0,0-3.22,6v57.07a9.81,9.81,0,0,0,5.56,8.95c7.5,3.63,46.67,23.46,82.86,53.12A21.28,21.28,0,0,1,333,342.22v40.54a7.34,7.34,0,0,0,14.67,0V342.22a35.76,35.76,0,0,0-13.14-27.81c-34.26-28.13-71.17-47.72-83.1-53.68V210.27a34,34,0,0,0,11.93-25.79V125.23a60.65,60.65,0,0,0-60.62-60.62H190a60.65,60.65,0,0,0-60.62,60.62V184.4a33.62,33.62,0,0,0,11.93,25.79v50.62c-11.93,6-48.77,25.47-83.1,53.68A36,36,0,0,0,45.08,342.3v40.54A7.08,7.08,0,0,0,52.25,390.18Z" transform="translate(-45.07 -64.62)"/><path class="cls-3" d="M215.8,272.82a7.36,7.36,0,0,0-7.34,7.34,12.17,12.17,0,0,1-4,9.11,6,6,0,0,0-1.37,1.13,11.94,11.94,0,0,1-6.93,2.1,12.33,12.33,0,0,1-12.33-12.33,7.34,7.34,0,0,0-14.67,0,27.15,27.15,0,0,0,6.13,17.09l-6,137.35a7.33,7.33,0,0,0,2.42,5.72l18.78,16.93a7.08,7.08,0,0,0,4.92,1.85,7.47,7.47,0,0,0,4.92-1.85L219.59,440a7.33,7.33,0,0,0,2.42-5.72l-6.13-135.74a26.82,26.82,0,0,0,7.25-18.38A7.31,7.31,0,0,0,215.8,272.82ZM195.57,442,184.2,431.78l5.4-125.58a25,25,0,0,0,6.53.81,22.91,22.91,0,0,0,5.32-.56l5.64,125Z" transform="translate(-45.07 -64.62)"/></svg>