<svg id="Layer_1" data-name="Layer 1" xmlns="http://www.w3.org/2000/svg" viewBox="0 0 287.43 374.73"><defs><style>.cls-1{fill:#d9d9d9;}.cls-2{fill:#fff;stroke:#000;stroke-miterlimit:10;}.cls-3{fill:#c4c4c4;}</style></defs><title>icon_manager</title><polygon class="cls-1" points="281.66 309.26 4.91 309.26 9.9 246.39 94.44 187.02 87.95 66.3 102.52 14.62 181.78 11.28 201.3 71.61 189.62 185.59 275.87 245.44 281.66 309.26"/><polyline id="_Tracé_" data-name=" Tracé " class="cls-2" points="155.12 219.13 161.09 351.44 142.95 367.83 125.11 351.67 130.85 219.13"/><path class="cls-3" d="M58.06,322.93a7,7,0,0,0,7-7V277.45a20.21,20.21,0,0,1,7.35-15.69c34.38-28.25,71.59-47,78.71-50.46a9.32,9.32,0,0,0,5.28-8.5V148.59a6.85,6.85,0,0,0-3.06-5.7,18.46,18.46,0,0,1-8.19-15.31V71.26a43.75,43.75,0,0,1,43.69-43.69h12.1a43.75,43.75,0,0,1,43.69,43.69v56.2a18.46,18.46,0,0,1-8.19,15.31,7,7,0,0,0-3.06,5.7v54.21a9.32,9.32,0,0,0,5.28,8.5c7.12,3.45,44.33,22.28,78.71,50.46a20.21,20.21,0,0,1,7.38,15.73v38.51a7,7,0,0,0,13.93,0V277.37A34,34,0,0,0,326.19,251c-32.54-26.72-67.6-45.33-78.93-51V152a32.3,32.3,0,0,0,11.33-24.5V71.26A57.61,57.61,0,0,0,201,13.68h-12.1a57.61,57.61,0,0,0-57.58,57.58v56.2A31.93,31.93,0,0,0,142.66,152V200c-11.33,5.7-46.33,24.19-78.93,51a34.2,34.2,0,0,0-12.47,26.42V316a6.73,6.73,0,0,0,6.47,7Z" transform="translate(-51.25 -13.68)"/><path class="cls-3" d="M213.41,211.45a7,7,0,0,0-7,7,11.56,11.56,0,0,1-3.8,8.65,5.7,5.7,0,0,0-1.3,1.07,11.34,11.34,0,0,1-6.58,2A11.71,11.71,0,0,1,183,218.43a7,7,0,0,0-13.93,0,25.79,25.79,0,0,0,5.82,16.23l-5.7,130.46a7,7,0,0,0,2.3,5.43l17.84,16.08A6.73,6.73,0,0,0,194,388.4a7.1,7.1,0,0,0,4.67-1.76L217,370.25a7,7,0,0,0,2.3-5.43l-5.82-128.94a25.48,25.48,0,0,0,6.89-17.46,6.94,6.94,0,0,0-6.92-7ZM194.2,372.15l-10.8-9.71,5.13-119.28a23.75,23.75,0,0,0,6.2.77,21.76,21.76,0,0,0,5.05-.53l5.36,118.73Z" transform="translate(-51.25 -13.68)"/></svg>