<svg id="Calque_1" data-name="Calque 1" xmlns="http://www.w3.org/2000/svg" viewBox="0 0 50 50"><defs><style>.cls-1{fill:#213f5a;}.cls-2{fill:#fff;}.cls-2,.cls-5{stroke:#d9d9d8;stroke-miterlimit:10;}.cls-3{fill:#5b9dd2;}.cls-4,.cls-5{fill:#d9d9d8;}.cls-6{fill:#599cd1;}</style></defs><title>0.icons_BECLM</title><circle class="cls-1" cx="25" cy="25.46" r="25"/><rect class="cls-2" x="8.75" y="11.86" width="31.98" height="21.93"/><rect class="cls-3" x="11.2" y="13.82" width="20.72" height="3.3"/><path class="cls-3" d="M10.79,13.37v4.28H32.25V13.37Zm20.72,3.3h-20V14.44h20Z"/><rect class="cls-1" x="20.42" y="19.88" width="18.68" height="0.8"/><rect class="cls-1" x="20.42" y="22.2" width="18.68" height="0.8"/><rect class="cls-1" x="20.42" y="24.51" width="18.68" height="0.8"/><rect class="cls-1" x="20.42" y="26.65" width="18.68" height="0.8"/><rect class="cls-4" x="40" y="11.06" width="1.14" height="23.53"/><rect class="cls-4" x="7.94" y="11.06" width="1.14" height="23.35"/><rect class="cls-5" x="19.85" y="34.77" width="9.38" height="2.94"/><ellipse class="cls-5" cx="24.42" cy="38.15" rx="11.67" ry="1.25"/><rect class="cls-5" x="8.34" y="11.41" width="32.31" height="0.45"/><rect class="cls-5" x="8.34" y="33.79" width="32.31" height="0.45"/><rect class="cls-6" x="11.53" y="29.33" width="16.23" height="3.21"/><rect class="cls-6" x="11.04" y="13.91" width="16.23" height="3.21"/><rect class="cls-6" x="11.2" y="19.52" width="8.16" height="7.67"/></svg>