<svg id="Layer_1" data-name="Layer 1" xmlns="http://www.w3.org/2000/svg" viewBox="0 0 400 400"><defs><style>.cls-1{fill:#d9d9d9;}.cls-2{fill:#fff;stroke:#000;stroke-miterlimit:10;}.cls-3{fill:#c4c4c4;}.cls-4{fill:#b5b4b4;}</style></defs><title>Plan de travail 1 copie 5</title><polygon class="cls-1" points="319.43 308.2 76.31 308.2 80.7 252.97 154.96 200.82 149.26 94.77 162.06 49.38 231.69 46.44 248.83 99.44 238.57 199.56 314.34 252.13 319.43 308.2"/><polyline id="_Tracé_" data-name=" Tracé " class="cls-2" points="208.27 234.62 213.51 350.84 197.58 365.24 181.91 351.05 186.95 234.62"/><path class="cls-3" d="M78,308.19A6.15,6.15,0,0,0,84.13,302v-33.8a17.75,17.75,0,0,1,6.46-13.78c30.2-24.82,62.89-41.29,69.14-44.33a8.19,8.19,0,0,0,4.64-7.47V155a6,6,0,0,0-2.69-5,16.22,16.22,0,0,1-7.19-13.45V87.11a38.43,38.43,0,0,1,38.38-38.38H203.5a38.43,38.43,0,0,1,38.38,38.38v49.37a16.22,16.22,0,0,1-7.19,13.45,6.15,6.15,0,0,0-2.69,5v47.62a8.19,8.19,0,0,0,4.64,7.47c6.25,3,38.94,19.57,69.14,44.33a17.75,17.75,0,0,1,6.48,13.82V302a6.15,6.15,0,0,0,12.24,0V268.17a29.87,29.87,0,0,0-11-23.16c-28.58-23.47-59.38-39.82-69.34-44.8V158a28.37,28.37,0,0,0,10-21.52V87.11a50.61,50.61,0,0,0-50.59-50.58H192.92a50.61,50.61,0,0,0-50.58,50.58v49.37a28,28,0,0,0,10,21.56v42.17c-10,5-40.7,21.25-69.34,44.8a30,30,0,0,0-11,23.21v33.89a5.91,5.91,0,0,0,5.67,6.15h0Z"/><path class="cls-3" d="M214.45,215.85A6.15,6.15,0,0,0,208.3,222a10.15,10.15,0,0,1-3.34,7.6,5,5,0,0,0-1.14.94A10,10,0,0,1,198,232.3,10.29,10.29,0,0,1,187.74,222s0,0,0,0a6.15,6.15,0,0,0-12.24,0,22.66,22.66,0,0,0,5.11,14.26l-5,114.6a6.15,6.15,0,0,0,2,4.77l15.67,14.13a5.91,5.91,0,0,0,4.1,1.55,6.24,6.24,0,0,0,4.1-1.55l16.1-14.4a6.15,6.15,0,0,0,2-4.77l-5.11-113.27A22.38,22.38,0,0,0,220.57,222a6.1,6.1,0,0,0-6-6.15h0ZM197.58,357l-9.49-8.53,4.51-104.78a20.86,20.86,0,0,0,5.45.68,19.12,19.12,0,0,0,4.44-.47l4.71,104.3Z"/><path class="cls-4" d="M205.1,35.44H192.29c-35.22,0-63.87,31-63.87,69.14v37.33a3.73,3.73,0,0,0,3.58,3.87h5.38v2.73a3.73,3.73,0,0,0,3.58,3.87h6.49c6.42,0,11.65-5.66,11.65-12.61V109.51c0-6.95-5.23-12.61-11.65-12.61h-6.49a3.73,3.73,0,0,0-3.58,3.87v2.73h-1.76c.54-33.38,25.75-60.31,56.69-60.31h12.82c30.94,0,56.15,27,56.69,60.31H260v-2.73a3.73,3.73,0,0,0-3.54-3.92h-6.55c-6.42,0-11.65,5.66-11.65,12.61v30.28c0,6.95,5.23,12.61,11.65,12.61h6.49a3.43,3.43,0,0,0,2.54-1.14v8.36c0,11.22-8.43,20.34-18.79,20.34H218.91a9.66,9.66,0,0,0-8.87-6.49h-9.66c-5.27,0-9.58,4.65-9.58,10.37s4.3,10.37,9.58,10.37H210a9.66,9.66,0,0,0,8.87-6.49h21.28c14.31,0,25.95-12.6,25.95-28.11V145.71a3.81,3.81,0,0,0,2.84-3.79V104.59C269,66.46,240.31,35.44,205.1,35.44Z"/></svg>