<svg id="Capa_1" data-name="Capa 1" xmlns="http://www.w3.org/2000/svg" viewBox="0 0 361.3 270.06"><defs><style>.cls-1{fill:#c4c4c4;}.cls-2{fill:#d9d9d9;}.cls-3{fill:#fff;}</style></defs><title>icon_backoffice</title><path class="cls-1" d="M289,155.11v-35a13.69,13.69,0,0,0-13.67-13.67H124.67A13.69,13.69,0,0,0,111,120.15v35a13.59,13.59,0,0,0,5.27,10.7A13.6,13.6,0,0,0,111,176.52v35a13.59,13.59,0,0,0,5.27,10.7A13.6,13.6,0,0,0,111,232.89v35a13.69,13.69,0,0,0,13.67,13.67H275.33A13.69,13.69,0,0,0,289,267.85v-35a13.59,13.59,0,0,0-5.27-10.7,13.59,13.59,0,0,0,5.27-10.7v-35a13.59,13.59,0,0,0-5.27-10.7A13.59,13.59,0,0,0,289,155.11Zm-5.93,77.77v35a7.75,7.75,0,0,1-7.74,7.74H124.67a7.74,7.74,0,0,1-7.74-7.73v-35a7.75,7.75,0,0,1,7.74-7.74H275.33A7.75,7.75,0,0,1,283.07,232.89Zm0-56.37v35a7.75,7.75,0,0,1-7.74,7.74H124.67a7.74,7.74,0,0,1-7.74-7.73v-35a7.75,7.75,0,0,1,7.74-7.74H275.33A7.75,7.75,0,0,1,283.07,176.52Zm-158.4-13.67a7.75,7.75,0,0,1-7.74-7.74v-35a7.75,7.75,0,0,1,7.74-7.74H275.33a7.75,7.75,0,0,1,7.74,7.74v35a7.75,7.75,0,0,1-7.74,7.74H124.67Z" transform="translate(-111 -106.48)"/><path class="cls-2" d="M142.15,124.28a13.35,13.35,0,1,0,13.35,13.35A13.37,13.37,0,0,0,142.15,124.28Zm0,20.77a7.42,7.42,0,1,1,7.42-7.42A7.43,7.43,0,0,1,142.15,145.05Z" transform="translate(-111 -106.48)"/><circle class="cls-2" cx="148.33" cy="26.7" r="2.97"/><circle class="cls-2" cx="136.47" cy="26.7" r="2.97"/><circle class="cls-2" cx="154.27" cy="35.6" r="2.97"/><circle class="cls-2" cx="142.4" cy="35.6" r="2.97"/><circle class="cls-2" cx="124.6" cy="26.7" r="2.97"/><circle class="cls-2" cx="130.53" cy="35.6" r="2.97"/><circle class="cls-2" cx="112.73" cy="26.7" r="2.97"/><circle class="cls-2" cx="118.67" cy="35.6" r="2.97"/><circle class="cls-2" cx="100.87" cy="26.7" r="2.97"/><circle class="cls-2" cx="106.8" cy="35.6" r="2.97"/><path class="cls-2" d="M142.15,207.35A13.35,13.35,0,1,0,128.8,194,13.37,13.37,0,0,0,142.15,207.35Zm0-20.77a7.42,7.42,0,1,1-7.42,7.42A7.43,7.43,0,0,1,142.15,186.58Z" transform="translate(-111 -106.48)"/><circle class="cls-2" cx="148.33" cy="83.07" r="2.97"/><circle class="cls-2" cx="136.47" cy="83.07" r="2.97"/><circle class="cls-2" cx="154.27" cy="91.97" r="2.97"/><circle class="cls-2" cx="142.4" cy="91.97" r="2.97"/><circle class="cls-2" cx="124.6" cy="83.07" r="2.97"/><circle class="cls-2" cx="130.53" cy="91.97" r="2.97"/><circle class="cls-2" cx="112.73" cy="83.07" r="2.97"/><circle class="cls-2" cx="118.67" cy="91.97" r="2.97"/><circle class="cls-2" cx="100.87" cy="83.07" r="2.97"/><circle class="cls-2" cx="106.8" cy="91.97" r="2.97"/><path class="cls-2" d="M142.15,263.72a13.35,13.35,0,1,0-13.35-13.35A13.37,13.37,0,0,0,142.15,263.72Zm0-20.77a7.42,7.42,0,1,1-7.42,7.42A7.43,7.43,0,0,1,142.15,243Z" transform="translate(-111 -106.48)"/><circle class="cls-2" cx="148.33" cy="139.43" r="2.97"/><circle class="cls-2" cx="136.47" cy="139.43" r="2.97"/><circle class="cls-2" cx="154.27" cy="148.33" r="2.97"/><circle class="cls-2" cx="142.4" cy="148.33" r="2.97"/><circle class="cls-2" cx="124.6" cy="139.43" r="2.97"/><circle class="cls-2" cx="130.53" cy="148.33" r="2.97"/><circle class="cls-2" cx="112.73" cy="139.43" r="2.97"/><circle class="cls-2" cx="118.67" cy="148.33" r="2.97"/><circle class="cls-2" cx="100.87" cy="139.43" r="2.97"/><circle class="cls-2" cx="106.8" cy="148.33" r="2.97"/><rect class="cls-3" x="115.43" y="70.97" width="245.87" height="168.4" rx="12" ry="12"/><path class="cls-1" d="M452.77,183.24v-.34H245.85v.34a13.69,13.69,0,0,0-12.48,12.25v136a13.35,13.35,0,0,0,1.82,6.8,12.68,12.68,0,0,0,11.8,6.93h74.68v18.84H307.48a6.25,6.25,0,0,0,0,12.49h83.65a6.25,6.25,0,1,0,0-12.49H376.95V345.21h74.68a12.64,12.64,0,0,0,11.8-6.93,13.71,13.71,0,0,0,1.93-6.8v-136A14,14,0,0,0,452.77,183.24Zm0,13.39V331.48c0,.8-.34,1.14-1.14,1.14H247c-.79,0-1.14-.34-1.14-1.14v-136H452.77v1.14Z" transform="translate(-111 -106.48)"/></svg>