<svg id="Layer_1" data-name="Layer 1" xmlns="http://www.w3.org/2000/svg" viewBox="0 0 400 400"><defs><style>.cls-1{fill:#d9d9d9;}.cls-2{fill:#f7f7f8;}.cls-3{fill:#999;}.cls-4{fill:#fff;}</style></defs><title>Plan de travail 1 copie 4</title><path class="cls-1" d="M115.14,77.26h143a14.08,14.08,0,0,1,14,14V271.4a17,17,0,0,1-17,17h-140a14,14,0,0,1-14-14V91.29A14,14,0,0,1,115.14,77.26Z"/><rect class="cls-2" x="110.15" y="85.49" width="152.93" height="194.72"/><circle class="cls-3" cx="286.06" cy="242.9" r="48.18"/><path class="cls-1" d="M122.63,101.5h19.76v22.77H122.63Zm0,122.22h19.76V246.5H122.63Zm0-40.77h19.76v22.77H122.63Zm0-40.84h19.76v22.77H122.63Z"/><path class="cls-3" d="M151.72,109.8h67.43v5.95H151.72V109.8Zm0,122.3h67.43V238H151.72V232.1Zm0-40.77h67.43v5.95H151.72v-5.95Zm0-40.84h67.43v5.95H151.72v-5.95Z"/><circle class="cls-1" cx="286.06" cy="242.9" r="40.69"/><path class="cls-4" d="M251.69,244.22l12.93-1.47,14,12.49a50.11,50.11,0,0,1,38.49-35c-15.5,8.37-25,25-31.51,47.82-1.54,5.8-5.8,4.26-7.12,2.57-2.2-2.79-16.67-19.39-26.88-26.52l.07.07Z"/><path class="cls-3" d="M173.1,65.36h2.2a6.69,6.69,0,0,1-1-3.38V54.71c0-4,3.6-7.27,8.08-7.27h8.37c4.48,0,8.08,3.31,8.08,7.27V62a7.13,7.13,0,0,1-1,3.38h2.2c14.91,0,27,11,27,24.31H146c0-13.44,12.19-24.31,27-24.31Z"/><path class="cls-3" d="M186.68,47.44h4.26c4.48,0,8.08,3.31,8.08,7.27V62a7.13,7.13,0,0,1-1,3.38h2.2c14.91,0,27,11,27,24.31H186.76l-.07-42.24Z"/></svg>