<svg id="Layer_1" data-name="Layer 1" xmlns="http://www.w3.org/2000/svg" viewBox="0 0 367.49 335.85"><defs><style>.cls-1{fill:#d9d9d9;}.cls-2{fill:#fff;stroke:#000;stroke-miterlimit:10;}.cls-3{fill:#c4c4c4;}.cls-4{fill:#b5b4b4;}</style></defs><title>icon_conseiller_prospect</title><path class="cls-1" d="M167,302.63a5.31,5.31,0,0,0,5.26-5.26V268.3a15.26,15.26,0,0,1,5.54-11.85c25.91-21.32,54-35.48,59.38-38.05a7.08,7.08,0,0,0,4-6.4V171.06a5,5,0,0,0-2.3-4.31,14.12,14.12,0,0,1-6.22-11.57V112.72a33,33,0,0,1,33-33h9.08a33,33,0,0,1,33,33v42.45a13.88,13.88,0,0,1-6.22,11.57,5.18,5.18,0,0,0-2.3,4.31V212a7.08,7.08,0,0,0,4,6.4c5.36,2.58,33.47,16.83,59.38,38.05a15.26,15.26,0,0,1,5.54,11.85v29.07a5.26,5.26,0,0,0,10.52,0V268.3a25.85,25.85,0,0,0-9.47-20c-24.58-20.18-51.06-34.23-59.59-38.53V173.64a24.28,24.28,0,0,0,8.51-18.45V112.72a43.55,43.55,0,0,0-43.5-43.51h-9.07a43.55,43.55,0,0,0-43.51,43.51v42.45a24.13,24.13,0,0,0,8.51,18.45V210c-8.51,4.31-35,18.27-59.59,38.53a26,26,0,0,0-9.44,20v29.07A5.51,5.51,0,0,0,167,302.63Z" transform="translate(-11.2 -29.32)"/><polygon class="cls-1" points="247.42 272.76 4.31 272.76 8.69 217.53 82.96 165.38 77.26 59.33 90.06 13.93 159.68 11 176.83 63.99 166.57 164.12 242.34 216.69 247.42 272.76"/><polyline id="_Tracé_" data-name=" Tracé " class="cls-2" points="136.26 199.17 141.51 315.4 125.57 329.8 109.9 315.6 114.94 199.17"/><path class="cls-3" d="M17.18,302.08a6.15,6.15,0,0,0,6.15-6.15v-33.8a17.75,17.75,0,0,1,6.46-13.78C60,223.52,92.68,207.05,98.93,204a8.19,8.19,0,0,0,4.64-7.47V148.93a6,6,0,0,0-2.69-5,16.22,16.22,0,0,1-7.19-13.45V81a38.43,38.43,0,0,1,38.38-38.38H142.7A38.43,38.43,0,0,1,181.08,81v49.37a16.22,16.22,0,0,1-7.19,13.45,6.15,6.15,0,0,0-2.69,5v47.62a8.19,8.19,0,0,0,4.64,7.47c6.25,3,38.94,19.57,69.14,44.33a17.75,17.75,0,0,1,6.48,13.82v33.83a6.15,6.15,0,0,0,12.24,0V262.05a29.87,29.87,0,0,0-11-23.16c-28.58-23.47-59.38-39.82-69.34-44.8V151.92a28.37,28.37,0,0,0,10-21.52V81a50.61,50.61,0,0,0-50.59-50.58H132.12A50.61,50.61,0,0,0,81.54,81v49.37a28,28,0,0,0,10,21.56v42.17c-10,5-40.7,21.25-69.34,44.8a30,30,0,0,0-11,23.21V296a5.91,5.91,0,0,0,5.67,6.15h0Z" transform="translate(-11.2 -29.32)"/><path class="cls-3" d="M153.65,209.73a6.15,6.15,0,0,0-6.15,6.15,10.15,10.15,0,0,1-3.34,7.6,5,5,0,0,0-1.14.94,10,10,0,0,1-5.78,1.76,10.29,10.29,0,0,1-10.3-10.27s0,0,0,0a6.15,6.15,0,0,0-12.24,0,22.66,22.66,0,0,0,5.11,14.26l-5,114.6a6.15,6.15,0,0,0,2,4.77l15.67,14.13a5.91,5.91,0,0,0,4.1,1.55,6.24,6.24,0,0,0,4.1-1.55l16.1-14.4a6.15,6.15,0,0,0,2-4.77l-5.11-113.27a22.38,22.38,0,0,0,6.05-15.34,6.1,6.1,0,0,0-6-6.15h0ZM136.78,350.9l-9.49-8.53,4.51-104.78a20.86,20.86,0,0,0,5.45.68,19.12,19.12,0,0,0,4.44-.47l4.71,104.3Z" transform="translate(-11.2 -29.32)"/><path class="cls-4" d="M144.3,29.32H131.49c-35.22,0-63.87,31-63.87,69.14V135.8a3.73,3.73,0,0,0,3.58,3.87h5.38v2.73a3.73,3.73,0,0,0,3.58,3.87h6.49c6.42,0,11.65-5.66,11.65-12.61V103.4c0-6.95-5.23-12.61-11.65-12.61H80.14a3.73,3.73,0,0,0-3.58,3.87V97.4H74.81C75.35,64,100.56,37.08,131.5,37.08h12.82c30.94,0,56.15,27,56.69,60.31h-1.76V94.66a3.73,3.73,0,0,0-3.54-3.92h-6.55c-6.42,0-11.65,5.66-11.65,12.61v30.28c0,6.95,5.23,12.61,11.65,12.61h6.49a3.43,3.43,0,0,0,2.54-1.14v8.36c0,11.22-8.43,20.34-18.79,20.34H158.1a9.66,9.66,0,0,0-8.87-6.49h-9.66c-5.27,0-9.58,4.65-9.58,10.37s4.3,10.37,9.58,10.37h9.66a9.66,9.66,0,0,0,8.87-6.49h21.28c14.31,0,25.95-12.6,25.95-28.11V139.59a3.81,3.81,0,0,0,2.84-3.79V98.47C208.17,60.34,179.51,29.32,144.3,29.32Z" transform="translate(-11.2 -29.32)"/></svg>