<svg id="Layer_1" data-name="Layer 1" xmlns="http://www.w3.org/2000/svg" viewBox="0 0 317.49 331.67"><defs><style>.cls-1{fill:#d9d9d9;}.cls-2{fill:#f7f7f8;}.cls-3{fill:#999;}.cls-4{fill:#fff;}</style></defs><title>conformité</title><path class="cls-1" d="M116.2,108.06H310.88A19.14,19.14,0,0,1,330,127.19V372.47a23.22,23.22,0,0,1-23.24,23.24H116.2a19.14,19.14,0,0,1-19.12-19.12V127.19A19.14,19.14,0,0,1,116.2,108.06Z" transform="translate(-97.08 -67.51)"/><rect class="cls-2" x="12.36" y="51.76" width="208.19" height="265.07"/><circle class="cls-3" cx="251.88" cy="266.06" r="65.61"/><path class="cls-1" d="M126.42,141h26.87v31H126.42Zm0,166.49h26.87v31H126.42Zm0-55.55h26.87v31H126.42Zm0-55.55h26.87v31H126.42Z" transform="translate(-97.08 -67.51)"/><path class="cls-3" d="M166,152.41H257.8v8.08H166v-8.08Zm0,166.49H257.8V327H166V318.9Zm0-55.55H257.8v8.08H166v-8.08Zm0-55.55H257.8v8.08H166v-8.08Z" transform="translate(-97.08 -67.51)"/><circle class="cls-1" cx="251.88" cy="266.06" r="55.39"/><path class="cls-4" d="M302.14,335.38l17.64-2,19.12,17s9.23-38.57,52.42-47.64c-21.1,11.37-34.12,34-42.86,65.11-2.14,7.91-7.91,5.77-9.73,3.46-3-3.79-22.75-26.37-36.6-36.1v.17Z" transform="translate(-97.08 -67.51)"/><path class="cls-3" d="M195.16,91.91h3a8.86,8.86,0,0,1-1.32-4.61V77.4c0-5.44,4.95-9.89,11-9.89h11.37c6.1,0,11,4.45,11,9.89v9.89A9.31,9.31,0,0,1,229,91.91h3c20.28,0,36.76,15,36.76,33.13H158.23c0-18.3,16.65-33.13,36.76-33.13h.16Z" transform="translate(-97.08 -67.51)"/><path class="cls-3" d="M213.62,67.51h5.77c6.1,0,11,4.45,11,9.89v9.89a9.31,9.31,0,0,1-1.32,4.61h3c20.28,0,36.76,15,36.76,33.13H213.62V67.51Z" transform="translate(-97.08 -67.51)"/></svg>