<svg id="Layer_1" data-name="Layer 1" xmlns="http://www.w3.org/2000/svg" viewBox="0 0 400 400"><defs><style>.cls-1{fill:#d9d9d9;}.cls-2{fill:#fff;stroke:#000;stroke-miterlimit:10;}.cls-3{fill:#c4c4c4;}</style></defs><title>Plan de travail 1 copie 2</title><polygon class="cls-1" points="321.18 305.75 78.06 305.75 82.45 250.52 156.71 198.37 151.01 92.32 163.81 46.92 233.44 43.98 250.58 96.98 240.32 197.11 316.09 249.68 321.18 305.75"/><polyline id="_Tracé_" data-name=" Tracé " class="cls-2" points="210.02 232.16 215.26 348.39 199.33 362.79 183.65 348.59 188.7 232.16"/><path class="cls-3" d="M79.73,305.74a6.15,6.15,0,0,0,6.15-6.15v-33.8A17.75,17.75,0,0,1,92.34,252c30.2-24.82,62.89-41.29,69.14-44.33a8.19,8.19,0,0,0,4.64-7.47V152.59a6,6,0,0,0-2.69-5,16.22,16.22,0,0,1-7.19-13.45V84.66a38.43,38.43,0,0,1,38.38-38.38h10.63a38.43,38.43,0,0,1,38.38,38.38V134a16.22,16.22,0,0,1-7.19,13.45,6.15,6.15,0,0,0-2.69,5V200.1a8.19,8.19,0,0,0,4.64,7.47c6.25,3,38.94,19.57,69.14,44.33A17.75,17.75,0,0,1,314,265.72v33.83a6.15,6.15,0,0,0,12.24,0V265.72a29.87,29.87,0,0,0-11-23.16c-28.58-23.47-59.38-39.82-69.34-44.8V155.58a28.37,28.37,0,0,0,10-21.52V84.66A50.61,50.61,0,0,0,205.3,34.08H194.67a50.61,50.61,0,0,0-50.58,50.58V134a28,28,0,0,0,10,21.56v42.17c-10,5-40.7,21.25-69.34,44.8a30,30,0,0,0-11,23.21v33.89a5.91,5.91,0,0,0,5.67,6.15h0Z"/><path class="cls-3" d="M216.2,213.4a6.15,6.15,0,0,0-6.15,6.15,10.15,10.15,0,0,1-3.34,7.6,5,5,0,0,0-1.14.94,10,10,0,0,1-5.78,1.76,10.29,10.29,0,0,1-10.3-10.27s0,0,0,0a6.15,6.15,0,0,0-12.24,0,22.66,22.66,0,0,0,5.11,14.26l-5,114.6a6.15,6.15,0,0,0,2,4.77L195,367.28a5.91,5.91,0,0,0,4.1,1.55,6.24,6.24,0,0,0,4.1-1.55l16.1-14.4a6.15,6.15,0,0,0,2-4.77l-5.11-113.27a22.38,22.38,0,0,0,6.05-15.34,6.1,6.1,0,0,0-6-6.15h0ZM199.33,354.56,189.84,346l4.51-104.78a20.86,20.86,0,0,0,5.45.68,19.12,19.12,0,0,0,4.44-.47l4.71,104.3Z"/></svg>