<svg id="Layer_1" data-name="Layer 1" xmlns="http://www.w3.org/2000/svg" viewBox="0 0 302.46 325.1"><defs><style>.cls-1{fill:#d9d9d9;}</style></defs><title>conseiller</title><path class="cls-1" d="M101.06,407.25a7.39,7.39,0,0,0,7.33-7.33V359.44a21.25,21.25,0,0,1,7.72-16.51c36.09-29.7,75.25-49.41,82.71-53a9.86,9.86,0,0,0,5.59-8.92V224a7,7,0,0,0-3.2-6,19.67,19.67,0,0,1-8.66-16.12V142.75A46,46,0,0,1,238.51,96.8h12.65a46,46,0,0,1,45.95,45.95v59.13A19.33,19.33,0,0,1,288.45,218a7.22,7.22,0,0,0-3.2,6v57a9.86,9.86,0,0,0,5.59,8.92c7.46,3.6,46.61,23.44,82.71,53a21.25,21.25,0,0,1,7.72,16.51v40.49a7.33,7.33,0,0,0,14.65,0V359.44a36,36,0,0,0-13.19-27.84c-34.23-28.1-71.12-47.68-83-53.67V227.59a33.81,33.81,0,0,0,11.85-25.7V142.75A60.65,60.65,0,0,0,251,82.15H238.37a60.65,60.65,0,0,0-60.6,60.6v59.13a33.61,33.61,0,0,0,11.85,25.7V278.2c-11.85,6-48.75,25.44-83,53.67A36.19,36.19,0,0,0,93.47,359.7v40.49A7.68,7.68,0,0,0,101.06,407.25Z" transform="translate(-93.47 -82.15)"/></svg>