<svg id="Layer_1" data-name="Layer 1" xmlns="http://www.w3.org/2000/svg" viewBox="0 0 287.43 382.32"><defs><style>.cls-1{fill:#d9d9d9;}.cls-2{fill:#fff;stroke:#000;stroke-miterlimit:10;}.cls-3{fill:#c4c4c4;}.cls-4{fill:#b5b4b4;}</style></defs><title>icon_advisor</title><polygon class="cls-1" points="281.66 316.86 4.91 316.86 9.9 253.99 94.44 194.62 87.95 73.9 102.52 22.22 181.78 18.88 201.3 79.21 189.62 193.19 275.87 253.03 281.66 316.86"/><polyline id="_Tracé_" data-name=" Tracé " class="cls-2" points="155.12 226.73 161.09 359.04 142.95 375.43 125.11 359.27 130.85 226.73"/><path class="cls-3" d="M58.06,322.93a7,7,0,0,0,7-7V277.45a20.21,20.21,0,0,1,7.35-15.69c34.38-28.25,71.59-47,78.71-50.46a9.32,9.32,0,0,0,5.28-8.5V148.59a6.85,6.85,0,0,0-3.06-5.7,18.46,18.46,0,0,1-8.19-15.31V71.26a43.75,43.75,0,0,1,43.69-43.69h12.1a43.75,43.75,0,0,1,43.69,43.69v56.2a18.46,18.46,0,0,1-8.19,15.31,7,7,0,0,0-3.06,5.7v54.21a9.32,9.32,0,0,0,5.28,8.5c7.12,3.45,44.33,22.28,78.71,50.46a20.21,20.21,0,0,1,7.38,15.73v38.51a7,7,0,0,0,13.93,0V277.37A34,34,0,0,0,326.19,251c-32.54-26.72-67.6-45.33-78.93-51V152a32.3,32.3,0,0,0,11.33-24.5V71.26A57.61,57.61,0,0,0,201,13.68h-12.1a57.61,57.61,0,0,0-57.58,57.58v56.2A31.93,31.93,0,0,0,142.66,152V200c-11.33,5.7-46.33,24.19-78.93,51a34.2,34.2,0,0,0-12.47,26.42V316a6.73,6.73,0,0,0,6.47,7Z" transform="translate(-51.25 -6.08)"/><path class="cls-3" d="M213.41,211.45a7,7,0,0,0-7,7,11.56,11.56,0,0,1-3.8,8.65,5.7,5.7,0,0,0-1.3,1.07,11.34,11.34,0,0,1-6.58,2A11.71,11.71,0,0,1,183,218.43a7,7,0,0,0-13.93,0,25.79,25.79,0,0,0,5.82,16.23l-5.7,130.46a7,7,0,0,0,2.3,5.43l17.84,16.08A6.73,6.73,0,0,0,194,388.4a7.1,7.1,0,0,0,4.67-1.76L217,370.25a7,7,0,0,0,2.3-5.43l-5.82-128.94a25.48,25.48,0,0,0,6.89-17.46,6.94,6.94,0,0,0-6.92-7ZM194.2,372.15l-10.8-9.71,5.13-119.28a23.75,23.75,0,0,0,6.2.77,21.76,21.76,0,0,0,5.05-.53l5.36,118.73Z" transform="translate(-51.25 -6.08)"/><path class="cls-4" d="M202.76,6.08H188.18c-40.09,0-72.71,35.31-72.71,78.71v42.5a4.25,4.25,0,0,0,4.07,4.41h6.12v3.11a4.25,4.25,0,0,0,4.07,4.41h7.39c7.31,0,13.26-6.44,13.26-14.35V90.4c0-7.91-5.95-14.35-13.26-14.35h-7.39a4.25,4.25,0,0,0-4.07,4.41v3.11h-2c.61-38,29.31-68.66,64.53-68.66h14.59c35.22,0,63.92,30.69,64.53,68.66h-2V80.46A4.25,4.25,0,0,0,261.21,76h-7.39c-7.31,0-13.26,6.44-13.26,14.35v34.47c0,7.91,5.95,14.35,13.26,14.35h7.39a3.91,3.91,0,0,0,2.89-1.3v9.52c0,12.77-9.6,23.15-21.39,23.15H218.48a11,11,0,0,0-10.1-7.39h-11c-6,0-10.9,5.29-10.9,11.8s4.89,11.8,10.9,11.8h11a11,11,0,0,0,10.1-7.39H242.7c16.29,0,29.54-14.34,29.54-32V131.6a4.34,4.34,0,0,0,3.23-4.31V84.79C275.47,41.39,242.85,6.08,202.76,6.08Z" transform="translate(-51.25 -6.08)"/></svg>