<svg id="Layer_1" data-name="Layer 1" xmlns="http://www.w3.org/2000/svg" viewBox="0 0 400 400"><defs><style>.cls-1{fill:#d9d9d9;}.cls-2{fill:#fff;stroke:#000;stroke-miterlimit:10;}.cls-3{fill:#c4c4c4;}.cls-4{fill:#b5b4b4;}</style></defs><title>Plan de travail 1 copie 3</title><path class="cls-1" d="M182.7,303.65a4.84,4.84,0,0,0,4.8-4.8V272.35a13.91,13.91,0,0,1,5.05-10.81,295.74,295.74,0,0,1,54.16-34.7,6.46,6.46,0,0,0,3.66-5.84V183.66a4.58,4.58,0,0,0-2.1-3.93,12.88,12.88,0,0,1-5.67-10.55V130.46a30.12,30.12,0,0,1,30.09-30.09H281a30.12,30.12,0,0,1,30.09,30.09v38.72a12.66,12.66,0,0,1-5.67,10.55,4.73,4.73,0,0,0-2.1,3.93V221a6.46,6.46,0,0,0,3.66,5.84,301.89,301.89,0,0,1,54.16,34.7,13.91,13.91,0,0,1,5.05,10.81v26.51a4.8,4.8,0,0,0,9.59,0V272.35a23.57,23.57,0,0,0-8.64-18.23c-22.41-18.4-46.57-31.22-54.35-35.14V186a22.14,22.14,0,0,0,7.76-16.83V130.46a39.71,39.71,0,0,0-39.67-39.68H272.6a39.71,39.71,0,0,0-39.68,39.68v38.72A22,22,0,0,0,240.68,186v33.14c-7.76,3.93-31.92,16.66-54.35,35.14a23.7,23.7,0,0,0-8.61,18.22V299A5,5,0,0,0,182.7,303.65Z"/><polygon class="cls-1" points="263.68 304.83 20.56 304.83 24.95 249.61 99.21 197.45 93.51 91.41 106.31 46.01 175.94 43.07 193.08 96.07 182.82 196.2 258.59 248.76 263.68 304.83"/><polyline id="_Tracé_" data-name=" Tracé " class="cls-2" points="152.52 231.25 157.76 347.47 141.83 361.87 126.15 347.68 131.2 231.25"/><path class="cls-3" d="M22.23,304.83a6.15,6.15,0,0,0,6.15-6.15v-33.8a17.75,17.75,0,0,1,6.46-13.78C65,226.27,97.73,209.8,104,206.76a8.19,8.19,0,0,0,4.64-7.47V151.68a6,6,0,0,0-2.69-5,16.22,16.22,0,0,1-7.19-13.45V83.74a38.43,38.43,0,0,1,38.38-38.38h10.63a38.43,38.43,0,0,1,38.38,38.38v49.37a16.22,16.22,0,0,1-7.19,13.45,6.15,6.15,0,0,0-2.69,5v47.62a8.19,8.19,0,0,0,4.64,7.47c6.25,3,38.94,19.57,69.14,44.33a17.75,17.75,0,0,1,6.48,13.82v33.83a6.15,6.15,0,0,0,12.24,0V264.8a29.87,29.87,0,0,0-11-23.16c-28.58-23.47-59.38-39.82-69.34-44.8V154.67a28.37,28.37,0,0,0,10-21.52V83.74A50.61,50.61,0,0,0,147.8,33.16H137.17A50.61,50.61,0,0,0,86.59,83.74v49.37a28,28,0,0,0,10,21.56v42.17c-10,5-40.7,21.25-69.34,44.8a30,30,0,0,0-11,23.21v33.89a5.91,5.91,0,0,0,5.67,6.15h0Z"/><path class="cls-3" d="M158.7,212.48a6.15,6.15,0,0,0-6.15,6.15,10.15,10.15,0,0,1-3.34,7.6,5,5,0,0,0-1.14.94,10,10,0,0,1-5.78,1.76A10.29,10.29,0,0,1,132,218.66s0,0,0,0a6.15,6.15,0,0,0-12.24,0,22.66,22.66,0,0,0,5.11,14.26l-5,114.6a6.15,6.15,0,0,0,2,4.77l15.67,14.13a5.91,5.91,0,0,0,4.1,1.55,6.24,6.24,0,0,0,4.1-1.55l16.1-14.4a6.15,6.15,0,0,0,2-4.77l-5.11-113.27a22.38,22.38,0,0,0,6.05-15.34,6.1,6.1,0,0,0-6-6.15h0ZM141.83,353.65l-9.49-8.53,4.51-104.78a20.86,20.86,0,0,0,5.45.68,19.12,19.12,0,0,0,4.44-.47l4.71,104.3Z"/><path class="cls-4" d="M149.35,32.07H136.54c-35.22,0-63.87,31-63.87,69.14v37.33a3.73,3.73,0,0,0,3.58,3.87h5.38v2.73A3.73,3.73,0,0,0,85.19,149h6.49c6.42,0,11.65-5.66,11.65-12.61V106.15c0-6.95-5.23-12.61-11.65-12.61H85.19a3.73,3.73,0,0,0-3.58,3.87v2.73H79.86c.54-33.38,25.75-60.31,56.69-60.31h12.82c30.94,0,56.15,27,56.69,60.31h-1.76V97.41a3.73,3.73,0,0,0-3.54-3.92H194.2c-6.42,0-11.65,5.66-11.65,12.61v30.28c0,6.95,5.23,12.61,11.65,12.61h6.49a3.43,3.43,0,0,0,2.54-1.14v8.36c0,11.22-8.43,20.34-18.79,20.34H163.15a9.66,9.66,0,0,0-8.87-6.49h-9.66c-5.27,0-9.58,4.65-9.58,10.37s4.3,10.37,9.58,10.37h9.66a9.66,9.66,0,0,0,8.87-6.49h21.28c14.31,0,25.95-12.6,25.95-28.11V142.34a3.81,3.81,0,0,0,2.84-3.79V101.22C213.22,63.09,184.56,32.07,149.35,32.07Z"/></svg>