<svg id="Layer_1" data-name="Layer 1" xmlns="http://www.w3.org/2000/svg" viewBox="0 0 400 400"><defs><style>.cls-1{fill:#c4c4c4;}.cls-2{fill:#d9d9d9;}.cls-3{fill:#fff;}</style></defs><title>Plan de travail 1 copie</title><path class="cls-1" d="M222.41,99.9V62.17a14.76,14.76,0,0,0-14.73-14.73H45.3A14.76,14.76,0,0,0,30.56,62.22h0V99.94a14.65,14.65,0,0,0,5.68,11.53A14.66,14.66,0,0,0,30.56,123V160.7a14.65,14.65,0,0,0,5.68,11.53,14.66,14.66,0,0,0-5.68,11.5v37.72A14.76,14.76,0,0,0,45.3,236.19H207.68a14.76,14.76,0,0,0,14.73-14.78h0V183.69a14.65,14.65,0,0,0-5.68-11.53,14.65,14.65,0,0,0,5.68-11.53V122.9a14.65,14.65,0,0,0-5.68-11.53A14.65,14.65,0,0,0,222.41,99.9ZM216,183.72v37.72a8.35,8.35,0,0,1-8.34,8.34H45.3A8.34,8.34,0,0,1,37,221.45V183.73a8.35,8.35,0,0,1,8.34-8.34H207.68a8.35,8.35,0,0,1,8.34,8.34ZM216,123v37.72a8.35,8.35,0,0,1-8.34,8.34H45.3A8.34,8.34,0,0,1,37,160.7V123a8.35,8.35,0,0,1,8.34-8.34H207.68A8.35,8.35,0,0,1,216,123ZM45.3,108.23A8.35,8.35,0,0,1,37,99.89V62.16a8.35,8.35,0,0,1,8.34-8.34H207.68A8.35,8.35,0,0,1,216,62.16V99.89a8.35,8.35,0,0,1-8.34,8.34H45.3Z"/><path class="cls-2" d="M64.14,66.67A14.39,14.39,0,1,0,78.53,81.06,14.39,14.39,0,0,0,64.14,66.67Zm0,22.39a8,8,0,1,1,8-8h0A8,8,0,0,1,64.14,89.06Z"/><circle class="cls-2" cx="190.44" cy="76.26" r="3.2"/><circle class="cls-2" cx="177.65" cy="76.26" r="3.2"/><circle class="cls-2" cx="196.84" cy="85.85" r="3.2"/><circle class="cls-2" cx="184.04" cy="85.85" r="3.2"/><circle class="cls-2" cx="164.86" cy="76.26" r="3.2"/><circle class="cls-2" cx="171.25" cy="85.85" r="3.2"/><circle class="cls-2" cx="152.07" cy="76.26" r="3.2"/><circle class="cls-2" cx="158.47" cy="85.85" r="3.2"/><circle class="cls-2" cx="139.28" cy="76.26" r="3.2"/><circle class="cls-2" cx="145.67" cy="85.85" r="3.2"/><path class="cls-2" d="M64.14,156.2a14.39,14.39,0,1,0-14.39-14.39h0A14.41,14.41,0,0,0,64.14,156.2Zm0-22.39a8,8,0,1,1-8,8h0A8,8,0,0,1,64.14,133.82Z"/><circle class="cls-2" cx="190.44" cy="137.02" r="3.2"/><circle class="cls-2" cx="177.65" cy="137.02" r="3.2"/><circle class="cls-2" cx="196.84" cy="146.61" r="3.2"/><circle class="cls-2" cx="184.04" cy="146.61" r="3.2"/><circle class="cls-2" cx="164.86" cy="137.02" r="3.2"/><circle class="cls-2" cx="171.25" cy="146.61" r="3.2"/><circle class="cls-2" cx="152.07" cy="137.02" r="3.2"/><circle class="cls-2" cx="158.47" cy="146.61" r="3.2"/><circle class="cls-2" cx="139.28" cy="137.02" r="3.2"/><circle class="cls-2" cx="145.67" cy="146.61" r="3.2"/><path class="cls-2" d="M64.14,217a14.39,14.39,0,1,0-14.39-14.39A14.39,14.39,0,0,0,64.14,217Zm0-22.39a8,8,0,1,1-8,8h0a8,8,0,0,1,8-7.94Z"/><circle class="cls-2" cx="190.44" cy="197.76" r="3.2"/><circle class="cls-2" cx="177.65" cy="197.76" r="3.2"/><circle class="cls-2" cx="196.84" cy="207.36" r="3.2"/><circle class="cls-2" cx="184.04" cy="207.36" r="3.2"/><circle class="cls-2" cx="164.86" cy="197.76" r="3.2"/><circle class="cls-2" cx="171.25" cy="207.36" r="3.2"/><circle class="cls-2" cx="152.07" cy="197.76" r="3.2"/><circle class="cls-2" cx="158.47" cy="207.36" r="3.2"/><circle class="cls-2" cx="139.28" cy="197.76" r="3.2"/><circle class="cls-2" cx="145.67" cy="207.36" r="3.2"/><rect class="cls-3" x="106.51" y="85.87" width="265" height="181.5" rx="12.93" ry="12.93"/><path class="cls-1" d="M350.46,92.11v-.37h-223v.37A14.76,14.76,0,0,0,114,105.31V251.89a14.39,14.39,0,0,0,2,7.33,13.67,13.67,0,0,0,12.72,7.47h80.49V287H193.86a6.74,6.74,0,0,0,0,13.46H284a6.74,6.74,0,0,0,.54-13.46H268.74V266.68h80.49a13.62,13.62,0,0,0,12.72-7.47,14.78,14.78,0,0,0,2.08-7.33V105.3A15.09,15.09,0,0,0,350.46,92.11Zm0,14.43V251.88c0,.86-.37,1.23-1.23,1.23H128.68c-.85,0-1.23-.37-1.23-1.23V105.3h223v1.23Z"/></svg>