<svg id="Calque_1" data-name="Calque 1" xmlns="http://www.w3.org/2000/svg" viewBox="0 0 50 50"><defs><style>.cls-1{fill:#213f5a;}.cls-2{fill:#fff;}.cls-3{fill:#d9d9d8;}.cls-4{fill:#599cd1;}</style></defs><title>0.icons_BECLM</title><circle class="cls-1" cx="25" cy="25.2" r="24.74"/><rect class="cls-2" x="16.26" y="16.26" width="17.76" height="23.09"/><rect class="cls-2" x="33.59" y="16.26" width="6.61" height="16.97"/><polygon class="cls-2" points="35.37 34.58 35.61 34.52 39.84 34.39 35.12 39.05 35.37 34.58"/><rect class="cls-2" x="12.52" y="11.67" width="2.45" height="23.09"/><rect class="cls-2" x="12.52" y="11.67" width="23.95" height="3.37"/><rect class="cls-2" x="12.52" y="11.67" width="2.45" height="23.09"/><rect class="cls-1" x="18.46" y="25.94" width="16.54" height="1.53"/><rect class="cls-1" x="18.46" y="17.98" width="16.54" height="1.53"/><rect class="cls-1" x="18.46" y="22.08" width="9.92" height="1.53"/><rect class="cls-1" x="18.46" y="29.68" width="9.92" height="1.53"/><path class="cls-3" d="M40.82,15H37.76v-4a.61.61,0,0,0-.61-.61H11.91a.61.61,0,0,0-.61.61V35.37a.61.61,0,0,0,.61.61H15v4a.61.61,0,0,0,.61.61H34.69a.66.66,0,0,0,.43-.18l6.19-6.19a.56.56,0,0,0,.18-.43h0V15.65A.72.72,0,0,0,40.82,15ZM15,15.65V34.76H12.52V11.67H36.47V15H15.58A.66.66,0,0,0,15,15.65ZM35.24,38.5v-4h4Zm5-5.27H34.63a.61.61,0,0,0-.61.61v5.57H16.26V16.26H40.21Z"/><rect class="cls-4" x="18.46" y="33.41" width="3.49" height="2.33"/><rect class="cls-4" x="23.42" y="33.41" width="3.49" height="2.33"/><rect class="cls-4" x="28.38" y="33.41" width="3.49" height="2.33"/><rect class="cls-2" x="11.83" y="10.98" width="25.14" height="3.54"/></svg>