<?xml version="1.0" encoding="utf-8"?>
<!-- Generator: Adobe Illustrator 15.1.0, SVG Export Plug-In . SVG Version: 6.00 Build 0)  -->
<!DOCTYPE svg PUBLIC "-//W3C//DTD SVG 1.1//EN" "http://www.w3.org/Graphics/SVG/1.1/DTD/svg11.dtd">
<svg version="1.1" id="Calque_1" xmlns="http://www.w3.org/2000/svg" xmlns:xlink="http://www.w3.org/1999/xlink" x="0px" y="0px"
	 width="133.208px" height="133.211px" viewBox="0 0 133.208 133.211" enable-background="new 0 0 133.208 133.211"
	 xml:space="preserve">
<path fill="#1F3D58" d="M133.208,66.605c0,36.782-29.817,66.605-66.603,66.605S0,103.388,0,66.605S29.82,0,66.605,0
	S133.208,29.823,133.208,66.605z"/>
<g>
	<path fill="#FFFFFF" d="M81.891,77.275c0,2.615-0.361,4.989-1.081,7.116c-0.723,2.126-1.717,3.995-2.985,5.633
		c-1.274,1.627-2.793,3.024-4.555,4.205s-3.705,2.139-5.832,2.904c-2.121,0.759-4.392,1.319-6.796,1.681
		c-2.41,0.361-5.094,0.536-8.056,0.536H33.017c-1.256,0-2.308-0.373-3.157-1.108c-0.855-0.747-1.283-1.946-1.283-3.615V30.45
		c0-1.663,0.428-2.874,1.283-3.609c0.85-0.747,1.901-1.108,3.157-1.108h18.491c4.512,0,8.335,0.379,11.462,1.139
		c3.133,0.759,5.769,1.898,7.908,3.44c2.142,1.537,3.787,3.477,4.925,5.833c1.136,2.35,1.705,5.121,1.705,8.308
		c0,1.777-0.226,3.458-0.684,5.031c-0.455,1.579-1.114,3.006-1.991,4.296c-0.871,1.295-1.943,2.428-3.217,3.41
		c-1.268,0.994-2.717,1.79-4.347,2.398c2.084,0.379,4.006,1.036,5.771,1.988c1.766,0.946,3.305,2.175,4.609,3.669
		c1.307,1.5,2.344,3.248,3.103,5.266C81.511,72.516,81.891,74.775,81.891,77.275z M62.542,46.265c0-1.476-0.223-2.801-0.678-3.977
		c-0.458-1.175-1.139-2.151-2.051-2.934c-0.91-0.771-2.058-1.374-3.443-1.783c-1.383-0.428-3.232-0.633-5.546-0.633h-7.567v19.117
		h8.366c2.163,0,3.886-0.253,5.175-0.765c1.292-0.512,2.362-1.217,3.214-2.103c0.853-0.898,1.491-1.94,1.907-3.139
		C62.337,48.856,62.542,47.597,62.542,46.265z M66.355,77.788c0-1.705-0.286-3.229-0.853-4.585c-0.566-1.337-1.404-2.47-2.506-3.374
		c-1.097-0.916-2.5-1.621-4.206-2.108c-1.708-0.494-3.931-0.741-6.66-0.741h-8.875V87.91h10.809c2.091,0,3.844-0.211,5.263-0.651
		c1.422-0.434,2.657-1.079,3.699-1.928c1.045-0.862,1.858-1.922,2.446-3.188C66.063,80.878,66.355,79.415,66.355,77.788z"/>
</g>
<g>
	<path fill="#FFFFFF" d="M21.614,90.157c0.097,0,0.178,0,0.25,0.012c0.066,0.006,0.133,0.012,0.187,0.024
		c0.054,0.018,0.096,0.03,0.142,0.061c0.039,0.024,0.093,0.066,0.15,0.12c0.058,0.066,0.148,0.193,0.268,0.38
		c0.124,0.187,0.241,0.427,0.359,0.705c0.114,0.277,0.208,0.603,0.292,0.964c0.078,0.368,0.115,0.76,0.115,1.193
		c0,0.753-0.121,1.422-0.368,2.024c-0.25,0.603-0.618,1.114-1.103,1.53c-0.485,0.428-1.084,0.747-1.795,0.976
		c-0.714,0.235-1.534,0.35-2.464,0.35c-0.949,0-1.801-0.132-2.548-0.367c-0.744-0.247-1.377-0.597-1.892-1.036
		c-0.518-0.446-0.916-0.977-1.187-1.597c-0.271-0.614-0.41-1.302-0.41-2.061c0-0.325,0.033-0.65,0.097-0.964
		c0.06-0.308,0.139-0.603,0.235-0.868c0.093-0.271,0.205-0.506,0.328-0.711c0.124-0.205,0.226-0.349,0.305-0.428
		c0.081-0.078,0.138-0.132,0.184-0.15c0.039-0.03,0.09-0.048,0.145-0.066c0.057-0.018,0.124-0.024,0.202-0.036
		c0.076,0,0.169-0.006,0.274-0.006c0.121,0,0.217,0.006,0.301,0.012c0.081,0.006,0.153,0.03,0.208,0.048
		c0.055,0.03,0.1,0.061,0.124,0.09c0.027,0.036,0.04,0.072,0.04,0.121c0,0.09-0.054,0.199-0.172,0.349
		c-0.118,0.145-0.244,0.338-0.379,0.579c-0.142,0.229-0.268,0.518-0.383,0.85c-0.118,0.337-0.172,0.74-0.172,1.211
		c0,0.512,0.103,0.976,0.305,1.392c0.205,0.428,0.503,0.783,0.9,1.084c0.398,0.302,0.883,0.524,1.452,0.688
		c0.572,0.168,1.223,0.247,1.955,0.247s1.371-0.079,1.931-0.235c0.56-0.163,1.027-0.38,1.404-0.675
		c0.376-0.295,0.657-0.656,0.853-1.084c0.192-0.435,0.286-0.91,0.286-1.459c0-0.457-0.054-0.855-0.166-1.192
		c-0.114-0.35-0.241-0.639-0.376-0.88c-0.142-0.241-0.265-0.445-0.379-0.596c-0.111-0.151-0.166-0.277-0.166-0.362
		c0-0.042,0.006-0.078,0.024-0.108c0.018-0.036,0.054-0.06,0.103-0.072c0.048-0.024,0.12-0.03,0.208-0.042
		S21.476,90.157,21.614,90.157z"/>
	<path fill="#FFFFFF" d="M22.572,82.18c0.118,0,0.22,0.006,0.295,0.012c0.084,0.012,0.147,0.036,0.208,0.066
		c0.057,0.018,0.096,0.054,0.12,0.09c0.03,0.036,0.045,0.084,0.045,0.139v5.079c0,0.133-0.048,0.259-0.139,0.386
		c-0.093,0.121-0.256,0.181-0.485,0.181H11.983c-0.048,0-0.09-0.012-0.124-0.036c-0.036-0.018-0.063-0.06-0.087-0.121
		c-0.018-0.066-0.036-0.145-0.048-0.241c-0.015-0.097-0.024-0.229-0.024-0.368c0-0.145,0.009-0.265,0.024-0.367
		c0.012-0.097,0.03-0.175,0.048-0.241c0.024-0.054,0.051-0.09,0.087-0.121c0.033-0.024,0.076-0.03,0.124-0.03h9.935v-4.121
		c0-0.054,0.012-0.103,0.04-0.139c0.024-0.036,0.063-0.072,0.114-0.09c0.051-0.03,0.118-0.054,0.199-0.066
		C22.355,82.186,22.452,82.18,22.572,82.18z"/>
	<path fill="#FFFFFF" d="M23.009,67.997c0.048,0,0.087,0.024,0.124,0.048c0.036,0.018,0.063,0.06,0.087,0.126
		c0.018,0.06,0.036,0.132,0.048,0.235c0.015,0.084,0.027,0.205,0.027,0.368c0,0.139-0.012,0.259-0.027,0.355
		c-0.012,0.096-0.03,0.187-0.048,0.235c-0.024,0.06-0.051,0.103-0.087,0.126c-0.036,0.024-0.075,0.042-0.124,0.042H13.008v0.012
		l10.043,4.049c0.042,0.018,0.079,0.042,0.105,0.079c0.03,0.03,0.054,0.072,0.075,0.138c0.024,0.066,0.036,0.139,0.048,0.223
		c0.006,0.084,0.015,0.193,0.015,0.307c0,0.121-0.009,0.229-0.021,0.319c-0.012,0.09-0.027,0.163-0.048,0.223
		c-0.021,0.054-0.048,0.108-0.075,0.139c-0.03,0.036-0.063,0.054-0.1,0.06l-10.043,3.868v0.018h10.001
		c0.048,0,0.087,0.006,0.124,0.036c0.036,0.018,0.063,0.066,0.087,0.12c0.018,0.066,0.036,0.145,0.048,0.241
		c0.015,0.103,0.027,0.223,0.027,0.374c0,0.145-0.012,0.271-0.027,0.368c-0.012,0.096-0.03,0.175-0.048,0.235
		c-0.024,0.054-0.051,0.09-0.087,0.114c-0.036,0.024-0.075,0.036-0.124,0.036H12.447c-0.25,0-0.428-0.066-0.533-0.205
		c-0.108-0.126-0.16-0.271-0.16-0.434v-0.939c0-0.193,0.015-0.362,0.051-0.506s0.094-0.271,0.172-0.379
		c0.075-0.103,0.172-0.199,0.292-0.271c0.118-0.072,0.256-0.126,0.416-0.187l8.317-3.284v-0.042l-8.293-3.416
		c-0.178-0.066-0.328-0.139-0.449-0.217c-0.126-0.084-0.223-0.168-0.298-0.253c-0.072-0.103-0.126-0.205-0.16-0.319
		c-0.033-0.108-0.048-0.247-0.048-0.392V68.66c0-0.09,0.012-0.168,0.042-0.253c0.021-0.084,0.063-0.157,0.121-0.211
		c0.06-0.054,0.126-0.102,0.214-0.138s0.193-0.061,0.316-0.061H23.009z"/>
</g>
<g>
	<path fill="#FFFFFF" d="M123.472,76.324c0,1.392-0.31,2.428-0.931,3.091c-0.624,0.675-1.479,1-2.573,1H95.254
		c0,1.735,0.205,3.302,0.615,4.711s1.061,2.621,1.955,3.597c0.898,0.988,2.051,1.741,3.455,2.254
		c1.419,0.518,3.106,0.771,5.079,0.771c2.003,0,3.766-0.132,5.278-0.434c1.524-0.277,2.832-0.596,3.938-0.952
		c1.111-0.35,2.027-0.663,2.756-0.952s1.322-0.434,1.777-0.434c0.271,0,0.5,0.054,0.684,0.157c0.181,0.108,0.328,0.295,0.452,0.572
		c0.124,0.265,0.205,0.657,0.25,1.163c0.045,0.493,0.066,1.12,0.066,1.886c0,0.668-0.012,1.234-0.045,1.698
		c-0.03,0.477-0.072,0.874-0.135,1.218c-0.061,0.331-0.151,0.614-0.274,0.837c-0.117,0.224-0.277,0.446-0.476,0.663
		c-0.199,0.211-0.738,0.494-1.618,0.861c-0.876,0.361-2,0.717-3.365,1.072c-1.371,0.344-2.931,0.651-4.688,0.91
		c-1.762,0.259-3.645,0.386-5.648,0.386c-3.609,0-6.769-0.458-9.489-1.368c-2.717-0.903-4.982-2.283-6.802-4.145
		c-1.823-1.85-3.182-4.188-4.079-7.007c-0.892-2.82-1.34-6.127-1.34-9.917c0-3.609,0.47-6.869,1.413-9.767
		c0.937-2.892,2.308-5.356,4.097-7.375c1.789-2.018,3.964-3.548,6.531-4.615c2.563-1.061,5.453-1.597,8.67-1.597
		c3.401,0,6.305,0.5,8.715,1.506c2.416,0.994,4.396,2.386,5.941,4.163c1.545,1.771,2.684,3.874,3.416,6.296
		c0.726,2.428,1.09,5.073,1.09,7.923V76.324z M112.368,73.04c0.09-3.211-0.558-5.742-1.938-7.573
		c-1.382-1.832-3.512-2.76-6.392-2.76c-1.461,0-2.723,0.277-3.799,0.826c-1.082,0.542-1.973,1.277-2.687,2.205
		c-0.711,0.922-1.262,2.019-1.636,3.284c-0.386,1.247-0.605,2.591-0.663,4.019H112.368z"/>
</g>
</svg>
