<svg id="Calque_1" data-name="Calque 1" xmlns="http://www.w3.org/2000/svg" viewBox="0 0 500 500"><defs><style>.cls-1{fill:#1f3d59;}.cls-2{fill:#1a1a1a;}.cls-3{fill:#f4f1f0;}.cls-4{fill:#579dd9;}</style></defs><title>Plan de travail 10 copie</title><path class="cls-1" d="M122.33,403.5a1.25,1.25,0,0,1,.94.43l2.66,2.89a17,17,0,0,1-6.18,4.68,21.27,21.27,0,0,1-8.76,1.65,20.57,20.57,0,0,1-8.17-1.56,18,18,0,0,1-6.23-4.35,19.29,19.29,0,0,1-4-6.66,25,25,0,0,1-1.39-8.5,23.78,23.78,0,0,1,1.47-8.52,19.51,19.51,0,0,1,4.15-6.67,18.64,18.64,0,0,1,6.41-4.34,21.36,21.36,0,0,1,8.23-1.55,20.13,20.13,0,0,1,7.89,1.45,19.47,19.47,0,0,1,5.94,3.85l-2.2,3.12a2.46,2.46,0,0,1-.54.54,1.44,1.44,0,0,1-.86.23,2.32,2.32,0,0,1-1.3-.53,21,21,0,0,0-1.86-1.17,13.7,13.7,0,0,0-7.08-1.7,13.88,13.88,0,0,0-5.41,1,11.67,11.67,0,0,0-4.24,3,14,14,0,0,0-2.76,4.81,19.51,19.51,0,0,0-1,6.44,19,19,0,0,0,1,6.48,14.07,14.07,0,0,0,2.83,4.81,12.14,12.14,0,0,0,4.24,3,13.3,13.3,0,0,0,5.24,1,23.09,23.09,0,0,0,3.08-.18,12.23,12.23,0,0,0,2.5-.6,11.66,11.66,0,0,0,2.16-1,13.68,13.68,0,0,0,2-1.55A1.72,1.72,0,0,1,122.33,403.5Z"/><path class="cls-1" d="M148,407.28a10.73,10.73,0,0,0,4.25-.8,9,9,0,0,0,3.18-2.23,9.69,9.69,0,0,0,2-3.45,13.82,13.82,0,0,0,.69-4.48V371.47h6.67v24.85a19,19,0,0,1-1.16,6.73A15,15,0,0,1,155,411.9a19.85,19.85,0,0,1-14,0,15,15,0,0,1-8.62-8.86,19,19,0,0,1-1.16-6.73V371.47h6.7v24.82a13.83,13.83,0,0,0,.69,4.48,10,10,0,0,0,2,3.46,8.8,8.8,0,0,0,3.16,2.25A10.72,10.72,0,0,0,148,407.28Z"/><path class="cls-1" d="M195.63,378.51a2.51,2.51,0,0,1-.66.76,1.44,1.44,0,0,1-.86.24,2.23,2.23,0,0,1-1.22-.46c-.45-.3-1-.65-1.66-1a14.55,14.55,0,0,0-2.33-1,11,11,0,0,0-6.23,0,6.32,6.32,0,0,0-2.19,1.2,5,5,0,0,0-1.33,1.82,5.76,5.76,0,0,0-.44,2.28,4.07,4.07,0,0,0,.83,2.62,7.08,7.08,0,0,0,2.19,1.79,17.64,17.64,0,0,0,3.11,1.3q1.75.56,3.56,1.19t3.56,1.43a12.17,12.17,0,0,1,3.11,2,9.34,9.34,0,0,1,2.19,3,10.16,10.16,0,0,1,.83,4.32,14,14,0,0,1-.94,5.15,12.12,12.12,0,0,1-2.73,4.19,12.73,12.73,0,0,1-4.41,2.82,16.19,16.19,0,0,1-6,1,19,19,0,0,1-3.85-.39,19.83,19.83,0,0,1-3.58-1.09,17.83,17.83,0,0,1-3.19-1.7,16,16,0,0,1-2.66-2.23l1.95-3.21a1.91,1.91,0,0,1,.66-.63,1.76,1.76,0,0,1,.89-.23,2.49,2.49,0,0,1,1.46.61q.8.62,1.93,1.35a14.85,14.85,0,0,0,2.73,1.35,10.7,10.7,0,0,0,3.84.62,8.17,8.17,0,0,0,5.62-1.78,6.22,6.22,0,0,0,2-4.89,4.62,4.62,0,0,0-.83-2.85,6.74,6.74,0,0,0-2.19-1.84A15.67,15.67,0,0,0,185.7,395q-1.75-.52-3.55-1.1a35.11,35.11,0,0,1-3.55-1.37,11.25,11.25,0,0,1-3.11-2.06,9.53,9.53,0,0,1-2.19-3.15,11.58,11.58,0,0,1-.83-4.68,11.13,11.13,0,0,1,3.42-8A12.49,12.49,0,0,1,180,372a15.17,15.17,0,0,1,5.61-1,18.32,18.32,0,0,1,6.51,1.12,14.84,14.84,0,0,1,5.11,3.18Z"/><path class="cls-1" d="M233.68,371.47v5.58H220.82v35.64h-6.67V377.05H201.27v-5.58Z"/><path class="cls-1" d="M276.53,392.08a23.31,23.31,0,0,1-1.49,8.44,19.52,19.52,0,0,1-4.19,6.65,19.14,19.14,0,0,1-6.5,4.36,23.29,23.29,0,0,1-16.83,0,19,19,0,0,1-10.72-11,24.7,24.7,0,0,1,0-16.89A19.54,19.54,0,0,1,241,377a19.2,19.2,0,0,1,6.51-4.38,23.27,23.27,0,0,1,16.83,0,19.05,19.05,0,0,1,6.5,4.38,19.66,19.66,0,0,1,4.19,6.67A23.31,23.31,0,0,1,276.53,392.08Zm-6.84,0a19.84,19.84,0,0,0-1-6.38,13.5,13.5,0,0,0-2.75-4.81,11.94,11.94,0,0,0-4.34-3,15.92,15.92,0,0,0-11.42,0,12.07,12.07,0,0,0-4.35,3,13.56,13.56,0,0,0-2.78,4.81,21.51,21.51,0,0,0,0,12.8,13.41,13.41,0,0,0,2.78,4.79,12,12,0,0,0,4.35,3,16.12,16.12,0,0,0,11.42,0,11.9,11.9,0,0,0,4.34-3,13.36,13.36,0,0,0,2.75-4.79A20,20,0,0,0,269.69,392.08Z"/><path class="cls-1" d="M305.15,398.25a19.18,19.18,0,0,1,.72,1.79q.34-.92.73-1.82t.82-1.73l13-23.9a1.73,1.73,0,0,1,.89-1,4.67,4.67,0,0,1,1.37-.16h5v41.22h-5.9V384.44q0-.69,0-1.49c0-.54.06-1.08.1-1.63l-13.22,24.45a2.52,2.52,0,0,1-2.38,1.52h-.94a2.48,2.48,0,0,1-2.38-1.52l-13.48-24.53q.09.86.14,1.67t.06,1.53v28.25h-5.9V371.47h5a4.68,4.68,0,0,1,1.37.16,1.73,1.73,0,0,1,.89,1l13.22,24Q304.75,397.37,305.15,398.25Z"/><path class="cls-1" d="M363.2,371.47v5.41h-19V389.3h15.17v5.24H344.22v12.74h19l0,5.41H337.5V371.47Z"/><path class="cls-1" d="M377.17,396.09v16.6h-6.7V371.47h12.14a25.92,25.92,0,0,1,7,.83,13.35,13.35,0,0,1,4.82,2.36,9.34,9.34,0,0,1,2.79,3.68,13,13,0,0,1,.26,8.79,11.25,11.25,0,0,1-1.86,3.38,11.86,11.86,0,0,1-3,2.63,15.42,15.42,0,0,1-4.05,1.75,6.59,6.59,0,0,1,2.15,2.09l11.13,15.72h-6a2.76,2.76,0,0,1-2.58-1.38l-9.62-13.88a3.18,3.18,0,0,0-1.06-1,3.67,3.67,0,0,0-1.72-.31Zm0-4.87h5.27a13,13,0,0,0,4-.56,8.07,8.07,0,0,0,2.86-1.56,6.36,6.36,0,0,0,1.72-2.39,8,8,0,0,0,.57-3.08,6.19,6.19,0,0,0-2.23-5.15q-2.23-1.77-6.76-1.78h-5.44Z"/><g id="_3" data-name="3"><path class="cls-2" d="M369.48,66.77H128.84a7.1,7.1,0,0,0-7.08,7.08V235.51c0,4.37,3.18,7.95,7.08,7.95h54.48l5.81-2.27c3.83-1.49,7.79-3,11.74-4.67,8.95-3.73,14.39-6.19,17.53-7.69l.09-9.35a34.91,34.91,0,0,1-4.52-7.61H136V84.38H361.75V211.86H284.34a35.23,35.23,0,0,1-4.51,7.61l.08,9.35c3.14,1.5,8.57,4,17.53,7.69,3.95,1.65,7.91,3.19,11.74,4.67l5.82,2.28h54.48c3.9,0,7.08-3.58,7.08-7.95V73.85A7.09,7.09,0,0,0,369.48,66.77Z"/><path class="cls-3" d="M336.18,265.17c-5.44-8.49-23.71-13.76-41.81-21.3l-1-.41c-17.25-7.21-21.41-9.74-21.41-9.74l-.16-17.36a17.12,17.12,0,0,0,3.56-4.5c2-3.33,4.25-8.73,5.33-17,4.23,1.23,8.68-6.32,8.92-10.3.23-3.83-.59-14.47-5.76-13.4,1.06-8,1.82-15.2,1.45-19-1.35-13.95-15.07-28.64-36.17-28.64S214.33,138.18,213,152.13c-.37,3.81.4,11,1.46,19-5.17-1.07-6,9.57-5.76,13.4.24,4,4.69,11.53,8.93,10.3,1.07,8.3,3.33,13.69,5.31,17a17.09,17.09,0,0,0,3.56,4.5l-.17,17.36s-4.16,2.53-21.41,9.74l-1,.41c-18.09,7.54-36.36,12.81-41.8,21.3-4.88,7.59-3.41,33.5-3.41,33.5H339.58S341.05,272.76,336.18,265.17Z"/><polygon class="cls-4" points="154.53 113.36 164.68 123.5 154.53 133.64 158.89 138 173.39 123.5 158.89 109 154.53 113.36"/><rect class="cls-4" x="181.36" y="117.34" width="18.48" height="6.16"/><path class="cls-2" d="M356.05,313.18H141.9s-6.73-39.43,0-45.91c33.65-32.36,176.3-29.42,214.16,0C363.62,273.15,356.05,313.18,356.05,313.18Z"/></g><path class="cls-2" d="M416.18,339.62v4.15h-6.62v18h-5v-18h-6.66v-4.15Zm15.41,11.82q.22.52.43,1c.14.35.27.7.39,1a15.28,15.28,0,0,1,.82-2.09l6.09-11a2.14,2.14,0,0,1,.71-.65,2.46,2.46,0,0,1,.93-.13h4.19v22.17h-4.34V348.6l.34-3L434.5,358a1.78,1.78,0,0,1-1.72,1.08h-.71a1.78,1.78,0,0,1-1.72-1.08l-6.69-12.34.37,3v13.2h-4.41V339.62h4.23a2.62,2.62,0,0,1,1,.13,2.06,2.06,0,0,1,.73.65Z"/></svg>