<svg id="Calque_1" data-name="Calque 1" xmlns="http://www.w3.org/2000/svg" viewBox="0 0 500 500"><defs><style>.cls-1{fill:#fff;}.cls-2{fill:#1a1a1a;}.cls-3{fill:#579dd9;}</style></defs><title>icones2</title><path class="cls-1" d="M174.58,386.35a2.5,2.5,0,0,1-.65.75,1.44,1.44,0,0,1-.85.24,2.2,2.2,0,0,1-1.2-.45c-.44-.3-1-.64-1.64-1a14.28,14.28,0,0,0-2.3-1,9.59,9.59,0,0,0-3.17-.47,9.48,9.48,0,0,0-3,.43,6.18,6.18,0,0,0-2.16,1.19,4.88,4.88,0,0,0-1.31,1.8,5.69,5.69,0,0,0-.44,2.25,4,4,0,0,0,.82,2.59,7,7,0,0,0,2.16,1.77,17.35,17.35,0,0,0,3.07,1.29q1.73.55,3.52,1.17t3.52,1.41a12,12,0,0,1,3.07,2,9.24,9.24,0,0,1,2.16,3,10.06,10.06,0,0,1,.82,4.27,13.82,13.82,0,0,1-.93,5.09,12,12,0,0,1-2.7,4.14,12.58,12.58,0,0,1-4.35,2.78,16,16,0,0,1-5.9,1,18.83,18.83,0,0,1-3.8-.38,19.7,19.7,0,0,1-3.53-1.07,17.71,17.71,0,0,1-3.15-1.68,15.87,15.87,0,0,1-2.63-2.2l1.92-3.17a1.84,1.84,0,0,1,.65-.62,1.74,1.74,0,0,1,.88-.23,2.45,2.45,0,0,1,1.44.61q.79.61,1.91,1.33a14.66,14.66,0,0,0,2.7,1.33,10.56,10.56,0,0,0,3.79.61,8.07,8.07,0,0,0,5.56-1.75,6.15,6.15,0,0,0,2-4.84,4.55,4.55,0,0,0-.82-2.81,6.68,6.68,0,0,0-2.16-1.83,15.6,15.6,0,0,0-3.07-1.24q-1.73-.51-3.51-1.09a34.4,34.4,0,0,1-3.51-1.36,11.2,11.2,0,0,1-3.07-2,9.44,9.44,0,0,1-2.16-3.11,11.43,11.43,0,0,1-.82-4.62,11,11,0,0,1,.86-4.27,10.86,10.86,0,0,1,2.52-3.66,12.3,12.3,0,0,1,4.09-2.56,15,15,0,0,1,5.54-1,18.13,18.13,0,0,1,6.43,1.1,14.65,14.65,0,0,1,5,3.14Z"/><path class="cls-1" d="M212.17,379.39v5.51h-12.7v35.2h-6.59v-35.2H180.15v-5.51Z"/><path class="cls-1" d="M254.5,399.75a23,23,0,0,1-1.47,8.34,19.27,19.27,0,0,1-4.14,6.58,18.93,18.93,0,0,1-6.42,4.31,23,23,0,0,1-16.63,0,18.77,18.77,0,0,1-10.59-10.89,24.37,24.37,0,0,1,0-16.68,19.27,19.27,0,0,1,4.16-6.59,19,19,0,0,1,6.43-4.33,23,23,0,0,1,16.63,0,18.83,18.83,0,0,1,6.42,4.33,19.42,19.42,0,0,1,4.14,6.59A23,23,0,0,1,254.5,399.75Zm-6.76,0a19.58,19.58,0,0,0-.95-6.31,13.33,13.33,0,0,0-2.71-4.75,11.83,11.83,0,0,0-4.28-3,15.73,15.73,0,0,0-11.28,0,12,12,0,0,0-4.3,3,13.4,13.4,0,0,0-2.74,4.75,21.23,21.23,0,0,0,0,12.64,13.25,13.25,0,0,0,2.74,4.74,11.87,11.87,0,0,0,4.3,3,15.94,15.94,0,0,0,11.28,0,11.74,11.74,0,0,0,4.28-3,13.17,13.17,0,0,0,2.71-4.74A19.67,19.67,0,0,0,247.74,399.75Z"/><path class="cls-1" d="M268.35,403.71v16.4h-6.62V379.39h12a25.66,25.66,0,0,1,6.91.82,13.2,13.2,0,0,1,4.77,2.33,9.23,9.23,0,0,1,2.76,3.63,12.8,12.8,0,0,1,.26,8.68,11.07,11.07,0,0,1-1.84,3.34,11.7,11.7,0,0,1-3,2.6,15.22,15.22,0,0,1-4,1.73,6.53,6.53,0,0,1,2.12,2.06l11,15.52h-5.91a2.72,2.72,0,0,1-2.55-1.36L274.77,405a3.17,3.17,0,0,0-1-1,3.63,3.63,0,0,0-1.7-.31Zm0-4.81h5.2a12.81,12.81,0,0,0,4-.55,8,8,0,0,0,2.83-1.54,6.26,6.26,0,0,0,1.7-2.36,7.87,7.87,0,0,0,.57-3,6.12,6.12,0,0,0-2.21-5.09q-2.21-1.75-6.67-1.75h-5.37Z"/><path class="cls-1" d="M323,379.39v5.34H304.29V397h15v5.18h-15v12.58h18.78l0,5.34H297.65V379.39Z"/><path class="cls-1" d="M351.52,386.35a2.52,2.52,0,0,1-.65.75,1.43,1.43,0,0,1-.85.24,2.19,2.19,0,0,1-1.2-.45q-.67-.45-1.64-1a14.35,14.35,0,0,0-2.31-1,10.83,10.83,0,0,0-6.15,0,6.16,6.16,0,0,0-2.16,1.19,4.87,4.87,0,0,0-1.31,1.8,5.68,5.68,0,0,0-.44,2.25,4,4,0,0,0,.82,2.59,7,7,0,0,0,2.16,1.77,17.39,17.39,0,0,0,3.07,1.29q1.73.55,3.52,1.17t3.52,1.41a12,12,0,0,1,3.07,2,9.26,9.26,0,0,1,2.16,3,10.06,10.06,0,0,1,.82,4.27,13.79,13.79,0,0,1-.93,5.09,12,12,0,0,1-2.7,4.14,12.57,12.57,0,0,1-4.35,2.78,16,16,0,0,1-5.9,1,18.83,18.83,0,0,1-3.8-.38,19.74,19.74,0,0,1-3.53-1.07,17.75,17.75,0,0,1-3.15-1.68,15.92,15.92,0,0,1-2.63-2.2l1.92-3.17a1.85,1.85,0,0,1,.65-.62,1.74,1.74,0,0,1,.88-.23,2.45,2.45,0,0,1,1.44.61q.79.61,1.91,1.33a14.56,14.56,0,0,0,2.7,1.33,10.56,10.56,0,0,0,3.79.61,8.07,8.07,0,0,0,5.56-1.75,6.15,6.15,0,0,0,2-4.84,4.55,4.55,0,0,0-.82-2.81,6.67,6.67,0,0,0-2.16-1.83,15.56,15.56,0,0,0-3.07-1.24q-1.73-.51-3.51-1.09a34.29,34.29,0,0,1-3.51-1.36,11.18,11.18,0,0,1-3.07-2,9.42,9.42,0,0,1-2.16-3.11,11.43,11.43,0,0,1-.82-4.62,11,11,0,0,1,3.38-7.93,12.32,12.32,0,0,1,4.09-2.56,15,15,0,0,1,5.54-1,18.12,18.12,0,0,1,6.43,1.1,14.65,14.65,0,0,1,5,3.14Z"/><path class="cls-1" d="M164.71,236.37v-16.5H220v16.5ZM220,193V176.49H164.71V193Zm-1.5,70.62H139.75V64H281.93v96H218.54v5.43H152.92v34.79h65.62v9.64H152.92v34.8h65.62ZM235.75,97.08A14.07,14.07,0,1,0,249.84,83a14.1,14.1,0,0,0-14.08,14.07Zm-34.63,0A14.07,14.07,0,1,0,215.19,83a14.08,14.08,0,0,0-14.07,14.07ZM156,157.76H270.52v-34H156Zm8.73-25.25h97.07V149H164.71Zm77.18,10h13.28v-4.61H241.89ZM220.93,276"/><path class="cls-2" d="M333.26,274.88v7.37c20.38.68,35.08,2.55,35.08,4.79,0,2.78-23,5-51.39,5s-51.37-2.27-51.37-5c0-2,11.86-3.73,29-4.55v-7.62h-60.9V172.4H394.15V274.87H333.26Zm50.36-8.79V180.32H244.26v85.77Z"/><path class="cls-3" d="M320,160.38a1.31,1.31,0,0,0,1.59,0,1.29,1.29,0,0,0,.42-1.51l-6.42-16.26h11.19c2.45.12,10.44,1,15.88,6.28,3.82,3.75,5.68,9,5.68,16.14h15.58c0-11.36-3.47-20.53-10.35-27.27C342.42,126.82,326.43,127,325.73,127v.14c-1.1-.09-1.89-.14-1.89-.14l-8.26,0L322,110.73a1.32,1.32,0,0,0-.42-1.53,1.4,1.4,0,0,0-.79-.26,1.31,1.31,0,0,0-.8.27l-31.93,24.54a1.33,1.33,0,0,0-.5,1,1.28,1.28,0,0,0,.5,1ZM223.48,280.51a1.29,1.29,0,0,0-2,1.5l6.42,16.26H216.69c-2.43-.12-10.44-1-15.86-6.27-3.82-3.75-5.68-9-5.68-16.15H179.57c0,11.36,3.48,20.53,10.33,27.27,11.17,11,27.15,10.77,27.85,10.76v-.14c1.09.09,1.89.14,1.89.14l8.26,0-6.42,16.26a1.29,1.29,0,0,0,.42,1.51,1.32,1.32,0,0,0,.79.26,1.24,1.24,0,0,0,.8-.27l31.93-24.54a1.32,1.32,0,0,0,0-2.07Zm0,0"/><path class="cls-1" d="M381.94,344.69v4.1H375.4v17.8h-4.91v-17.8h-6.58v-4.1Zm15.22,11.67c.15.35.29.69.42,1s.26.69.39,1a15.22,15.22,0,0,1,.81-2.07l6-10.9a2.13,2.13,0,0,1,.7-.65,2.46,2.46,0,0,1,.92-.13h4.14v21.9h-4.28v-13l.33-2.92L400,362.82a1.76,1.76,0,0,1-1.7,1.07h-.7a1.75,1.75,0,0,1-1.7-1.07l-6.61-12.19.37,2.92v13h-4.36v-21.9h4.17a2.62,2.62,0,0,1,.94.13,2.06,2.06,0,0,1,.72.65Z"/></svg>