<?xml version="1.0" encoding="utf-8"?>
<!-- Generator: Adobe Illustrator 21.0.0, SVG Export Plug-In . SVG Version: 6.00 Build 0)  -->
<svg version="1.1" id="Calque_1" xmlns="http://www.w3.org/2000/svg" xmlns:xlink="http://www.w3.org/1999/xlink" x="0px" y="0px"
	 viewBox="0 0 500 500" style="enable-background:new 0 0 500 500;" xml:space="preserve">
<style type="text/css">
	.st0{fill:#FFFFFF;}
	.st1{font-family:'Lato-Regular';}
	.st2{font-size:49.01px;}
	.st3{letter-spacing:1.1;}
	.st4{fill:#FFFFFF;stroke:#D3D3D3;stroke-width:6;stroke-miterlimit:10;}
	.st5{fill:#579DD9;stroke:#579DD9;stroke-miterlimit:10;}
</style>
<title>Plan de travail 1 copie 5</title>
<path class="st0" d="M398.2,344v4.1h-6.5v17.8h-4.9v-17.8h-6.6V344H398.2z M413.4,355.7l0.4,1c0.1,0.3,0.3,0.7,0.4,1
	c0.2-0.7,0.5-1.4,0.8-2.1l6-10.9c0.2-0.3,0.4-0.5,0.7-0.6c0.3-0.1,0.6-0.1,0.9-0.1h4.1v21.9h-4.3v-13l0.3-2.9l-6.6,12.2
	c-0.3,0.7-1,1.1-1.7,1.1h-0.7c-0.7,0-1.4-0.4-1.7-1.1l-6.6-12.2l0.4,2.9v13h-4.4V344h4.2c0.3,0,0.6,0,0.9,0.1
	c0.3,0.2,0.5,0.4,0.7,0.6L413.4,355.7z"/>
<path class="st0" d="M287.1,80.7H161.5v232.6l166.8-2c7.6-0.1,13.8-6.3,13.9-13.9l1.5-160.1L287.1,80.7z M289.4,93.9l40.9,40.9
	h-40.9V93.9z M336,305.5H169.3V88.4h112.4v54.3H336V305.5z"/>
<path class="st0" d="M301,162.1h-62c-2.1-0.1-4,1.5-4.1,3.7c-0.1,2.1,1.5,4,3.7,4.1c0.1,0,0.3,0,0.4,0h62c2.1,0.1,4-1.5,4.1-3.7
	c0.1-2.1-1.5-4-3.7-4.1C301.3,162.1,301.1,162.1,301,162.1z"/>
<path class="st0" d="M301,204.7h-62c-2.1-0.1-4,1.5-4.1,3.7c-0.1,2.1,1.5,4,3.7,4.1c0.1,0,0.3,0,0.4,0h62c2.1,0.1,4-1.5,4.1-3.7
	c0.1-2.1-1.5-4-3.7-4.1C301.3,204.7,301.1,204.7,301,204.7z"/>
<path class="st0" d="M271,247.3h-32.7c-1.1,0-2,1.7-2,3.9s0.9,3.9,2,3.9H271c1.1,0,2-1.7,2-3.9S272.1,247.3,271,247.3z"/>
<text transform="matrix(0.87 0 0 1 48 417.0596)" class="st0 st1 st2">COMPLIANCE</text>
<text transform="matrix(0.87 0 0 1 326.7129 417.0596)" class="st0 st1 st2 st3"> </text>
<text transform="matrix(0.87 0 0 1 337.6055 417.0596)" class="st0 st1 st2">SHEET</text>
<path class="st4" d="M378.7,308H362c-2.4,0-4.3-1.5-4.3-3.4V148.2c0-0.2,0-0.4,0.1-0.7l8.4-33.8c1-2.3,3.7-3.4,6-2.4
	c1.1,0.5,1.9,1.3,2.4,2.4l8.4,33.8c0.1,0.2,0.1,0.4,0.1,0.7v156.3C383,306.5,381.1,308,378.7,308z"/>
<polygon class="st5" points="202.4,203.1 193.9,211.7 189.6,207.4 187.3,209.7 194.1,216.5 205.1,205.9 "/>
<path class="st5" d="M195.8,192c-9.6,0-17.5,7.8-17.5,17.5s7.8,17.5,17.5,17.5c9.6,0,17.5-7.8,17.5-17.5l0,0
	C213.3,199.8,205.5,192,195.8,192z M195.8,223.8c-7.9,0-14.3-6.4-14.3-14.3s6.4-14.3,14.3-14.3c7.9,0,14.3,6.4,14.3,14.3
	C210.1,217.4,203.8,223.8,195.8,223.8L195.8,223.8L195.8,223.8z"/>
<polygon class="st5" points="202.4,247.9 193.9,256.5 189.6,252.1 187.3,254.4 194.1,261.2 205.1,250.6 "/>
<path class="st5" d="M195.8,236.8c-9.6,0-17.5,7.8-17.5,17.5s7.8,17.5,17.5,17.5c9.6,0,17.5-7.8,17.5-17.5
	C213.3,244.6,205.5,236.8,195.8,236.8L195.8,236.8z M195.8,268.6c-7.9,0-14.3-6.4-14.3-14.3c0-7.9,6.4-14.3,14.3-14.3
	c7.9,0,14.3,6.4,14.3,14.3S203.7,268.6,195.8,268.6L195.8,268.6z"/>
<polygon class="st5" points="201.7,158.3 193.2,166.9 188.9,162.6 186.6,164.9 193.4,171.7 204.4,161.1 "/>
<path class="st5" d="M195.1,147.3c-9.6,0-17.5,7.8-17.5,17.5s7.8,17.5,17.5,17.5s17.5-7.8,17.5-17.5S204.8,147.3,195.1,147.3
	L195.1,147.3z M195.1,179c-7.9,0-14.3-6.4-14.3-14.3s6.4-14.3,14.3-14.3c7.9,0,14.3,6.4,14.3,14.3C209.4,172.6,203,179,195.1,179
	L195.1,179z"/>
</svg>
