<?xml version="1.0" encoding="utf-8"?>
<!-- Generator: Adobe Illustrator 21.0.0, SVG Export Plug-In . SVG Version: 6.00 Build 0)  -->
<svg version="1.1" id="Calque_1" xmlns="http://www.w3.org/2000/svg" xmlns:xlink="http://www.w3.org/1999/xlink" x="0px" y="0px"
	 viewBox="0 0 500 500" style="enable-background:new 0 0 500 500;" xml:space="preserve">
<style type="text/css">
	.st0{fill:#FFFFFF;}
	.st1{fill:#FFFFFF;stroke:#D3D3D3;stroke-width:6;stroke-miterlimit:10;}
	.st2{fill:#579DD9;stroke:#579DD9;stroke-miterlimit:10;}
	.st3{font-family:'Lato-Regular';}
	.st4{font-size:49.01px;}
</style>
<title>Plan de travail 1 copie 5</title>
<path class="st0" d="M458.2,344v4.1h-6.5v17.8h-4.9v-17.8h-6.6V344H458.2z M473.4,355.7l0.4,1c0.1,0.3,0.3,0.7,0.4,1
	c0.2-0.7,0.5-1.4,0.8-2.1l6-10.9c0.2-0.3,0.4-0.5,0.7-0.6c0.3-0.1,0.6-0.1,0.9-0.1h4.1v21.9h-4.3v-13l0.3-2.9l-6.6,12.2
	c-0.3,0.7-1,1.1-1.7,1.1h-0.7c-0.7,0-1.4-0.4-1.7-1.1l-6.6-12.2l0.4,2.9v13h-4.4V344h4.2c0.3,0,0.6,0,0.9,0.1
	c0.3,0.2,0.5,0.4,0.7,0.6L473.4,355.7z"/>
<g>
	<path class="st0" d="M264.9,80.7H139.3v232.6l166.8-2c7.6-0.1,13.8-6.3,13.9-13.9l1.5-160.1L264.9,80.7z M267.2,93.9l40.9,40.9
		h-40.9V93.9z M313.8,305.5H147V88.4h112.4v54.3h54.3V305.5z"/>
	<path class="st0" d="M278.8,162.1h-62c-2.1-0.1-4,1.5-4.1,3.7c-0.1,2.1,1.5,4,3.7,4.1c0.1,0,0.3,0,0.4,0h62c2.1,0.1,4-1.5,4.1-3.7
		c0.1-2.1-1.5-4-3.7-4.1C279,162.1,278.9,162.1,278.8,162.1z"/>
	<path class="st0" d="M278.8,204.7h-62c-2.1-0.1-4,1.5-4.1,3.7c-0.1,2.1,1.5,4,3.7,4.1c0.1,0,0.3,0,0.4,0h62c2.1,0.1,4-1.5,4.1-3.7
		c0.1-2.1-1.5-4-3.7-4.1C279,204.7,278.9,204.7,278.8,204.7z"/>
	<path class="st0" d="M248.8,247.3h-32.7c-1.1,0-2,1.7-2,3.9s0.9,3.9,2,3.9h32.7c1.1,0,2-1.7,2-3.9S249.9,247.3,248.8,247.3z"/>
	<path class="st1" d="M356.5,308h-16.7c-2.4,0-4.3-1.5-4.3-3.4V148.2c0-0.2,0-0.4,0.1-0.7l8.4-33.8c1-2.3,3.7-3.4,6-2.4
		c1.1,0.5,1.9,1.3,2.4,2.4l8.4,33.8c0.1,0.2,0.1,0.4,0.1,0.7v156.3C360.8,306.5,358.9,308,356.5,308z"/>
	<polygon class="st2" points="184.4,159.6 176,168.2 171.7,163.8 169.3,166.1 176.2,172.9 187.1,162.3 	"/>
	<path class="st2" d="M177.9,148.5c-9.6,0-17.5,7.8-17.5,17.5c0,9.6,7.8,17.5,17.5,17.5c9.6,0,17.4-7.8,17.5-17.4
		C195.4,156.4,187.6,148.5,177.9,148.5C177.9,148.5,177.9,148.5,177.9,148.5z M177.9,180.2c-7.9,0-14.3-6.4-14.3-14.3
		s6.4-14.3,14.3-14.3c7.9,0,14.3,6.4,14.3,14.3C192.2,173.8,185.8,180.3,177.9,180.2C177.9,180.3,177.9,180.3,177.9,180.2
		L177.9,180.2z"/>
	<polygon class="st2" points="184.4,202.2 176,210.8 171.7,206.4 169.3,208.8 176.2,215.6 187.1,204.9 	"/>
	<path class="st2" d="M177.9,191.1c-9.6,0-17.5,7.8-17.5,17.5s7.8,17.5,17.5,17.5c9.6,0,17.5-7.8,17.5-17.5
		C195.4,198.9,187.5,191.1,177.9,191.1L177.9,191.1z M177.9,222.9c-7.9,0-14.3-6.4-14.3-14.3s6.4-14.3,14.3-14.3
		c7.9,0,14.3,6.4,14.3,14.3C192.2,216.5,185.8,222.9,177.9,222.9C177.9,222.9,177.9,222.9,177.9,222.9L177.9,222.9z"/>
	<polygon class="st2" points="184.4,244.3 176,252.9 171.7,248.6 169.3,250.9 176.2,257.7 187.1,247.1 	"/>
	<path class="st2" d="M177.9,233.2c-9.6,0-17.5,7.8-17.5,17.5s7.8,17.5,17.5,17.5c9.6,0,17.5-7.8,17.5-17.5
		C195.4,241.1,187.5,233.2,177.9,233.2L177.9,233.2z M177.9,265c-7.9,0-14.3-6.4-14.3-14.3c0-7.9,6.4-14.3,14.3-14.3
		c7.9,0,14.3,6.4,14.3,14.3C192.2,258.6,185.8,265,177.9,265L177.9,265z"/>
</g>
<g>
	<text transform="matrix(0.87 0 0 1 28.6396 417.0596)" class="st0 st3 st4">COMPLIANCE</text>
	<text transform="matrix(0.87 0 0 1 318.2451 417.0596)" class="st0 st3 st4">SHEETS</text>
</g>
</svg>
