<svg id="Calque_1" data-name="Calque 1" xmlns="http://www.w3.org/2000/svg" viewBox="0 0 500 500"><defs><style>.cls-1{fill:#f4f1f0;}.cls-2{fill:#1a1a1a;}.cls-3{fill:#1f3d59;}.cls-4{fill:#817b75;}.cls-5{fill:#fff;}</style></defs><title>icones2</title><path class="cls-1" d="M118.46,124H378.61V288s27.81,24-260.15,5.18C119.87,248,118.46,124,118.46,124Z"/><g id="_34" data-name="34"><path class="cls-2" d="M361.32,87.63H135.75a26.15,26.15,0,0,0-26.11,26.12V281.37a26.15,26.15,0,0,0,26.11,26.11H361.32a26.15,26.15,0,0,0,26.11-26.11V113.74A26.16,26.16,0,0,0,361.32,87.63Zm-2.78,16.74a5.93,5.93,0,1,1-5.93,5.94A5.95,5.95,0,0,1,358.54,104.36Zm-46.65.35h29.19a5.58,5.58,0,0,1,0,11.17H311.89a5.58,5.58,0,1,1,0-11.17Zm61.3,176.65a12,12,0,0,1-11.87,11.86H135.75a12,12,0,0,1-11.87-11.86V130.49H373.19Z"/><rect class="cls-3" x="148.05" y="258.13" width="194.44" height="17.15"/><rect class="cls-3" x="148.05" y="149.69" width="194.44" height="25.72"/><rect class="cls-3" x="149.36" y="188.08" width="44.44" height="52.78"/><rect class="cls-4" x="203.53" y="189.47" width="137.5" height="5.55"/><rect class="cls-4" x="203.53" y="205.66" width="137.5" height="5.56"/><rect class="cls-4" x="203.53" y="221.88" width="137.5" height="5.55"/><rect class="cls-4" x="203.53" y="238.08" width="137.5" height="5.56"/></g><path class="cls-5" d="M162.16,399.81a18.89,18.89,0,0,1,.71,1.77q.34-.91.72-1.8t.81-1.71l12.87-23.61a1.71,1.71,0,0,1,.88-.95,4.62,4.62,0,0,1,1.36-.16h4.95v40.72h-5.83V386.17q0-.68,0-1.47c0-.53.06-1.06.1-1.61l-13.06,24.15a2.49,2.49,0,0,1-2.35,1.5h-.93a2.45,2.45,0,0,1-2.35-1.5L146.75,383q.09.85.14,1.65t.06,1.51v27.91h-5.83V373.36h4.95a4.62,4.62,0,0,1,1.36.16,1.71,1.71,0,0,1,.88.95l13.06,23.67Q161.76,399,162.16,399.81Z"/><path class="cls-5" d="M232.37,393.72a23,23,0,0,1-1.47,8.34,19.28,19.28,0,0,1-4.14,6.57,18.91,18.91,0,0,1-6.42,4.31,23,23,0,0,1-16.63,0,18.77,18.77,0,0,1-10.59-10.89,24.4,24.4,0,0,1,0-16.68,19.31,19.31,0,0,1,4.16-6.59,19,19,0,0,1,6.43-4.33,23,23,0,0,1,16.63,0,18.82,18.82,0,0,1,6.42,4.33,19.43,19.43,0,0,1,4.14,6.59A23,23,0,0,1,232.37,393.72Zm-6.76,0a19.6,19.6,0,0,0-.95-6.31,13.34,13.34,0,0,0-2.71-4.75,11.8,11.8,0,0,0-4.28-3,15.73,15.73,0,0,0-11.28,0,11.92,11.92,0,0,0-4.3,3,13.39,13.39,0,0,0-2.74,4.75,21.25,21.25,0,0,0,0,12.64,13.25,13.25,0,0,0,2.74,4.74,11.88,11.88,0,0,0,4.3,3,15.93,15.93,0,0,0,11.28,0,11.75,11.75,0,0,0,4.28-3,13.2,13.2,0,0,0,2.71-4.74A19.7,19.7,0,0,0,225.62,393.72Z"/><path class="cls-5" d="M239.61,414.08V373.36h13.55a25.9,25.9,0,0,1,6.67.75,12.75,12.75,0,0,1,4.55,2.14,8.28,8.28,0,0,1,2.62,3.38,11.52,11.52,0,0,1,.83,4.48,9.05,9.05,0,0,1-.44,2.8,8,8,0,0,1-1.36,2.52,10.33,10.33,0,0,1-2.3,2.11,12.93,12.93,0,0,1-3.28,1.57,12.07,12.07,0,0,1,6.49,3.2,8.33,8.33,0,0,1,2.16,6,11.46,11.46,0,0,1-1,4.76,10.5,10.5,0,0,1-2.83,3.73,13.25,13.25,0,0,1-4.57,2.45,20.1,20.1,0,0,1-6.19.88Zm6.62-22.82h6.62q4.24,0,6.33-1.64a5.64,5.64,0,0,0,2.09-4.72q0-3.36-2-4.86t-6.15-1.5h-6.93Zm0,4.67v12.92h8.2a11.87,11.87,0,0,0,3.77-.52,6.92,6.92,0,0,0,2.52-1.43,5.31,5.31,0,0,0,1.41-2.13,7.82,7.82,0,0,0,.44-2.65,5.61,5.61,0,0,0-2-4.54q-2-1.66-6.21-1.65Z"/><path class="cls-5" d="M283.19,414.08h-6.65V373.36h6.65Z"/><path class="cls-5" d="M299.48,408.54h16.91v5.54H292.86V373.36h6.62Z"/><path class="cls-5" d="M347.46,373.36v5.34H328.71V391h15v5.17h-15v12.58h18.78l0,5.34H322.07V373.36Z"/><path class="cls-5" d="M365.52,336v4.1H359v17.8h-4.91v-17.8h-6.58V336Zm15.22,11.67q.22.52.43,1c.13.35.26.69.39,1a15.2,15.2,0,0,1,.81-2.07l6-10.9a2.13,2.13,0,0,1,.7-.65A2.46,2.46,0,0,1,390,336h4.14v21.9h-4.28v-13l.33-2.92-6.58,12.19a1.76,1.76,0,0,1-1.7,1.07h-.7a1.76,1.76,0,0,1-1.7-1.07l-6.61-12.19.37,2.92v13h-4.36V336h4.17a2.63,2.63,0,0,1,.94.13,2.06,2.06,0,0,1,.72.65Z"/></svg>