<svg id="Calque_1" data-name="Calque 1" xmlns="http://www.w3.org/2000/svg" viewBox="0 0 500 500"><defs><style>.cls-1,.cls-2{fill:#fff;}.cls-2{stroke:#fff;stroke-miterlimit:10;stroke-width:3px;}.cls-3{fill:#599cd1;}</style></defs><title>Plan de travail 1 copie</title><path class="cls-1" d="M399.58,337.31v4.1H393v17.8h-4.91v-17.8h-6.58v-4.1ZM414.8,349l.42,1c.13.31.26.69.39,1a15.24,15.24,0,0,1,.81-2.07l6-10.9a2.13,2.13,0,0,1,.7-.65,2.47,2.47,0,0,1,.92-.13h4.14v21.9h-4.26v-13l.33-2.92-6.57,12.19a1.76,1.76,0,0,1-1.7,1.07h-.7a1.75,1.75,0,0,1-1.7-1.07L407,343.21l.37,2.92v13H403V337.31h4.17a2.62,2.62,0,0,1,.94.13,2.06,2.06,0,0,1,.72.65Z"/><path class="cls-1" d="M63.79,405.44a16.34,16.34,0,0,0,8.27,2.33c4.72,0,7.47-2.49,7.47-6.09,0-3.34-1.91-5.25-6.73-7.1-5.83-2.07-9.43-5.09-9.43-10.12,0-5.56,4.61-9.7,11.55-9.7a16.22,16.22,0,0,1,7.9,1.75l-1.23,3.76a14.22,14.22,0,0,0-6.78-1.7c-4.88,0-6.73,2.92-6.73,5.35,0,3.34,2.17,5,7.1,6.89,6,2.33,9.11,5.25,9.11,10.49,0,5.51-4.08,10.28-12.51,10.28a18.45,18.45,0,0,1-9.19-2.26Z"/><path class="cls-1" d="M97.2,398.79,93.46,410H88.69l12.17-35.74h5.6L118.65,410h-4.93l-3.82-11.23Zm11.71-3.6-3.45-10.28c-.79-2.33-1.33-4.45-1.85-6.52h-.15c-.53,2.12-1.11,4.29-1.8,6.47l-3.5,10.33Z"/><path class="cls-1" d="M122.86,411V375.29h5l11.45,18.07A101.09,101.09,0,0,1,145.72,405l.11,0c-.42-4.77-.53-9.11-.53-14.68v-15h4.35V411H145l-11.34-18.12A113.31,113.31,0,0,1,127,381l-.16,0c.27,4.5.37,8.8.37,14.73V411Z"/><path class="cls-1" d="M182.7,409.86a22.89,22.89,0,0,1-9.43,1.7c-10.07,0-17.65-6.36-17.65-18.07,0-11.18,7.58-18.76,18.65-18.76a19.15,19.15,0,0,1,8.48,1.59l-1.11,3.76a16.8,16.8,0,0,0-7.18-1.49c-8.4,0-14,5.36-14,14.7,0,8.74,5,14.36,13.73,14.36a18.46,18.46,0,0,0,7.52-1.48Z"/><path class="cls-1" d="M195.74,380.23H184.88v-3.94h26.44v3.92H200.41V412h-4.66Z"/><path class="cls-1" d="M221.54,375.28V411h-4.61V375.28Z"/><path class="cls-1" d="M259.66,392.8c0,12.29-7.47,18.81-16.59,18.81-9.43,0-16.06-7.31-16.06-18.12,0-11.34,7-18.76,16.59-18.76C253.39,374.73,259.66,382.2,259.66,392.8Zm-27.72.58c0,7.63,4.13,14.47,11.39,14.47s11.45-6.73,11.45-14.84c0-7.1-3.71-14.52-11.39-14.52s-11.41,7-11.41,14.89Z"/><path class="cls-1" d="M264.35,409.08V373.34h5l11.45,18.07A101.09,101.09,0,0,1,287.21,403l.11,0c-.42-4.77-.53-9.11-.53-14.68v-15h4.35v35.72h-4.66l-11.34-18.12A113.31,113.31,0,0,1,268.46,379l-.16,0c.27,4.5.37,8.8.37,14.73v15.26Z"/><path class="cls-1" d="M345.8,375.29h4.61v31.85h15.26V411H345.8Z"/><path class="cls-1" d="M375.12,376.29V412h-4.61V376.29Z"/><path class="cls-1" d="M382.54,405.43a16.34,16.34,0,0,0,8.27,2.33c4.72,0,7.47-2.49,7.47-6.09,0-3.34-1.91-5.25-6.73-7.1-5.83-2.07-9.43-5.09-9.43-10.12,0-5.56,4.61-9.7,11.55-9.7a16.22,16.22,0,0,1,7.9,1.75l-1.27,3.76a14.22,14.22,0,0,0-6.78-1.7c-4.88,0-6.73,2.92-6.73,5.35,0,3.34,2.17,5,7.1,6.89,6,2.33,9.11,5.25,9.11,10.49,0,5.51-4.08,10.28-12.51,10.28a18.45,18.45,0,0,1-9.13-2.26Z"/><path class="cls-1" d="M441,412.43a16.34,16.34,0,0,0,8.27,2.33c4.72,0,7.47-2.49,7.47-6.09,0-3.34-1.91-5.25-6.73-7.1-5.83-2.07-9.43-5.09-9.43-10.12,0-5.56,4.61-9.7,11.55-9.7a16.22,16.22,0,0,1,7.9,1.75l-1.27,3.76a14.22,14.22,0,0,0-6.78-1.7c-4.88,0-6.73,2.92-6.73,5.35,0,3.34,2.17,5,7.1,6.89,6,2.33,9.11,5.25,9.11,10.49,0,5.51-4.08,10.28-12.51,10.28a18.45,18.45,0,0,1-9.13-2.26Z"/><path class="cls-1" d="M299.08,405.44a16.34,16.34,0,0,0,8.27,2.33c4.72,0,7.47-2.49,7.47-6.09,0-3.34-1.91-5.25-6.73-7.1-5.83-2.07-9.43-5.09-9.43-10.12,0-5.56,4.61-9.7,11.55-9.7a16.22,16.22,0,0,1,7.9,1.75l-1.27,3.76a14.22,14.22,0,0,0-6.78-1.7c-4.88,0-6.73,2.92-6.73,5.35,0,3.34,2.17,5,7.1,6.89,6,2.33,9.11,5.25,9.11,10.49,0,5.51-4.08,10.28-12.51,10.28a18.45,18.45,0,0,1-9.13-2.26Z"/><path class="cls-1" d="M416.09,380.23H405.22v-3.94h26.44v3.92H420.75V412h-4.66Z"/><path class="cls-2" d="M288.56,74H162.93V306.57l166.83-2a14,14,0,0,0,13.85-13.9l1.48-160.09Zm2.3,13.19,40.89,40.89H290.86Zm46.56,211.6H170.7V81.73H283.14V136h54.28Z"/><path class="cls-1" d="M302.42,155.38h-62a3.89,3.89,0,1,0,0,7.77h62a3.89,3.89,0,1,0,0-7.77Z"/><path class="cls-1" d="M226.42,144.44l-16.66,13.34-5.11-5.11a3.88,3.88,0,0,0-5.47,5.47l7.77,7.77a3.88,3.88,0,0,0,5.11.31l19.36-15.34a4.08,4.08,0,1,0-4.74-6.65Z"/><path class="cls-1" d="M302.42,198h-62a3.89,3.89,0,1,0,0,7.77h62a3.89,3.89,0,1,0,0-7.77Z"/><path class="cls-1" d="M226.42,187.23l-16.71,13.44-5.11-5.11a3.88,3.88,0,1,0-5.67,5.11l7.77,7.77a3.88,3.88,0,0,0,5.11.31l19.37-15.33a3.9,3.9,0,0,0-4.75-6.18Z"/><path class="cls-1" d="M272.42,240.64h-32.7c-1.13,0-2,1.74-2,3.88s.92,3.88,2,3.88h32.7c1.13,0,2-1.74,2-3.88S273.54,240.64,272.42,240.64Z"/><path class="cls-1" d="M226.42,229.85l-16.66,13.34-5.11-5.11a3.88,3.88,0,1,0-5.47,5.47l7.77,7.77a3.88,3.88,0,0,0,5.11.31l19.36-15.32a4.08,4.08,0,0,0-5-6.44Z"/><path class="cls-3" d="M354.91,233.07a52.55,52.55,0,1,0,0,58.36A52.55,52.55,0,0,0,354.91,233.07ZM331.7,282.91a4,4,0,0,1-5.66,0l0,0h0l-15-15-15.48,15.48a4,4,0,0,1-5.42-5.11l15.48-15.48-15.17-15.49a4.05,4.05,0,1,1,5.73-5.73l15,15,14.35-14.27a4.05,4.05,0,1,1,5.73,5.73l-14.32,14.27,15,15a4,4,0,0,1-.08,5.65Z"/></svg>