<svg id="Calque_1" data-name="Calque 1" xmlns="http://www.w3.org/2000/svg" viewBox="0 0 500 500"><defs><style>.cls-1{fill:#fff;}.cls-2{fill:#579dd9;stroke:#579dd9;stroke-miterlimit:10;}</style></defs><title>icones2</title><path class="cls-1" d="M158.36,410.33a1.24,1.24,0,0,1,.93.43l2.63,2.86a16.71,16.71,0,0,1-6.11,4.62,21,21,0,0,1-8.65,1.63,20.36,20.36,0,0,1-8.07-1.54,17.76,17.76,0,0,1-6.15-4.3,19.09,19.09,0,0,1-3.92-6.57,24.67,24.67,0,0,1-1.37-8.4,23.5,23.5,0,0,1,1.46-8.41,19.32,19.32,0,0,1,4.1-6.59,18.41,18.41,0,0,1,6.33-4.28,21,21,0,0,1,8.13-1.53,19.86,19.86,0,0,1,7.79,1.43,19.3,19.3,0,0,1,5.87,3.8l-2.18,3.08a2.42,2.42,0,0,1-.54.54,1.41,1.41,0,0,1-.85.23,2.28,2.28,0,0,1-1.29-.52,20,20,0,0,0-1.84-1.16,13.58,13.58,0,0,0-7-1.68,13.7,13.7,0,0,0-5.34,1,11.55,11.55,0,0,0-4.19,3,13.77,13.77,0,0,0-2.73,4.75,19.23,19.23,0,0,0-1,6.36,18.77,18.77,0,0,0,1,6.41,13.92,13.92,0,0,0,2.8,4.75,11.93,11.93,0,0,0,4.18,3,13.11,13.11,0,0,0,5.17,1,22.29,22.29,0,0,0,3-.18,12,12,0,0,0,2.47-.59,11.37,11.37,0,0,0,2.13-1,13.5,13.5,0,0,0,2-1.53A1.71,1.71,0,0,1,158.36,410.33Z"/><path class="cls-1" d="M180.27,399.81h14.34V405H180.27Z"/><path class="cls-1" d="M223.5,403v16.4h-6.62V378.69h12a25.66,25.66,0,0,1,6.91.82,13.2,13.2,0,0,1,4.76,2.33,9.23,9.23,0,0,1,2.76,3.63,12.8,12.8,0,0,1,.26,8.68,11.07,11.07,0,0,1-1.84,3.34,11.7,11.7,0,0,1-3,2.6,15.21,15.21,0,0,1-4,1.73,6.53,6.53,0,0,1,2.12,2.06l11,15.52H242a2.72,2.72,0,0,1-2.55-1.36l-9.5-13.72a3.17,3.17,0,0,0-1-1,3.63,3.63,0,0,0-1.7-.31Zm0-4.81h5.2a12.81,12.81,0,0,0,4-.55,8,8,0,0,0,2.83-1.54,6.26,6.26,0,0,0,1.7-2.36,7.87,7.87,0,0,0,.57-3,6.12,6.12,0,0,0-2.21-5.09q-2.21-1.75-6.67-1.75H223.5Z"/><path class="cls-1" d="M268.86,414.06a10.6,10.6,0,0,0,4.2-.79,8.91,8.91,0,0,0,3.14-2.21,9.58,9.58,0,0,0,2-3.41,13.66,13.66,0,0,0,.68-4.43V378.69h6.59v24.54a18.77,18.77,0,0,1-1.15,6.64,14.83,14.83,0,0,1-8.51,8.75,19.65,19.65,0,0,1-13.83,0,14.83,14.83,0,0,1-8.51-8.75,18.8,18.8,0,0,1-1.14-6.64V378.69h6.62V403.2a13.65,13.65,0,0,0,.68,4.42,9.81,9.81,0,0,0,2,3.42,8.68,8.68,0,0,0,3.12,2.22A10.59,10.59,0,0,0,268.86,414.06Z"/><path class="cls-1" d="M301.24,413.86h16.91v5.54H294.62V378.69h6.62Z"/><path class="cls-1" d="M349.23,378.69V384H330.48V396.3h15v5.18h-15v12.58h18.78l0,5.34H323.83V378.69Z"/><path class="cls-1" d="M380.58,385.73a2.56,2.56,0,0,1-.69.76,1.57,1.57,0,0,1-.9.24,2.41,2.41,0,0,1-1.27-.46q-.7-.46-1.74-1a15.56,15.56,0,0,0-2.44-1,10.61,10.61,0,0,0-3.36-.47,10.48,10.48,0,0,0-3.16.43,6.65,6.65,0,0,0-2.29,1.2,5,5,0,0,0-1.39,1.82,5.52,5.52,0,0,0-.46,2.27,3.94,3.94,0,0,0,.87,2.62,7.34,7.34,0,0,0,2.29,1.79,18.78,18.78,0,0,0,3.25,1.3q1.83.56,3.73,1.19t3.73,1.43a12.78,12.78,0,0,1,3.25,2,9.36,9.36,0,0,1,2.29,3,9.75,9.75,0,0,1,.87,4.32,13.42,13.42,0,0,1-1,5.15,12.1,12.1,0,0,1-2.86,4.19,13.41,13.41,0,0,1-4.61,2.82,17.7,17.7,0,0,1-6.25,1,20.85,20.85,0,0,1-4-.39,21.62,21.62,0,0,1-3.75-1.09,19.09,19.09,0,0,1-3.34-1.7,16.64,16.64,0,0,1-2.79-2.23l2-3.2a1.91,1.91,0,0,1,1.62-.86,2.66,2.66,0,0,1,1.53.61q.84.62,2,1.34a15.78,15.78,0,0,0,2.86,1.34,11.69,11.69,0,0,0,4,.62,8.83,8.83,0,0,0,5.89-1.77,6.09,6.09,0,0,0,2.08-4.89,4.46,4.46,0,0,0-.87-2.84,7,7,0,0,0-2.29-1.85,17,17,0,0,0-3.25-1.26q-1.83-.52-3.72-1.1a37.53,37.53,0,0,1-3.71-1.37,11.9,11.9,0,0,1-3.25-2.06,9.54,9.54,0,0,1-2.29-3.15,11.1,11.1,0,0,1-.87-4.68,10.65,10.65,0,0,1,.91-4.32,11,11,0,0,1,2.67-3.7,13.11,13.11,0,0,1,4.33-2.59,16.56,16.56,0,0,1,5.87-1,20,20,0,0,1,6.82,1.11,15.64,15.64,0,0,1,5.35,3.18Z"/><path class="cls-1" d="M237.34,210.16l-4.08-3.82,46.57-50,4.09,3.87Zm71-76.23-10.06-9.4-22.18,23.77,10.1,9.43Zm-80.55,86.48,7.23-7.77-10.1-9.4L217.74,211l-2.1,11.61h-7.55V230H308.9v-7.4H219.29ZM278,154.64l-4.13-3.83-46.54,50,4.09,3.82Zm66.43-61.82V301.15a9.45,9.45,0,0,1-9.43,9.43H182a9.45,9.45,0,0,1-9.43-9.43V92.82A9.45,9.45,0,0,1,182,83.39H335a9.42,9.42,0,0,1,9.43,9.43ZM265.24,301.19a6.74,6.74,0,1,0-6.75,6.73,6.75,6.75,0,0,0,6.75-6.73Zm60.28-198.93H222.79v23.58l-7.37-6.19-7.33,6.19V102.25H191.47V291.71h134ZM208.09,258.47H308.86V251H208.09Zm0,0"/><rect class="cls-2" x="206.99" y="250.7" width="101.8" height="7.07"/><rect class="cls-2" x="206.99" y="222.43" width="101.8" height="8.48"/><path class="cls-1" d="M398.16,344v4.1h-6.54v17.8h-4.91v-17.8h-6.58V344Zm15.22,11.67c.15.35.29.69.42,1s.26.69.39,1a15.24,15.24,0,0,1,.81-2.07l6-10.9a2.13,2.13,0,0,1,.7-.65,2.47,2.47,0,0,1,.92-.13h4.14v21.9H422.5v-13l.33-2.92-6.57,12.19a1.76,1.76,0,0,1-1.7,1.07h-.7a1.75,1.75,0,0,1-1.7-1.07l-6.61-12.19.37,2.92v13h-4.36V344h4.17a2.62,2.62,0,0,1,.94.13,2.06,2.06,0,0,1,.72.65Z"/></svg>