<svg id="Calque_1" data-name="Calque 1" xmlns="http://www.w3.org/2000/svg" viewBox="0 0 500 500"><defs><style>.cls-1{fill:#1f3d59;}.cls-2{fill:#579dd9;}.cls-3{fill:#1a1a1a;}</style></defs><title>icones</title><g id="_1" data-name="1"><path class="cls-1" d="M230.11,296.53a132.07,132.07,0,0,1-39.68-48,103,103,0,0,1,30-8.71c0-2.47-.05-4.81-.05-7a124.58,124.58,0,0,0-32.92,9.23,136.87,136.87,0,0,1-10.06-44.76l.12-2.69,44.6-.07,12.31.05,0,18.43,7-2.66.08-15.74,41.41-.09,7.31-2.79,7.34,2.8,1,.07c0,.1,0,.19,0,.29l6.84,2.61c0-1,.11-2,.13-3l40.55-.08c.48.27,1.14.11,1.73.16a111.31,111.31,0,0,1-2.27,18.23l6.43,2.45c6.14-29.31.84-62.53-14.23-87C318.23,95.23,281.77,73,245,71,196.27,67.3,149.43,95.12,128.82,140c-14.82,30.12-14.26,72.57.73,102.28,18.89,40.78,63,68.59,107.59,67.23a112.06,112.06,0,0,1-7-12.78C230.15,296.64,230.13,296.58,230.11,296.53ZM347.8,187.59l-42.28.09a147.55,147.55,0,0,0-12.18-54.22A113.23,113.23,0,0,0,319,114.51C337.34,134.74,346.95,159.61,347.8,187.59Zm-33.62-78.28a101.27,101.27,0,0,1-24.06,18C281,108.78,264.53,90.29,247.2,78A111,111,0,0,1,314.17,109.31ZM241.56,82.79c17.28,11.42,33.35,29.69,42.45,47.6a101.66,101.66,0,0,1-42.55,10.82Zm-.13,65.45A114.7,114.7,0,0,0,287,136.78a128.1,128.1,0,0,1,11.59,50.86l-56.92.13-.1-.11-.11-38.88Zm-7,39.5h-57a131.66,131.66,0,0,1,10.7-49.58c14.34,6.12,30.35,10.19,46.5,10.31Zm0-46.28c-16.47-.34-29.53-3.8-43.38-9.64,9.49-19.45,25.39-37.53,43.64-50.25Zm-6.58-63.53c-17.83,13.15-33.89,32-43,50.73a95.74,95.74,0,0,1-26.37-19.13C177.7,91,201.4,79.91,227.86,77.92ZM125,179.08c.49-.37-.1-1.08.28-1.56,3-23.54,11.86-45.15,28.25-63A117.16,117.16,0,0,0,181.87,135a143.54,143.54,0,0,0-11.41,52.71l-45.58.07-.16-.16Zm28.24,86.42c-17.79-19.9-27.46-43.81-28.58-70.88l42-.07,3.89.12a136.3,136.3,0,0,0,10.78,50.49C170.93,250.47,161.88,257.72,153.27,265.51Zm4.94,5.2c7.55-8.17,16.91-14.12,25.85-19.15,9.25,18.72,24.18,37.53,42,50.73C200,300.06,176.7,288.61,158.21,270.71Z"/></g><path class="cls-1" d="M302.71,225.38a34.71,34.71,0,0,0-9.42-1.32,35.77,35.77,0,0,0-6,.53,34.89,34.89,0,0,0-2,68.39,34.51,34.51,0,0,0,8,1,34.91,34.91,0,0,0,9.42-68.55Zm0,42.59a13,13,0,0,1-9.42,4.07,12.71,12.71,0,0,1-6-1.51A13,13,0,1,1,302.71,268Z"/><path class="cls-2" d="M366.27,248.79l-15.78-1.87a57.78,57.78,0,0,0-8.24-19.83l9.85-12.49a2.35,2.35,0,0,0-.17-3.07l-11.18-11.18a2.4,2.4,0,0,0-3.08-.18L325.18,210a58,58,0,0,0-19.82-8.22L303.49,186a2.39,2.39,0,0,0-2.3-2H285.37a2.39,2.39,0,0,0-2.29,2l-1.87,15.8A57.9,57.9,0,0,0,261.39,210l-12.5-9.86a2.41,2.41,0,0,0-3.08.18l-11.16,11.18a2.34,2.34,0,0,0-.18,3.07l9.85,12.49a58.16,58.16,0,0,0-8.24,19.83l-15.78,1.87a2.38,2.38,0,0,0-2,2.3V266.9a2.39,2.39,0,0,0,2,2.3l15.78,1.85a58.25,58.25,0,0,0,8.24,19.85L237.9,299l-3.42,4.34a2.33,2.33,0,0,0,.18,3.06l8,8,.17.17,3,3a2.4,2.4,0,0,0,3.09.18l4.07-3.21.19-.17,8.22-6.48a58.15,58.15,0,0,0,13.41,6.45l.5.2a59.7,59.7,0,0,0,5.91,1.59L283.08,332a2.41,2.41,0,0,0,2.29,2.06l15.82,0a2.37,2.37,0,0,0,2.3-2l1.87-15.78a59.81,59.81,0,0,0,5.89-1.59,58.47,58.47,0,0,0,13.93-6.65l8.39,6.63,4.09,3.23a2.38,2.38,0,0,0,3.08-.18l3.05-3.05,8.12-8.13a2.34,2.34,0,0,0,.17-3.06l-9.85-12.48a57.88,57.88,0,0,0,8.24-19.85l15.78-1.85a2.41,2.41,0,0,0,2.05-2.3V251.08A2.41,2.41,0,0,0,366.27,248.79Zm-67.7,51.92A42,42,0,1,1,335.36,259,42,42,0,0,1,298.57,300.71Z"/><path class="cls-1" d="M116.13,399.78a20.26,20.26,0,0,1-1.32,7.45,16.44,16.44,0,0,1-9.51,9.55,20.21,20.21,0,0,1-7.5,1.34H83.93V381.44H97.79a20.21,20.21,0,0,1,7.5,1.34,16.44,16.44,0,0,1,9.51,9.55A20.27,20.27,0,0,1,116.13,399.78Zm-6.09,0a17.66,17.66,0,0,0-.85-5.68,11.77,11.77,0,0,0-2.45-4.25,10.67,10.67,0,0,0-3.86-2.66,13.3,13.3,0,0,0-5.09-.93H89.92v27.06h7.87a13.49,13.49,0,0,0,5.09-.92,10.46,10.46,0,0,0,3.86-2.66,11.9,11.9,0,0,0,2.45-4.25A17.61,17.61,0,0,0,110,399.78Z"/><path class="cls-1" d="M127.39,418.12h-6V381.44h6Z"/><path class="cls-1" d="M154,387.7a2.2,2.2,0,0,1-.59.68,1.28,1.28,0,0,1-.76.22,2,2,0,0,1-1.08-.41q-.6-.41-1.48-.91a13.12,13.12,0,0,0-2.08-.92,9.77,9.77,0,0,0-5.54,0,5.58,5.58,0,0,0-1.95,1.07,4.43,4.43,0,0,0-1.18,1.62,5.11,5.11,0,0,0-.39,2,3.63,3.63,0,0,0,.74,2.33,6.33,6.33,0,0,0,1.95,1.59,15.61,15.61,0,0,0,2.76,1.16q1.55.5,3.17,1.06t3.17,1.27a10.83,10.83,0,0,1,2.76,1.81,8.36,8.36,0,0,1,2,2.67,9,9,0,0,1,.74,3.85,12.44,12.44,0,0,1-.84,4.59,10.83,10.83,0,0,1-2.43,3.73,11.34,11.34,0,0,1-3.92,2.51,14.43,14.43,0,0,1-5.31.92,17,17,0,0,1-3.43-.35,17.74,17.74,0,0,1-3.18-1,15.94,15.94,0,0,1-2.84-1.51,14.18,14.18,0,0,1-2.37-2l1.73-2.85a1.68,1.68,0,0,1,.59-.56,1.57,1.57,0,0,1,.79-.2,2.21,2.21,0,0,1,1.3.55q.71.55,1.72,1.2a13.38,13.38,0,0,0,2.43,1.2,9.54,9.54,0,0,0,3.41.55,7.27,7.27,0,0,0,5-1.58,5.54,5.54,0,0,0,1.77-4.36,4.1,4.1,0,0,0-.74-2.53,6,6,0,0,0-1.95-1.64,13.92,13.92,0,0,0-2.76-1.12q-1.55-.46-3.16-1a30.71,30.71,0,0,1-3.16-1.22,10,10,0,0,1-2.76-1.83,8.49,8.49,0,0,1-1.95-2.8,10.29,10.29,0,0,1-.74-4.17,9.92,9.92,0,0,1,3-7.15,11.09,11.09,0,0,1,3.68-2.31,13.5,13.5,0,0,1,5-.87,16.31,16.31,0,0,1,5.8,1,13.24,13.24,0,0,1,4.55,2.83Z"/><path class="cls-1" d="M186.6,381.44v5H175.16v31.72h-5.93V386.41H157.76v-5Z"/><path class="cls-1" d="M196.38,403.35v14.78h-6V381.44h10.8a23,23,0,0,1,6.23.74,11.85,11.85,0,0,1,4.29,2.1,8.31,8.31,0,0,1,2.49,3.27,11.56,11.56,0,0,1,.23,7.82,10,10,0,0,1-1.66,3,10.59,10.59,0,0,1-2.68,2.34,13.77,13.77,0,0,1-3.6,1.55,5.86,5.86,0,0,1,1.91,1.86l9.91,14H213a2.45,2.45,0,0,1-2.29-1.22l-8.56-12.36a2.84,2.84,0,0,0-.94-.92,3.29,3.29,0,0,0-1.53-.28Zm0-4.33h4.69a11.59,11.59,0,0,0,3.57-.5,7.15,7.15,0,0,0,2.55-1.39,5.67,5.67,0,0,0,1.53-2.13,7.15,7.15,0,0,0,.51-2.74,5.51,5.51,0,0,0-2-4.59q-2-1.58-6-1.58h-4.84Z"/><path class="cls-1" d="M227.49,418.12h-6V381.44h6Z"/><path class="cls-1" d="M234.92,418.12V381.44h12.2a23.32,23.32,0,0,1,6,.68,11.49,11.49,0,0,1,4.1,1.92,7.47,7.47,0,0,1,2.36,3,10.39,10.39,0,0,1,.75,4,8.18,8.18,0,0,1-.39,2.52,7.22,7.22,0,0,1-1.22,2.27,9.36,9.36,0,0,1-2.08,1.9,11.62,11.62,0,0,1-3,1.41,10.89,10.89,0,0,1,5.85,2.88,7.51,7.51,0,0,1,1.95,5.38,10.32,10.32,0,0,1-.88,4.29,9.44,9.44,0,0,1-2.55,3.36,12,12,0,0,1-4.11,2.2,18.13,18.13,0,0,1-5.58.79Zm6-20.56h6q3.82,0,5.71-1.48a5.08,5.08,0,0,0,1.89-4.26,5.17,5.17,0,0,0-1.77-4.38q-1.77-1.35-5.54-1.35h-6.24Zm0,4.2v11.64h7.39a10.69,10.69,0,0,0,3.4-.47,6.24,6.24,0,0,0,2.27-1.29,4.76,4.76,0,0,0,1.27-1.92,7,7,0,0,0,.4-2.38,5.06,5.06,0,0,0-1.77-4.09q-1.77-1.49-5.59-1.49Z"/><path class="cls-1" d="M281.39,413.31a9.54,9.54,0,0,0,3.78-.71,8,8,0,0,0,2.83-2,8.63,8.63,0,0,0,1.77-3.07,12.34,12.34,0,0,0,.61-4V381.44h5.93v22.11a16.91,16.91,0,0,1-1,6,13.37,13.37,0,0,1-7.67,7.89,17.69,17.69,0,0,1-12.46,0,13.37,13.37,0,0,1-7.67-7.89,16.94,16.94,0,0,1-1-6V381.44h6v22.09a12.27,12.27,0,0,0,.61,4,8.82,8.82,0,0,0,1.76,3.08,7.83,7.83,0,0,0,2.81,2A9.54,9.54,0,0,0,281.39,413.31Z"/><path class="cls-1" d="M328.57,381.44v5H317.13v31.72H311.2V386.41H299.73v-5Z"/><path class="cls-1" d="M338.38,418.12h-6V381.44h6Z"/><path class="cls-1" d="M380.29,399.78A20.73,20.73,0,0,1,379,407.3a17.35,17.35,0,0,1-3.73,5.92,17,17,0,0,1-5.78,3.89,20.71,20.71,0,0,1-15,0,16.92,16.92,0,0,1-9.54-9.81,22,22,0,0,1,0-15,17.36,17.36,0,0,1,3.75-5.93,17,17,0,0,1,5.79-3.9,20.71,20.71,0,0,1,15,0,16.91,16.91,0,0,1,5.78,3.9,17.48,17.48,0,0,1,3.73,5.93A20.74,20.74,0,0,1,380.29,399.78Zm-6.09,0a17.66,17.66,0,0,0-.85-5.68,12,12,0,0,0-2.44-4.28,10.65,10.65,0,0,0-3.86-2.7,14.17,14.17,0,0,0-10.16,0,10.78,10.78,0,0,0-3.87,2.7,12.05,12.05,0,0,0-2.47,4.28,19.14,19.14,0,0,0,0,11.39,11.94,11.94,0,0,0,2.47,4.27,10.72,10.72,0,0,0,3.87,2.67,14.35,14.35,0,0,0,10.16,0,10.59,10.59,0,0,0,3.86-2.67,11.89,11.89,0,0,0,2.44-4.27A17.73,17.73,0,0,0,374.2,399.78Z"/><path class="cls-1" d="M389.29,381.48a1.8,1.8,0,0,1,.5.14,1.41,1.41,0,0,1,.43.3,5,5,0,0,1,.43.51l20.18,25.91c-.05-.53-.09-1-.12-1.55s0-1,0-1.43V381.44h5.22v36.69h-3a2.61,2.61,0,0,1-1.17-.24,2.76,2.76,0,0,1-.92-.8L390.63,391.2c.05.49.09,1,.11,1.47s0,.93,0,1.34v24.12h-5.25V381.44h3.11A4.76,4.76,0,0,1,389.29,381.48Z"/><path class="cls-3" d="M410.6,344v4.1h-6.54V366h-4.92V348.14h-6.58V344Zm15.23,11.68q.22.52.43,1c.14.35.27.69.39,1a15,15,0,0,1,.81-2.07l6-10.91a2.14,2.14,0,0,1,.7-.65,2.46,2.46,0,0,1,.92-.13h4.14V366H435V352.91l.33-2.92-6.58,12.2a1.76,1.76,0,0,1-1.7,1.07h-.7a1.76,1.76,0,0,1-1.7-1.07L418,350l.37,2.92V366H414V344h4.18a2.62,2.62,0,0,1,.94.13,2.06,2.06,0,0,1,.72.65Z"/></svg>