<svg id="Calque_1" data-name="Calque 1" xmlns="http://www.w3.org/2000/svg" viewBox="0 0 500 500"><defs><style>.cls-1{fill:#1f3d59;}.cls-2{fill:#599cd1;}</style></defs><title>Plan de travail 1</title><path class="cls-1" d="M398.16,344v4.1h-6.54v17.8h-4.91V348.1h-6.58V344Zm15.22,11.67.42,1c.13.31.26.69.39,1a15.24,15.24,0,0,1,.81-2.07l6-10.9a2.13,2.13,0,0,1,.7-.65,2.47,2.47,0,0,1,.92-.13h4.14v21.9H422.5v-13l.33-2.92-6.57,12.19a1.76,1.76,0,0,1-1.7,1.07h-.7a1.75,1.75,0,0,1-1.7-1.07l-6.61-12.19.37,2.92v13h-4.36V344h4.17a2.62,2.62,0,0,1,.94.13,2.06,2.06,0,0,1,.72.65Z"/><path class="cls-1" d="M63.2,412.12a16.34,16.34,0,0,0,8.27,2.33c4.72,0,7.47-2.49,7.47-6.09,0-3.34-1.91-5.25-6.73-7.1-5.83-2.07-9.43-5.09-9.43-10.12,0-5.56,4.61-9.7,11.55-9.7a16.22,16.22,0,0,1,7.9,1.75L81,387a14.22,14.22,0,0,0-6.78-1.7c-4.88,0-6.73,2.92-6.73,5.35,0,3.34,2.17,5,7.1,6.89,6,2.33,9.11,5.25,9.11,10.49,0,5.51-4.08,10.28-12.51,10.28A18.45,18.45,0,0,1,62,416Z"/><path class="cls-1" d="M95.74,406.5,92,417.74H87.23L99.4,382H105l12.19,35.72h-4.93l-3.82-11.23Zm11.71-3.6L104,392.62c-.79-2.33-1.33-4.45-1.85-6.52H102c-.53,2.12-1.11,4.29-1.8,6.47L96.7,402.9Z"/><path class="cls-1" d="M122.4,417.74V382h5l11.45,18.07a101.09,101.09,0,0,1,6.41,11.61l.11,0c-.42-4.77-.53-9.11-.53-14.68V382h4.35v35.72h-4.66L133.19,399.6a113.31,113.31,0,0,1-6.68-11.92l-.16,0c.27,4.5.37,8.8.37,14.73v15.26Z"/><path class="cls-1" d="M182.24,416.57a22.89,22.89,0,0,1-9.43,1.7c-10.07,0-17.65-6.36-17.65-18.07,0-11.18,7.58-18.76,18.65-18.76a19.15,19.15,0,0,1,8.48,1.59l-1.11,3.76A16.8,16.8,0,0,0,174,385.3c-8.4,0-14,5.36-14,14.7,0,8.74,5,14.36,13.73,14.36a18.46,18.46,0,0,0,7.52-1.48Z"/><path class="cls-1" d="M196.28,385.94H185.42V382h26.44v3.92H200.95v31.8h-4.66Z"/><path class="cls-1" d="M220.45,382v35.72h-4.61V382Z"/><path class="cls-1" d="M259,399.51c0,12.29-7.47,18.81-16.59,18.81-9.43,0-16.06-7.31-16.06-18.12,0-11.34,7-18.76,16.59-18.76C252.73,381.44,259,388.91,259,399.51Zm-27.72.58c0,7.63,4.13,14.47,11.39,14.47s11.45-6.73,11.45-14.84c0-7.1-3.71-14.52-11.39-14.52s-11.41,7-11.41,14.89Z"/><path class="cls-1" d="M265,417.74V382h5l11.45,18.07a101.09,101.09,0,0,1,6.41,11.61l.11,0c-.42-4.77-.53-9.11-.53-14.68V382h4.35v35.72h-4.66L275.79,399.6a113.31,113.31,0,0,1-6.68-11.92l-.16,0c.27,4.5.37,8.8.37,14.73v15.26Z"/><path class="cls-1" d="M345.36,382H350v31.85h15.26v3.87H345.36Z"/><path class="cls-1" d="M375,382v35.72h-4.61V382Z"/><path class="cls-1" d="M382.41,412.15a16.34,16.34,0,0,0,8.27,2.33c4.72,0,7.47-2.49,7.47-6.09,0-3.34-1.91-5.25-6.73-7.1-5.83-2.07-9.43-5.09-9.43-10.12,0-5.56,4.61-9.7,11.55-9.7a16.22,16.22,0,0,1,7.9,1.75L400.17,387a14.22,14.22,0,0,0-6.78-1.7c-4.88,0-6.73,2.92-6.73,5.35,0,3.34,2.17,5,7.1,6.89,6,2.33,9.11,5.25,9.11,10.49,0,5.51-4.08,10.28-12.51,10.28a18.45,18.45,0,0,1-9.13-2.26Z"/><path class="cls-1" d="M434.93,412.17a16.34,16.34,0,0,0,8.27,2.33c4.72,0,7.47-2.49,7.47-6.09,0-3.34-1.91-5.25-6.73-7.1-5.83-2.07-9.43-5.09-9.43-10.12,0-5.56,4.61-9.7,11.55-9.7a16.22,16.22,0,0,1,7.9,1.75L452.69,387a14.22,14.22,0,0,0-6.78-1.7c-4.88,0-6.73,2.92-6.73,5.35,0,3.34,2.17,5,7.1,6.89,6,2.33,9.11,5.25,9.11,10.49,0,5.51-4.08,10.28-12.51,10.28a18.45,18.45,0,0,1-9.13-2.26Z"/><path class="cls-1" d="M298.84,412.12a16.34,16.34,0,0,0,8.27,2.33c4.72,0,7.47-2.49,7.47-6.09,0-3.34-1.91-5.25-6.73-7.1-5.83-2.07-9.43-5.09-9.43-10.12,0-5.56,4.61-9.7,11.55-9.7a16.22,16.22,0,0,1,7.9,1.75L316.6,387a14.22,14.22,0,0,0-6.78-1.7c-4.88,0-6.73,2.92-6.73,5.35,0,3.34,2.17,5,7.1,6.89,6,2.33,9.11,5.25,9.11,10.49,0,5.51-4.08,10.28-12.51,10.28a18.45,18.45,0,0,1-9.13-2.26Z"/><path class="cls-1" d="M416,386H405.09V382h26.44V386H420.62v31.8H416Z"/><path class="cls-1" d="M287.14,80.7H161.51V313.26l166.83-2a14,14,0,0,0,13.85-13.9l1.48-160.09Zm2.3,13.19,40.89,40.89H289.44ZM336,305.49H169.28V88.42H281.72V142.7H336Z"/><path class="cls-1" d="M301,162.07H239a3.89,3.89,0,1,0,0,7.77h62a3.89,3.89,0,1,0,0-7.77Z"/><path class="cls-1" d="M225,151.13l-16.66,13.34-5.11-5.11a3.88,3.88,0,0,0-5.47,5.47l7.77,7.77a3.88,3.88,0,0,0,5.11.31L230,157.57a4.08,4.08,0,1,0-4.74-6.65Z"/><path class="cls-1" d="M301,204.7H239a3.89,3.89,0,1,0,0,7.77h62a3.89,3.89,0,1,0,0-7.77Z"/><path class="cls-1" d="M225,193.92l-16.71,13.44-5.11-5.11a3.88,3.88,0,1,0-5.67,5.11l7.77,7.77a3.88,3.88,0,0,0,5.11.31l19.37-15.33a3.9,3.9,0,0,0-4.75-6.18Z"/><path class="cls-1" d="M271,247.33H238.3c-1.13,0-2,1.74-2,3.88s.92,3.88,2,3.88H271c1.13,0,2-1.74,2-3.88S272.12,247.33,271,247.33Z"/><path class="cls-1" d="M225,236.54l-16.66,13.34-5.11-5.11a3.88,3.88,0,1,0-5.47,5.47l7.77,7.77a3.88,3.88,0,0,0,5.11.31L230,243a4.08,4.08,0,0,0-5-6.44Z"/><path class="cls-2" d="M353.49,239.76a52.55,52.55,0,1,0,0,58.36A52.55,52.55,0,0,0,353.49,239.76ZM330.28,289.6a4,4,0,0,1-5.66,0l0,0h0l-15-15-15.48,15.48a4,4,0,0,1-5.42-5.11l15.48-15.48L289,254a4.05,4.05,0,1,1,5.73-5.73l15,15L324.08,249a4.05,4.05,0,1,1,5.73,5.73L315.49,269l15,15a4,4,0,0,1-.08,5.65Z"/></svg>