<svg id="Calque_1" data-name="Calque 1" xmlns="http://www.w3.org/2000/svg" viewBox="0 0 500 500"><defs><style>.cls-1,.cls-4{fill:#fff;}.cls-2{fill:#fdfeff;stroke:#fff;stroke-miterlimit:10;}.cls-3{fill:#599cd1;}.cls-4{font-size:49.01px;font-family:Lato-Regular, Lato;}</style></defs><title>Plan de travail 1 copie 3</title><path class="cls-1" d="M394.78,344v4.1h-6.54v17.8h-4.91V348.1h-6.58V344ZM410,355.67l.42,1c.13.31.26.69.39,1a15.24,15.24,0,0,1,.81-2.07l6-10.9a2.13,2.13,0,0,1,.7-.65,2.47,2.47,0,0,1,.92-.13h4.14v21.9h-4.26v-13l.33-2.92-6.57,12.19a1.76,1.76,0,0,1-1.7,1.07h-.7a1.75,1.75,0,0,1-1.7-1.07l-6.61-12.19.37,2.92v13h-4.36V344h4.17a2.62,2.62,0,0,1,.94.13,2.06,2.06,0,0,1,.72.65Z"/><path class="cls-1" d="M284.55,80.7H158.92V313.26l166.83-2a14,14,0,0,0,13.85-13.9l1.48-160.09Zm2.3,13.19,40.89,40.89H286.85Zm46.56,211.6H166.69V88.42H279.13V142.7h54.28Z"/><path class="cls-1" d="M233.38,166.46h50.67a4,4,0,0,0,4-4v-.08a4,4,0,0,0-4-4H233.38a4,4,0,0,0-4,4v.08A4,4,0,0,0,233.38,166.46Z"/><path class="cls-1" d="M229.35,177.83a4,4,0,0,0,4,4h68.15a4,4,0,0,0,4-4v-.08a4,4,0,0,0-4-4H233.37a4,4,0,0,0-4,4v.08Z"/><path class="cls-1" d="M229.35,193.2a4,4,0,0,0,4,4h68.15a4,4,0,0,0,4-4v-.08a4,4,0,0,0-4-4H233.37a4,4,0,0,0-4,4v.08Z"/><path class="cls-1" d="M229.35,230.33a4,4,0,0,0,4,4H284a4,4,0,0,0,4-4v-.08a4,4,0,0,0-4-4H233.38a4,4,0,0,0-4,4l0,.08Z"/><path class="cls-1" d="M229.35,249.33c0,1.21,1.8,2.19,4,2.19H270c2.21,0,4-1,4-2.19v0c0-1.21-1.8-2.19-4-2.19h-36.6c-2.21,0-4,1-4,2.19l0,0Z"/><path class="cls-2" d="M229.35,261.08a4,4,0,0,0,4,4h68.15a4,4,0,0,0,4-4V261a4,4,0,0,0-4-4H233.37a4,4,0,0,0-4,4v.08Z"/><path class="cls-3" d="M184.51,180.17v20.54h32.54V180.17a3.22,3.22,0,0,0-3.33-3.1H210a2.06,2.06,0,0,0-1.64.79L202.93,185l-1.33-2.59,2.11-4.14a.86.86,0,0,0-.84-1.23h-4.24a.87.87,0,0,0-.84,1.23l2.11,4.14L198.6,185l-5.28-7.11a2.06,2.06,0,0,0-1.65-.8h-3.88A3.2,3.2,0,0,0,184.51,180.17Z"/><path class="cls-3" d="M200.78,174.78a10,10,0,1,0-10-10A10,10,0,0,0,200.78,174.78Z"/><path class="cls-3" d="M184.51,268.6h32.54V248.06a3.22,3.22,0,0,0-3.33-3.1H210a2.06,2.06,0,0,0-1.64.79l-5.46,7.16-1.33-2.59,2.11-4.14a.86.86,0,0,0-.84-1.23h-4.24a.87.87,0,0,0-.84,1.23l2.11,4.14-1.31,2.56-5.28-7.11a2.06,2.06,0,0,0-1.65-.8h-3.88a3.22,3.22,0,0,0-3.33,3.1l0,20.54Z"/><path class="cls-3" d="M190.82,232.71a10,10,0,1,0,10-10A10,10,0,0,0,190.82,232.71Z"/><text class="cls-4" transform="translate(202.82 417.06) scale(1.08 1)">PPE</text></svg>