<svg id="Calque_1" data-name="Calque 1" xmlns="http://www.w3.org/2000/svg" viewBox="0 0 500 500"><defs><style>.cls-1{fill:#579dd9;}.cls-2{fill:#1a1a1a;}.cls-3{font-size:55.14px;font-family:Lato-Bold, Lato;font-weight:700;}.cls-3,.cls-6{fill:#1f3d59;}.cls-4{letter-spacing:-0.03em;}.cls-5{letter-spacing:-0.07em;}</style></defs><title>icones</title><path class="cls-1" d="M258.62,249.51l-14.4-5a1.17,1.17,0,0,0,0-.15c.09-1.8.11-3.58,0-5.34l2.38-.78,12.12-3.93A3.17,3.17,0,0,0,261,230.7l-1.94-10.16a3.13,3.13,0,0,0-3.42-2.55l-3,.19-12.55.8c-.58-1.58-1.26-3.15-2-4.66L250,204.8a3.14,3.14,0,0,0,.79-4.16l-1.27-2.07-4.18-6.76a2.91,2.91,0,0,0-2.92-1.47,3.44,3.44,0,0,0-1.15.28l-14.91,6.82c-1-1-1.95-2-3-2.87L231.18,181a3.15,3.15,0,0,0-.77-4.2l-8.26-6.26a2.91,2.91,0,0,0-3.42-.18,3.22,3.22,0,0,0-.82.58l-7.06,7.24-4.93,5a.32.32,0,0,0-.12.15,8.34,8.34,0,0,0-.92-.38l1.59-17A3.1,3.1,0,0,0,204,162.5l-5.62-1.25-3.81-.84-.69-.15a2.71,2.71,0,0,0-2.09.24,3.38,3.38,0,0,0-1.6,1.91l-3.46,9.68-2.28,6.4c-1-.05-2.05-.1-3.06-.09a4.4,4.4,0,0,1-.14-.58l-2.68-7.56-.1-.3-3-8.33a3.45,3.45,0,0,0-1.18-1.57,2.88,2.88,0,0,0-2.53-.6l-10.1,2.23a3.16,3.16,0,0,0-2.45,3.48l1.51,16.6c-1.1.37-2.17.79-3.27,1.22a2.63,2.63,0,0,0-.22-.29l-11.21-13a3.11,3.11,0,0,0-4.19-.66l-8.63,5.73a3.1,3.1,0,0,0-1,4.1L139.7,194c-1,.87-2,1.8-3,2.73,0,0-.08,0-.14,0l-15.1-8.23a3.09,3.09,0,0,0-4.14.88l-6,8.4a3.12,3.12,0,0,0,.5,4.24l7.36,6.83,5.24,4.87s.07.06.09.07c-.6,1.26-1.19,2.53-1.7,3.88-.06,0-.11-.05-.15-.05l-17.09-1.75a3.21,3.21,0,0,0-3.52,2.44l-2.32,10.11a3.18,3.18,0,0,0,2.13,3.72L118,237.93l.19,0c-.09,1.23-.11,2.43-.12,3.63a.64.64,0,0,0-.23.08l-16.35,5.26a3.1,3.1,0,0,0-2.23,3.63l1.93,10.19a3.11,3.11,0,0,0,3.42,2.54l17-1.08c.42,1.28.93,2.54,1.44,3.74L121.69,267l-11.54,9.43a3.14,3.14,0,0,0-.75,4.19l5.49,8.76a3.14,3.14,0,0,0,4.11,1.13l15.16-7c.82,1,1.75,1.93,2.69,2.87l-3,5.65-4.65,8.62a3.11,3.11,0,0,0,.91,4.14l8.42,6a3.21,3.21,0,0,0,4.25-.5l11-12c1.35.67,2.68,1.27,4.07,1.81l-1.5,16.23a3.14,3.14,0,0,0,2.46,3.49l8.63,1.9,1.47.31a3.15,3.15,0,0,0,3.69-2.14l3.61-10.17,1.85-5.22c.79.06,1.59.1,2.36.1l3,9.31,1,3.1.84,2.66a3.13,3.13,0,0,0,3.61,2.25L199,320a2.63,2.63,0,0,0,1.52-.78,3.37,3.37,0,0,0,1-2.63l-.38-6.48-.35-5.67-.18-3c.39-.12.81-.29,1.2-.43,1.07-.36,2.11-.73,3.21-1.17l.34.41,9.6,11.39a3.21,3.21,0,0,0,4.24.69l8.66-5.64a3.13,3.13,0,0,0,1.07-4.12l-6.52-13.4c1.28-1.1,2.54-2.3,3.74-3.51L239.53,293a3.16,3.16,0,0,0,4.2-.89l6-8.43a3.12,3.12,0,0,0-.48-4.19L238,269c.72-1.46,1.42-3,2-4.52l15.19,1.29a3.16,3.16,0,0,0,3.47-2.47l2.14-10.15A3.13,3.13,0,0,0,258.62,249.51Zm-31.36-19.44a47.65,47.65,0,0,1-10.07,42.4L204.78,261.1l-1.51-1.37c.69-.86,1.2-1.88,1.82-2.81a27.3,27.3,0,0,0,4.14-21.13ZM224,221l-16.63,5.24-1.65.53a28,28,0,0,0-4.83-6,30.3,30.3,0,0,0-6.47-4.59c-.79-.41-1.56-.87-2.4-1.22l3.73-17,.34-1.6A48.35,48.35,0,0,1,224,221Zm-45.45,32.6a12.38,12.38,0,0,1,5.32-24.19,12.57,12.57,0,0,1,5.49,2.83,12.82,12.82,0,0,1,3.5,5.16,12.23,12.23,0,0,1,.45,6.78,13,13,0,0,1-5.39,7.75A12.39,12.39,0,0,1,178.52,253.59ZM171.81,195a47.09,47.09,0,0,1,14.84-.65l-4.12,18.6a28.15,28.15,0,0,0-12.2,2.21A29.15,29.15,0,0,0,165,218L150.79,205A47.82,47.82,0,0,1,171.81,195Zm-36.38,59.23a47.36,47.36,0,0,1-.6-22.93A48,48,0,0,1,144,211.94l14,12.76a28.3,28.3,0,0,0-4.54,23.8l-7,2.22Zm6.81,14.32a46.63,46.63,0,0,1-3.24-5.3l8.38-2.65,10.05-3.18a28.82,28.82,0,0,0,9.17,8.7A29.41,29.41,0,0,0,170.4,268l-4.09,18.62a46.36,46.36,0,0,1-11-5.51A47.69,47.69,0,0,1,142.23,268.54Zm60.91,15a47.29,47.29,0,0,1-17.94,5.25c-.25,0-.5,0-.75,0a50.89,50.89,0,0,1-7.24-.07c-.5,0-1,0-1.46-.1l4.1-18.61a26.24,26.24,0,0,0,5.31-.32c.48-.07,1-.12,1.45-.21a31.17,31.17,0,0,0,4-1.11,27.33,27.33,0,0,0,5.33-2.38l8,7.31,6.28,5.75A48.72,48.72,0,0,1,203.14,283.58Z"/><path class="cls-2" d="M395.49,341v4.1H389v17.8H384v-17.8h-6.58V341Zm15.22,11.67q.22.52.42,1c.14.35.26.69.39,1a15.17,15.17,0,0,1,.81-2.07l6-10.9a2.09,2.09,0,0,1,.7-.65A2.44,2.44,0,0,1,420,341h4.14v21.9h-4.29v-13l.33-2.92-6.57,12.19a1.76,1.76,0,0,1-1.7,1.07h-.7a1.75,1.75,0,0,1-1.7-1.07l-6.61-12.19.37,2.92v13h-4.36V341h4.17a2.59,2.59,0,0,1,.94.13,2,2,0,0,1,.72.65Z"/><text class="cls-3" transform="translate(110.27 413.86)"><tspan class="cls-4">D</tspan><tspan class="cls-5" x="39.81" y="0">AT</tspan><tspan x="103.67" y="0">ABASE</tspan></text><path class="cls-6" d="M276.85,130.87c-54.46,0-98.62-12.63-98.62-28.18s44.15-28.17,98.62-28.17,98.62,12.63,98.62,28.17S331.31,130.87,276.85,130.87Z"/><path class="cls-6" d="M375.47,125.25V159c0,15.54-44.15,28.17-98.62,28.17-8.43,0-16.57-.34-24.38-.9a15.76,15.76,0,0,0-7-2.65A15.62,15.62,0,0,0,239,172L231.39,166a15.58,15.58,0,0,0-9.91-3.52,16.4,16.4,0,0,0-4,.5,15.52,15.52,0,0,0-9.85-8l-9.34-2.79a15.28,15.28,0,0,0-4.74-.75,15.92,15.92,0,0,0-8.82,2.7c-.36.23-.71.48-1,.74a16.53,16.53,0,0,0-2.15-1.65,16.23,16.23,0,0,0-3.33-1.51V125.25C206.4,144.18,268,145,276.85,145S347.3,144.18,375.47,125.25Z"/><path class="cls-6" d="M276.85,243.56c-1.44,0-2.84,0-4.27-.06a15.19,15.19,0,0,0,.77-7.95l-1.5-9.7a15.86,15.86,0,0,0-8.17-11.8,15.71,15.71,0,0,0-.8-13.12c6.8.31,11.88.37,14,.37,8.86,0,70.45-.77,98.62-19.7v33.79C375.47,230.93,331.31,243.56,276.85,243.56Z"/><path class="cls-6" d="M260.45,283.41a15.7,15.7,0,0,0,9-10.75l2.45-9.27a15.37,15.37,0,0,0,.51-5.79c2,0,3.57.05,4.48.05,8.86,0,70.45-.77,98.62-19.7v33.79c0,15.55-44.15,28.17-98.62,28.17-7.31,0-14.41-.24-21.26-.68l1.95-2.65A15.62,15.62,0,0,0,260.45,283.41Z"/></svg>