<svg id="Calque_1" data-name="Calque 1" xmlns="http://www.w3.org/2000/svg" viewBox="0 0 500 500"><defs><style>.cls-1,.cls-2{fill:#1f3d59;}.cls-2{font-size:49.01px;font-family:Lato-Regular, Lato;}.cls-3{letter-spacing:0.06em;}.cls-4{fill:none;stroke:#1f3d59;stroke-miterlimit:10;stroke-width:6px;}.cls-5{fill:#006935;}</style></defs><title>Plan de travail 1 copie 4</title><path class="cls-1" d="M398.16,344v4.1h-6.54v17.8h-4.91V348.1h-6.58V344Zm15.22,11.67.42,1c.13.31.26.69.39,1a15.24,15.24,0,0,1,.81-2.07l6-10.9a2.13,2.13,0,0,1,.7-.65,2.47,2.47,0,0,1,.92-.13h4.14v21.9H422.5v-13l.33-2.92-6.57,12.19a1.76,1.76,0,0,1-1.7,1.07h-.7a1.75,1.75,0,0,1-1.7-1.07l-6.61-12.19.37,2.92v13h-4.36V344h4.17a2.62,2.62,0,0,1,.94.13,2.06,2.06,0,0,1,.72.65Z"/><path class="cls-1" d="M287.14,80.7H161.51V313.26l166.83-2a14,14,0,0,0,13.85-13.9l1.48-160.09Zm2.3,13.19,40.89,40.89H289.44ZM336,305.49H169.28V88.42H281.72V142.7H336Z"/><path class="cls-1" d="M301,162.07H239a3.89,3.89,0,1,0,0,7.77h62a3.89,3.89,0,1,0,0-7.77Z"/><path class="cls-1" d="M301,204.7H239a3.89,3.89,0,1,0,0,7.77h62a3.89,3.89,0,1,0,0-7.77Z"/><path class="cls-1" d="M271,247.33H238.3c-1.13,0-2,1.74-2,3.88s.92,3.88,2,3.88H271c1.13,0,2-1.74,2-3.88S272.12,247.33,271,247.33Z"/><text class="cls-2" transform="translate(48 417.06) scale(0.87 1)">COMPLIANCE<tspan class="cls-3" x="320.36" y="0">	</tspan><tspan x="332.88" y="0">SHEET</tspan></text><path class="cls-4" d="M378.74,308H362c-2.36,0-4.28-1.53-4.28-3.42V148.23a2.73,2.73,0,0,1,.08-.66l8.36-33.81a4.57,4.57,0,0,1,8.39,0l8.36,33.81a2.74,2.74,0,0,1,.08.66V304.58C383,306.47,381.1,308,378.74,308Z"/><polygon class="cls-5" points="206.69 159.55 198.24 168.16 193.91 163.81 191.58 166.13 198.41 172.94 209.38 162.31 206.69 159.55"/><path class="cls-5" d="M200.14,148.49A17.46,17.46,0,1,0,217.6,166,17.46,17.46,0,0,0,200.14,148.49Zm0,31.76a14.3,14.3,0,1,1,14.3-14.3A14.3,14.3,0,0,1,200.14,180.26Z"/><polygon class="cls-5" points="206.69 202.18 198.24 210.78 193.91 206.44 191.58 208.76 198.41 215.57 209.38 204.94 206.69 202.18"/><path class="cls-5" d="M200.14,191.12a17.46,17.46,0,1,0,17.46,17.46A17.46,17.46,0,0,0,200.14,191.12Zm0,31.76a14.3,14.3,0,1,1,14.3-14.3A14.3,14.3,0,0,1,200.14,222.89Z"/><polygon class="cls-5" points="206.69 244.3 198.24 252.91 193.91 248.56 191.58 250.88 198.41 257.69 209.38 247.06 206.69 244.3"/><path class="cls-5" d="M200.14,233.25a17.46,17.46,0,1,0,17.46,17.46A17.46,17.46,0,0,0,200.14,233.25Zm0,31.76a14.3,14.3,0,1,1,14.3-14.3A14.3,14.3,0,0,1,200.14,265Z"/></svg>