<svg id="Calque_1" data-name="Calque 1" xmlns="http://www.w3.org/2000/svg" viewBox="0 0 500 500"><defs><style>.cls-1,.cls-3{fill:#fff;}.cls-1{fill-rule:evenodd;}.cls-2{fill:#579dd9;}</style></defs><title>icones2</title><path class="cls-1" d="M134.3,284.26c-31.25,0-56.58-25-56.58-44.61S86.6,212.1,100.35,204a42.38,42.38,0,0,1-1.06-9.41c0-29.25,30.09-53,67.2-53a84.24,84.24,0,0,1,18.25,2,42.25,42.25,0,0,1-.21-4.25c0-21.2,15.81-39.49,38.63-48v89h-36L250,258.5l62.89-78.18h-36V90.17c24.66,7.84,42.07,26.89,42.07,49.14,0,1.2-.06,2.38-.15,3.56a84.75,84.75,0,0,1,14.76-1.28c37.11,0,67.19,23.71,67.19,53a42.47,42.47,0,0,1-1.06,9.41c13.75,8.14,22.64,16.07,22.64,35.69s-25.34,44.61-56.59,44.61Z"/><path class="cls-2" d="M410.45,267.41l-10.29-2.74a.82.82,0,0,0,0-.1c0-1.26-.1-2.5-.26-3.73l1.62-.67,8.25-3.36a2.21,2.21,0,0,0,1.39-2.65l-1.87-7a2.19,2.19,0,0,0-2.52-1.6l-2.07.29-8.71,1.2c-.49-1.07-1-2.13-1.61-3.15l7.77-7.24a2.2,2.2,0,0,0,.34-2.94l-1-1.38-3.26-4.5a2,2,0,0,0-2.11-.87,2.4,2.4,0,0,0-.79.25l-10,5.51c-.71-.65-1.46-1.27-2.22-1.85l4.76-9.84a2.2,2.2,0,0,0-.75-2.89L381,214.24a2,2,0,0,0-2.39,0,2.25,2.25,0,0,0-.54.45l-4.55,5.41-3.18,3.77a.23.23,0,0,0-.08.11,5.83,5.83,0,0,0-.66-.22l.24-12a2.17,2.17,0,0,0-1.88-2.3l-4-.59-2.7-.39-.49-.07a1.89,1.89,0,0,0-1.44.27,2.36,2.36,0,0,0-1,1.41l-1.92,6.93-1.26,4.58c-.71,0-1.43,0-2.14.1a3.08,3.08,0,0,1-.13-.39l-2.25-5.14-.09-.21L348,210.39a2.41,2.41,0,0,0-.91-1,2,2,0,0,0-1.79-.29l-6.93,2.07a2.21,2.21,0,0,0-1.53,2.55l1.9,11.5c-.75.31-1.48.66-2.22,1a1.84,1.84,0,0,0-.17-.19l-8.48-8.52a2.17,2.17,0,0,0-3-.25l-5.72,4.43a2.17,2.17,0,0,0-.52,2.91l6,10.16c-.67.66-1.31,1.36-1.92,2.05,0,0-.06,0-.1,0l-10.95-5a2.16,2.16,0,0,0-2.84.83l-3.78,6.17a2.18,2.18,0,0,0,.57,2.93l5.48,4.39,3.9,3.13s.05,0,.07,0c-.35.91-.7,1.83-1,2.79,0,0-.08,0-.11,0l-12-.35a2.24,2.24,0,0,0-2.33,1.88l-1.1,7.17a2.22,2.22,0,0,0,1.67,2.48l11.54,3.28H312c0,.86,0,1.7.1,2.53a.44.44,0,0,0-.16.07l-11.13,4.5a2.16,2.16,0,0,0-1.37,2.64l1.87,7a2.17,2.17,0,0,0,2.51,1.59l11.77-1.62c.35.87.78,1.72,1.2,2.54l-.88.83-7.56,7.16a2.19,2.19,0,0,0-.31,3l4.27,5.83a2.19,2.19,0,0,0,2.93.58l10.21-5.65c.62.64,1.32,1.25,2,1.86l-1.83,4.09-2.8,6.24a2.17,2.17,0,0,0,.84,2.84l6.18,3.77a2.24,2.24,0,0,0,2.94-.57l7.05-9c1,.39,1.93.75,2.93,1.05l-.22,11.39a2.2,2.2,0,0,0,1.89,2.31l6.12.88,1,.14a2.2,2.2,0,0,0,2.47-1.68l2-7.28,1-3.73c.55,0,1.11,0,1.65-.05l2.56,6.33.85,2.11.72,1.81a2.19,2.19,0,0,0,2.63,1.39l7-1.84a1.84,1.84,0,0,0,1-.62,2.36,2.36,0,0,0,.59-1.89l-.59-4.5-.53-3.94-.28-2c.27-.1.55-.24.81-.36.73-.3,1.44-.62,2.18-1l.26.27,7.27,7.45a2.24,2.24,0,0,0,3,.26l5.75-4.37a2.19,2.19,0,0,0,.54-2.93l-5.23-9c.84-.83,1.65-1.73,2.43-2.64l9.67,4.39a2.21,2.21,0,0,0,2.88-.83L406,291.7a2.18,2.18,0,0,0-.55-2.9L397,282.08c.43-1.05.84-2.13,1.17-3.25l10.66.12a2.21,2.21,0,0,0,2.29-1.9l1-7.18A2.19,2.19,0,0,0,410.45,267.41Zm-22.86-12a33.31,33.31,0,0,1-4.85,30.07l-9.24-7.29-1.12-.88c.44-.64.74-1.37,1.12-2a19.08,19.08,0,0,0,1.8-14.94Zm-2.76-6.16-11.33,4.5-1.12.45a19.6,19.6,0,0,0-3.67-3.91,21.18,21.18,0,0,0-4.74-2.87c-.57-.25-1.13-.52-1.74-.73l1.74-12,.16-1.13a33.8,33.8,0,0,1,20.71,15.7Zm-30,25a8.66,8.66,0,0,1,2.48-17.14,8.79,8.79,0,0,1,4,1.7,9,9,0,0,1,2.7,3.42,8.55,8.55,0,0,1,.66,4.71,9.08,9.08,0,0,1-3.36,5.68A8.66,8.66,0,0,1,354.81,274.35Zm-7.68-40.52a32.92,32.92,0,0,1,10.31-1.21l-1.92,13.18a19.68,19.68,0,0,0-8.39,2.16,20.38,20.38,0,0,0-3.58,2.25L333,241.92A33.43,33.43,0,0,1,347.14,233.83ZM324.8,277a33.11,33.11,0,0,1-1.59-16,33.53,33.53,0,0,1,5.44-14l10.4,8.18a19.78,19.78,0,0,0-2,16.82L332.34,274Zm5.48,9.64a32.59,32.59,0,0,1-2.53-3.53l5.7-2.28,6.85-2.73a20.15,20.15,0,0,0,6.84,5.6,20.56,20.56,0,0,0,2.75,1.12L348,298a32.4,32.4,0,0,1-8-3.28A33.34,33.34,0,0,1,330.27,286.62ZM373.5,294a33.06,33.06,0,0,1-12.24,4.57l-.52.06a35.57,35.57,0,0,1-5,.32c-.35,0-.68,0-1,0l1.91-13.19a18.34,18.34,0,0,0,3.69-.5c.33-.07.67-.13,1-.22a21.79,21.79,0,0,0,2.7-1,19.11,19.11,0,0,0,3.59-1.93l5.95,4.69,4.68,3.69A34.06,34.06,0,0,1,373.5,294Z"/><path class="cls-3" d="M185,406a1.24,1.24,0,0,1,.93.43l2.63,2.86a16.71,16.71,0,0,1-6.11,4.62,21,21,0,0,1-8.65,1.63,20.35,20.35,0,0,1-8.07-1.54,17.75,17.75,0,0,1-6.15-4.3,19.08,19.08,0,0,1-3.92-6.57,24.68,24.68,0,0,1-1.37-8.4,23.49,23.49,0,0,1,1.46-8.41,19.31,19.31,0,0,1,4.1-6.59,18.41,18.41,0,0,1,6.33-4.28,21,21,0,0,1,8.13-1.53,19.86,19.86,0,0,1,7.79,1.43,19.3,19.3,0,0,1,5.87,3.8l-2.18,3.08a2.44,2.44,0,0,1-.54.54,1.41,1.41,0,0,1-.85.23,2.28,2.28,0,0,1-1.29-.52,20.13,20.13,0,0,0-1.84-1.16,13.59,13.59,0,0,0-7-1.68,13.69,13.69,0,0,0-5.34,1,11.56,11.56,0,0,0-4.18,3,13.79,13.79,0,0,0-2.73,4.75,19.27,19.27,0,0,0-1,6.36,18.76,18.76,0,0,0,1,6.41,13.9,13.9,0,0,0,2.8,4.75,11.93,11.93,0,0,0,4.19,3,13.11,13.11,0,0,0,5.17,1,22.31,22.31,0,0,0,3-.18,12,12,0,0,0,2.47-.59,11.44,11.44,0,0,0,2.13-1,13.54,13.54,0,0,0,2-1.53A1.71,1.71,0,0,1,185,406Z"/><path class="cls-3" d="M200.94,409.57h16.91v5.54H194.32V374.39h6.62Z"/><path class="cls-3" d="M260.15,394.75a23,23,0,0,1-1.47,8.34,19.26,19.26,0,0,1-4.14,6.58,18.93,18.93,0,0,1-6.42,4.31,23,23,0,0,1-16.63,0,18.78,18.78,0,0,1-10.59-10.89,24.39,24.39,0,0,1,0-16.68,19.29,19.29,0,0,1,4.16-6.59,19,19,0,0,1,6.43-4.33,23,23,0,0,1,16.63,0,18.82,18.82,0,0,1,6.42,4.33,19.41,19.41,0,0,1,4.14,6.59A23,23,0,0,1,260.15,394.75Zm-6.76,0a19.61,19.61,0,0,0-.95-6.31,13.35,13.35,0,0,0-2.71-4.75,11.84,11.84,0,0,0-4.28-3,15.73,15.73,0,0,0-11.28,0,12,12,0,0,0-4.3,3,13.41,13.41,0,0,0-2.74,4.75,21.25,21.25,0,0,0,0,12.64,13.24,13.24,0,0,0,2.74,4.74,11.87,11.87,0,0,0,4.3,3,15.94,15.94,0,0,0,11.28,0,11.75,11.75,0,0,0,4.28-3,13.19,13.19,0,0,0,2.71-4.74A19.7,19.7,0,0,0,253.39,394.75Z"/><path class="cls-3" d="M283.45,409.77a10.6,10.6,0,0,0,4.2-.79,8.92,8.92,0,0,0,3.14-2.21,9.57,9.57,0,0,0,2-3.41,13.66,13.66,0,0,0,.68-4.43V374.39H300v24.54a18.77,18.77,0,0,1-1.15,6.64,14.83,14.83,0,0,1-8.51,8.75,19.65,19.65,0,0,1-13.83,0,14.83,14.83,0,0,1-8.51-8.75,18.76,18.76,0,0,1-1.15-6.64V374.39h6.62v24.52a13.64,13.64,0,0,0,.68,4.42,9.81,9.81,0,0,0,2,3.42,8.69,8.69,0,0,0,3.12,2.22A10.59,10.59,0,0,0,283.45,409.77Z"/><path class="cls-3" d="M345,394.75a22.48,22.48,0,0,1-1.47,8.27,18.26,18.26,0,0,1-10.56,10.6,22.45,22.45,0,0,1-8.33,1.48H309.21V374.39H324.6a22.45,22.45,0,0,1,8.33,1.48,18.26,18.26,0,0,1,10.56,10.6A22.48,22.48,0,0,1,345,394.75Zm-6.76,0a19.61,19.61,0,0,0-.95-6.31,13.06,13.06,0,0,0-2.71-4.72,11.84,11.84,0,0,0-4.28-3,14.79,14.79,0,0,0-5.66-1h-8.74v30h8.74a15,15,0,0,0,5.66-1,11.59,11.59,0,0,0,4.28-3,13.21,13.21,0,0,0,2.71-4.72A19.56,19.56,0,0,0,338.2,394.75Z"/><path class="cls-3" d="M373.39,340v4.1h-6.54v17.8h-4.91v-17.8h-6.57V340Zm15.22,11.67q.22.52.43,1c.13.35.26.69.39,1a15.19,15.19,0,0,1,.81-2.07l6-10.9a2.13,2.13,0,0,1,.7-.65,2.46,2.46,0,0,1,.92-.13H402v21.9h-4.28v-13l.33-2.92-6.57,12.19a1.76,1.76,0,0,1-1.7,1.07h-.7a1.76,1.76,0,0,1-1.7-1.07l-6.61-12.19.37,2.92v13h-4.36V340H381a2.62,2.62,0,0,1,.94.13,2.06,2.06,0,0,1,.72.65Z"/></svg>