<?xml version="1.0" encoding="utf-8"?>
<!-- Generator: Adobe Illustrator 15.1.0, SVG Export Plug-In . SVG Version: 6.00 Build 0)  -->
<!DOCTYPE svg PUBLIC "-//W3C//DTD SVG 1.1//EN" "http://www.w3.org/Graphics/SVG/1.1/DTD/svg11.dtd">
<svg version="1.1" id="Calque_1" xmlns="http://www.w3.org/2000/svg" xmlns:xlink="http://www.w3.org/1999/xlink" x="0px" y="0px"
	 width="80px" height="80px" viewBox="0 0 80 80" enable-background="new 0 0 80 80" xml:space="preserve">
<g>
	<path fill-rule="evenodd" clip-rule="evenodd" fill="#666666" d="M43.545,5.99V4.341h2.304v-4.24h-11.45v4.24h2.06V5.99
		c-8.735,0.829-16.581,4.688-22.483,10.52l-0.93-0.932l1.366-1.365l-1.575-1.576l-4.95,4.951l1.575,1.573l1.445-1.445l1.018,1.018
		c-5.577,6.484-8.968,14.9-8.968,24.122c0,20.457,16.585,37.043,37.044,37.043c20.458,0,37.043-16.586,37.043-37.043
		C77.044,23.594,62.34,7.776,43.545,5.99z M41.572,73.75v-5.521c0-0.873-0.704-1.572-1.57-1.572c-0.869,0-1.573,0.699-1.573,1.572
		v5.521C22.582,72.951,9.901,60.275,9.104,44.428h5.275c0.87,0,1.574-0.705,1.574-1.572c0-0.871-0.704-1.57-1.574-1.57H9.104
		c0.798-15.853,13.486-28.537,29.339-29.327c0,0.023-0.013,0.045-0.013,0.071v5.76c0,0.87,0.704,1.574,1.573,1.574
		c0.866,0,1.57-0.704,1.57-1.574v-5.76c0-0.026-0.011-0.047-0.013-0.071c15.854,0.79,28.539,13.474,29.338,29.327h-5.32
		c-0.867,0-1.571,0.699-1.571,1.57c0,0.867,0.704,1.572,1.571,1.572h5.32C70.099,60.275,57.423,72.951,41.572,73.75z"/>
	<path fill-rule="evenodd" clip-rule="evenodd" fill="#666666" d="M42.901,44.084c0.104-0.309,0.2-0.631,0.2-0.979
		c0-1.715-1.39-3.1-3.1-3.1c-1.711,0-3.098,1.385-3.098,3.1c0,1.709,1.387,3.096,3.098,3.096c0.166,0,0.308-0.068,0.467-0.096
		c0.029,0.031,0.041,0.07,0.073,0.096L53.365,57.33l3.452,0.91l-1.713-3.568L42.901,44.084z"/>
</g>
</svg>
