<?xml version="1.0" encoding="utf-8"?>
<!-- Generator: Adobe Illustrator 15.1.0, SVG Export Plug-In . SVG Version: 6.00 Build 0)  -->
<!DOCTYPE svg PUBLIC "-//W3C//DTD SVG 1.1//EN" "http://www.w3.org/Graphics/SVG/1.1/DTD/svg11.dtd">
<svg version="1.1" id="Calque_1" xmlns="http://www.w3.org/2000/svg" xmlns:xlink="http://www.w3.org/1999/xlink" x="0px" y="0px"
	 width="353.637px" height="353.637px" viewBox="0 0 353.637 353.637" enable-background="new 0 0 353.637 353.637"
	 xml:space="preserve">
<g>
	<path fill-rule="evenodd" clip-rule="evenodd" fill="#7C7C7C" d="M199.779,26.278v-7.303h10.203V0.189h-50.723v18.786h9.129v7.303
		c-38.684,3.671-73.441,20.759-99.582,46.586l-4.127-4.122l6.057-6.053l-6.97-6.971L41.837,77.643l6.98,6.97l6.39-6.4l4.508,4.503
		c-24.696,28.719-39.711,65.996-39.711,106.851c0,90.615,73.451,164.07,164.075,164.07c90.615,0,164.075-73.455,164.075-164.07
		C348.154,104.25,283.023,34.184,199.779,26.278z M191.039,326.407V301.95c0-3.852-3.119-6.967-6.961-6.967
		s-6.961,3.115-6.961,6.967v24.457c-70.198-3.529-126.36-59.681-129.898-129.879h23.374c3.842,0,6.961-3.119,6.961-6.962
		c0-3.85-3.119-6.964-6.961-6.964H47.219c3.538-70.213,59.738-126.39,129.955-129.894c0,0.104-0.057,0.2-0.057,0.313v25.514
		c0,3.851,3.119,6.97,6.961,6.97s6.961-3.119,6.961-6.97V53.022c0-0.114-0.047-0.209-0.057-0.313
		c70.227,3.504,126.407,59.681,129.945,129.894h-23.564c-3.842,0-6.961,3.114-6.961,6.964c0,3.843,3.119,6.962,6.961,6.962h23.564
		C317.39,266.727,261.247,322.878,191.039,326.407z"/>
	<path fill-rule="evenodd" clip-rule="evenodd" fill="#7C7C7C" d="M196.926,195.016c0.465-1.384,0.884-2.805,0.884-4.346
		c0-7.578-6.152-13.723-13.731-13.723c-7.569,0-13.712,6.145-13.712,13.723c0,7.58,6.143,13.718,13.712,13.718
		c0.742,0,1.369-0.31,2.073-0.415c0.133,0.129,0.181,0.296,0.323,0.415l56.8,49.288l15.29,4.04l-7.588-15.8L196.926,195.016z"/>
</g>
</svg>
